<?xml version="1.0" encoding="UTF-8"?>
<svg xmlns="http://www.w3.org/2000/svg" viewBox="0 0 1200 900">
  <title>Alaska</title>
  <path class="region-path" d="M 561.31 293.10 L 561.60 290.64 L 563.51 292.12 L 563.21 294.66 L 560.92 294.33 L 561.31 293.10 Z M 559.26 288.51 L 560.92 290.31 L 559.99 292.94 L 559.26 292.03 L 559.26 288.51 Z M 549.04 273.33 L 551.19 273.01 L 552.12 273.58 L 551.83 275.79 L 549.92 276.29 L 548.21 274.89 L 549.04 273.33 Z M 543.52 274.65 L 547.38 275.14 L 548.36 278.01 L 552.22 281.21 L 553.54 283.18 L 553.64 284.82 L 554.56 285.14 L 554.71 287.28 L 556.28 289.41 L 556.47 291.30 L 557.50 290.72 L 557.94 292.20 L 558.13 298.02 L 557.50 299.33 L 555.00 299.09 L 554.32 296.13 L 553.44 296.38 L 551.63 294.17 L 551.09 294.90 L 549.58 294.17 L 549.82 296.38 L 551.24 295.81 L 552.17 296.63 L 551.73 299.66 L 550.02 299.33 L 547.43 295.48 L 546.70 293.51 L 546.84 291.46 L 544.79 291.62 L 544.79 290.07 L 546.35 289.90 L 547.92 288.51 L 547.23 286.05 L 545.38 285.55 L 545.08 281.62 L 544.40 279.65 L 543.13 281.04 L 542.64 278.83 L 543.96 277.76 L 542.88 275.22 L 543.52 274.65 Z M 542.25 286.54 L 543.96 287.52 L 545.13 286.29 L 546.31 286.87 L 545.08 289.08 L 543.18 288.43 L 542.25 286.54 Z M 540.73 265.95 L 539.46 264.48 L 540.93 263.49 L 545.77 264.89 L 547.92 264.80 L 549.43 267.59 L 552.22 269.89 L 551.93 271.61 L 550.46 272.51 L 548.46 272.10 L 547.04 273.17 L 545.08 272.51 L 542.93 273.17 L 542.49 269.64 L 542.69 267.35 L 541.08 267.26 L 540.73 265.95 Z M 538.88 272.68 L 537.66 271.53 L 536.34 269.07 L 536.19 267.18 L 537.26 266.28 L 538.39 267.18 L 538.63 265.62 L 542.15 268.33 L 542.49 270.96 L 541.27 271.28 L 540.49 274.24 L 541.37 275.06 L 540.29 278.50 L 538.93 277.76 L 538.73 279.90 L 537.85 278.83 L 537.31 274.65 L 538.88 272.68 Z M 534.23 275.63 L 533.94 277.35 L 532.72 276.37 L 529.40 269.73 L 527.30 267.76 L 528.03 266.20 L 527.20 262.43 L 524.85 259.39 L 527.25 256.44 L 528.32 257.67 L 530.42 258.65 L 532.33 258.82 L 532.38 261.20 L 534.23 268.99 L 534.23 275.63 Z M 533.55 246.60 L 536.58 247.74 L 538.34 247.58 L 538.24 248.73 L 540.78 252.83 L 539.02 252.17 L 538.58 253.57 L 540.49 255.70 L 541.08 259.47 L 539.17 260.46 L 538.54 261.77 L 535.46 264.48 L 534.53 264.39 L 534.14 261.52 L 534.77 259.80 L 534.48 257.26 L 533.40 254.14 L 533.60 252.50 L 532.92 248.48 L 531.74 246.76 L 531.40 243.81 L 533.55 246.60 Z M 523.34 259.97 L 524.61 259.97 L 525.93 262.67 L 525.34 264.56 L 523.34 264.97 L 523.63 262.02 L 523.34 259.97 Z M 519.57 246.84 L 522.26 246.92 L 524.02 245.61 L 526.56 247.42 L 525.19 249.38 L 525.68 250.12 L 526.95 247.91 L 530.03 248.65 L 531.74 250.29 L 530.76 253.24 L 531.55 253.49 L 532.57 257.42 L 530.23 258.00 L 525.88 254.80 L 526.02 258.08 L 524.66 259.39 L 523.04 258.82 L 522.07 256.77 L 520.21 255.37 L 518.79 252.50 L 516.98 251.19 L 517.08 248.81 L 518.30 247.99 L 518.69 245.94 L 519.57 246.84 Z M 423.20 216.99 L 419.44 220.76 L 419.15 222.24 L 416.12 223.22 L 416.75 220.92 L 420.02 218.55 L 422.08 215.92 L 423.20 216.99 Z M 418.90 211.33 L 418.41 214.45 L 417.14 217.64 L 415.38 216.58 L 416.85 212.89 L 418.90 211.33 Z M 416.90 66.57 L 417.83 67.22 L 422.47 67.88 L 424.91 67.47 L 428.28 67.47 L 431.95 68.04 L 434.10 67.72 L 436.20 68.95 L 440.01 70.34 L 445.14 70.67 L 446.56 69.85 L 449.98 69.36 L 451.45 68.29 L 455.16 68.13 L 455.11 68.86 L 457.31 68.45 L 461.86 69.60 L 464.94 71.49 L 467.82 72.39 L 468.46 73.21 L 471.09 73.38 L 473.59 74.77 L 474.08 75.67 L 475.59 74.93 L 477.45 75.51 L 477.45 215.43 L 481.60 216.66 L 482.14 215.35 L 486.49 217.23 L 489.08 214.86 L 494.50 214.61 L 493.53 218.63 L 494.89 220.02 L 497.97 221.33 L 498.66 223.47 L 507.75 231.34 L 509.16 236.34 L 510.78 234.95 L 514.69 232.57 L 516.89 232.49 L 517.91 230.68 L 517.81 227.98 L 519.38 227.98 L 519.77 225.60 L 522.55 225.03 L 526.71 222.98 L 530.76 226.50 L 530.37 228.63 L 531.35 230.77 L 533.65 231.26 L 536.53 234.46 L 536.34 235.36 L 537.66 237.08 L 541.32 239.05 L 547.28 247.66 L 548.16 249.96 L 550.02 252.26 L 552.76 257.34 L 555.49 261.69 L 554.47 263.49 L 557.30 264.15 L 556.62 266.77 L 558.91 267.84 L 559.21 270.87 L 561.50 270.71 L 565.90 273.83 L 568.64 274.40 L 570.06 275.88 L 571.42 276.29 L 571.82 277.76 L 574.70 278.17 L 575.58 279.98 L 574.26 283.34 L 574.45 286.13 L 575.73 290.72 L 574.75 291.87 L 572.60 296.05 L 569.47 299.09 L 568.59 297.53 L 567.42 298.02 L 566.59 294.90 L 566.83 293.59 L 565.85 292.03 L 567.91 290.39 L 567.32 289.82 L 565.27 291.87 L 564.14 290.56 L 562.87 291.30 L 559.16 288.02 L 560.43 284.41 L 558.08 285.64 L 557.99 287.44 L 556.13 286.05 L 555.74 284.32 L 557.01 282.44 L 556.62 280.55 L 554.86 282.11 L 553.10 278.75 L 552.02 279.40 L 551.34 276.61 L 553.05 274.81 L 554.71 274.81 L 554.22 272.60 L 555.10 269.73 L 553.73 269.81 L 550.90 267.35 L 548.90 264.39 L 544.20 262.26 L 544.30 256.27 L 542.79 255.54 L 543.13 253.08 L 541.57 252.42 L 539.27 249.14 L 538.63 247.42 L 534.67 246.84 L 530.33 242.41 L 528.47 232.08 L 527.59 234.46 L 527.98 236.59 L 529.74 240.69 L 529.30 241.35 L 530.47 244.71 L 530.23 246.92 L 528.52 246.43 L 527.15 243.97 L 525.34 243.56 L 522.80 244.22 L 522.85 240.69 L 521.28 237.74 L 519.87 238.64 L 514.25 235.52 L 513.76 236.43 L 516.84 237.41 L 519.23 239.87 L 520.16 239.95 L 520.45 241.92 L 521.67 244.22 L 518.60 245.53 L 516.79 244.71 L 516.74 246.76 L 514.39 245.20 L 513.61 244.05 L 512.15 244.05 L 508.09 241.10 L 505.11 238.48 L 504.81 236.92 L 503.15 234.62 L 498.56 232.98 L 496.02 231.26 L 491.57 229.29 L 488.64 227.40 L 488.88 225.35 L 489.71 226.01 L 490.69 224.70 L 489.71 221.74 L 490.94 220.10 L 490.35 219.37 L 488.15 222.48 L 483.56 224.53 L 478.08 223.80 L 473.49 221.91 L 473.29 220.43 L 471.14 220.76 L 468.85 219.69 L 463.71 218.71 L 460.73 218.63 L 454.04 219.45 L 451.64 220.02 L 448.61 217.89 L 444.85 216.91 L 443.68 215.59 L 443.24 213.38 L 440.65 213.54 L 439.77 215.51 L 435.17 212.89 L 434.44 211.74 L 429.70 213.87 L 427.40 216.41 L 426.43 214.04 L 427.40 212.72 L 428.77 213.05 L 433.27 211.33 L 432.68 210.02 L 430.58 210.67 L 429.75 208.95 L 427.80 208.70 L 425.84 204.36 L 425.11 205.42 L 422.37 206.00 L 421.49 205.42 L 420.56 206.82 L 417.14 206.33 L 416.99 207.88 L 414.70 208.29 L 413.62 207.72 L 414.40 204.93 L 413.43 205.01 L 411.86 207.97 L 414.01 208.95 L 414.21 211.08 L 415.53 213.38 L 414.75 215.84 L 413.04 215.02 L 412.55 216.25 L 414.21 216.74 L 415.14 220.02 L 412.74 220.68 L 411.42 220.02 L 409.32 220.92 L 408.25 220.19 L 405.46 220.27 L 405.56 219.04 L 404.24 219.86 L 403.51 221.42 L 402.33 220.02 L 400.87 221.99 L 401.50 222.89 L 399.45 224.04 L 397.59 224.21 L 396.86 225.76 L 394.86 227.16 L 393.49 226.67 L 391.97 228.31 L 390.75 228.22 L 388.21 231.59 L 385.47 231.83 L 384.59 230.77 L 382.93 232.57 L 379.51 231.18 L 380.29 228.63 L 382.54 227.73 L 384.01 227.90 L 384.45 226.91 L 387.09 224.94 L 387.18 223.30 L 383.71 225.52 L 380.83 224.21 L 380.49 223.30 L 381.95 219.53 L 384.45 216.82 L 384.84 214.61 L 385.57 214.20 L 385.86 211.82 L 384.59 209.20 L 387.67 208.21 L 393.54 204.44 L 394.95 205.92 L 396.76 206.33 L 399.45 204.77 L 396.47 202.72 L 395.30 201.16 L 392.95 201.32 L 391.29 200.58 L 390.80 201.24 L 388.01 202.31 L 386.74 204.36 L 383.96 204.85 L 381.08 207.23 L 380.78 208.79 L 378.58 209.61 L 378.09 211.33 L 376.53 212.39 L 375.80 215.43 L 372.77 217.40 L 374.23 218.96 L 373.01 221.25 L 370.18 221.66 L 369.93 224.62 L 367.29 225.68 L 366.46 224.45 L 365.14 226.75 L 363.58 226.83 L 363.87 228.47 L 360.40 229.45 L 359.72 233.97 L 363.68 234.21 L 366.81 235.44 L 367.68 236.92 L 366.41 239.30 L 364.31 240.77 L 362.36 240.86 L 362.16 242.17 L 360.89 242.66 L 361.48 244.30 L 360.16 246.76 L 357.32 249.06 L 355.71 249.06 L 354.15 249.88 L 352.63 249.71 L 351.46 250.62 L 351.80 251.85 L 349.60 252.50 L 349.16 254.31 L 347.65 253.16 L 345.99 256.68 L 343.20 256.44 L 343.40 258.32 L 341.73 257.83 L 340.56 258.65 L 340.56 261.20 L 338.70 265.13 L 335.72 265.62 L 333.28 267.43 L 332.89 268.41 L 331.33 267.02 L 328.69 270.79 L 327.95 269.73 L 326.49 270.05 L 326.15 272.19 L 324.63 273.01 L 322.82 272.68 L 321.40 274.81 L 323.90 275.47 L 321.21 280.22 L 313.49 281.78 L 311.34 285.96 L 310.80 285.06 L 311.09 282.44 L 309.58 282.03 L 307.67 283.01 L 307.38 284.08 L 304.40 285.80 L 303.13 287.77 L 302.74 286.37 L 301.95 288.02 L 300.19 286.95 L 296.92 289.49 L 294.48 289.41 L 294.82 287.44 L 293.74 285.55 L 292.77 287.11 L 292.86 288.75 L 289.59 293.76 L 288.47 292.53 L 288.12 294.41 L 285.88 294.08 L 285.53 291.13 L 284.17 290.48 L 283.68 291.54 L 284.90 292.85 L 284.31 294.90 L 282.50 295.97 L 281.14 293.67 L 279.47 293.51 L 279.18 294.41 L 280.84 295.72 L 277.81 297.86 L 279.86 298.43 L 279.91 299.42 L 278.20 298.68 L 275.91 300.65 L 271.46 300.56 L 269.26 301.88 L 269.06 302.86 L 266.52 304.01 L 264.67 303.60 L 264.03 300.81 L 265.89 299.91 L 267.31 296.55 L 269.16 296.46 L 273.17 294.25 L 276.40 294.17 L 277.62 296.30 L 278.55 294.74 L 278.35 292.94 L 280.21 292.12 L 282.21 292.12 L 284.90 288.18 L 287.88 284.65 L 291.79 281.54 L 296.38 280.14 L 298.29 280.80 L 300.15 279.90 L 300.63 281.21 L 299.61 282.68 L 300.73 283.83 L 301.07 282.03 L 303.37 281.86 L 304.01 283.01 L 305.42 283.42 L 305.47 282.03 L 303.13 280.80 L 302.93 279.98 L 304.50 276.12 L 306.60 273.91 L 309.43 271.78 L 313.93 269.89 L 317.20 267.18 L 318.77 268.17 L 320.04 267.76 L 319.50 266.03 L 319.89 264.39 L 322.38 260.95 L 325.80 258.73 L 328.54 255.78 L 328.39 254.14 L 330.59 242.50 L 334.01 239.38 L 333.62 236.92 L 325.41 240.44 L 322.82 240.03 L 322.19 238.56 L 320.72 237.90 L 320.23 236.26 L 318.91 237.00 L 318.08 239.54 L 319.50 242.74 L 317.79 244.14 L 316.27 243.64 L 313.34 238.56 L 311.34 236.02 L 310.31 236.02 L 309.63 237.90 L 308.75 238.23 L 307.43 236.67 L 305.81 236.43 L 305.08 233.88 L 300.29 236.75 L 295.99 238.80 L 295.65 239.95 L 292.28 241.68 L 290.62 240.12 L 292.13 238.31 L 291.59 234.05 L 290.47 229.54 L 292.72 227.65 L 290.86 223.88 L 289.25 221.74 L 287.98 218.63 L 286.07 217.32 L 285.58 220.02 L 283.29 220.60 L 279.62 222.32 L 275.22 223.06 L 272.83 222.89 L 270.78 221.99 L 270.53 219.61 L 268.77 218.87 L 265.99 215.59 L 263.64 214.94 L 260.90 211.33 L 262.76 209.69 L 263.15 206.65 L 261.73 207.31 L 261.54 205.42 L 262.22 203.87 L 260.41 202.47 L 260.22 203.95 L 258.02 203.37 L 257.73 200.83 L 256.02 200.50 L 255.09 198.78 L 255.14 196.65 L 253.43 197.63 L 253.13 195.58 L 255.23 195.09 L 253.52 192.79 L 256.55 192.63 L 256.55 189.84 L 257.29 187.95 L 262.91 181.97 L 264.08 180.16 L 264.91 180.49 L 264.42 177.95 L 266.57 173.60 L 268.43 171.88 L 271.90 171.14 L 274.59 171.88 L 278.35 174.50 L 280.79 174.17 L 284.17 171.63 L 287.64 167.78 L 289.39 167.37 L 289.83 168.35 L 294.04 168.35 L 297.75 167.53 L 301.07 163.51 L 301.07 162.53 L 299.41 158.76 L 299.22 156.54 L 296.63 154.16 L 295.65 152.11 L 298.29 152.69 L 300.78 150.96 L 300.93 149.32 L 297.70 146.29 L 295.31 148.67 L 293.06 148.26 L 290.96 149.57 L 288.56 149.90 L 287.98 150.80 L 285.24 152.11 L 284.41 154.33 L 283.04 155.23 L 282.41 152.60 L 280.74 152.03 L 279.57 154.08 L 278.89 153.10 L 275.81 151.62 L 269.50 151.70 L 265.01 153.34 L 263.30 153.59 L 259.63 152.60 L 252.69 151.46 L 250.88 150.55 L 250.05 149.08 L 250.69 147.03 L 248.20 145.30 L 248.69 143.42 L 250.25 142.43 L 249.76 140.06 L 247.27 140.06 L 245.22 139.40 L 241.21 138.91 L 239.11 137.68 L 235.88 136.45 L 235.59 134.89 L 240.62 132.84 L 246.98 129.39 L 251.42 127.34 L 253.96 128.49 L 256.55 128.74 L 257.14 127.10 L 255.58 126.85 L 255.43 125.46 L 261.64 123.16 L 268.62 121.44 L 272.39 121.27 L 274.44 121.85 L 273.37 124.31 L 273.76 126.03 L 272.97 127.26 L 274.29 129.23 L 276.74 128.90 L 279.82 129.23 L 283.38 128.82 L 284.41 129.56 L 286.76 129.72 L 288.81 128.98 L 291.50 129.80 L 294.09 126.52 L 295.94 126.36 L 297.21 127.01 L 297.85 125.13 L 294.28 124.23 L 290.86 124.96 L 291.20 122.50 L 288.51 119.88 L 285.58 119.06 L 284.70 116.68 L 287.00 116.11 L 289.93 118.48 L 289.39 120.37 L 290.81 121.85 L 293.89 123.57 L 294.62 121.77 L 291.11 119.39 L 292.62 115.12 L 291.40 114.38 L 287.93 115.29 L 284.36 115.04 L 283.82 114.30 L 282.02 115.04 L 274.54 113.24 L 274.39 111.35 L 272.14 107.17 L 270.34 105.61 L 267.45 104.30 L 261.59 100.69 L 258.90 99.29 L 256.21 98.96 L 252.20 96.50 L 248.29 95.11 L 248.10 94.62 L 251.03 93.88 L 252.35 91.58 L 252.45 86.99 L 260.37 87.32 L 269.94 86.25 L 272.44 85.43 L 276.40 83.14 L 280.16 79.61 L 280.94 76.08 L 282.55 73.05 L 285.88 70.50 L 287.29 68.62 L 291.40 65.58 L 292.03 66.40 L 295.45 66.65 L 300.44 65.09 L 303.57 63.45 L 311.04 58.37 L 313.88 58.12 L 314.17 58.86 L 317.06 58.28 L 319.89 58.45 L 325.46 57.79 L 330.93 55.58 L 336.36 50.98 L 338.56 50.00 L 338.95 50.82 L 347.31 52.71 L 347.99 54.02 L 345.11 55.74 L 343.79 55.82 L 343.84 58.12 L 348.04 57.38 L 348.28 56.15 L 350.19 55.00 L 350.82 55.66 L 352.24 53.03 L 356.40 55.41 L 355.71 57.22 L 358.30 57.71 L 359.82 58.78 L 362.06 57.05 L 366.02 56.97 L 368.27 56.40 L 374.04 56.97 L 376.97 57.63 L 375.55 61.15 L 380.93 62.06 L 381.32 62.96 L 386.55 64.52 L 386.60 63.78 L 390.36 62.79 L 393.98 62.88 L 394.03 63.70 L 396.13 63.78 L 398.33 62.63 L 401.94 62.47 L 404.48 62.96 L 407.95 64.19 L 409.57 63.94 L 411.86 65.67 L 413.18 65.01 L 415.33 65.50 L 416.90 66.57 Z M 370.91 249.55 L 370.86 250.21 L 367.78 249.22 L 369.98 245.37 L 371.99 245.04 L 373.35 241.51 L 374.87 244.63 L 376.14 243.56 L 378.58 245.28 L 378.58 247.66 L 375.02 247.99 L 373.45 249.06 L 370.91 249.55 Z M 361.82 256.85 L 364.36 254.88 L 362.06 254.47 L 362.02 252.75 L 363.92 251.60 L 365.29 252.42 L 365.49 254.14 L 366.27 252.99 L 366.32 250.45 L 367.98 251.60 L 368.27 249.96 L 369.74 250.94 L 371.50 250.94 L 372.86 250.04 L 375.11 251.60 L 375.11 255.95 L 377.95 255.62 L 376.09 258.49 L 372.67 257.34 L 373.94 259.23 L 372.96 260.79 L 371.20 260.05 L 371.15 263.00 L 368.47 263.82 L 367.59 265.05 L 365.93 263.90 L 364.17 267.02 L 362.80 267.35 L 361.33 268.74 L 360.79 265.38 L 358.74 267.18 L 358.64 266.12 L 356.79 265.05 L 356.64 262.02 L 354.83 260.79 L 355.86 257.26 L 359.43 255.04 L 361.62 255.21 L 361.82 256.85 Z M 356.69 270.87 L 354.83 273.91 L 354.25 273.42 L 356.69 270.87 Z M 346.87 281.04 L 348.28 281.21 L 347.79 284.32 L 345.45 283.91 L 345.06 282.85 L 346.87 281.04 Z M 308.89 290.64 L 308.36 293.84 L 305.62 296.46 L 306.94 292.44 L 307.87 292.85 L 308.89 290.64 Z M 303.27 289.49 L 304.94 289.49 L 304.89 291.13 L 303.22 292.94 L 301.76 291.71 L 300.83 292.85 L 300.29 290.07 L 300.78 289.16 L 303.27 289.49 Z M 287.78 295.15 L 287.98 296.46 L 286.95 297.28 L 286.17 295.89 L 287.78 295.15 Z M 286.36 165.56 L 285.05 167.04 L 284.61 165.73 L 286.36 165.56 Z M 282.89 302.53 L 284.80 303.11 L 284.61 304.34 L 283.09 304.25 L 282.89 302.53 Z M 258.41 305.40 L 259.05 307.13 L 257.68 307.86 L 257.19 306.06 L 258.41 305.40 Z M 256.70 307.54 L 253.96 309.18 L 253.38 308.03 L 254.55 306.55 L 256.70 307.54 Z M 251.13 214.61 L 253.18 214.04 L 253.62 215.10 L 255.43 214.86 L 257.19 215.84 L 257.53 220.10 L 256.60 221.50 L 254.31 222.32 L 253.82 223.80 L 250.44 222.16 L 248.88 222.24 L 245.51 220.10 L 244.34 220.10 L 242.38 218.87 L 241.70 216.91 L 242.67 216.41 L 246.00 216.91 L 247.56 215.35 L 249.22 215.18 L 249.96 214.12 L 251.13 214.61 Z M 251.03 309.67 L 252.50 310.82 L 249.52 313.60 L 249.57 314.10 L 253.33 312.05 L 253.38 313.19 L 251.86 314.59 L 249.42 315.49 L 249.17 316.89 L 246.54 318.36 L 244.24 318.44 L 242.72 319.84 L 239.89 321.07 L 238.37 319.76 L 241.36 318.20 L 242.28 318.44 L 244.53 317.13 L 243.99 315.66 L 245.26 314.10 L 247.17 314.83 L 247.37 313.85 L 245.31 313.52 L 244.19 312.46 L 245.17 310.65 L 248.64 309.59 L 249.37 311.64 L 251.03 309.67 Z M 229.48 322.46 L 232.90 319.59 L 233.10 318.36 L 234.42 316.97 L 236.47 316.31 L 237.54 317.05 L 237.93 319.02 L 234.12 321.15 L 232.07 324.27 L 230.41 325.33 L 229.48 322.46 Z M 220.93 326.40 L 221.32 327.88 L 219.02 327.96 L 218.78 326.97 L 220.93 326.40 Z M 217.36 261.61 L 216.14 263.00 L 215.89 261.61 L 217.36 261.61 Z M 212.72 329.35 L 213.30 330.75 L 211.64 331.73 L 211.40 330.25 L 212.72 329.35 Z M 203.14 164.33 L 210.22 166.55 L 214.33 164.66 L 216.19 164.82 L 217.85 165.89 L 218.29 167.70 L 221.86 168.68 L 222.98 169.58 L 227.62 169.99 L 230.41 170.65 L 228.89 172.86 L 226.65 172.37 L 224.25 172.78 L 223.03 173.76 L 221.90 175.98 L 220.19 173.93 L 218.19 172.53 L 216.33 172.37 L 215.45 170.81 L 210.96 168.84 L 208.86 168.76 L 205.63 170.48 L 203.19 169.58 L 202.16 167.78 L 203.14 164.33 Z M 196.98 333.95 L 197.13 335.67 L 195.42 336.00 L 195.76 334.52 L 196.98 333.95 Z M 186.33 337.55 L 187.50 338.21 L 190.82 338.13 L 190.97 338.62 L 187.01 339.36 L 186.33 337.55 Z M 180.12 335.59 L 180.07 334.11 L 181.34 333.53 L 183.15 335.01 L 182.47 336.41 L 181.39 336.32 L 181.73 337.88 L 180.02 338.05 L 176.41 339.69 L 174.35 339.19 L 174.94 338.05 L 177.14 338.21 L 180.12 335.59 Z M 160.96 341.98 L 162.58 341.74 L 162.58 343.62 L 160.52 343.38 L 157.98 345.59 L 157.01 342.64 L 158.08 342.56 L 158.23 340.34 L 159.55 340.26 L 159.55 341.90 L 160.96 341.98 Z M 154.85 340.59 L 155.83 341.33 L 155.15 343.87 L 153.78 344.61 L 153.73 343.05 L 154.85 340.59 Z M 146.20 341.00 L 147.72 341.08 L 149.09 342.88 L 147.62 345.02 L 146.20 341.00 Z M 66.04 324.92 L 64.38 325.91 L 64.28 327.47 L 50.00 328.37 L 52.35 325.91 L 52.35 324.76 L 66.04 324.92 Z" id="AK-land"/>
</svg>