<?xml version="1.0" encoding="UTF-8"?>
<svg xmlns="http://www.w3.org/2000/svg" viewBox="0 0 1200 900">
  <title>Alabama</title>
  <path class="region-path" d="M 956.08 594.35 L 971.72 594.60 L 973.29 607.47 L 975.48 626.42 L 976.51 630.60 L 977.49 632.98 L 977.10 634.46 L 978.12 635.36 L 976.61 637.25 L 976.66 639.13 L 975.88 641.68 L 976.75 646.19 L 976.12 650.12 L 977.10 654.22 L 972.70 654.31 L 953.93 654.31 L 953.64 656.27 L 955.64 659.14 L 955.30 661.61 L 955.99 662.84 L 954.67 665.05 L 953.44 665.54 L 951.20 663.08 L 950.95 659.39 L 950.27 658.98 L 949.44 661.77 L 949.14 664.48 L 946.85 663.74 L 946.16 640.86 L 948.21 612.39 L 949.49 595.99 L 948.56 594.43 L 956.08 594.35 Z" id="AL-land"/>
</svg>