<?xml version="1.0" encoding="UTF-8"?>
<svg xmlns="http://www.w3.org/2000/svg" viewBox="0 0 1200 900">
  <title>Arkansas</title>
  <path class="region-path" d="M 892.60 571.88 L 931.16 571.96 L 931.94 574.83 L 930.57 576.64 L 929.16 579.42 L 934.92 579.42 L 934.63 582.21 L 933.31 583.03 L 933.02 585.33 L 931.35 587.79 L 931.50 591.40 L 930.62 594.02 L 929.74 594.43 L 930.28 595.75 L 928.86 596.89 L 928.23 599.44 L 927.30 600.09 L 927.44 603.04 L 925.83 603.87 L 925.88 604.85 L 924.02 607.31 L 924.56 608.95 L 922.95 611.33 L 921.53 615.92 L 923.10 617.89 L 922.31 619.12 L 922.80 622.24 L 922.12 624.29 L 900.32 624.04 L 896.46 624.04 L 896.46 616.09 L 895.19 615.43 L 893.43 616.17 L 892.50 614.77 L 892.99 588.45 L 891.33 571.88 L 892.60 571.88 Z" id="AR-land"/>
</svg>