<?xml version="1.0" encoding="UTF-8"?>
<svg xmlns="http://www.w3.org/2000/svg" viewBox="0 0 1200 900">
  <title>Arizona</title>
  <path class="region-path" d="M 762.61 564.41 L 762.56 649.30 L 744.47 649.30 L 734.02 643.73 L 711.10 631.92 L 711.93 628.55 L 713.69 627.98 L 714.17 626.67 L 713.69 623.88 L 712.46 623.80 L 711.88 618.22 L 713.69 616.09 L 713.93 613.87 L 713.59 610.34 L 714.66 607.72 L 716.08 606.74 L 717.16 604.77 L 715.40 602.63 L 714.17 598.70 L 712.71 596.24 L 712.71 594.35 L 713.25 592.30 L 713.05 589.51 L 712.32 586.64 L 711.78 577.87 L 715.05 577.29 L 716.13 579.10 L 717.01 579.01 L 717.94 576.47 L 717.94 564.41 L 749.61 564.33 L 762.61 564.41 Z" id="AZ-land"/>
</svg>