<?xml version="1.0" encoding="UTF-8"?>
<svg xmlns="http://www.w3.org/2000/svg" viewBox="0 0 1200 900">
  <title>California</title>
  <path class="region-path" d="M 635.98 489.45 L 643.61 489.37 L 655.58 489.61 L 664.82 489.61 L 664.86 515.53 L 664.82 534.48 L 676.30 547.93 L 687.15 561.13 L 695.70 571.88 L 701.86 579.83 L 712.71 594.35 L 712.71 596.24 L 714.17 598.70 L 715.40 602.63 L 717.16 604.77 L 716.08 606.74 L 714.66 607.72 L 713.59 610.34 L 713.93 613.87 L 713.69 616.09 L 711.88 618.22 L 712.46 623.80 L 713.69 623.88 L 714.17 626.67 L 713.69 627.98 L 711.93 628.55 L 700.10 629.95 L 690.47 631.26 L 689.40 629.29 L 689.35 626.17 L 688.66 622.48 L 687.39 619.86 L 684.61 616.25 L 681.04 612.89 L 680.36 613.79 L 678.99 613.22 L 679.18 611.74 L 677.62 608.70 L 675.52 609.36 L 671.80 607.15 L 671.27 605.34 L 668.77 603.13 L 665.94 603.21 L 663.59 602.22 L 660.61 602.63 L 659.05 600.67 L 659.39 596.48 L 658.85 595.83 L 659.20 592.87 L 656.85 590.66 L 656.75 587.63 L 655.87 587.46 L 654.41 584.84 L 653.38 584.26 L 652.94 582.62 L 649.52 576.47 L 647.91 574.67 L 647.56 569.83 L 648.25 570.24 L 648.88 567.37 L 647.61 564.74 L 646.05 565.07 L 644.00 562.69 L 643.26 560.81 L 643.41 559.00 L 642.38 556.62 L 642.38 552.69 L 644.05 552.69 L 643.36 547.19 L 642.63 547.77 L 642.48 550.47 L 640.72 551.05 L 638.62 549.00 L 638.28 545.47 L 636.91 542.68 L 635.10 540.96 L 634.13 538.99 L 631.49 535.13 L 631.93 533.99 L 630.70 528.98 L 631.24 526.19 L 630.46 522.01 L 628.16 517.91 L 625.92 515.61 L 625.48 512.91 L 627.72 506.35 L 628.16 504.13 L 627.72 502.41 L 628.55 497.90 L 627.82 493.80 L 626.84 492.81 L 627.23 489.53 L 635.98 489.45 Z" id="CA-land"/>
</svg>