<?xml version="1.0" encoding="UTF-8"?>
<svg xmlns="http://www.w3.org/2000/svg" viewBox="0 0 1200 900">
  <title>Florida</title>
  <path class="region-path" d="M 972.70 654.31 L 977.10 654.22 L 978.32 658.57 L 990.54 659.56 L 1001.97 660.70 L 1002.41 663.90 L 1003.49 663.82 L 1003.88 660.79 L 1003.54 658.00 L 1004.37 656.85 L 1006.42 658.08 L 1008.86 658.65 L 1009.40 665.13 L 1010.52 672.43 L 1013.11 682.03 L 1017.07 692.28 L 1016.49 693.02 L 1016.68 697.78 L 1018.34 703.11 L 1020.93 713.85 L 1021.47 717.21 L 1021.42 720.66 L 1020.44 733.04 L 1019.61 733.29 L 1018.73 737.14 L 1019.03 738.37 L 1017.32 741.16 L 1016.63 740.51 L 1014.97 741.65 L 1012.14 742.31 L 1011.31 740.75 L 1011.70 738.46 L 1009.69 731.81 L 1008.13 730.58 L 1006.76 731.48 L 1005.69 727.79 L 1005.39 724.76 L 1003.54 721.40 L 1003.10 719.18 L 1003.39 715.98 L 1002.36 715.41 L 1002.61 717.30 L 1001.68 717.79 L 998.84 709.67 L 997.72 707.62 L 1000.41 701.63 L 998.65 701.96 L 997.48 703.84 L 996.30 700.89 L 997.87 692.69 L 998.16 685.88 L 997.08 684.24 L 996.74 682.03 L 995.03 681.54 L 993.03 677.93 L 991.42 676.45 L 991.32 674.24 L 990.19 673.42 L 989.27 670.96 L 985.84 667.67 L 982.86 668.41 L 983.01 670.71 L 982.03 670.30 L 978.32 673.09 L 974.36 673.74 L 974.46 672.10 L 973.53 670.14 L 968.89 665.71 L 965.56 663.82 L 962.58 663.33 L 960.09 663.66 L 954.67 665.05 L 955.99 662.84 L 955.30 661.61 L 955.64 659.14 L 953.64 656.27 L 953.93 654.31 L 972.70 654.31 Z" id="FL-land"/>
</svg>