<?xml version="1.0" encoding="UTF-8"?>
<svg xmlns="http://www.w3.org/2000/svg" viewBox="0 0 1200 900">
  <title>Georgia</title>
  <path class="region-path" d="M 994.01 594.35 L 992.10 597.55 L 991.95 599.11 L 994.93 602.31 L 995.86 602.06 L 997.23 605.34 L 997.52 607.06 L 998.94 610.18 L 1000.99 612.07 L 1002.17 614.86 L 1004.56 617.40 L 1004.46 619.12 L 1006.03 621.91 L 1008.42 624.21 L 1009.01 626.67 L 1009.11 629.86 L 1010.33 630.93 L 1011.75 634.95 L 1011.79 637.49 L 1013.85 638.80 L 1011.65 643.89 L 1011.26 646.51 L 1010.33 648.81 L 1010.23 651.19 L 1009.25 652.26 L 1008.86 658.65 L 1006.42 658.08 L 1004.37 656.85 L 1003.54 658.00 L 1003.88 660.79 L 1003.49 663.82 L 1002.41 663.90 L 1001.97 660.70 L 990.54 659.56 L 978.32 658.57 L 977.10 654.22 L 976.12 650.12 L 976.75 646.19 L 975.88 641.68 L 976.66 639.13 L 976.61 637.25 L 978.12 635.36 L 977.10 634.46 L 977.49 632.98 L 976.51 630.60 L 975.48 626.42 L 973.29 607.47 L 971.72 594.60 L 983.21 594.52 L 989.46 594.60 L 994.01 594.35 Z" id="GA-land"/>
</svg>