<?xml version="1.0" encoding="UTF-8"?>
<svg xmlns="http://www.w3.org/2000/svg" viewBox="0 0 1200 900">
  <title>Hawaii</title>
  <path class="region-path" d="M 346.87 834.74 L 344.67 833.43 L 344.32 832.12 L 344.62 828.76 L 343.05 823.02 L 344.28 821.13 L 345.16 818.51 L 344.52 816.78 L 344.72 814.98 L 347.21 817.11 L 349.99 818.67 L 351.70 820.97 L 351.70 822.93 L 354.25 826.13 L 352.68 828.76 L 349.90 829.99 L 347.94 831.96 L 346.87 834.74 Z M 338.36 803.58 L 339.39 805.63 L 340.71 804.73 L 343.59 807.10 L 343.15 809.24 L 340.22 810.30 L 339.63 809.89 L 339.49 807.27 L 337.97 806.69 L 337.39 805.22 L 338.36 803.58 Z M 334.84 800.87 L 333.96 802.43 L 331.91 802.43 L 332.55 800.71 L 334.84 800.87 Z M 326.19 793.57 L 327.17 797.10 L 326.68 799.15 L 324.78 799.48 L 323.51 795.29 L 324.63 795.21 L 326.19 793.57 Z M 312.66 785.62 L 313.68 785.78 L 314.17 787.34 L 313.88 789.55 L 312.85 790.95 L 310.02 789.22 L 310.36 786.76 L 312.66 785.62 Z" id="HI-land"/>
</svg>