<?xml version="1.0" encoding="UTF-8"?>
<svg xmlns="http://www.w3.org/2000/svg" viewBox="0 0 1200 900">
  <title>Illinois</title>
  <path class="region-path" d="M 926.81 481.90 L 943.33 482.15 L 952.12 482.15 L 951.83 485.02 L 953.20 488.38 L 954.62 493.88 L 954.57 529.23 L 953.59 531.94 L 954.71 535.13 L 954.86 537.76 L 953.74 539.89 L 953.44 541.86 L 951.83 545.06 L 950.80 545.30 L 951.05 547.19 L 950.36 547.93 L 949.83 551.46 L 950.12 552.44 L 948.95 554.57 L 949.78 557.20 L 946.11 558.59 L 945.77 560.15 L 946.60 562.12 L 945.48 563.35 L 942.20 561.05 L 941.18 561.22 L 939.81 563.84 L 940.25 564.66 L 938.83 564.50 L 936.83 560.23 L 937.56 559.25 L 936.83 556.38 L 936.83 554.08 L 933.94 550.88 L 932.97 551.21 L 931.99 549.24 L 929.35 546.21 L 929.40 543.83 L 930.91 539.97 L 930.67 538.58 L 931.55 536.77 L 930.28 535.71 L 928.32 535.05 L 927.30 536.45 L 926.61 535.54 L 926.03 530.62 L 923.05 527.42 L 920.31 523.57 L 919.19 518.98 L 919.09 515.94 L 919.87 513.81 L 920.02 511.10 L 922.51 509.46 L 922.75 507.17 L 923.93 505.69 L 924.07 503.07 L 922.61 500.93 L 923.19 498.31 L 926.66 497.57 L 929.45 495.68 L 929.74 493.39 L 930.91 492.40 L 931.26 489.53 L 931.01 487.65 L 929.01 486.17 L 928.76 484.61 L 926.81 481.90 Z" id="IL-land"/>
</svg>