<?xml version="1.0" encoding="UTF-8"?>
<svg xmlns="http://www.w3.org/2000/svg" viewBox="0 0 1200 900">
  <title>Kentucky</title>
  <path class="region-path" d="M 986.92 537.92 L 988.92 539.97 L 990.34 538.91 L 993.71 540.06 L 994.69 538.58 L 995.96 538.09 L 996.35 540.63 L 997.38 541.04 L 998.60 543.09 L 998.36 547.60 L 999.43 550.47 L 1000.85 552.69 L 1001.29 554.41 L 1003.00 556.13 L 1004.17 556.38 L 1000.75 560.40 L 997.48 562.61 L 997.48 563.76 L 996.16 564.74 L 996.06 566.05 L 994.35 566.63 L 993.76 568.27 L 988.97 570.40 L 988.83 570.65 L 981.20 570.48 L 974.56 569.99 L 972.80 570.16 L 962.92 569.58 L 951.68 569.91 L 949.73 569.25 L 949.88 571.96 L 938.78 571.80 L 937.71 571.96 L 938.20 570.07 L 939.52 570.73 L 940.25 564.66 L 939.81 563.84 L 941.18 561.22 L 942.20 561.05 L 945.48 563.35 L 946.60 562.12 L 945.77 560.15 L 946.11 558.59 L 949.78 557.20 L 948.95 554.57 L 950.12 552.44 L 950.95 551.05 L 953.20 550.88 L 953.93 549.82 L 954.71 550.88 L 955.89 550.39 L 958.14 552.60 L 958.87 551.05 L 961.12 549.57 L 961.70 551.05 L 963.71 550.47 L 963.56 548.83 L 965.51 546.94 L 965.86 548.67 L 967.86 550.06 L 968.89 549.08 L 969.72 545.30 L 971.28 544.57 L 971.87 542.68 L 973.38 541.45 L 973.29 538.50 L 975.58 539.15 L 977.24 537.76 L 978.81 537.68 L 978.07 533.58 L 978.76 532.92 L 982.18 532.92 L 983.99 536.04 L 984.13 537.35 L 986.92 537.92 Z" id="KY-land"/>
</svg>