<?xml version="1.0" encoding="UTF-8"?>
<svg xmlns="http://www.w3.org/2000/svg" viewBox="0 0 1200 900">
  <title>Massachusetts</title>
  <path class="region-path" d="M 1102.79 476.25 L 1103.67 476.49 L 1104.01 479.12 L 1103.62 481.25 L 1102.20 483.22 L 1102.16 485.51 L 1104.11 485.84 L 1105.28 488.22 L 1105.09 490.11 L 1106.07 490.60 L 1106.16 492.32 L 1108.66 493.80 L 1111.54 492.40 L 1110.90 494.45 L 1106.65 496.26 L 1105.09 496.34 L 1104.16 494.95 L 1102.69 495.36 L 1102.64 496.42 L 1100.98 497.08 L 1100.30 494.37 L 1100.05 493.88 L 1099.13 492.81 L 1098.64 489.29 L 1097.32 489.29 L 1094.92 489.45 L 1094.92 489.20 L 1083.73 488.96 L 1079.87 488.79 L 1079.68 488.22 L 1081.83 478.38 L 1089.06 478.62 L 1099.42 479.12 L 1100.40 477.72 L 1102.79 476.25 Z" id="MA-land"/>
</svg>