<?xml version="1.0" encoding="UTF-8"?>
<svg xmlns="http://www.w3.org/2000/svg" viewBox="0 0 1200 900">
  <title>Maryland</title>
  <path class="region-path" d="M 1057.49 550.14 L 1057.29 550.14 L 1057.05 550.14 L 1057.49 550.14 Z M 1026.41 523.65 L 1059.35 523.65 L 1060.18 542.52 L 1065.94 542.68 L 1064.18 549.00 L 1062.82 549.24 L 1060.37 550.14 L 1058.47 550.80 L 1058.51 548.34 L 1057.78 547.35 L 1058.81 546.29 L 1057.44 543.83 L 1057.00 544.89 L 1055.14 544.65 L 1054.51 541.94 L 1055.09 541.94 L 1055.14 538.42 L 1055.73 537.02 L 1054.95 532.26 L 1055.92 529.48 L 1057.44 528.98 L 1057.68 526.11 L 1056.56 526.44 L 1056.51 527.92 L 1054.17 529.80 L 1053.48 531.53 L 1053.33 535.87 L 1052.45 537.92 L 1052.85 541.37 L 1054.02 543.75 L 1053.87 545.55 L 1054.61 547.35 L 1054.21 548.59 L 1052.16 546.21 L 1049.23 545.06 L 1048.35 542.76 L 1046.69 544.07 L 1046.05 542.27 L 1047.37 539.97 L 1048.15 537.59 L 1049.33 536.04 L 1048.20 534.56 L 1047.47 535.46 L 1046.30 534.07 L 1044.44 533.33 L 1044.44 531.12 L 1043.46 529.89 L 1042.09 529.64 L 1041.07 525.46 L 1039.55 525.46 L 1038.04 524.06 L 1037.21 525.21 L 1035.74 525.13 L 1035.40 526.77 L 1032.76 525.70 L 1031.00 527.92 L 1029.83 527.42 L 1028.07 529.97 L 1026.31 531.36 L 1026.41 523.65 Z" id="MD-land"/>
</svg>