<?xml version="1.0" encoding="UTF-8"?>
<svg xmlns="http://www.w3.org/2000/svg" viewBox="0 0 1200 900">
  <title>Michigan</title>
  <path class="region-path" d="M 990.93 493.55 L 978.86 494.13 L 978.86 493.14 L 968.30 493.14 L 960.87 493.14 L 962.68 491.17 L 963.90 487.81 L 965.03 485.76 L 965.86 482.89 L 966.35 478.79 L 966.15 474.36 L 963.51 465.67 L 964.34 462.38 L 963.76 458.45 L 965.81 454.43 L 966.25 451.07 L 965.95 449.26 L 967.42 448.52 L 967.62 446.06 L 969.91 445.41 L 971.67 442.70 L 971.53 448.11 L 972.45 448.36 L 973.63 445.65 L 973.68 441.06 L 974.41 439.91 L 976.85 439.17 L 976.07 435.97 L 977.68 433.27 L 979.69 433.10 L 981.94 434.83 L 984.13 435.07 L 985.21 437.21 L 986.87 437.37 L 989.66 439.34 L 990.63 439.26 L 992.15 442.45 L 990.93 444.18 L 992.10 446.39 L 992.54 448.93 L 992.00 454.51 L 990.19 455.91 L 989.75 458.78 L 987.60 459.76 L 986.43 463.20 L 986.87 464.52 L 989.02 465.75 L 990.68 463.86 L 992.64 460.01 L 995.72 458.53 L 997.23 459.68 L 998.16 461.81 L 999.09 468.04 L 999.24 471.16 L 1000.21 474.93 L 999.28 480.35 L 997.82 481.17 L 997.77 479.20 L 996.79 479.77 L 995.67 484.28 L 993.86 486.01 L 993.32 489.45 L 991.07 492.32 L 990.93 493.55 Z M 972.60 433.68 L 972.75 435.48 L 971.57 435.81 L 972.06 433.27 L 972.60 433.68 Z M 954.03 443.19 L 952.66 441.63 L 953.49 439.50 L 951.39 439.17 L 952.22 437.12 L 952.32 434.50 L 950.46 432.69 L 949.44 430.81 L 945.62 429.33 L 944.45 429.82 L 940.64 427.61 L 931.45 424.57 L 930.47 422.03 L 928.81 421.13 L 932.28 419.57 L 933.85 417.77 L 937.76 417.03 L 940.30 414.81 L 941.47 414.73 L 942.45 413.17 L 945.23 410.96 L 946.65 409.07 L 948.75 407.84 L 950.76 408.91 L 947.24 413.50 L 946.41 415.06 L 946.46 417.85 L 948.17 415.72 L 951.24 416.04 L 953.64 417.52 L 955.79 421.62 L 956.96 422.36 L 959.21 421.70 L 959.75 422.61 L 962.00 423.10 L 966.79 419.65 L 969.28 419.33 L 972.60 419.49 L 974.85 418.34 L 976.56 418.26 L 976.90 422.44 L 978.66 423.02 L 980.42 422.36 L 981.15 423.34 L 982.33 422.11 L 984.92 421.70 L 984.97 426.95 L 986.14 429.17 L 987.90 429.74 L 988.09 428.27 L 989.80 428.27 L 990.73 429.82 L 989.95 430.97 L 985.06 429.99 L 982.72 430.64 L 980.18 428.84 L 979.44 430.48 L 979.78 431.87 L 978.66 431.55 L 977.00 429.50 L 974.12 428.27 L 972.65 428.18 L 971.23 430.15 L 968.89 430.64 L 966.35 430.23 L 965.32 431.05 L 965.07 432.69 L 962.29 434.09 L 962.44 432.12 L 961.21 431.71 L 960.73 433.76 L 958.67 433.84 L 957.74 434.74 L 956.38 438.27 L 953.83 442.78 L 954.03 443.19 Z M 943.18 400.05 L 940.93 401.94 L 939.76 402.18 L 939.86 400.63 L 945.48 397.10 L 944.40 399.56 L 943.18 400.05 Z" id="MI-land"/>
</svg>