<?xml version="1.0" encoding="UTF-8"?>
<svg xmlns="http://www.w3.org/2000/svg" viewBox="0 0 1200 900">
  <title>Missouri</title>
  <path class="region-path" d="M 916.16 510.36 L 917.08 510.28 L 918.89 513.32 L 919.87 513.81 L 919.09 515.94 L 919.19 518.98 L 920.31 523.57 L 923.05 527.42 L 926.03 530.62 L 926.61 535.54 L 927.30 536.45 L 928.32 535.05 L 930.28 535.71 L 931.55 536.77 L 930.67 538.58 L 930.91 539.97 L 929.40 543.83 L 929.35 546.21 L 931.99 549.24 L 932.97 551.21 L 933.94 550.88 L 936.83 554.08 L 936.83 556.38 L 937.56 559.25 L 936.83 560.23 L 938.83 564.50 L 940.25 564.66 L 939.52 570.73 L 938.20 570.07 L 937.71 571.96 L 937.12 571.96 L 936.63 571.96 L 936.68 575.65 L 934.92 579.42 L 929.16 579.42 L 930.57 576.64 L 931.94 574.83 L 931.16 571.96 L 892.60 571.88 L 891.33 571.88 L 891.33 564.41 L 891.38 532.10 L 889.47 531.36 L 888.06 527.83 L 886.93 526.36 L 888.94 522.01 L 886.05 520.86 L 885.17 519.47 L 882.97 515.53 L 881.07 510.69 L 891.18 510.94 L 903.45 510.78 L 916.16 510.36 Z" id="MO-land"/>
</svg>