<?xml version="1.0" encoding="UTF-8"?>
<svg xmlns="http://www.w3.org/2000/svg" viewBox="0 0 1200 900">
  <title>Montana</title>
  <path class="region-path" d="M 807.18 384.71 L 807.22 401.77 L 807.18 430.48 L 807.22 444.67 L 807.08 444.67 L 790.51 444.59 L 762.26 444.59 L 744.67 444.59 L 744.72 452.46 L 743.11 450.90 L 741.69 448.28 L 739.64 451.39 L 737.83 451.97 L 737.39 451.15 L 735.29 451.80 L 734.07 451.07 L 732.01 452.38 L 729.23 452.30 L 728.30 453.69 L 727.27 452.87 L 726.10 448.03 L 724.24 447.87 L 723.22 446.64 L 723.26 443.77 L 722.19 442.70 L 720.72 439.67 L 719.84 436.80 L 720.09 435.56 L 718.48 434.09 L 717.60 435.73 L 715.40 437.78 L 713.49 436.22 L 713.93 434.58 L 713.30 433.02 L 714.91 431.38 L 713.98 429.09 L 714.22 425.56 L 715.49 419.98 L 712.90 420.06 L 712.81 419.08 L 710.46 417.52 L 710.07 415.88 L 706.75 411.86 L 706.55 410.80 L 704.74 410.14 L 703.03 408.34 L 702.98 404.23 L 700.10 400.05 L 700.10 384.71 L 740.66 384.80 L 758.94 384.71 L 807.18 384.71 Z" id="MT-land"/>
</svg>