<?xml version="1.0" encoding="UTF-8"?>
<svg xmlns="http://www.w3.org/2000/svg" viewBox="0 0 1200 900">
  <title>North Carolina</title>
  <path class="region-path" d="M 1013.02 570.98 L 1019.13 571.22 L 1026.11 571.30 L 1058.61 571.14 L 1059.64 577.13 L 1057.15 576.55 L 1056.80 577.29 L 1053.77 578.19 L 1053.33 579.01 L 1051.33 579.26 L 1051.43 580.33 L 1053.87 579.59 L 1054.21 580.24 L 1056.90 579.51 L 1057.78 580.90 L 1059.39 580.33 L 1059.98 583.93 L 1059.44 585.66 L 1058.37 585.82 L 1056.12 589.51 L 1053.14 589.68 L 1052.65 592.22 L 1053.92 594.76 L 1054.95 595.25 L 1053.04 599.44 L 1051.43 598.94 L 1048.59 599.35 L 1046.64 600.26 L 1043.56 603.13 L 1041.12 606.90 L 1039.85 611.66 L 1037.99 610.59 L 1034.76 611.57 L 1024.65 597.30 L 1014.63 597.06 L 1014.78 595.34 L 1013.41 592.79 L 1012.48 593.69 L 1012.43 592.14 L 1001.43 591.40 L 998.99 591.97 L 997.08 593.37 L 994.01 594.35 L 989.46 594.60 L 983.21 594.52 L 983.45 590.99 L 985.21 590.66 L 985.89 588.20 L 988.09 585.99 L 990.54 585.90 L 992.74 583.61 L 995.03 582.79 L 996.99 579.42 L 998.21 578.44 L 998.45 579.92 L 1001.97 577.05 L 1003.58 577.62 L 1004.71 574.83 L 1006.37 574.09 L 1006.76 570.57 L 1013.02 570.98 Z" id="NC-land"/>
</svg>