<?xml version="1.0" encoding="UTF-8"?>
<svg xmlns="http://www.w3.org/2000/svg" viewBox="0 0 1200 900">
  <title>New Jersey</title>
  <path class="region-path" d="M 1073.18 502.41 L 1076.16 504.54 L 1075.08 508.89 L 1073.62 509.87 L 1072.83 512.17 L 1075.28 513.32 L 1075.47 515.04 L 1074.40 523.08 L 1071.61 529.06 L 1069.80 530.79 L 1068.19 534.56 L 1067.36 532.10 L 1064.77 530.87 L 1061.59 527.59 L 1061.40 525.37 L 1061.35 525.05 L 1061.84 524.23 L 1062.67 522.42 L 1065.06 521.19 L 1065.21 520.04 L 1067.95 517.58 L 1068.39 516.27 L 1065.85 513.24 L 1065.75 511.35 L 1064.62 510.86 L 1064.53 509.13 L 1065.89 506.51 L 1065.16 504.95 L 1067.41 501.84 L 1067.90 500.19 L 1069.07 499.13 L 1073.18 502.41 Z" id="NJ-land"/>
</svg>