<?xml version="1.0" encoding="UTF-8"?>
<svg xmlns="http://www.w3.org/2000/svg" viewBox="0 0 1200 900">
  <title>Ohio</title>
  <path class="region-path" d="M 1017.12 489.86 L 1017.12 509.95 L 1015.80 510.78 L 1016.44 512.42 L 1016.39 514.71 L 1015.17 518.32 L 1014.34 523.82 L 1010.87 528.65 L 1009.74 529.31 L 1008.76 528.33 L 1007.74 530.46 L 1006.71 530.38 L 1005.59 533.25 L 1005.83 534.97 L 1004.90 536.36 L 1003.58 534.07 L 1001.92 537.68 L 1002.36 539.97 L 1001.29 540.79 L 1000.95 542.76 L 998.60 543.09 L 997.38 541.04 L 996.35 540.63 L 995.96 538.09 L 994.69 538.58 L 993.71 540.06 L 990.34 538.91 L 988.92 539.97 L 986.92 537.92 L 984.13 537.35 L 983.99 536.04 L 982.18 532.92 L 978.76 532.92 L 978.91 512.01 L 978.86 494.13 L 990.93 493.55 L 994.40 495.60 L 995.57 496.83 L 996.45 495.68 L 998.40 498.06 L 999.63 498.80 L 1003.78 496.83 L 1006.22 497.24 L 1008.86 494.45 L 1012.72 491.75 L 1017.12 489.86 L 1017.12 489.86 Z" id="OH-land"/>
</svg>