<?xml version="1.0" encoding="UTF-8"?>
<svg xmlns="http://www.w3.org/2000/svg" viewBox="0 0 1200 900">
  <title>Oregon</title>
  <path class="region-path" d="M 636.18 427.04 L 637.01 426.87 L 638.91 428.43 L 639.75 430.23 L 640.19 434.74 L 644.78 436.39 L 648.69 434.01 L 651.13 433.76 L 653.97 434.58 L 654.26 435.56 L 659.15 433.43 L 660.32 434.17 L 662.96 433.76 L 665.16 432.28 L 669.07 430.97 L 672.64 430.64 L 673.86 429.66 L 692.33 429.74 L 693.55 432.28 L 695.65 433.35 L 696.39 435.40 L 694.53 439.83 L 693.99 442.45 L 692.97 444.26 L 693.11 445.65 L 692.18 447.87 L 691.25 448.36 L 689.45 453.69 L 690.08 455.74 L 691.79 455.99 L 692.53 457.22 L 691.35 462.14 L 691.35 489.53 L 676.45 489.70 L 664.82 489.61 L 655.58 489.61 L 643.61 489.37 L 635.98 489.45 L 627.23 489.53 L 625.96 487.81 L 625.28 482.97 L 625.43 479.61 L 624.20 476.98 L 625.08 474.52 L 625.72 470.50 L 627.04 466.24 L 627.63 462.47 L 628.60 449.75 L 628.46 448.03 L 629.34 442.45 L 629.68 434.74 L 629.19 430.48 L 629.63 427.94 L 633.20 425.72 L 634.76 427.45 L 636.18 427.04 Z" id="OR-land"/>
</svg>