<?xml version="1.0" encoding="UTF-8"?>
<svg xmlns="http://www.w3.org/2000/svg" viewBox="0 0 1200 900">
  <title>Pennsylvania</title>
  <path class="region-path" d="M 1023.87 485.76 L 1023.87 489.53 L 1063.16 489.53 L 1064.13 491.58 L 1064.82 491.50 L 1065.89 493.22 L 1065.70 495.44 L 1067.31 497.98 L 1068.68 498.06 L 1069.07 499.13 L 1067.90 500.19 L 1067.41 501.84 L 1065.16 504.95 L 1065.89 506.51 L 1064.53 509.13 L 1064.62 510.86 L 1065.75 511.35 L 1065.85 513.24 L 1068.39 516.27 L 1067.95 517.58 L 1065.21 520.04 L 1065.06 521.19 L 1062.67 522.42 L 1060.86 522.01 L 1059.35 523.65 L 1026.41 523.65 L 1017.12 523.65 L 1017.12 509.95 L 1017.12 489.86 L 1017.12 489.86 L 1018.78 489.04 L 1023.87 485.51 L 1023.87 485.76 Z" id="PA-land"/>
</svg>