<?xml version="1.0" encoding="UTF-8"?>
<svg xmlns="http://www.w3.org/2000/svg" viewBox="0 0 1200 900">
  <title>South Carolina</title>
  <path class="region-path" d="M 997.08 593.37 L 998.99 591.97 L 1001.43 591.40 L 1012.43 592.14 L 1012.48 593.69 L 1013.41 592.79 L 1014.78 595.34 L 1014.63 597.06 L 1024.65 597.30 L 1034.76 611.57 L 1033.20 612.31 L 1031.25 614.77 L 1029.34 618.63 L 1029.00 621.74 L 1027.48 624.21 L 1025.48 624.21 L 1025.04 626.01 L 1022.94 627.98 L 1021.76 630.11 L 1019.91 631.01 L 1017.90 633.31 L 1017.71 634.38 L 1015.85 635.61 L 1013.85 638.80 L 1011.79 637.49 L 1011.75 634.95 L 1010.33 630.93 L 1009.11 629.86 L 1009.01 626.67 L 1008.42 624.21 L 1006.03 621.91 L 1004.46 619.12 L 1004.56 617.40 L 1002.17 614.86 L 1000.99 612.07 L 998.94 610.18 L 997.52 607.06 L 997.23 605.34 L 995.86 602.06 L 994.93 602.31 L 991.95 599.11 L 992.10 597.55 L 994.01 594.35 L 997.08 593.37 Z" id="SC-land"/>
</svg>