<?xml version="1.0" encoding="UTF-8"?>
<svg xmlns="http://www.w3.org/2000/svg" viewBox="0 0 1200 900">
  <title>Tennessee</title>
  <path class="region-path" d="M 949.88 571.96 L 949.73 569.25 L 951.68 569.91 L 962.92 569.58 L 972.80 570.16 L 974.56 569.99 L 981.20 570.48 L 988.83 570.65 L 988.97 570.40 L 1006.76 570.57 L 1006.37 574.09 L 1004.71 574.83 L 1003.58 577.62 L 1001.97 577.05 L 998.45 579.92 L 998.21 578.44 L 996.99 579.42 L 995.03 582.79 L 992.74 583.61 L 990.54 585.90 L 988.09 585.99 L 985.89 588.20 L 985.21 590.66 L 983.45 590.99 L 983.21 594.52 L 971.72 594.60 L 956.08 594.35 L 948.56 594.43 L 946.16 594.43 L 929.74 594.43 L 930.62 594.02 L 931.50 591.40 L 931.35 587.79 L 933.02 585.33 L 933.31 583.03 L 934.63 582.21 L 934.92 579.42 L 936.68 575.65 L 936.63 571.96 L 937.12 571.96 L 937.71 571.96 L 938.78 571.80 L 949.88 571.96 Z" id="TN-land"/>
</svg>