<?xml version="1.0" encoding="UTF-8"?>
<svg xmlns="http://www.w3.org/2000/svg" viewBox="0 0 1200 900">
  <title>Virginia</title>
  <path class="region-path" d="M 1062.82 549.24 L 1064.18 549.00 L 1063.01 551.54 L 1061.79 552.44 L 1061.06 555.88 L 1059.20 561.46 L 1057.68 562.61 L 1057.20 560.56 L 1057.98 555.97 L 1060.37 550.14 L 1062.82 549.24 Z M 1057.29 550.14 L 1057.49 550.14 L 1057.05 550.14 L 1057.29 550.14 Z M 1036.47 527.51 L 1041.12 532.51 L 1042.09 529.64 L 1043.46 529.89 L 1044.44 531.12 L 1044.44 533.33 L 1046.30 534.07 L 1047.47 535.46 L 1048.15 537.59 L 1047.37 539.97 L 1046.30 540.63 L 1045.61 542.76 L 1046.00 544.32 L 1048.40 543.83 L 1048.84 546.21 L 1051.97 547.19 L 1052.85 549.08 L 1055.34 551.13 L 1054.21 555.31 L 1055.24 558.59 L 1054.02 560.15 L 1053.87 562.04 L 1055.00 563.18 L 1053.77 564.99 L 1051.92 562.61 L 1051.48 563.43 L 1053.09 565.15 L 1057.49 565.56 L 1058.61 571.14 L 1026.11 571.30 L 1019.13 571.22 L 1013.02 570.98 L 1006.76 570.57 L 988.97 570.40 L 993.76 568.27 L 994.35 566.63 L 996.06 566.05 L 996.16 564.74 L 997.48 563.76 L 997.48 562.61 L 1000.75 560.40 L 1004.17 556.38 L 1004.02 557.61 L 1005.25 560.15 L 1006.76 561.38 L 1007.89 561.30 L 1009.60 559.33 L 1010.82 560.89 L 1013.11 560.07 L 1017.17 557.20 L 1017.51 558.10 L 1019.08 556.79 L 1019.13 554.08 L 1020.10 551.70 L 1021.76 549.49 L 1022.45 546.78 L 1024.21 543.99 L 1024.89 540.55 L 1026.41 542.60 L 1027.87 543.25 L 1028.80 542.02 L 1030.71 536.69 L 1031.83 538.00 L 1035.99 531.94 L 1036.47 527.51 Z" id="VA-land"/>
</svg>