<?xml version="1.0" encoding="UTF-8"?>
<svg xmlns="http://www.w3.org/2000/svg" viewBox="0 0 1200 900">
  <title>Washington</title>
  <path class="region-path" d="M 691.30 384.71 L 691.21 403.25 L 691.25 423.26 L 691.11 424.49 L 692.28 427.12 L 692.33 429.74 L 673.86 429.66 L 672.64 430.64 L 669.07 430.97 L 665.16 432.28 L 662.96 433.76 L 660.32 434.17 L 659.15 433.43 L 654.26 435.56 L 653.97 434.58 L 651.13 433.76 L 648.69 434.01 L 644.78 436.39 L 640.19 434.74 L 639.75 430.23 L 638.91 428.43 L 637.01 426.87 L 636.18 427.04 L 634.76 427.45 L 633.20 425.72 L 631.58 425.15 L 630.26 426.05 L 628.55 424.74 L 628.90 422.69 L 630.07 421.62 L 628.26 418.51 L 627.04 410.39 L 626.31 409.32 L 625.33 403.58 L 623.57 401.36 L 622.84 396.93 L 623.81 393.98 L 625.62 395.38 L 629.29 397.26 L 631.78 397.18 L 634.27 397.92 L 636.62 397.18 L 637.74 398.49 L 639.84 398.41 L 641.31 401.69 L 642.38 401.45 L 642.58 405.87 L 643.22 409.89 L 644.09 409.48 L 643.22 406.04 L 643.46 402.68 L 644.93 399.23 L 643.75 397.84 L 643.66 395.38 L 642.78 392.67 L 643.22 390.70 L 642.63 388.40 L 641.21 388.08 L 639.89 386.35 L 640.23 384.71 L 691.30 384.71 Z M 640.58 395.05 L 641.75 394.39 L 641.55 397.43 L 640.14 396.28 L 640.58 395.05 Z M 637.84 390.95 L 638.82 388.98 L 640.14 391.36 L 639.75 393.41 L 637.69 392.83 L 637.84 390.95 Z" id="WA-land"/>
</svg>