<?xml version="1.0" encoding="UTF-8"?>
<svg xmlns="http://www.w3.org/2000/svg" viewBox="0 0 1200 900">
  <title>Wisconsin</title>
  <path class="region-path" d="M 928.81 421.13 L 930.47 422.03 L 931.45 424.57 L 940.64 427.61 L 944.45 429.82 L 945.62 429.33 L 949.44 430.81 L 950.46 432.69 L 952.32 434.50 L 952.22 437.12 L 951.39 439.17 L 953.49 439.50 L 952.66 441.63 L 954.03 443.19 L 953.69 445.00 L 951.98 445.32 L 950.51 448.77 L 949.97 451.15 L 951.00 451.56 L 952.37 450.00 L 953.83 447.05 L 955.69 445.90 L 957.16 442.13 L 959.01 441.31 L 958.87 443.27 L 957.60 445.08 L 955.11 451.31 L 954.42 454.76 L 954.47 457.22 L 953.54 458.04 L 952.71 461.40 L 953.00 464.27 L 952.22 466.16 L 951.15 470.83 L 951.39 474.52 L 952.47 477.80 L 952.12 482.15 L 943.33 482.15 L 926.81 481.90 L 926.17 480.02 L 923.00 478.30 L 922.31 475.92 L 922.02 472.55 L 923.10 470.75 L 921.78 469.27 L 921.68 467.06 L 921.19 465.34 L 921.43 462.96 L 919.72 459.68 L 918.31 459.10 L 915.76 456.56 L 915.32 454.59 L 912.59 452.95 L 911.66 451.31 L 909.80 451.07 L 907.46 448.36 L 908.09 442.86 L 907.90 440.32 L 908.92 438.03 L 907.80 436.14 L 906.77 435.97 L 906.92 433.84 L 908.97 430.64 L 911.51 429.41 L 912.05 428.51 L 912.05 419.65 L 913.86 418.42 L 914.54 419.08 L 916.55 419.24 L 922.75 416.70 L 925.05 415.31 L 925.83 416.37 L 924.61 418.34 L 927.54 420.88 L 928.81 421.13 Z" id="WI-land"/>
</svg>