<?xml version="1.0" encoding="UTF-8"?>
<svg xmlns="http://www.w3.org/2000/svg" viewBox="0 0 1200 900">
  <title>Iowa</title>
  <path class="region-path" d="M 920.31 467.06 L 921.68 467.06 L 921.78 469.27 L 923.10 470.75 L 922.02 472.55 L 922.31 475.92 L 923.00 478.30 L 926.17 480.02 L 926.81 481.90 L 928.76 484.61 L 929.01 486.17 L 931.01 487.65 L 931.26 489.53 L 930.91 492.40 L 929.74 493.39 L 929.45 495.68 L 926.66 497.57 L 923.19 498.31 L 922.61 500.93 L 924.07 503.07 L 923.93 505.69 L 922.75 507.17 L 922.51 509.46 L 920.02 511.10 L 919.87 513.81 L 918.89 513.32 L 917.08 510.28 L 916.16 510.36 L 903.45 510.78 L 891.18 510.94 L 881.07 510.69 L 880.04 508.72 L 880.53 504.87 L 879.65 501.51 L 879.70 497.73 L 878.13 496.42 L 877.89 494.37 L 878.43 492.57 L 877.84 489.94 L 876.62 488.96 L 875.01 482.23 L 873.35 478.95 L 874.13 476.74 L 874.42 473.79 L 875.10 472.72 L 873.98 471.24 L 874.27 468.62 L 873.79 467.39 L 874.96 467.06 L 920.31 467.06 Z" id="IA-land"/>
</svg>