<?xml version="1.0" encoding="UTF-8"?>
<svg xmlns="http://www.w3.org/2000/svg" viewBox="0 0 1200 900">
  <title>Idaho</title>
  <path class="region-path" d="M 700.10 384.71 L 700.10 400.05 L 702.98 404.23 L 703.03 408.34 L 704.74 410.14 L 706.55 410.80 L 706.75 411.86 L 710.07 415.88 L 710.46 417.52 L 712.81 419.08 L 712.90 420.06 L 715.49 419.98 L 714.22 425.56 L 713.98 429.09 L 714.91 431.38 L 713.30 433.02 L 713.93 434.58 L 713.49 436.22 L 715.40 437.78 L 717.60 435.73 L 718.48 434.09 L 720.09 435.56 L 719.84 436.80 L 720.72 439.67 L 722.19 442.70 L 723.26 443.77 L 723.22 446.64 L 724.24 447.87 L 726.10 448.03 L 727.27 452.87 L 728.30 453.69 L 729.23 452.30 L 732.01 452.38 L 734.07 451.07 L 735.29 451.80 L 737.39 451.15 L 737.83 451.97 L 739.64 451.39 L 741.69 448.28 L 743.11 450.90 L 744.72 452.46 L 744.72 489.53 L 734.75 489.61 L 717.99 489.61 L 691.35 489.53 L 691.35 462.14 L 692.53 457.22 L 691.79 455.99 L 690.08 455.74 L 689.45 453.69 L 691.25 448.36 L 692.18 447.87 L 693.11 445.65 L 692.97 444.26 L 693.99 442.45 L 694.53 439.83 L 696.39 435.40 L 695.65 433.35 L 693.55 432.28 L 692.33 429.74 L 692.28 427.12 L 691.11 424.49 L 691.25 423.26 L 691.21 403.25 L 691.30 384.71 L 700.10 384.71 Z" id="ID-land"/>
</svg>