<?xml version="1.0" encoding="UTF-8"?>
<svg xmlns="http://www.w3.org/2000/svg" viewBox="0 0 1200 900">
  <title>Indiana</title>
  <path class="region-path" d="M 968.30 493.14 L 978.86 493.14 L 978.86 494.13 L 978.91 512.01 L 978.76 532.92 L 978.07 533.58 L 978.81 537.68 L 977.24 537.76 L 975.58 539.15 L 973.29 538.50 L 973.38 541.45 L 971.87 542.68 L 971.28 544.57 L 969.72 545.30 L 968.89 549.08 L 967.86 550.06 L 965.86 548.67 L 965.51 546.94 L 963.56 548.83 L 963.71 550.47 L 961.70 551.05 L 961.12 549.57 L 958.87 551.05 L 958.14 552.60 L 955.89 550.39 L 954.71 550.88 L 953.93 549.82 L 953.20 550.88 L 950.95 551.05 L 950.12 552.44 L 949.83 551.46 L 950.36 547.93 L 951.05 547.19 L 950.80 545.30 L 951.83 545.06 L 953.44 541.86 L 953.74 539.89 L 954.86 537.76 L 954.71 535.13 L 953.59 531.94 L 954.57 529.23 L 954.62 493.88 L 955.50 494.86 L 958.23 494.86 L 960.87 493.14 L 968.30 493.14 Z" id="IN-land"/>
</svg>