<?xml version="1.0" encoding="UTF-8"?>
<svg xmlns="http://www.w3.org/2000/svg" viewBox="0 0 1200 900">
  <title>Louisiana</title>
  <path class="region-path" d="M 900.32 624.04 L 922.12 624.29 L 922.95 626.01 L 922.31 626.67 L 922.22 629.70 L 923.54 631.59 L 923.73 636.02 L 922.66 639.46 L 920.55 641.59 L 920.02 644.96 L 919.14 644.63 L 918.99 650.12 L 917.92 650.29 L 918.55 653.24 L 917.92 654.31 L 934.78 654.31 L 933.90 659.23 L 935.36 662.51 L 935.70 664.97 L 936.78 666.53 L 934.14 668.58 L 933.94 670.05 L 936.09 671.04 L 937.02 668.66 L 938.88 671.04 L 938.73 672.92 L 937.66 673.74 L 935.66 673.01 L 935.90 674.40 L 935.22 676.53 L 936.93 678.42 L 939.66 678.99 L 940.64 681.21 L 941.42 681.54 L 940.00 684.08 L 938.44 683.59 L 937.12 680.96 L 933.85 679.57 L 933.85 677.02 L 932.23 677.84 L 932.33 679.98 L 931.60 681.95 L 930.43 682.27 L 929.55 680.06 L 927.49 679.98 L 926.76 682.27 L 925.39 682.93 L 923.93 681.54 L 922.75 681.37 L 921.63 677.68 L 919.63 676.04 L 918.84 676.29 L 918.06 673.17 L 915.72 673.58 L 915.67 671.69 L 913.37 673.50 L 913.66 674.89 L 911.90 676.20 L 909.17 675.55 L 905.99 673.50 L 903.74 672.60 L 898.90 673.33 L 898.27 673.91 L 897.49 672.43 L 899.59 667.10 L 898.90 664.23 L 899.54 662.67 L 899.25 660.62 L 900.13 659.06 L 901.05 655.21 L 900.91 652.01 L 898.46 645.94 L 898.42 642.66 L 896.46 639.38 L 896.46 624.04 L 900.32 624.04 Z" id="LA-land"/>
</svg>