<?xml version="1.0" encoding="UTF-8"?>
<svg xmlns="http://www.w3.org/2000/svg" viewBox="0 0 1200 900">
  <title>Maine</title>
  <path class="region-path" d="M 1104.70 473.70 L 1103.62 472.64 L 1103.77 471.16 L 1102.35 469.44 L 1101.77 449.75 L 1101.33 440.08 L 1105.19 438.03 L 1104.55 436.96 L 1106.02 434.66 L 1107.53 433.60 L 1107.24 432.69 L 1108.66 431.30 L 1108.22 428.68 L 1109.10 424.74 L 1110.46 423.43 L 1111.00 419.24 L 1117.89 407.76 L 1119.50 408.25 L 1119.60 411.04 L 1120.78 412.03 L 1123.66 410.39 L 1125.47 410.39 L 1126.74 409.32 L 1129.23 411.70 L 1130.70 413.67 L 1130.79 430.48 L 1130.60 434.50 L 1133.68 435.56 L 1133.24 437.29 L 1134.02 438.93 L 1133.38 440.40 L 1134.65 442.70 L 1136.32 442.21 L 1137.93 447.54 L 1136.07 449.92 L 1135.00 449.02 L 1134.12 450.66 L 1132.85 450.25 L 1132.70 451.64 L 1131.04 451.48 L 1128.40 454.68 L 1127.76 452.46 L 1126.84 452.30 L 1127.28 454.68 L 1125.22 455.82 L 1124.73 453.94 L 1123.76 454.92 L 1121.46 454.92 L 1121.41 452.71 L 1120.04 453.20 L 1120.29 454.76 L 1119.02 458.04 L 1119.26 458.94 L 1117.60 460.74 L 1115.94 460.09 L 1114.96 461.97 L 1113.59 462.22 L 1112.47 463.78 L 1111.10 463.45 L 1110.71 461.81 L 1108.70 464.44 L 1109.24 466.08 L 1107.78 466.65 L 1107.68 468.04 L 1106.02 469.77 L 1104.70 473.70 Z" id="ME-land"/>
</svg>