<?xml version="1.0" encoding="UTF-8"?>
<svg xmlns="http://www.w3.org/2000/svg" viewBox="0 0 1200 900">
  <title>Minnesota</title>
  <path class="region-path" d="M 914.54 419.08 L 913.86 418.42 L 912.05 419.65 L 912.05 428.51 L 911.51 429.41 L 908.97 430.64 L 906.92 433.84 L 906.77 435.97 L 907.80 436.14 L 908.92 438.03 L 907.90 440.32 L 908.09 442.86 L 907.46 448.36 L 909.80 451.07 L 911.66 451.31 L 912.59 452.95 L 915.32 454.59 L 915.76 456.56 L 918.31 459.10 L 919.72 459.68 L 921.43 462.96 L 921.19 465.34 L 921.68 467.06 L 920.31 467.06 L 874.96 467.06 L 874.96 440.16 L 872.91 438.44 L 871.34 435.56 L 873.79 432.37 L 873.98 430.64 L 873.64 424.66 L 872.56 423.10 L 871.83 419.82 L 871.98 415.80 L 871.63 415.14 L 871.34 405.55 L 869.58 400.46 L 868.90 397.59 L 868.60 391.52 L 869.19 389.47 L 868.02 384.71 L 886.54 384.71 L 886.54 378.97 L 888.30 379.14 L 889.47 380.29 L 890.65 388.08 L 891.57 388.98 L 894.51 389.22 L 894.85 389.96 L 898.27 390.29 L 898.66 391.93 L 901.59 391.52 L 901.59 390.87 L 903.89 390.05 L 905.89 390.37 L 908.19 391.60 L 908.83 393.16 L 910.14 393.00 L 911.37 396.36 L 911.95 394.97 L 914.20 394.31 L 914.59 395.70 L 917.23 396.69 L 917.23 398.00 L 918.55 399.07 L 921.24 398.49 L 922.85 397.02 L 925.05 396.11 L 925.83 398.33 L 927.35 397.84 L 929.16 398.33 L 931.26 398.00 L 933.65 399.89 L 935.95 399.56 L 935.75 400.38 L 932.77 402.27 L 928.62 403.74 L 925.93 405.30 L 922.07 409.16 L 920.41 411.53 L 917.87 414.24 L 913.86 417.85 L 914.54 419.08 Z" id="MN-land"/>
</svg>