<?xml version="1.0" encoding="UTF-8"?>
<svg xmlns="http://www.w3.org/2000/svg" viewBox="0 0 1200 900">
  <title>Mississippi</title>
  <path class="region-path" d="M 946.16 594.43 L 948.56 594.43 L 949.49 595.99 L 948.21 612.39 L 946.16 640.86 L 946.85 663.74 L 945.87 664.39 L 943.72 664.07 L 942.84 663.08 L 940.69 663.74 L 937.71 665.46 L 936.78 666.53 L 935.70 664.97 L 935.36 662.51 L 933.90 659.23 L 934.78 654.31 L 917.92 654.31 L 918.55 653.24 L 917.92 650.29 L 918.99 650.12 L 919.14 644.63 L 920.02 644.96 L 920.55 641.59 L 922.66 639.46 L 923.73 636.02 L 923.54 631.59 L 922.22 629.70 L 922.31 626.67 L 922.95 626.01 L 922.12 624.29 L 922.80 622.24 L 922.31 619.12 L 923.10 617.89 L 921.53 615.92 L 922.95 611.33 L 924.56 608.95 L 924.02 607.31 L 925.88 604.85 L 925.83 603.87 L 927.44 603.04 L 927.30 600.09 L 928.23 599.44 L 928.86 596.89 L 930.28 595.75 L 929.74 594.43 L 946.16 594.43 Z" id="MS-land"/>
</svg>