<?xml version="1.0" encoding="UTF-8"?>
<svg xmlns="http://www.w3.org/2000/svg" viewBox="0 0 1200 900">
  <title>New York</title>
  <path class="region-path" d="M 1081.14 444.42 L 1081.24 447.54 L 1080.75 450.33 L 1081.58 453.03 L 1081.34 455.91 L 1080.31 458.94 L 1081.09 463.04 L 1080.60 464.27 L 1082.02 466.73 L 1081.73 477.07 L 1081.83 478.38 L 1079.68 488.22 L 1079.87 488.79 L 1079.28 500.11 L 1079.92 501.34 L 1077.72 502.98 L 1078.36 504.71 L 1082.17 505.94 L 1082.95 505.03 L 1086.22 505.03 L 1087.89 504.54 L 1090.62 502.16 L 1090.82 503.89 L 1092.24 504.62 L 1088.96 506.84 L 1082.07 510.12 L 1079.19 510.78 L 1077.28 510.61 L 1075.86 511.35 L 1075.08 508.89 L 1076.16 504.54 L 1073.18 502.41 L 1069.07 499.13 L 1068.68 498.06 L 1067.31 497.98 L 1065.70 495.44 L 1065.89 493.22 L 1064.82 491.50 L 1064.13 491.58 L 1063.16 489.53 L 1023.87 489.53 L 1023.87 485.76 L 1023.87 485.51 L 1029.34 481.25 L 1030.22 479.20 L 1031.98 477.80 L 1031.29 475.26 L 1030.56 474.77 L 1030.02 470.67 L 1035.25 468.95 L 1039.90 469.03 L 1041.75 469.44 L 1043.76 471.08 L 1045.03 470.42 L 1048.89 470.50 L 1051.23 469.44 L 1053.73 466.73 L 1055.34 466.65 L 1055.39 462.55 L 1056.22 460.17 L 1054.21 458.53 L 1054.65 456.64 L 1058.22 454.10 L 1059.54 451.89 L 1063.84 446.88 L 1067.90 444.34 L 1073.96 444.75 L 1081.14 444.42 Z" id="NY-land"/>
</svg>