<?xml version="1.0" encoding="UTF-8"?>
<svg xmlns="http://www.w3.org/2000/svg" viewBox="0 0 1200 900">
  <title>Oklahoma</title>
  <path class="region-path" d="M 842.51 564.41 L 891.33 564.41 L 891.33 571.88 L 892.99 588.45 L 892.50 614.77 L 889.08 613.13 L 888.20 611.41 L 885.91 609.93 L 885.32 611.25 L 883.02 611.16 L 882.53 610.34 L 880.43 611.82 L 879.55 611.00 L 877.65 611.74 L 875.89 614.04 L 875.20 612.72 L 873.35 611.66 L 871.39 611.66 L 870.76 609.93 L 868.51 613.30 L 867.77 611.41 L 866.75 611.98 L 865.97 610.75 L 863.86 609.61 L 862.30 611.57 L 861.62 609.52 L 860.35 609.28 L 859.61 607.64 L 857.90 606.98 L 856.78 608.38 L 856.05 607.15 L 854.29 607.31 L 852.33 606.00 L 850.52 606.16 L 849.89 603.29 L 847.05 603.13 L 845.98 603.62 L 843.97 600.75 L 843.29 600.91 L 843.29 571.88 L 827.11 571.88 L 816.51 571.88 L 816.51 564.41 L 825.06 564.50 L 842.51 564.41 Z" id="OK-land"/>
</svg>