<?xml version="1.0" encoding="UTF-8"?>
<svg xmlns="http://www.w3.org/2000/svg" viewBox="0 0 1200 900">
  <title>Texas</title>
  <path class="region-path" d="M 827.11 571.88 L 843.29 571.88 L 843.29 600.91 L 843.97 600.75 L 845.98 603.62 L 847.05 603.13 L 849.89 603.29 L 850.52 606.16 L 852.33 606.00 L 854.29 607.31 L 856.05 607.15 L 856.78 608.38 L 857.90 606.98 L 859.61 607.64 L 860.35 609.28 L 861.62 609.52 L 862.30 611.57 L 863.86 609.61 L 865.97 610.75 L 866.75 611.98 L 867.77 611.41 L 868.51 613.30 L 870.76 609.93 L 871.39 611.66 L 873.35 611.66 L 875.20 612.72 L 875.89 614.04 L 877.65 611.74 L 879.55 611.00 L 880.43 611.82 L 882.53 610.34 L 883.02 611.16 L 885.32 611.25 L 885.91 609.93 L 888.20 611.41 L 889.08 613.13 L 892.50 614.77 L 893.43 616.17 L 895.19 615.43 L 896.46 616.09 L 896.46 624.04 L 896.46 639.38 L 898.42 642.66 L 898.46 645.94 L 900.91 652.01 L 901.05 655.21 L 900.13 659.06 L 899.25 660.62 L 899.54 662.67 L 898.90 664.23 L 899.59 667.10 L 897.49 672.43 L 898.27 673.91 L 896.80 673.99 L 892.16 676.04 L 890.50 674.89 L 890.21 672.43 L 889.03 674.15 L 888.20 673.74 L 887.76 675.88 L 888.69 676.78 L 888.84 679.57 L 887.18 682.52 L 884.49 686.21 L 879.11 690.15 L 878.57 689.49 L 876.96 690.48 L 876.91 689.57 L 874.71 690.23 L 873.69 688.34 L 873.05 688.75 L 875.40 692.61 L 873.69 693.84 L 872.07 693.10 L 871.83 695.81 L 869.83 698.60 L 867.77 703.76 L 866.45 709.18 L 865.48 708.77 L 865.23 710.73 L 866.26 710.24 L 865.77 714.18 L 865.09 714.34 L 865.04 716.56 L 865.87 717.79 L 866.11 722.30 L 867.09 723.86 L 867.33 726.73 L 868.12 729.27 L 865.38 730.83 L 864.26 728.86 L 862.15 728.12 L 859.37 728.29 L 856.97 725.83 L 855.17 725.58 L 853.80 723.61 L 851.94 722.95 L 850.67 721.07 L 849.84 716.56 L 848.23 713.85 L 848.42 711.55 L 847.69 709.09 L 847.93 706.96 L 846.81 704.58 L 845.88 704.34 L 844.37 702.20 L 843.88 699.50 L 842.56 697.04 L 840.65 694.99 L 839.72 690.48 L 838.84 689.25 L 837.67 685.64 L 837.28 682.68 L 836.16 680.55 L 834.25 678.67 L 833.81 677.35 L 832.05 676.20 L 830.68 672.92 L 826.77 672.19 L 824.43 672.35 L 822.42 671.20 L 821.98 672.76 L 819.83 673.25 L 818.22 676.37 L 817.24 681.37 L 816.70 681.45 L 815.48 684.41 L 814.02 684.49 L 811.82 682.19 L 806.30 678.50 L 805.22 676.53 L 803.07 674.65 L 801.55 670.38 L 801.46 666.53 L 799.94 663.41 L 799.60 660.70 L 798.62 658.98 L 795.15 656.44 L 793.30 652.99 L 791.78 651.76 L 790.17 648.81 L 787.92 647.25 L 786.36 643.32 L 785.04 642.50 L 784.01 640.77 L 784.25 639.30 L 815.92 639.30 L 815.92 624.29 L 816.12 609.11 L 816.17 571.88 L 816.51 571.88 L 827.11 571.88 Z" id="TX-land"/>
</svg>