<?xml version="1.0" encoding="UTF-8"?>
<svg xmlns="http://www.w3.org/2000/svg" viewBox="0 0 1200 900">
  <title>West Virginia</title>
  <path class="region-path" d="M 1017.12 509.95 L 1017.12 523.65 L 1026.41 523.65 L 1026.31 531.36 L 1028.07 529.97 L 1029.83 527.42 L 1031.00 527.92 L 1032.76 525.70 L 1035.40 526.77 L 1035.74 525.13 L 1037.21 525.21 L 1038.04 524.06 L 1039.55 525.46 L 1041.07 525.46 L 1042.09 529.64 L 1041.12 532.51 L 1036.47 527.51 L 1035.99 531.94 L 1031.83 538.00 L 1030.71 536.69 L 1028.80 542.02 L 1027.87 543.25 L 1026.41 542.60 L 1024.89 540.55 L 1024.21 543.99 L 1022.45 546.78 L 1021.76 549.49 L 1020.10 551.70 L 1019.13 554.08 L 1019.08 556.79 L 1017.51 558.10 L 1017.17 557.20 L 1013.11 560.07 L 1010.82 560.89 L 1009.60 559.33 L 1007.89 561.30 L 1006.76 561.38 L 1005.25 560.15 L 1004.02 557.61 L 1004.17 556.38 L 1003.00 556.13 L 1001.29 554.41 L 1000.85 552.69 L 999.43 550.47 L 998.36 547.60 L 998.60 543.09 L 1000.95 542.76 L 1001.29 540.79 L 1002.36 539.97 L 1001.92 537.68 L 1003.58 534.07 L 1004.90 536.36 L 1005.83 534.97 L 1005.59 533.25 L 1006.71 530.38 L 1007.74 530.46 L 1008.76 528.33 L 1009.74 529.31 L 1010.87 528.65 L 1014.34 523.82 L 1015.17 518.32 L 1016.39 514.71 L 1016.44 512.42 L 1015.80 510.78 L 1017.12 509.95 Z" id="WV-land"/>
</svg>