<?xml version="1.0" encoding="UTF-8"?>
<svg xmlns="http://www.w3.org/2000/svg" viewBox="0 0 1200 800" preserveAspectRatio="xMidYMid meet">
<defs>
<style>
.region-path {
  fill: #F5F5F5;
  stroke: #E5E5E5;
  stroke-width: 1;
  cursor: pointer;
  transition: all 0.2s ease;
}
.region-path:hover {
  fill: #E8E8E8;
  stroke: #D0D0D0;
  stroke-width: 2;
}
</style>
</defs>
<g id="usa-map">
  <path
    id="US-01"
    class="region-path"
    data-region-id="US-01"
    data-region-name="Alabama"
    d="M 765.57 461.50 L 801.22 462.01 L 804.78 488.47 L 809.80 527.39 L 812.14 535.99 L 814.36 540.88 L 813.47 543.91 L 815.81 545.76 L 812.36 549.64 L 812.47 553.51 L 810.69 558.74 L 812.69 568.01 L 811.25 576.10 L 813.47 584.52 L 803.45 584.69 L 760.67 584.69 L 760.00 588.74 L 764.57 594.63 L 763.79 599.69 L 765.35 602.22 L 762.34 606.77 L 759.56 607.78 L 754.43 602.72 L 753.88 595.14 L 752.32 594.30 L 750.42 600.03 L 749.76 605.59 L 744.52 604.07 L 742.96 557.05 L 747.64 498.58 L 750.54 464.87 L 748.42 461.67 L 765.57 461.50 Z"
  />
  <path
    id="US-02"
    class="region-path"
    data-region-id="US-02"
    data-region-name="Alaska"
    d="M -134.28 -157.48 L -133.61 -162.53 L -129.27 -159.50 L -129.93 -154.27 L -135.17 -154.95 L -134.28 -157.48 Z M -138.96 -166.91 L -135.17 -163.21 L -137.29 -157.81 L -138.96 -159.67 L -138.96 -166.91 Z M -162.24 -198.09 L -157.34 -198.76 L -155.22 -197.58 L -155.89 -193.03 L -160.23 -192.02 L -164.13 -194.89 L -162.24 -198.09 Z M -174.83 -195.39 L -166.03 -194.38 L -163.80 -188.48 L -155.00 -181.91 L -151.99 -177.87 L -151.77 -174.50 L -149.65 -173.82 L -149.32 -169.44 L -145.75 -165.06 L -145.31 -161.18 L -142.97 -162.36 L -141.96 -159.33 L -141.52 -147.37 L -142.97 -144.67 L -148.65 -145.17 L -150.21 -151.24 L -152.21 -150.74 L -156.33 -155.29 L -157.56 -153.77 L -161.01 -155.29 L -160.46 -150.74 L -157.23 -151.92 L -155.11 -150.23 L -156.11 -143.99 L -160.01 -144.67 L -165.91 -152.59 L -167.59 -156.63 L -167.25 -160.85 L -171.93 -160.51 L -171.93 -163.71 L -168.37 -164.05 L -164.80 -166.91 L -166.36 -171.97 L -170.59 -172.98 L -171.26 -181.07 L -172.82 -185.11 L -175.72 -182.25 L -176.83 -186.80 L -173.82 -188.99 L -176.27 -194.21 L -174.83 -195.39 Z M -177.72 -170.96 L -173.82 -168.94 L -171.15 -171.46 L -168.48 -170.28 L -171.26 -165.73 L -175.61 -167.08 L -177.72 -170.96 Z M -181.18 -213.26 L -184.07 -216.29 L -180.73 -218.31 L -169.70 -215.45 L -164.80 -215.62 L -161.35 -209.89 L -155.00 -205.17 L -155.67 -201.63 L -159.01 -199.78 L -163.58 -200.62 L -166.81 -198.43 L -171.26 -199.78 L -176.16 -198.43 L -177.17 -205.67 L -176.72 -210.39 L -180.40 -210.56 L -181.18 -213.26 Z M -185.41 -199.44 L -188.19 -201.80 L -191.20 -206.85 L -191.54 -210.73 L -189.08 -212.58 L -186.52 -210.73 L -185.97 -213.93 L -177.95 -208.37 L -177.17 -202.98 L -179.95 -202.30 L -181.73 -196.24 L -179.73 -194.55 L -182.18 -187.47 L -185.30 -188.99 L -185.74 -184.61 L -187.75 -186.80 L -188.97 -195.39 L -185.41 -199.44 Z M -195.99 -193.37 L -196.66 -189.83 L -199.44 -191.85 L -207.02 -205.50 L -211.81 -209.55 L -210.14 -212.75 L -212.03 -220.50 L -217.38 -226.74 L -211.92 -232.81 L -209.47 -230.28 L -204.68 -228.26 L -200.34 -227.92 L -200.22 -223.03 L -195.99 -207.02 L -195.99 -193.37 Z M -197.55 -253.03 L -190.64 -250.67 L -186.63 -251.01 L -186.86 -248.65 L -181.06 -240.22 L -185.07 -241.57 L -186.08 -238.70 L -181.73 -234.32 L -180.40 -226.57 L -184.74 -224.55 L -186.19 -221.85 L -193.21 -216.29 L -195.32 -216.46 L -196.21 -222.36 L -194.77 -225.90 L -195.43 -231.12 L -197.89 -237.52 L -197.44 -240.89 L -199.00 -249.15 L -201.67 -252.69 L -202.45 -258.76 L -197.55 -253.03 Z M -220.83 -225.56 L -217.94 -225.56 L -214.93 -220.00 L -216.27 -216.12 L -220.83 -215.28 L -220.16 -221.35 L -220.83 -225.56 Z M -229.41 -252.52 L -223.28 -252.35 L -219.27 -255.05 L -213.48 -251.34 L -216.60 -247.30 L -215.49 -245.78 L -212.59 -250.33 L -205.57 -248.81 L -201.67 -245.44 L -203.90 -239.38 L -202.12 -238.87 L -199.78 -230.78 L -205.13 -229.60 L -215.04 -236.18 L -214.71 -229.43 L -217.82 -226.74 L -221.50 -227.92 L -223.73 -232.13 L -227.96 -235.00 L -231.19 -240.89 L -235.31 -243.59 L -235.09 -248.48 L -232.31 -250.16 L -231.42 -254.38 L -229.41 -252.52 Z M -449.08 -313.86 L -457.66 -306.11 L -458.33 -303.08 L -465.23 -301.06 L -463.79 -305.78 L -456.32 -310.66 L -451.64 -316.05 L -449.08 -313.86 Z M -458.88 -325.49 L -460.00 -319.09 L -462.89 -312.52 L -466.91 -314.71 L -463.56 -322.29 L -458.88 -325.49 Z M -463.45 -622.93 L -461.34 -621.58 L -450.75 -620.24 L -445.18 -621.08 L -437.50 -621.08 L -429.14 -619.90 L -424.24 -620.57 L -419.45 -618.04 L -410.76 -615.18 L -399.07 -614.51 L -395.83 -616.19 L -388.04 -617.20 L -384.70 -619.39 L -376.23 -619.73 L -376.34 -618.21 L -371.33 -619.06 L -360.97 -616.70 L -353.95 -612.82 L -347.38 -610.97 L -345.93 -609.28 L -339.91 -608.94 L -334.23 -606.08 L -333.12 -604.23 L -329.67 -605.74 L -325.43 -604.56 L -325.43 -317.07 L -315.96 -314.54 L -314.74 -317.23 L -304.82 -313.36 L -298.92 -318.25 L -286.56 -318.75 L -288.78 -310.49 L -285.66 -307.63 L -278.65 -304.93 L -277.09 -300.55 L -256.37 -284.37 L -253.14 -274.09 L -249.46 -276.96 L -240.55 -281.85 L -235.54 -282.01 L -233.20 -285.72 L -233.42 -291.28 L -229.86 -291.28 L -228.96 -296.17 L -222.61 -297.35 L -213.15 -301.56 L -203.90 -294.32 L -204.79 -289.93 L -202.56 -285.55 L -197.33 -284.54 L -190.76 -277.97 L -191.20 -276.12 L -188.19 -272.58 L -179.84 -268.53 L -166.25 -250.84 L -164.24 -246.12 L -160.01 -241.40 L -153.77 -230.95 L -147.53 -222.02 L -149.87 -218.31 L -143.41 -216.96 L -144.97 -211.57 L -139.74 -209.38 L -139.07 -203.15 L -133.83 -203.48 L -123.81 -197.08 L -117.57 -195.90 L -114.34 -192.87 L -111.22 -192.02 L -110.33 -188.99 L -103.76 -188.15 L -101.75 -184.44 L -104.76 -177.53 L -104.31 -171.80 L -101.42 -162.36 L -103.64 -160.00 L -108.55 -151.41 L -115.68 -145.17 L -117.68 -148.38 L -120.35 -147.37 L -122.25 -153.77 L -121.69 -156.47 L -123.92 -159.67 L -119.24 -163.04 L -120.58 -164.22 L -125.26 -160.00 L -127.82 -162.70 L -130.71 -161.18 L -139.18 -167.92 L -136.28 -175.34 L -141.63 -172.81 L -141.85 -169.10 L -146.09 -171.97 L -146.98 -175.51 L -144.08 -179.38 L -144.97 -183.26 L -148.98 -180.06 L -152.99 -186.97 L -155.44 -185.62 L -157.00 -191.35 L -153.10 -195.06 L -149.32 -195.06 L -150.43 -199.61 L -148.43 -205.50 L -151.54 -205.34 L -158.01 -210.39 L -162.57 -216.46 L -173.27 -220.84 L -173.04 -233.14 L -176.50 -234.66 L -175.72 -239.71 L -179.28 -241.06 L -184.52 -247.80 L -185.97 -251.34 L -194.99 -252.52 L -204.90 -261.62 L -209.14 -282.86 L -211.14 -277.97 L -210.25 -273.59 L -206.24 -265.16 L -207.24 -263.81 L -204.57 -256.90 L -205.13 -252.35 L -209.02 -253.36 L -212.14 -258.42 L -216.27 -259.26 L -222.06 -257.92 L -221.95 -265.16 L -225.51 -271.23 L -228.74 -269.37 L -241.55 -275.78 L -242.67 -273.92 L -235.65 -271.90 L -230.19 -266.85 L -228.07 -266.68 L -227.40 -262.63 L -224.62 -257.92 L -231.64 -255.22 L -235.76 -256.90 L -235.87 -252.69 L -241.22 -255.89 L -243.00 -258.25 L -246.34 -258.25 L -255.59 -264.32 L -262.38 -269.71 L -263.05 -272.91 L -266.84 -277.63 L -277.31 -281.00 L -283.10 -284.54 L -293.24 -288.59 L -299.92 -292.46 L -299.37 -296.67 L -297.47 -295.33 L -295.24 -298.02 L -297.47 -304.09 L -294.69 -307.46 L -296.02 -308.98 L -301.04 -302.57 L -311.51 -298.36 L -323.98 -299.88 L -334.46 -303.75 L -334.90 -306.79 L -339.80 -306.11 L -345.04 -308.30 L -356.74 -310.33 L -363.53 -310.49 L -378.79 -308.81 L -384.25 -307.63 L -391.16 -312.01 L -399.73 -314.03 L -402.41 -316.73 L -403.41 -321.28 L -409.31 -320.94 L -411.32 -316.90 L -421.79 -322.29 L -423.46 -324.65 L -434.27 -320.27 L -439.50 -315.04 L -441.73 -319.93 L -439.50 -322.63 L -436.38 -321.95 L -426.13 -325.49 L -427.47 -328.19 L -432.26 -326.84 L -434.15 -330.38 L -438.61 -330.88 L -443.07 -339.82 L -444.74 -337.63 L -450.98 -336.45 L -452.98 -337.63 L -455.10 -334.76 L -462.89 -335.77 L -463.23 -332.57 L -468.46 -331.73 L -470.92 -332.91 L -469.13 -338.64 L -471.36 -338.47 L -474.93 -332.40 L -470.02 -330.38 L -469.58 -326.00 L -466.57 -321.28 L -468.35 -316.22 L -472.25 -317.91 L -473.37 -315.38 L -469.58 -314.37 L -467.46 -307.63 L -472.92 -306.28 L -475.93 -307.63 L -480.72 -305.78 L -483.17 -307.29 L -489.52 -307.12 L -489.30 -309.65 L -492.30 -307.97 L -493.97 -304.76 L -496.65 -307.63 L -499.99 -303.58 L -498.54 -301.73 L -503.22 -299.37 L -507.45 -299.03 L -509.12 -295.83 L -513.69 -292.97 L -516.81 -293.98 L -520.26 -290.61 L -523.05 -290.78 L -528.84 -283.87 L -535.08 -283.36 L -537.08 -285.55 L -540.87 -281.85 L -548.67 -284.71 L -546.89 -289.93 L -541.76 -291.79 L -538.42 -291.45 L -537.42 -293.47 L -531.40 -297.52 L -531.18 -300.89 L -539.09 -296.34 L -545.66 -299.03 L -546.44 -300.89 L -543.10 -308.64 L -537.42 -314.20 L -536.53 -318.75 L -534.86 -319.59 L -534.19 -324.48 L -537.08 -329.87 L -530.07 -331.90 L -516.70 -339.65 L -513.47 -336.61 L -509.35 -335.77 L -503.22 -338.97 L -510.02 -343.19 L -512.69 -346.39 L -518.04 -346.05 L -521.82 -347.57 L -522.94 -346.22 L -529.29 -344.03 L -532.18 -339.82 L -538.53 -338.81 L -545.10 -333.92 L -545.77 -330.72 L -550.79 -329.03 L -551.90 -325.49 L -555.46 -323.30 L -557.14 -317.07 L -564.04 -313.02 L -560.70 -309.82 L -563.48 -305.10 L -569.95 -304.26 L -570.50 -298.19 L -576.52 -296.00 L -578.41 -298.53 L -581.42 -293.81 L -584.98 -293.64 L -584.32 -290.27 L -592.22 -288.25 L -593.78 -278.98 L -584.76 -278.47 L -577.63 -275.95 L -575.63 -272.91 L -578.52 -268.03 L -583.31 -264.99 L -587.77 -264.82 L -588.21 -262.13 L -591.11 -261.12 L -589.77 -257.75 L -592.78 -252.69 L -599.24 -247.97 L -602.92 -247.97 L -606.48 -246.29 L -609.94 -246.62 L -612.61 -244.77 L -611.83 -242.24 L -616.84 -240.89 L -617.85 -237.19 L -621.30 -239.55 L -625.09 -232.30 L -631.44 -232.81 L -630.99 -228.93 L -634.78 -229.94 L -637.45 -228.26 L -637.45 -223.03 L -641.68 -214.94 L -648.48 -213.93 L -654.05 -210.22 L -654.94 -208.20 L -658.51 -211.07 L -664.52 -203.31 L -666.19 -205.50 L -669.53 -204.83 L -670.31 -200.45 L -673.77 -198.76 L -677.89 -199.44 L -681.12 -195.06 L -675.44 -193.71 L -681.56 -183.93 L -699.16 -180.73 L -704.07 -172.14 L -705.29 -173.99 L -704.62 -179.38 L -708.08 -180.23 L -712.42 -178.20 L -713.09 -176.01 L -719.88 -172.47 L -722.78 -168.43 L -723.67 -171.30 L -725.45 -167.92 L -729.46 -170.12 L -736.93 -164.89 L -742.50 -165.06 L -741.72 -169.10 L -744.17 -172.98 L -746.40 -169.78 L -746.17 -166.41 L -753.64 -156.13 L -756.20 -158.66 L -756.98 -154.78 L -762.10 -155.45 L -762.88 -161.52 L -766.00 -162.87 L -767.12 -160.68 L -764.33 -157.98 L -765.67 -153.77 L -769.79 -151.58 L -772.91 -156.30 L -776.70 -156.63 L -777.36 -154.78 L -773.58 -152.08 L -780.48 -147.70 L -775.80 -146.52 L -775.69 -144.50 L -779.59 -146.02 L -784.83 -141.97 L -794.96 -142.14 L -799.98 -139.44 L -800.42 -137.42 L -806.22 -135.06 L -810.45 -135.91 L -811.90 -141.64 L -807.66 -143.49 L -804.43 -150.40 L -800.20 -150.57 L -791.07 -155.12 L -783.71 -155.29 L -780.93 -150.90 L -778.81 -154.11 L -779.26 -157.81 L -775.02 -159.50 L -770.46 -159.50 L -764.33 -167.59 L -757.54 -174.83 L -748.62 -181.24 L -738.15 -184.10 L -733.81 -182.75 L -729.58 -184.61 L -728.46 -181.91 L -730.80 -178.88 L -728.24 -176.52 L -727.46 -180.23 L -722.22 -180.56 L -720.78 -178.20 L -717.54 -177.36 L -717.43 -180.23 L -722.78 -182.75 L -723.23 -184.44 L -719.66 -192.36 L -714.87 -196.91 L -708.41 -201.29 L -698.16 -205.17 L -690.70 -210.73 L -687.13 -208.71 L -684.24 -209.55 L -685.46 -213.09 L -684.57 -216.46 L -678.89 -223.54 L -671.09 -228.09 L -664.85 -234.15 L -665.19 -237.52 L -660.18 -261.45 L -652.38 -267.86 L -653.27 -272.91 L -671.98 -265.67 L -677.89 -266.51 L -679.34 -269.54 L -682.68 -270.89 L -683.79 -274.26 L -686.80 -272.74 L -688.69 -267.52 L -685.46 -260.95 L -689.36 -258.08 L -692.81 -259.09 L -699.50 -269.54 L -704.07 -274.77 L -706.41 -274.77 L -707.96 -270.89 L -709.97 -270.22 L -712.98 -273.42 L -716.65 -273.92 L -718.32 -279.15 L -729.24 -273.25 L -739.04 -269.04 L -739.82 -266.68 L -747.51 -263.14 L -751.30 -266.34 L -747.84 -270.05 L -749.07 -278.81 L -751.63 -288.08 L -746.51 -291.96 L -750.74 -299.71 L -754.42 -304.09 L -757.31 -310.49 L -761.66 -313.19 L -762.77 -307.63 L -768.01 -306.45 L -776.36 -302.91 L -786.39 -301.39 L -791.85 -301.73 L -796.52 -303.58 L -797.08 -308.47 L -801.09 -309.99 L -807.44 -316.73 L -812.79 -318.08 L -819.03 -325.49 L -814.79 -328.86 L -813.90 -335.10 L -817.13 -333.75 L -817.58 -337.63 L -816.02 -340.83 L -820.14 -343.69 L -820.59 -340.66 L -825.60 -341.84 L -826.27 -347.06 L -830.17 -347.74 L -832.28 -351.28 L -832.17 -355.66 L -836.07 -353.64 L -836.74 -357.85 L -831.95 -358.86 L -835.85 -363.58 L -828.94 -363.91 L -828.94 -369.64 L -827.27 -373.52 L -814.46 -385.82 L -811.79 -389.53 L -809.89 -388.86 L -811.01 -394.08 L -806.10 -403.01 L -801.87 -406.55 L -793.96 -408.07 L -787.84 -406.55 L -779.26 -401.16 L -773.69 -401.83 L -766.00 -407.06 L -758.09 -414.98 L -754.08 -415.82 L -753.08 -413.80 L -743.50 -413.80 L -735.03 -415.48 L -727.46 -423.74 L -727.46 -425.76 L -731.25 -433.51 L -731.69 -438.06 L -737.60 -442.95 L -739.82 -447.16 L -733.81 -445.98 L -728.13 -449.52 L -727.79 -452.89 L -735.15 -459.13 L -740.60 -454.24 L -745.73 -455.08 L -750.52 -452.39 L -755.98 -451.71 L -757.31 -449.86 L -763.55 -447.16 L -765.44 -442.61 L -768.56 -440.76 L -770.01 -446.15 L -773.80 -447.33 L -776.47 -443.12 L -778.03 -445.14 L -785.05 -448.18 L -799.42 -448.01 L -809.67 -444.64 L -813.57 -444.13 L -821.92 -446.15 L -837.74 -448.51 L -841.86 -450.37 L -843.76 -453.40 L -842.31 -457.61 L -847.99 -461.15 L -846.87 -465.03 L -843.31 -467.05 L -844.42 -471.94 L -850.11 -471.94 L -854.78 -473.29 L -863.92 -474.30 L -868.71 -476.82 L -876.06 -479.35 L -876.73 -482.55 L -865.25 -486.77 L -850.77 -493.84 L -840.64 -498.06 L -834.84 -495.70 L -828.94 -495.19 L -827.60 -498.56 L -831.17 -499.07 L -831.50 -501.93 L -817.35 -506.65 L -801.43 -510.19 L -792.85 -510.53 L -788.17 -509.35 L -790.62 -504.29 L -789.73 -500.75 L -791.51 -498.23 L -788.50 -494.18 L -782.93 -494.86 L -775.92 -494.18 L -767.78 -495.02 L -765.44 -493.51 L -760.10 -493.17 L -755.42 -494.69 L -749.29 -493.00 L -743.39 -499.74 L -739.16 -500.08 L -736.26 -498.73 L -734.81 -502.61 L -742.94 -504.46 L -750.74 -502.94 L -749.96 -508.00 L -756.09 -513.39 L -762.77 -515.08 L -764.78 -519.97 L -759.54 -521.15 L -752.86 -516.26 L -754.08 -512.38 L -750.85 -509.35 L -743.83 -505.81 L -742.16 -509.52 L -750.18 -514.40 L -746.73 -523.17 L -749.52 -524.68 L -757.42 -522.83 L -765.56 -523.34 L -766.78 -524.85 L -770.90 -523.34 L -787.95 -527.04 L -788.28 -530.92 L -793.40 -539.51 L -797.53 -542.72 L -804.10 -545.41 L -817.47 -552.83 L -823.59 -555.69 L -829.72 -556.37 L -838.85 -561.42 L -847.77 -564.29 L -848.21 -565.30 L -841.53 -566.81 L -838.52 -571.53 L -838.30 -580.97 L -820.25 -580.30 L -798.42 -582.49 L -792.74 -584.17 L -783.71 -588.89 L -775.14 -596.14 L -773.35 -603.38 L -769.68 -609.62 L -762.10 -614.84 L -758.87 -618.72 L -749.52 -624.95 L -748.07 -623.27 L -740.27 -622.76 L -728.91 -625.97 L -721.78 -629.34 L -704.73 -639.78 L -698.27 -640.29 L -697.60 -638.77 L -691.03 -639.95 L -684.57 -639.62 L -671.87 -640.96 L -659.40 -645.51 L -647.03 -654.95 L -642.02 -656.97 L -641.13 -655.29 L -622.08 -651.41 L -620.52 -648.72 L -627.09 -645.18 L -630.10 -645.01 L -629.99 -640.29 L -620.41 -641.81 L -619.85 -644.33 L -615.51 -646.69 L -614.06 -645.35 L -610.83 -650.74 L -601.36 -645.85 L -602.92 -642.14 L -597.01 -641.13 L -593.56 -638.94 L -588.44 -642.48 L -579.41 -642.65 L -574.29 -643.83 L -561.15 -642.65 L -554.46 -641.30 L -557.69 -634.05 L -545.44 -632.20 L -544.55 -630.35 L -532.63 -627.15 L -532.52 -628.66 L -523.94 -630.68 L -515.70 -630.52 L -515.58 -628.83 L -510.79 -628.66 L -505.78 -631.02 L -497.54 -631.36 L -491.75 -630.35 L -483.84 -627.82 L -480.16 -628.32 L -474.93 -624.79 L -471.92 -626.13 L -467.02 -625.12 L -463.45 -622.93 Z M -568.27 -246.96 L -568.39 -245.61 L -575.40 -247.64 L -570.39 -255.56 L -565.82 -256.23 L -562.71 -263.48 L -559.25 -257.07 L -556.36 -259.26 L -550.79 -255.72 L -550.79 -250.84 L -558.92 -250.16 L -562.48 -247.97 L -568.27 -246.96 Z M -588.99 -231.96 L -583.20 -236.01 L -588.44 -236.85 L -588.55 -240.39 L -584.20 -242.75 L -581.09 -241.06 L -580.64 -237.52 L -578.86 -239.88 L -578.75 -245.11 L -574.96 -242.75 L -574.29 -246.12 L -570.95 -244.10 L -566.94 -244.10 L -563.82 -245.95 L -558.69 -242.75 L -558.69 -233.82 L -552.23 -234.49 L -556.47 -228.59 L -564.26 -230.95 L -561.37 -227.08 L -563.60 -223.87 L -567.61 -225.39 L -567.72 -219.32 L -573.84 -217.64 L -575.85 -215.11 L -579.64 -217.47 L -583.65 -211.07 L -586.77 -210.39 L -590.11 -207.53 L -591.33 -214.44 L -596.01 -210.73 L -596.24 -212.92 L -600.47 -215.11 L -600.80 -221.35 L -604.92 -223.87 L -602.58 -231.12 L -594.45 -235.67 L -589.44 -235.33 L -588.99 -231.96 Z M -600.69 -203.15 L -604.92 -196.91 L -606.26 -197.92 L -600.69 -203.15 Z M -623.08 -182.25 L -619.85 -181.91 L -620.96 -175.51 L -626.31 -176.35 L -627.20 -178.54 L -623.08 -182.25 Z M -709.64 -162.53 L -710.86 -155.96 L -717.10 -150.57 L -714.09 -158.82 L -711.97 -157.98 L -709.64 -162.53 Z M -722.45 -164.89 L -718.66 -164.89 L -718.77 -161.52 L -722.56 -157.81 L -725.90 -160.34 L -728.02 -157.98 L -729.24 -163.71 L -728.13 -165.57 L -722.45 -164.89 Z M -757.76 -153.26 L -757.31 -150.57 L -759.65 -148.88 L -761.43 -151.75 L -757.76 -153.26 Z M -760.99 -419.53 L -764.00 -416.49 L -765.00 -419.19 L -760.99 -419.53 Z M -768.90 -138.10 L -764.55 -136.92 L -765.00 -134.39 L -768.45 -134.56 L -768.90 -138.10 Z M -824.71 -132.20 L -823.26 -128.66 L -826.38 -127.14 L -827.49 -130.85 L -824.71 -132.20 Z M -828.61 -127.82 L -834.84 -124.45 L -836.18 -126.81 L -833.51 -129.84 L -828.61 -127.82 Z M -841.30 -318.75 L -836.63 -319.93 L -835.62 -317.74 L -831.50 -318.25 L -827.49 -316.22 L -826.71 -307.46 L -828.83 -304.60 L -834.06 -302.91 L -835.18 -299.88 L -842.86 -303.25 L -846.43 -303.08 L -854.12 -307.46 L -856.79 -307.46 L -861.24 -309.99 L -862.80 -314.03 L -860.58 -315.04 L -853.00 -314.03 L -849.44 -317.23 L -845.65 -317.57 L -843.98 -319.76 L -841.30 -318.75 Z M -841.53 -123.44 L -838.19 -121.08 L -844.98 -115.35 L -844.87 -114.33 L -836.29 -118.55 L -836.18 -116.19 L -839.63 -113.32 L -845.20 -111.47 L -845.76 -108.61 L -851.78 -105.57 L -857.01 -105.40 L -860.46 -102.54 L -866.93 -100.01 L -870.38 -102.71 L -863.58 -105.91 L -861.47 -105.40 L -856.34 -108.10 L -857.57 -111.13 L -854.67 -114.33 L -850.33 -112.82 L -849.88 -114.84 L -854.56 -115.51 L -857.12 -117.71 L -854.90 -121.41 L -846.99 -123.60 L -845.32 -119.39 L -841.53 -123.44 Z M -890.65 -97.15 L -882.86 -103.04 L -882.41 -105.57 L -879.40 -108.44 L -874.72 -109.78 L -872.27 -108.27 L -871.38 -104.22 L -880.07 -99.84 L -884.75 -93.44 L -888.54 -91.25 L -890.65 -97.15 Z M -910.15 -89.06 L -909.26 -86.02 L -914.49 -85.85 L -915.05 -87.88 L -910.15 -89.06 Z M -918.28 -222.19 L -921.06 -219.32 L -921.62 -222.19 L -918.28 -222.19 Z M -928.86 -82.99 L -927.53 -80.13 L -931.31 -78.10 L -931.87 -81.14 L -928.86 -82.99 Z M -950.70 -422.05 L -934.54 -417.50 L -925.19 -421.38 L -920.95 -421.04 L -917.17 -418.85 L -916.16 -415.15 L -908.03 -413.12 L -905.47 -411.27 L -894.89 -410.43 L -888.54 -409.08 L -891.99 -404.53 L -897.11 -405.54 L -902.57 -404.70 L -905.36 -402.67 L -907.92 -398.12 L -911.82 -402.34 L -916.39 -405.20 L -920.62 -405.54 L -922.62 -408.74 L -932.87 -412.79 L -937.66 -412.95 L -945.01 -409.42 L -950.58 -411.27 L -952.92 -414.98 L -950.70 -422.05 Z M -964.73 -73.55 L -964.40 -70.01 L -968.30 -69.34 L -967.52 -72.37 L -964.73 -73.55 Z M -989.02 -66.14 L -986.34 -64.79 L -978.77 -64.96 L -978.43 -63.95 L -987.46 -62.43 L -989.02 -66.14 Z M -1003.16 -70.18 L -1003.27 -73.22 L -1000.38 -74.40 L -996.26 -71.36 L -997.82 -68.50 L -1000.27 -68.67 L -999.49 -65.46 L -1003.39 -65.13 L -1011.63 -61.76 L -1016.31 -62.77 L -1014.97 -65.13 L -1009.96 -64.79 L -1003.16 -70.18 Z M -1046.83 -57.04 L -1043.15 -57.54 L -1043.15 -53.67 L -1047.83 -54.17 L -1053.62 -49.62 L -1055.85 -55.69 L -1053.40 -55.86 L -1053.07 -60.41 L -1050.06 -60.58 L -1050.06 -57.21 L -1046.83 -57.04 Z M -1060.75 -59.90 L -1058.53 -58.39 L -1060.09 -53.16 L -1063.20 -51.65 L -1063.32 -54.85 L -1060.75 -59.90 Z M -1080.47 -59.06 L -1077.02 -58.89 L -1073.90 -55.18 L -1077.24 -50.80 L -1080.47 -59.06 Z M -1263.20 -92.09 L -1266.99 -90.07 L -1267.21 -86.87 L -1299.76 -85.01 L -1294.41 -90.07 L -1294.41 -92.43 L -1263.20 -92.09 Z"
  />
  <path
    id="US-04"
    class="region-path"
    data-region-id="US-04"
    data-region-name="Arizona"
    d="M 324.56 399.99 L 324.45 574.41 L 283.23 574.41 L 259.39 562.95 L 207.15 538.68 L 209.04 531.78 L 213.05 530.60 L 214.17 527.90 L 213.05 522.17 L 210.27 522.00 L 208.93 510.54 L 213.05 506.16 L 213.61 501.61 L 212.83 494.36 L 215.28 488.97 L 218.51 486.95 L 220.96 482.90 L 216.95 478.52 L 214.17 470.43 L 210.82 465.38 L 210.82 461.50 L 212.05 457.29 L 211.60 451.56 L 209.93 445.66 L 208.71 427.63 L 216.17 426.45 L 218.62 430.16 L 220.63 429.99 L 222.74 424.76 L 222.74 399.99 L 294.93 399.82 L 324.56 399.99 Z"
  />
  <path
    id="US-05"
    class="region-path"
    data-region-id="US-05"
    data-region-name="Arkansas"
    d="M 620.87 415.33 L 708.76 415.50 L 710.54 421.39 L 707.43 425.10 L 704.19 430.83 L 717.34 430.83 L 716.67 436.56 L 713.66 438.25 L 713.00 442.96 L 709.21 448.02 L 709.54 455.44 L 707.54 460.83 L 705.53 461.67 L 706.76 464.37 L 703.53 466.73 L 702.08 471.95 L 699.96 473.30 L 700.30 479.37 L 696.62 481.05 L 696.73 483.07 L 692.50 488.13 L 693.72 491.50 L 690.05 496.39 L 686.82 505.82 L 690.38 509.87 L 688.60 512.40 L 689.71 518.80 L 688.15 523.01 L 638.47 522.51 L 629.67 522.51 L 629.67 506.16 L 626.77 504.81 L 622.76 506.33 L 620.65 503.46 L 621.76 449.37 L 617.97 415.33 L 620.87 415.33 Z"
  />
  <path
    id="US-06"
    class="region-path"
    data-region-id="US-06"
    data-region-name="California"
    d="M 35.93 245.96 L 53.31 245.79 L 80.60 246.30 L 101.66 246.30 L 101.77 299.55 L 101.66 338.48 L 127.83 366.12 L 152.56 393.25 L 172.06 415.33 L 186.09 431.67 L 210.82 461.50 L 210.82 465.38 L 214.17 470.43 L 216.95 478.52 L 220.96 482.90 L 218.51 486.95 L 215.28 488.97 L 212.83 494.36 L 213.61 501.61 L 213.05 506.16 L 208.93 510.54 L 210.27 522.00 L 213.05 522.17 L 214.17 527.90 L 213.05 530.60 L 209.04 531.78 L 182.08 534.64 L 160.14 537.34 L 157.69 533.29 L 157.58 526.89 L 156.02 519.30 L 153.12 513.91 L 146.77 506.50 L 138.64 499.59 L 137.08 501.44 L 133.96 500.26 L 134.41 497.23 L 130.84 490.99 L 126.05 492.34 L 117.59 487.79 L 116.36 484.08 L 110.68 479.53 L 104.22 479.70 L 98.87 477.68 L 92.08 478.52 L 88.51 474.48 L 89.29 465.88 L 88.07 464.54 L 88.85 458.47 L 83.50 453.92 L 83.28 447.68 L 81.27 447.35 L 77.93 441.95 L 75.59 440.77 L 74.59 437.40 L 66.79 424.76 L 63.11 421.06 L 62.33 411.11 L 63.89 411.96 L 65.34 406.06 L 62.45 400.67 L 58.88 401.34 L 54.20 396.45 L 52.53 392.58 L 52.87 388.87 L 50.53 383.98 L 50.53 375.89 L 54.31 375.89 L 52.75 364.60 L 51.08 365.78 L 50.75 371.34 L 46.74 372.52 L 41.95 368.31 L 41.17 361.06 L 38.05 355.33 L 33.93 351.79 L 31.70 347.75 L 25.69 339.83 L 26.69 337.47 L 23.90 327.19 L 25.13 321.46 L 23.35 312.87 L 18.11 304.44 L 12.99 299.72 L 11.98 294.16 L 17.11 280.68 L 18.11 276.13 L 17.11 272.59 L 19.00 263.32 L 17.33 254.90 L 15.10 252.87 L 15.99 246.13 L 35.93 245.96 Z"
  />
  <path
    id="US-08"
    class="region-path"
    data-region-id="US-08"
    data-region-name="Colorado"
    d="M 347.40 276.80 L 391.95 276.97 L 426.04 276.80 L 466.70 276.80 L 466.70 307.64 L 466.92 400.16 L 447.43 399.99 L 420.25 400.16 L 368.78 400.16 L 357.53 399.99 L 324.56 399.99 L 324.56 364.10 L 324.23 360.73 L 324.34 334.61 L 324.45 276.97 L 347.40 276.80 Z"
  />
  <path
    id="US-09"
    class="region-path"
    data-region-id="US-09"
    data-region-name="Connecticut"
    d="M 1056.54 244.95 L 1082.05 245.46 L 1082.05 245.96 L 1082.05 264.16 L 1080.82 267.03 L 1079.04 266.52 L 1070.13 268.88 L 1059.55 268.21 L 1054.98 272.42 L 1050.08 273.77 L 1044.28 277.31 L 1042.84 273.77 L 1047.85 270.40 L 1046.40 267.87 L 1047.74 244.62 L 1056.54 244.95 Z"
  />
  <path
    id="US-10"
    class="region-path"
    data-region-id="US-10"
    data-region-name="Delaware"
    d="M 1008.53 313.71 L 1006.63 317.42 L 1004.52 319.44 L 1004.96 324.33 L 1007.97 328.88 L 1008.75 336.46 L 1013.09 344.38 L 1015.10 344.72 L 1015.99 355.33 L 1002.85 355.00 L 1000.95 316.24 L 1004.41 312.87 L 1008.53 313.71 Z"
  />
  <path
    id="US-11"
    class="region-path"
    data-region-id="US-11"
    data-region-name="District of Columbia"
    d="M 975.55 338.65 L 978.12 341.68 L 975.44 344.89 L 973.88 340.50 L 975.55 338.65 Z"
  />
  <path
    id="US-12"
    class="region-path"
    data-region-id="US-12"
    data-region-name="Florida"
    d="M 803.45 584.69 L 813.47 584.52 L 816.26 593.45 L 844.11 595.48 L 870.17 597.84 L 871.18 604.41 L 873.63 604.24 L 874.52 598.00 L 873.74 592.27 L 875.63 589.92 L 880.31 592.44 L 885.88 593.62 L 887.11 606.94 L 889.67 621.93 L 895.57 641.65 L 904.60 662.72 L 903.26 664.23 L 903.70 674.01 L 907.49 684.96 L 913.40 707.04 L 914.62 713.95 L 914.51 721.02 L 912.28 746.47 L 910.39 746.98 L 908.38 754.90 L 909.05 757.43 L 905.15 763.16 L 903.59 761.81 L 899.81 764.17 L 893.34 765.51 L 891.45 762.31 L 892.34 757.59 L 887.77 743.94 L 884.21 741.42 L 881.09 743.27 L 878.64 735.69 L 877.97 729.45 L 873.74 722.54 L 872.74 717.99 L 873.40 711.42 L 871.07 710.24 L 871.62 714.12 L 869.51 715.13 L 863.04 698.44 L 860.48 694.23 L 866.61 681.93 L 862.60 682.60 L 859.93 686.48 L 857.25 680.41 L 860.82 663.56 L 861.49 649.57 L 859.03 646.20 L 858.25 641.65 L 854.36 640.64 L 849.79 633.23 L 846.11 630.19 L 845.89 625.64 L 843.33 623.96 L 841.21 618.90 L 833.41 612.16 L 826.62 613.68 L 826.95 618.40 L 824.72 617.55 L 816.26 623.28 L 807.24 624.63 L 807.46 621.26 L 805.34 617.22 L 794.76 608.12 L 787.18 604.24 L 780.39 603.23 L 774.71 603.90 L 762.34 606.77 L 765.35 602.22 L 763.79 599.69 L 764.57 594.63 L 760.00 588.74 L 760.67 584.69 L 803.45 584.69 Z"
  />
  <path
    id="US-13"
    class="region-path"
    data-region-id="US-13"
    data-region-name="Georgia"
    d="M 852.02 461.50 L 847.67 468.07 L 847.34 471.28 L 854.13 477.85 L 856.25 477.34 L 859.37 484.08 L 860.04 487.62 L 863.27 494.03 L 867.95 497.90 L 870.62 503.63 L 876.08 508.86 L 875.86 512.40 L 879.42 518.13 L 884.88 522.84 L 886.21 527.90 L 886.44 534.47 L 889.22 536.66 L 892.45 544.92 L 892.56 550.14 L 897.24 552.84 L 892.23 563.29 L 891.34 568.68 L 889.22 573.40 L 889.00 578.29 L 886.77 580.48 L 885.88 593.62 L 880.31 592.44 L 875.63 589.92 L 873.74 592.27 L 874.52 598.00 L 873.63 604.24 L 871.18 604.41 L 870.17 597.84 L 844.11 595.48 L 816.26 593.45 L 813.47 584.52 L 811.25 576.10 L 812.69 568.01 L 810.69 558.74 L 812.47 553.51 L 812.36 549.64 L 815.81 545.76 L 813.47 543.91 L 814.36 540.88 L 812.14 535.99 L 809.80 527.39 L 804.78 488.47 L 801.22 462.01 L 827.40 461.84 L 841.66 462.01 L 852.02 461.50 Z"
  />
  <path
    id="US-15"
    class="region-path"
    data-region-id="US-15"
    data-region-name="Hawaii"
    d="M -623.08 955.44 L -628.09 952.74 L -628.87 950.05 L -628.21 943.14 L -631.77 931.34 L -628.99 927.46 L -626.98 922.07 L -628.43 918.53 L -627.98 914.82 L -622.30 919.21 L -615.95 922.41 L -612.05 927.13 L -612.05 931.17 L -606.26 937.74 L -609.83 943.14 L -616.17 945.66 L -620.63 949.71 L -623.08 955.44 Z M -642.46 891.40 L -640.12 895.61 L -637.12 893.76 L -630.54 898.65 L -631.55 903.03 L -638.23 905.22 L -639.57 904.38 L -639.90 898.98 L -643.36 897.80 L -644.69 894.77 L -642.46 891.40 Z M -650.48 885.84 L -652.49 889.04 L -657.17 889.04 L -655.72 885.50 L -650.48 885.84 Z M -670.20 870.84 L -667.97 878.09 L -669.09 882.30 L -673.43 882.97 L -676.33 874.38 L -673.77 874.21 L -670.20 870.84 Z M -701.06 854.49 L -698.72 854.83 L -697.60 858.03 L -698.27 862.58 L -700.61 865.45 L -707.07 861.91 L -706.29 856.85 L -701.06 854.49 Z"
  />
  <path
    id="US-16"
    class="region-path"
    data-region-id="US-16"
    data-region-name="Idaho"
    d="M 182.08 30.76 L 182.08 62.28 L 188.66 70.87 L 188.77 79.30 L 192.67 83.00 L 196.79 84.35 L 197.23 86.54 L 204.81 94.80 L 205.70 98.17 L 211.05 101.37 L 211.27 103.39 L 217.17 103.23 L 214.28 114.69 L 213.72 121.93 L 215.84 126.65 L 212.16 130.02 L 213.61 133.22 L 212.61 136.59 L 216.95 139.80 L 221.96 135.58 L 223.97 132.21 L 227.65 135.25 L 227.09 137.77 L 229.09 143.67 L 232.44 149.91 L 234.89 152.10 L 234.77 158.00 L 237.11 160.52 L 241.35 160.86 L 244.02 170.80 L 246.36 172.49 L 248.48 169.62 L 254.83 169.79 L 259.50 167.10 L 262.29 168.61 L 267.08 167.26 L 268.08 168.95 L 272.20 167.77 L 276.88 161.37 L 280.11 166.76 L 283.79 169.96 L 283.79 246.13 L 261.06 246.30 L 222.86 246.30 L 162.14 246.13 L 162.14 189.85 L 164.82 179.73 L 163.15 177.21 L 159.25 176.70 L 157.80 172.49 L 161.92 161.53 L 164.04 160.52 L 166.15 155.97 L 165.82 153.11 L 168.16 149.40 L 169.39 144.01 L 173.62 134.91 L 171.95 130.69 L 167.16 128.50 L 164.37 123.28 L 164.26 117.89 L 161.59 112.49 L 161.92 109.97 L 161.81 68.85 L 162.03 30.76 L 182.08 30.76 Z"
  />
  <path
    id="US-17"
    class="region-path"
    data-region-id="US-17"
    data-region-name="Illinois"
    d="M 698.85 230.46 L 736.50 230.97 L 756.55 230.97 L 755.88 236.86 L 759.00 243.77 L 762.23 255.06 L 762.12 327.70 L 759.89 333.26 L 762.45 339.83 L 762.79 345.22 L 760.23 349.60 L 759.56 353.65 L 755.88 360.22 L 753.54 360.73 L 754.10 364.60 L 752.54 366.12 L 751.32 373.37 L 751.98 375.39 L 749.31 379.77 L 751.20 385.16 L 742.85 388.03 L 742.07 391.23 L 743.96 395.27 L 741.40 397.80 L 733.94 393.08 L 731.60 393.42 L 728.48 398.81 L 729.48 400.50 L 726.25 400.16 L 721.68 391.40 L 723.35 389.38 L 721.68 383.48 L 721.68 378.76 L 715.11 372.19 L 712.88 372.86 L 710.66 368.82 L 704.64 362.58 L 704.75 357.69 L 708.20 349.77 L 707.65 346.91 L 709.65 343.20 L 706.76 341.01 L 702.30 339.66 L 699.96 342.53 L 698.40 340.67 L 697.07 330.56 L 690.27 323.99 L 684.03 316.07 L 681.47 306.63 L 681.25 300.40 L 683.03 296.01 L 683.36 290.45 L 689.05 287.08 L 689.60 282.36 L 692.28 279.33 L 692.61 273.94 L 689.27 269.56 L 690.60 264.16 L 698.51 262.65 L 704.86 258.77 L 705.53 254.05 L 708.20 252.03 L 708.98 246.13 L 708.43 242.26 L 703.86 239.22 L 703.30 236.02 L 698.85 230.46 Z"
  />
  <path
    id="US-18"
    class="region-path"
    data-region-id="US-18"
    data-region-name="Indiana"
    d="M 793.42 253.55 L 817.48 253.55 L 817.48 255.57 L 817.60 292.31 L 817.26 335.28 L 815.70 336.63 L 817.37 345.05 L 813.81 345.22 L 810.02 348.09 L 804.78 346.74 L 805.01 352.81 L 801.55 355.33 L 800.22 359.21 L 796.65 360.73 L 794.76 368.48 L 792.42 370.50 L 787.85 367.64 L 787.07 364.10 L 782.62 367.97 L 782.95 371.34 L 778.38 372.52 L 777.05 369.49 L 771.92 372.52 L 770.25 375.72 L 765.13 371.17 L 762.45 372.19 L 760.67 370.00 L 759.00 372.19 L 753.88 372.52 L 751.98 375.39 L 751.32 373.37 L 752.54 366.12 L 754.10 364.60 L 753.54 360.73 L 755.88 360.22 L 759.56 353.65 L 760.23 349.60 L 762.79 345.22 L 762.45 339.83 L 759.89 333.26 L 762.12 327.70 L 762.23 255.06 L 764.24 257.09 L 770.48 257.09 L 776.49 253.55 L 793.42 253.55 Z"
  />
  <path
    id="US-19"
    class="region-path"
    data-region-id="US-19"
    data-region-name="Iowa"
    d="M 684.03 199.96 L 687.15 199.96 L 687.37 204.51 L 690.38 207.54 L 687.93 211.25 L 688.60 218.16 L 690.16 223.04 L 697.40 226.58 L 698.85 230.46 L 703.30 236.02 L 703.86 239.22 L 708.43 242.26 L 708.98 246.13 L 708.20 252.03 L 705.53 254.05 L 704.86 258.77 L 698.51 262.65 L 690.60 264.16 L 689.27 269.56 L 692.61 273.94 L 692.28 279.33 L 689.60 282.36 L 689.05 287.08 L 683.36 290.45 L 683.03 296.01 L 680.80 295.00 L 676.68 288.77 L 674.56 288.94 L 645.60 289.78 L 617.64 290.12 L 594.58 289.61 L 592.24 285.57 L 593.36 277.65 L 591.35 270.74 L 591.46 262.98 L 587.90 260.29 L 587.34 256.07 L 588.57 252.37 L 587.23 246.97 L 584.44 244.95 L 580.77 231.13 L 576.98 224.39 L 578.76 219.84 L 579.43 213.78 L 580.99 211.59 L 578.43 208.55 L 579.10 203.16 L 577.98 200.63 L 580.66 199.96 L 684.03 199.96 Z"
  />
  <path
    id="US-20"
    class="region-path"
    data-region-id="US-20"
    data-region-name="Kansas"
    d="M 469.71 307.64 L 603.94 307.64 L 605.94 310.51 L 612.52 312.87 L 607.95 321.80 L 610.51 324.83 L 613.74 332.08 L 618.09 333.59 L 617.97 399.99 L 506.69 399.99 L 466.92 400.16 L 466.70 307.64 L 469.71 307.64 Z"
  />
  <path
    id="US-21"
    class="region-path"
    data-region-id="US-21"
    data-region-name="Kentucky"
    d="M 835.86 345.56 L 840.43 349.77 L 843.66 347.58 L 851.35 349.94 L 853.58 346.91 L 856.47 345.90 L 857.36 351.12 L 859.70 351.96 L 862.49 356.18 L 861.93 365.45 L 864.38 371.34 L 867.61 375.89 L 868.61 379.43 L 872.51 382.97 L 875.19 383.48 L 867.39 391.73 L 859.93 396.28 L 859.93 398.64 L 856.92 400.67 L 856.70 403.36 L 852.80 404.54 L 851.46 407.91 L 840.54 412.29 L 840.21 412.80 L 822.83 412.46 L 807.68 411.45 L 803.67 411.79 L 781.17 410.61 L 755.55 411.28 L 751.09 409.93 L 751.43 415.50 L 726.14 415.16 L 723.69 415.50 L 724.80 411.62 L 727.81 412.97 L 729.48 400.50 L 728.48 398.81 L 731.60 393.42 L 733.94 393.08 L 741.40 397.80 L 743.96 395.27 L 742.07 391.23 L 742.85 388.03 L 751.20 385.16 L 749.31 379.77 L 751.98 375.39 L 753.88 372.52 L 759.00 372.19 L 760.67 370.00 L 762.45 372.19 L 765.13 371.17 L 770.25 375.72 L 771.92 372.52 L 777.05 369.49 L 778.38 372.52 L 782.95 371.34 L 782.62 367.97 L 787.07 364.10 L 787.85 367.64 L 792.42 370.50 L 794.76 368.48 L 796.65 360.73 L 800.22 359.21 L 801.55 355.33 L 805.01 352.81 L 804.78 346.74 L 810.02 348.09 L 813.81 345.22 L 817.37 345.05 L 815.70 336.63 L 817.26 335.28 L 825.06 335.28 L 829.18 341.68 L 829.51 344.38 L 835.86 345.56 Z"
  />
  <path
    id="US-22"
    class="region-path"
    data-region-id="US-22"
    data-region-name="Louisiana"
    d="M 638.47 522.51 L 688.15 523.01 L 690.05 526.55 L 688.60 527.90 L 688.38 534.13 L 691.38 538.01 L 691.83 547.11 L 689.38 554.19 L 684.59 558.57 L 683.36 565.48 L 681.36 564.81 L 681.02 576.10 L 678.57 576.43 L 680.02 582.50 L 678.57 584.69 L 717.01 584.69 L 715.00 594.80 L 718.34 601.54 L 719.12 606.60 L 721.57 609.80 L 715.56 614.01 L 715.11 617.05 L 720.01 619.07 L 722.13 614.18 L 726.36 619.07 L 726.03 622.95 L 723.58 624.63 L 719.01 623.11 L 719.57 625.98 L 718.01 630.36 L 721.91 634.24 L 728.14 635.42 L 730.37 639.97 L 732.16 640.64 L 728.92 645.86 L 725.36 644.85 L 722.35 639.46 L 714.89 636.60 L 714.89 631.37 L 711.21 633.06 L 711.44 637.44 L 709.76 641.48 L 707.09 642.16 L 705.09 637.61 L 700.41 637.44 L 698.74 642.16 L 695.62 643.51 L 692.28 640.64 L 689.60 640.30 L 687.04 632.72 L 682.47 629.35 L 680.69 629.85 L 678.91 623.45 L 673.56 624.29 L 673.45 620.42 L 668.21 624.13 L 668.88 626.99 L 664.87 629.69 L 658.63 628.34 L 651.39 624.13 L 646.27 622.27 L 635.24 623.79 L 633.79 624.97 L 632.01 621.93 L 636.80 610.98 L 635.24 605.08 L 636.69 601.88 L 636.02 597.67 L 638.03 594.47 L 640.14 586.54 L 639.81 579.97 L 634.24 567.50 L 634.13 560.76 L 629.67 554.02 L 629.67 522.51 L 638.47 522.51 Z"
  />
  <path
    id="US-23"
    class="region-path"
    data-region-id="US-23"
    data-region-name="Maine"
    d="M 1104.33 213.61 L 1101.88 211.42 L 1102.21 208.38 L 1098.98 204.84 L 1097.64 164.40 L 1096.64 144.51 L 1105.44 140.30 L 1103.99 138.11 L 1107.33 133.39 L 1110.79 131.20 L 1110.12 129.35 L 1113.35 126.48 L 1112.35 121.09 L 1114.35 113.00 L 1117.47 110.30 L 1118.70 101.71 L 1134.40 78.12 L 1138.08 79.13 L 1138.30 84.86 L 1140.98 86.88 L 1147.55 83.51 L 1151.67 83.51 L 1154.57 81.32 L 1160.25 86.21 L 1163.59 90.25 L 1163.81 124.80 L 1163.37 133.05 L 1170.38 135.25 L 1169.38 138.78 L 1171.16 142.15 L 1169.72 145.19 L 1172.61 149.91 L 1176.40 148.90 L 1180.08 159.85 L 1175.84 164.74 L 1173.39 162.88 L 1171.39 166.25 L 1168.49 165.41 L 1168.16 168.28 L 1164.37 167.94 L 1158.35 174.51 L 1156.91 169.96 L 1154.79 169.62 L 1155.79 174.51 L 1151.11 176.87 L 1150.00 172.99 L 1147.77 175.02 L 1142.54 175.02 L 1142.42 170.47 L 1139.31 171.48 L 1139.86 174.68 L 1136.97 181.42 L 1137.52 183.27 L 1133.74 186.98 L 1129.95 185.63 L 1127.72 189.51 L 1124.60 190.01 L 1122.04 193.22 L 1118.92 192.54 L 1118.03 189.17 L 1113.46 194.56 L 1114.69 197.93 L 1111.34 199.11 L 1111.12 201.98 L 1107.33 205.52 L 1104.33 213.61 Z"
  />
  <path
    id="US-24"
    class="region-path"
    data-region-id="US-24"
    data-region-name="Maryland"
    d="M 996.72 370.67 L 996.27 370.67 L 995.72 370.67 L 996.72 370.67 Z M 925.87 316.24 L 1000.95 316.24 L 1002.85 355.00 L 1015.99 355.33 L 1011.98 368.31 L 1008.86 368.82 L 1003.29 370.67 L 998.95 372.02 L 999.06 366.96 L 997.39 364.94 L 999.73 362.75 L 996.61 357.69 L 995.61 359.88 L 991.37 359.38 L 989.92 353.82 L 991.26 353.82 L 991.37 346.57 L 992.71 343.71 L 990.93 333.93 L 993.15 328.20 L 996.61 327.19 L 997.16 321.29 L 994.60 321.97 L 994.49 325.00 L 989.14 328.88 L 987.58 332.41 L 987.25 341.35 L 985.25 345.56 L 986.14 352.64 L 988.81 357.52 L 988.48 361.23 L 990.15 364.94 L 989.26 367.47 L 984.58 362.58 L 977.89 360.22 L 975.89 355.50 L 972.10 358.20 L 970.65 354.49 L 973.66 349.77 L 975.44 344.89 L 978.12 341.68 L 975.55 338.65 L 973.88 340.50 L 971.21 337.64 L 966.98 336.12 L 966.98 331.57 L 964.75 329.04 L 961.63 328.54 L 959.29 319.94 L 955.84 319.94 L 952.38 317.08 L 950.49 319.44 L 947.15 319.27 L 946.37 322.64 L 940.35 320.45 L 936.34 325.00 L 933.67 323.99 L 929.66 329.21 L 925.65 332.08 L 925.87 316.24 Z"
  />
  <path
    id="US-25"
    class="region-path"
    data-region-id="US-25"
    data-region-name="Massachusetts"
    d="M 1099.98 218.83 L 1101.99 219.34 L 1102.77 224.73 L 1101.88 229.11 L 1098.65 233.16 L 1098.53 237.87 L 1102.99 238.55 L 1105.66 243.44 L 1105.22 247.31 L 1107.45 248.32 L 1107.67 251.86 L 1113.35 254.90 L 1119.92 252.03 L 1118.47 256.24 L 1108.78 259.95 L 1105.22 260.12 L 1103.10 257.25 L 1099.76 258.10 L 1099.65 260.29 L 1095.86 261.64 L 1094.30 256.07 L 1093.74 255.06 L 1091.63 252.87 L 1090.51 245.63 L 1087.51 245.63 L 1082.05 245.96 L 1082.05 245.46 L 1056.54 244.95 L 1047.74 244.62 L 1047.29 243.44 L 1052.19 223.21 L 1068.68 223.72 L 1092.30 224.73 L 1094.52 221.86 L 1099.98 218.83 Z"
  />
  <path
    id="US-26"
    class="region-path"
    data-region-id="US-26"
    data-region-name="Michigan"
    d="M 845.00 254.39 L 817.48 255.57 L 817.48 253.55 L 793.42 253.55 L 776.49 253.55 L 780.61 249.50 L 783.40 242.59 L 785.96 238.38 L 787.85 232.48 L 788.97 224.06 L 788.52 214.96 L 782.51 197.09 L 784.40 190.35 L 783.06 182.26 L 787.74 174.00 L 788.74 167.10 L 788.08 163.39 L 791.42 161.87 L 791.86 156.82 L 797.10 155.47 L 801.11 149.91 L 800.77 161.03 L 802.89 161.53 L 805.56 155.97 L 805.68 146.54 L 807.35 144.18 L 812.92 142.66 L 811.13 136.09 L 814.81 130.53 L 819.38 130.19 L 824.50 133.73 L 829.51 134.23 L 831.97 138.62 L 835.75 138.95 L 842.10 143.00 L 844.33 142.83 L 847.78 149.40 L 845.00 152.94 L 847.67 157.49 L 848.67 162.71 L 847.45 174.17 L 843.33 177.04 L 842.33 182.94 L 837.42 184.96 L 834.75 192.04 L 835.75 194.73 L 840.65 197.26 L 844.44 193.38 L 848.90 185.46 L 855.92 182.43 L 859.37 184.79 L 861.49 189.17 L 863.60 201.98 L 863.94 208.38 L 866.16 216.14 L 864.05 227.26 L 860.71 228.94 L 860.59 224.90 L 858.37 226.08 L 855.80 235.35 L 851.68 238.89 L 850.46 245.96 L 845.33 251.86 L 845.00 254.39 Z M 803.23 131.37 L 803.56 135.08 L 800.89 135.75 L 802.00 130.53 L 803.23 131.37 Z M 760.90 150.92 L 757.78 147.72 L 759.67 143.33 L 754.88 142.66 L 756.77 138.45 L 757.00 133.05 L 752.76 129.35 L 750.42 125.47 L 741.74 122.44 L 739.06 123.45 L 730.37 118.90 L 709.43 112.66 L 707.20 107.44 L 703.42 105.59 L 711.32 102.38 L 714.89 98.68 L 723.80 97.16 L 729.59 92.61 L 732.27 92.44 L 734.49 89.24 L 740.84 84.69 L 744.07 80.81 L 748.86 78.28 L 753.43 80.48 L 745.41 89.91 L 743.52 93.11 L 743.63 98.84 L 747.53 94.46 L 754.55 95.14 L 760.00 98.17 L 764.91 106.60 L 767.58 108.11 L 772.70 106.76 L 773.93 108.62 L 779.05 109.63 L 789.97 102.55 L 795.65 101.88 L 803.23 102.21 L 808.35 99.86 L 812.25 99.69 L 813.03 108.28 L 817.04 109.46 L 821.05 108.11 L 822.72 110.14 L 825.39 107.61 L 831.30 106.76 L 831.41 117.55 L 834.08 122.10 L 838.09 123.28 L 838.54 120.25 L 842.44 120.25 L 844.55 123.45 L 842.77 125.81 L 831.63 123.79 L 826.28 125.13 L 820.49 121.43 L 818.82 124.80 L 819.60 127.66 L 817.04 126.99 L 813.25 122.77 L 806.68 120.25 L 803.34 120.08 L 800.11 124.12 L 794.76 125.13 L 788.97 124.29 L 786.63 125.98 L 786.07 129.35 L 779.72 132.21 L 780.06 128.17 L 777.27 127.32 L 776.16 131.54 L 771.48 131.71 L 769.36 133.56 L 766.24 140.81 L 760.45 150.07 L 760.90 150.92 Z M 736.17 62.28 L 731.04 66.15 L 728.37 66.66 L 728.59 63.45 L 741.40 56.21 L 738.95 61.26 L 736.17 62.28 Z"
  />
  <path
    id="US-27"
    class="region-path"
    data-region-id="US-27"
    data-region-name="Minnesota"
    d="M 670.89 101.37 L 669.33 100.02 L 665.21 102.55 L 665.21 120.75 L 663.98 122.61 L 658.19 125.13 L 653.51 131.71 L 653.18 136.09 L 655.51 136.42 L 658.08 140.30 L 655.74 145.02 L 656.18 150.24 L 654.74 161.53 L 660.08 167.10 L 664.32 167.60 L 666.43 170.97 L 672.67 174.34 L 673.67 178.39 L 679.46 183.61 L 682.70 184.79 L 686.59 191.53 L 686.04 196.42 L 687.15 199.96 L 684.03 199.96 L 580.66 199.96 L 580.66 144.68 L 575.98 141.14 L 572.41 135.25 L 577.98 128.67 L 578.43 125.13 L 577.65 112.83 L 575.20 109.63 L 573.53 102.89 L 573.86 94.63 L 573.08 93.28 L 572.41 73.57 L 568.40 63.12 L 566.84 57.22 L 566.18 44.75 L 567.51 40.54 L 564.84 30.76 L 607.06 30.76 L 607.06 18.97 L 611.07 19.30 L 613.74 21.66 L 616.42 37.67 L 618.53 39.52 L 625.22 40.03 L 626.00 41.55 L 633.79 42.22 L 634.68 45.59 L 641.37 44.75 L 641.37 43.40 L 646.60 41.72 L 651.17 42.39 L 656.41 44.92 L 657.85 48.12 L 660.86 47.78 L 663.65 54.69 L 664.98 51.83 L 670.11 50.48 L 671.00 53.34 L 677.01 55.37 L 677.01 58.06 L 680.02 60.25 L 686.15 59.07 L 689.82 56.04 L 694.84 54.19 L 696.62 58.74 L 700.07 57.73 L 704.19 58.74 L 708.98 58.06 L 714.44 61.94 L 719.68 61.26 L 719.23 62.95 L 712.44 66.83 L 702.97 69.86 L 696.84 73.06 L 688.04 80.98 L 684.25 85.87 L 678.46 91.43 L 669.33 98.84 L 670.89 101.37 Z"
  />
  <path
    id="US-28"
    class="region-path"
    data-region-id="US-28"
    data-region-name="Mississippi"
    d="M 742.96 461.67 L 748.42 461.67 L 750.54 464.87 L 747.64 498.58 L 742.96 557.05 L 744.52 604.07 L 742.29 605.42 L 737.39 604.75 L 735.39 602.72 L 730.48 604.07 L 723.69 607.61 L 721.57 609.80 L 719.12 606.60 L 718.34 601.54 L 715.00 594.80 L 717.01 584.69 L 678.57 584.69 L 680.02 582.50 L 678.57 576.43 L 681.02 576.10 L 681.36 564.81 L 683.36 565.48 L 684.59 558.57 L 689.38 554.19 L 691.83 547.11 L 691.38 538.01 L 688.38 534.13 L 688.60 527.90 L 690.05 526.55 L 688.15 523.01 L 689.71 518.80 L 688.60 512.40 L 690.38 509.87 L 686.82 505.82 L 690.05 496.39 L 693.72 491.50 L 692.50 488.13 L 696.73 483.07 L 696.62 481.05 L 700.30 479.37 L 699.96 473.30 L 702.08 471.95 L 703.53 466.73 L 706.76 464.37 L 705.53 461.67 L 742.96 461.67 Z"
  />
  <path
    id="US-29"
    class="region-path"
    data-region-id="US-29"
    data-region-name="Missouri"
    d="M 674.56 288.94 L 676.68 288.77 L 680.80 295.00 L 683.03 296.01 L 681.25 300.40 L 681.47 306.63 L 684.03 316.07 L 690.27 323.99 L 697.07 330.56 L 698.40 340.67 L 699.96 342.53 L 702.30 339.66 L 706.76 341.01 L 709.65 343.20 L 707.65 346.91 L 708.20 349.77 L 704.75 357.69 L 704.64 362.58 L 710.66 368.82 L 712.88 372.86 L 715.11 372.19 L 721.68 378.76 L 721.68 383.48 L 723.35 389.38 L 721.68 391.40 L 726.25 400.16 L 729.48 400.50 L 727.81 412.97 L 724.80 411.62 L 723.69 415.50 L 722.35 415.50 L 721.24 415.50 L 721.35 423.08 L 717.34 430.83 L 704.19 430.83 L 707.43 425.10 L 710.54 421.39 L 708.76 415.50 L 620.87 415.33 L 617.97 415.33 L 617.97 399.99 L 618.09 333.59 L 613.74 332.08 L 610.51 324.83 L 607.95 321.80 L 612.52 312.87 L 605.94 310.51 L 603.94 307.64 L 598.93 299.55 L 594.58 289.61 L 617.64 290.12 L 645.60 289.78 L 674.56 288.94 Z"
  />
  <path
    id="US-30"
    class="region-path"
    data-region-id="US-30"
    data-region-name="Montana"
    d="M 426.15 30.76 L 426.26 65.81 L 426.15 124.80 L 426.26 153.95 L 425.93 153.95 L 388.17 153.78 L 323.78 153.78 L 283.68 153.78 L 283.79 169.96 L 280.11 166.76 L 276.88 161.37 L 272.20 167.77 L 268.08 168.95 L 267.08 167.26 L 262.29 168.61 L 259.50 167.10 L 254.83 169.79 L 248.48 169.62 L 246.36 172.49 L 244.02 170.80 L 241.35 160.86 L 237.11 160.52 L 234.77 158.00 L 234.89 152.10 L 232.44 149.91 L 229.09 143.67 L 227.09 137.77 L 227.65 135.25 L 223.97 132.21 L 221.96 135.58 L 216.95 139.80 L 212.61 136.59 L 213.61 133.22 L 212.16 130.02 L 215.84 126.65 L 213.72 121.93 L 214.28 114.69 L 217.17 103.23 L 211.27 103.39 L 211.05 101.37 L 205.70 98.17 L 204.81 94.80 L 197.23 86.54 L 196.79 84.35 L 192.67 83.00 L 188.77 79.30 L 188.66 70.87 L 182.08 62.28 L 182.08 30.76 L 274.54 30.93 L 316.20 30.76 L 426.15 30.76 Z"
  />
  <path
    id="US-31"
    class="region-path"
    data-region-id="US-31"
    data-region-name="Nebraska"
    d="M 440.86 215.29 L 475.39 215.46 L 539.00 215.46 L 539.66 216.98 L 550.13 222.54 L 552.59 219.51 L 555.48 220.18 L 565.06 220.18 L 575.76 225.91 L 577.09 230.29 L 580.77 231.13 L 584.44 244.95 L 587.23 246.97 L 588.57 252.37 L 587.34 256.07 L 587.90 260.29 L 591.46 262.98 L 591.35 270.74 L 593.36 277.65 L 592.24 285.57 L 594.58 289.61 L 598.93 299.55 L 603.94 307.64 L 469.71 307.64 L 466.70 307.64 L 466.70 276.80 L 426.04 276.80 L 426.04 215.29 L 440.86 215.29 Z"
  />
  <path
    id="US-32"
    class="region-path"
    data-region-id="US-32"
    data-region-name="Nevada"
    d="M 162.14 246.13 L 222.86 246.30 L 222.74 399.99 L 222.74 424.76 L 220.63 429.99 L 218.62 430.16 L 216.17 426.45 L 208.71 427.63 L 209.93 445.66 L 211.60 451.56 L 212.05 457.29 L 210.82 461.50 L 186.09 431.67 L 172.06 415.33 L 152.56 393.25 L 127.83 366.12 L 101.66 338.48 L 101.77 299.55 L 101.66 246.30 L 128.17 246.47 L 162.14 246.13 Z"
  />
  <path
    id="US-33"
    class="region-path"
    data-region-id="US-33"
    data-region-name="New Hampshire"
    d="M 1096.64 144.51 L 1097.64 164.40 L 1098.98 204.84 L 1102.21 208.38 L 1101.88 211.42 L 1104.33 213.61 L 1101.99 219.34 L 1099.98 218.83 L 1094.52 221.86 L 1092.30 224.73 L 1068.68 223.72 L 1066.90 221.36 L 1067.12 216.81 L 1068.90 215.12 L 1068.68 210.74 L 1070.24 197.77 L 1073.80 191.70 L 1075.59 184.79 L 1077.37 182.26 L 1077.26 174.68 L 1084.05 171.81 L 1087.39 166.59 L 1085.50 161.53 L 1088.29 156.48 L 1088.06 153.45 L 1090.96 145.52 L 1095.64 146.37 L 1096.64 144.51 Z"
  />
  <path
    id="US-34"
    class="region-path"
    data-region-id="US-34"
    data-region-name="New Jersey"
    d="M 1032.48 272.59 L 1039.27 276.97 L 1036.82 285.90 L 1033.48 287.93 L 1031.70 292.64 L 1037.27 295.00 L 1037.71 298.54 L 1035.26 315.06 L 1028.91 327.36 L 1024.79 330.90 L 1021.11 338.65 L 1019.22 333.59 L 1013.32 331.07 L 1006.08 324.33 L 1005.63 319.78 L 1005.52 319.10 L 1006.63 317.42 L 1008.53 313.71 L 1013.99 311.18 L 1014.32 308.82 L 1020.56 303.77 L 1021.56 301.07 L 1015.77 294.83 L 1015.54 290.96 L 1012.98 289.95 L 1012.76 286.41 L 1015.88 281.02 L 1014.21 277.81 L 1019.33 271.41 L 1020.45 268.04 L 1023.12 265.85 L 1032.48 272.59 Z"
  />
  <path
    id="US-35"
    class="region-path"
    data-region-id="US-35"
    data-region-name="New Mexico"
    d="M 357.53 399.99 L 368.78 400.16 L 420.25 400.16 L 447.43 399.99 L 447.43 415.33 L 446.65 415.33 L 446.54 491.84 L 446.09 523.01 L 446.09 553.85 L 373.91 553.85 L 373.35 556.89 L 375.69 560.42 L 341.49 560.42 L 341.49 574.41 L 324.45 574.41 L 324.56 399.99 L 357.53 399.99 Z"
  />
  <path
    id="US-36"
    class="region-path"
    data-region-id="US-36"
    data-region-name="New York"
    d="M 1050.63 153.45 L 1050.86 159.85 L 1049.74 165.58 L 1051.64 171.14 L 1051.08 177.04 L 1048.74 183.27 L 1050.52 191.70 L 1049.41 194.23 L 1052.64 199.28 L 1051.97 220.52 L 1052.19 223.21 L 1047.29 243.44 L 1047.74 244.62 L 1046.40 267.87 L 1047.85 270.40 L 1042.84 273.77 L 1044.28 277.31 L 1052.97 279.84 L 1054.76 277.98 L 1062.22 277.98 L 1066.01 276.97 L 1072.25 272.08 L 1072.69 275.62 L 1075.92 277.14 L 1068.46 281.69 L 1052.75 288.43 L 1046.18 289.78 L 1041.83 289.44 L 1038.60 290.96 L 1036.82 285.90 L 1039.27 276.97 L 1032.48 272.59 L 1023.12 265.85 L 1022.23 263.66 L 1019.11 263.49 L 1015.43 258.27 L 1015.88 253.72 L 1013.43 250.18 L 1011.87 250.35 L 1009.64 246.13 L 920.08 246.13 L 920.08 238.38 L 920.08 237.87 L 932.56 229.11 L 934.56 224.90 L 938.57 222.03 L 937.01 216.81 L 935.34 215.80 L 934.11 207.37 L 946.03 203.83 L 956.62 204.00 L 960.85 204.84 L 965.42 208.21 L 968.31 206.87 L 977.11 207.04 L 982.46 204.84 L 988.14 199.28 L 991.82 199.11 L 991.93 190.69 L 993.82 185.80 L 989.26 182.43 L 990.26 178.56 L 998.39 173.33 L 1001.40 168.78 L 1011.20 158.50 L 1020.45 153.28 L 1034.26 154.12 L 1050.63 153.45 Z"
  />
  <path
    id="US-37"
    class="region-path"
    data-region-id="US-37"
    data-region-name="North Carolina"
    d="M 895.35 413.47 L 909.27 413.98 L 925.20 414.15 L 999.28 413.81 L 1001.62 426.11 L 995.94 424.93 L 995.16 426.45 L 988.25 428.30 L 987.25 429.99 L 982.68 430.49 L 982.91 432.69 L 988.48 431.17 L 989.26 432.52 L 995.38 431.00 L 997.39 433.86 L 1001.06 432.69 L 1002.40 440.10 L 1001.17 443.64 L 998.72 443.98 L 993.60 451.56 L 986.80 451.90 L 985.69 457.12 L 988.59 462.34 L 990.93 463.36 L 986.58 471.95 L 982.91 470.94 L 976.45 471.78 L 971.99 473.64 L 964.97 479.53 L 959.40 487.29 L 956.51 497.06 L 952.27 494.87 L 944.92 496.89 L 921.86 467.57 L 899.03 467.06 L 899.36 463.52 L 896.24 458.30 L 894.12 460.15 L 894.01 456.95 L 868.95 455.44 L 863.38 456.62 L 859.03 459.48 L 852.02 461.50 L 841.66 462.01 L 827.40 461.84 L 827.96 454.59 L 831.97 453.92 L 833.52 448.86 L 838.54 444.31 L 844.11 444.14 L 849.12 439.43 L 854.36 437.74 L 858.81 430.83 L 861.60 428.81 L 862.15 431.84 L 870.17 425.94 L 873.85 427.12 L 876.41 421.39 L 880.20 419.88 L 881.09 412.63 L 895.35 413.47 Z"
  />
  <path
    id="US-38"
    class="region-path"
    data-region-id="US-38"
    data-region-name="North Dakota"
    d="M 564.84 30.76 L 567.51 40.54 L 566.18 44.75 L 566.84 57.22 L 568.40 63.12 L 572.41 73.57 L 573.08 93.28 L 573.86 94.63 L 573.53 102.89 L 575.20 109.63 L 577.65 112.83 L 578.43 125.13 L 426.15 124.80 L 426.26 65.81 L 426.15 30.76 L 564.84 30.76 Z"
  />
  <path
    id="US-39"
    class="region-path"
    data-region-id="US-39"
    data-region-name="Ohio"
    d="M 904.71 246.81 L 904.71 288.09 L 901.70 289.78 L 903.15 293.15 L 903.04 297.87 L 900.25 305.28 L 898.36 316.57 L 890.45 326.52 L 887.89 327.86 L 885.66 325.84 L 883.32 330.22 L 880.98 330.06 L 878.42 335.95 L 878.97 339.49 L 876.86 342.36 L 873.85 337.64 L 870.06 345.05 L 871.07 349.77 L 868.61 351.46 L 867.83 355.50 L 862.49 356.18 L 859.70 351.96 L 857.36 351.12 L 856.47 345.90 L 853.58 346.91 L 851.35 349.94 L 843.66 347.58 L 840.43 349.77 L 835.86 345.56 L 829.51 344.38 L 829.18 341.68 L 825.06 335.28 L 817.26 335.28 L 817.60 292.31 L 817.48 255.57 L 845.00 254.39 L 852.91 258.60 L 855.58 261.13 L 857.59 258.77 L 862.04 263.66 L 864.83 265.17 L 874.30 261.13 L 879.87 261.97 L 885.88 256.24 L 894.68 250.68 L 904.71 246.81 L 904.71 246.81 Z"
  />
  <path
    id="US-40"
    class="region-path"
    data-region-id="US-40"
    data-region-name="Oklahoma"
    d="M 506.69 399.99 L 617.97 399.99 L 617.97 415.33 L 621.76 449.37 L 620.65 503.46 L 612.85 500.09 L 610.85 496.55 L 605.61 493.52 L 604.27 496.22 L 599.04 496.05 L 597.92 494.36 L 593.13 497.40 L 591.13 495.71 L 586.78 497.23 L 582.77 501.95 L 581.21 499.25 L 576.98 497.06 L 572.53 497.06 L 571.08 493.52 L 565.95 500.43 L 564.28 496.55 L 561.94 497.73 L 560.16 495.21 L 555.37 492.85 L 551.81 496.89 L 550.25 492.68 L 547.35 492.17 L 545.68 488.80 L 541.78 487.45 L 539.22 490.32 L 537.55 487.79 L 533.54 488.13 L 529.08 485.43 L 524.96 485.77 L 523.51 479.87 L 517.05 479.53 L 514.60 480.55 L 510.03 474.65 L 508.47 474.98 L 508.47 415.33 L 471.60 415.33 L 447.43 415.33 L 447.43 399.99 L 466.92 400.16 L 506.69 399.99 Z"
  />
  <path
    id="US-41"
    class="region-path"
    data-region-id="US-41"
    data-region-name="Oregon"
    d="M 36.38 117.72 L 38.27 117.38 L 42.62 120.58 L 44.51 124.29 L 45.51 133.56 L 55.98 136.93 L 64.90 132.04 L 70.47 131.54 L 76.93 133.22 L 77.60 135.25 L 88.74 130.86 L 91.41 132.38 L 97.42 131.54 L 102.44 128.50 L 111.35 125.81 L 119.48 125.13 L 122.27 123.11 L 164.37 123.28 L 167.16 128.50 L 171.95 130.69 L 173.62 134.91 L 169.39 144.01 L 168.16 149.40 L 165.82 153.11 L 166.15 155.97 L 164.04 160.52 L 161.92 161.53 L 157.80 172.49 L 159.25 176.70 L 163.15 177.21 L 164.82 179.73 L 162.14 189.85 L 162.14 246.13 L 128.17 246.47 L 101.66 246.30 L 80.60 246.30 L 53.31 245.79 L 35.93 245.96 L 15.99 246.13 L 13.10 242.59 L 11.54 232.65 L 11.87 225.74 L 9.09 220.35 L 11.09 215.29 L 12.54 207.04 L 15.55 198.27 L 16.89 190.52 L 19.11 164.40 L 18.78 160.86 L 20.78 149.40 L 21.56 133.56 L 20.45 124.80 L 21.45 119.57 L 29.58 115.02 L 33.15 118.56 L 36.38 117.72 Z"
  />
  <path
    id="US-42"
    class="region-path"
    data-region-id="US-42"
    data-region-name="Pennsylvania"
    d="M 920.08 238.38 L 920.08 246.13 L 1009.64 246.13 L 1011.87 250.35 L 1013.43 250.18 L 1015.88 253.72 L 1015.43 258.27 L 1019.11 263.49 L 1022.23 263.66 L 1023.12 265.85 L 1020.45 268.04 L 1019.33 271.41 L 1014.21 277.81 L 1015.88 281.02 L 1012.76 286.41 L 1012.98 289.95 L 1015.54 290.96 L 1015.77 294.83 L 1021.56 301.07 L 1020.56 303.77 L 1014.32 308.82 L 1013.99 311.18 L 1008.53 313.71 L 1004.41 312.87 L 1000.95 316.24 L 925.87 316.24 L 904.71 316.24 L 904.71 288.09 L 904.71 246.81 L 904.71 246.81 L 908.49 245.12 L 920.08 237.87 L 920.08 238.38 Z"
  />
  <path
    id="US-44"
    class="region-path"
    data-region-id="US-44"
    data-region-name="Rhode Island"
    d="M 1094.30 256.07 L 1095.86 261.64 L 1091.85 262.31 L 1094.30 256.07 Z M 1087.51 245.63 L 1090.51 245.63 L 1091.63 252.87 L 1093.74 255.06 L 1091.29 254.56 L 1089.18 259.11 L 1088.51 265.51 L 1080.82 267.03 L 1082.05 264.16 L 1082.05 245.96 L 1087.51 245.63 Z"
  />
  <path
    id="US-45"
    class="region-path"
    data-region-id="US-45"
    data-region-name="South Carolina"
    d="M 859.03 459.48 L 863.38 456.62 L 868.95 455.44 L 894.01 456.95 L 894.12 460.15 L 896.24 458.30 L 899.36 463.52 L 899.03 467.06 L 921.86 467.57 L 944.92 496.89 L 941.36 498.41 L 936.90 503.46 L 932.56 511.38 L 931.78 517.79 L 928.32 522.84 L 923.76 522.84 L 922.75 526.55 L 917.96 530.60 L 915.29 534.98 L 911.06 536.83 L 906.49 541.55 L 906.04 543.74 L 901.81 546.27 L 897.24 552.84 L 892.56 550.14 L 892.45 544.92 L 889.22 536.66 L 886.44 534.47 L 886.21 527.90 L 884.88 522.84 L 879.42 518.13 L 875.86 512.40 L 876.08 508.86 L 870.62 503.63 L 867.95 497.90 L 863.27 494.03 L 860.04 487.62 L 859.37 484.08 L 856.25 477.34 L 854.13 477.85 L 847.34 471.28 L 847.67 468.07 L 852.02 461.50 L 859.03 459.48 Z"
  />
  <path
    id="US-46"
    class="region-path"
    data-region-id="US-46"
    data-region-name="South Dakota"
    d="M 426.15 124.80 L 578.43 125.13 L 577.98 128.67 L 572.41 135.25 L 575.98 141.14 L 580.66 144.68 L 580.66 199.96 L 577.98 200.63 L 579.10 203.16 L 578.43 208.55 L 580.99 211.59 L 579.43 213.78 L 578.76 219.84 L 576.98 224.39 L 580.77 231.13 L 577.09 230.29 L 575.76 225.91 L 565.06 220.18 L 555.48 220.18 L 552.59 219.51 L 550.13 222.54 L 539.66 216.98 L 539.00 215.46 L 475.39 215.46 L 440.86 215.29 L 426.04 215.29 L 425.93 153.95 L 426.26 153.95 L 426.15 124.80 Z"
  />
  <path
    id="US-47"
    class="region-path"
    data-region-id="US-47"
    data-region-name="Tennessee"
    d="M 751.43 415.50 L 751.09 409.93 L 755.55 411.28 L 781.17 410.61 L 803.67 411.79 L 807.68 411.45 L 822.83 412.46 L 840.21 412.80 L 840.54 412.29 L 881.09 412.63 L 880.20 419.88 L 876.41 421.39 L 873.85 427.12 L 870.17 425.94 L 862.15 431.84 L 861.60 428.81 L 858.81 430.83 L 854.36 437.74 L 849.12 439.43 L 844.11 444.14 L 838.54 444.31 L 833.52 448.86 L 831.97 453.92 L 827.96 454.59 L 827.40 461.84 L 801.22 462.01 L 765.57 461.50 L 748.42 461.67 L 742.96 461.67 L 705.53 461.67 L 707.54 460.83 L 709.54 455.44 L 709.21 448.02 L 713.00 442.96 L 713.66 438.25 L 716.67 436.56 L 717.34 430.83 L 721.35 423.08 L 721.24 415.50 L 722.35 415.50 L 723.69 415.50 L 726.14 415.16 L 751.43 415.50 Z"
  />
  <path
    id="US-48"
    class="region-path"
    data-region-id="US-48"
    data-region-name="Texas"
    d="M 471.60 415.33 L 508.47 415.33 L 508.47 474.98 L 510.03 474.65 L 514.60 480.55 L 517.05 479.53 L 523.51 479.87 L 524.96 485.77 L 529.08 485.43 L 533.54 488.13 L 537.55 487.79 L 539.22 490.32 L 541.78 487.45 L 545.68 488.80 L 547.35 492.17 L 550.25 492.68 L 551.81 496.89 L 555.37 492.85 L 560.16 495.21 L 561.94 497.73 L 564.28 496.55 L 565.95 500.43 L 571.08 493.52 L 572.53 497.06 L 576.98 497.06 L 581.21 499.25 L 582.77 501.95 L 586.78 497.23 L 591.13 495.71 L 593.13 497.40 L 597.92 494.36 L 599.04 496.05 L 604.27 496.22 L 605.61 493.52 L 610.85 496.55 L 612.85 500.09 L 620.65 503.46 L 622.76 506.33 L 626.77 504.81 L 629.67 506.16 L 629.67 522.51 L 629.67 554.02 L 634.13 560.76 L 634.24 567.50 L 639.81 579.97 L 640.14 586.54 L 638.03 594.47 L 636.02 597.67 L 636.69 601.88 L 635.24 605.08 L 636.80 610.98 L 632.01 621.93 L 633.79 624.97 L 630.45 625.14 L 619.87 629.35 L 616.08 626.99 L 615.41 621.93 L 612.74 625.47 L 610.85 624.63 L 609.84 629.01 L 611.96 630.87 L 612.29 636.60 L 608.51 642.66 L 602.38 650.25 L 590.13 658.33 L 588.90 656.99 L 585.22 659.01 L 585.11 657.16 L 580.10 658.50 L 577.76 654.63 L 576.31 655.47 L 581.66 663.39 L 577.76 665.92 L 574.08 664.40 L 573.53 669.96 L 568.96 675.69 L 564.28 686.31 L 561.27 697.43 L 559.05 696.59 L 558.49 700.63 L 560.83 699.62 L 559.71 707.71 L 558.16 708.05 L 558.04 712.60 L 559.94 715.13 L 560.49 724.40 L 562.72 727.60 L 563.28 733.50 L 565.06 738.72 L 558.82 741.92 L 556.26 737.88 L 551.47 736.36 L 545.12 736.70 L 539.66 731.64 L 535.54 731.14 L 532.42 727.09 L 528.19 725.74 L 525.29 721.87 L 523.40 712.60 L 519.72 707.04 L 520.17 702.32 L 518.50 697.26 L 519.06 692.88 L 516.49 687.99 L 514.38 687.49 L 510.92 683.11 L 509.81 677.55 L 506.80 672.49 L 502.46 668.28 L 500.34 659.01 L 498.34 656.48 L 495.66 649.07 L 494.77 643.00 L 492.21 638.62 L 487.86 634.74 L 486.86 632.05 L 482.85 629.69 L 479.73 622.95 L 470.82 621.43 L 465.47 621.77 L 460.91 619.41 L 459.90 622.61 L 455.00 623.62 L 451.33 630.02 L 449.10 640.30 L 447.87 640.47 L 445.09 646.54 L 441.75 646.71 L 436.73 641.99 L 424.15 634.40 L 421.70 630.36 L 416.79 626.48 L 413.34 617.72 L 413.12 609.80 L 409.67 603.40 L 408.89 597.84 L 406.66 594.30 L 398.75 589.07 L 394.52 581.99 L 391.06 579.47 L 387.39 573.40 L 382.26 570.20 L 378.70 562.11 L 375.69 560.42 L 373.35 556.89 L 373.91 553.85 L 446.09 553.85 L 446.09 523.01 L 446.54 491.84 L 446.65 415.33 L 447.43 415.33 L 471.60 415.33 Z"
  />
  <path
    id="US-49"
    class="region-path"
    data-region-id="US-49"
    data-region-name="Utah"
    d="M 261.06 246.30 L 283.79 246.13 L 283.79 276.97 L 324.45 276.97 L 324.34 334.61 L 324.23 360.73 L 324.56 364.10 L 324.56 399.99 L 294.93 399.82 L 222.74 399.99 L 222.86 246.30 L 261.06 246.30 Z"
  />
  <path
    id="US-50"
    class="region-path"
    data-region-id="US-50"
    data-region-name="Vermont"
    d="M 1088.06 153.45 L 1088.29 156.48 L 1085.50 161.53 L 1087.39 166.59 L 1084.05 171.81 L 1077.26 174.68 L 1077.37 182.26 L 1075.59 184.79 L 1073.80 191.70 L 1070.24 197.77 L 1068.68 210.74 L 1068.90 215.12 L 1067.12 216.81 L 1066.90 221.36 L 1068.68 223.72 L 1052.19 223.21 L 1051.97 220.52 L 1052.64 199.28 L 1049.41 194.23 L 1050.52 191.70 L 1048.74 183.27 L 1051.08 177.04 L 1051.64 171.14 L 1049.74 165.58 L 1050.86 159.85 L 1050.63 153.45 L 1071.69 153.78 L 1088.06 153.45 Z"
  />
  <path
    id="US-51"
    class="region-path"
    data-region-id="US-51"
    data-region-name="Virginia"
    d="M 1008.86 368.82 L 1011.98 368.31 L 1009.31 373.53 L 1006.52 375.39 L 1004.85 382.47 L 1000.62 393.93 L 997.16 396.28 L 996.05 392.07 L 997.83 382.63 L 1003.29 370.67 L 1008.86 368.82 Z M 996.27 370.67 L 996.72 370.67 L 995.72 370.67 L 996.27 370.67 Z M 948.82 324.16 L 959.40 334.44 L 961.63 328.54 L 964.75 329.04 L 966.98 331.57 L 966.98 336.12 L 971.21 337.64 L 973.88 340.50 L 975.44 344.89 L 973.66 349.77 L 971.21 351.12 L 969.65 355.50 L 970.54 358.70 L 976.00 357.69 L 977.00 362.58 L 984.13 364.60 L 986.14 368.48 L 991.82 372.69 L 989.26 381.29 L 991.59 388.03 L 988.81 391.23 L 988.48 395.10 L 991.04 397.46 L 988.25 401.17 L 984.02 396.28 L 983.02 397.97 L 986.69 401.51 L 996.72 402.35 L 999.28 413.81 L 925.20 414.15 L 909.27 413.98 L 895.35 413.47 L 881.09 412.63 L 840.54 412.29 L 851.46 407.91 L 852.80 404.54 L 856.70 403.36 L 856.92 400.67 L 859.93 398.64 L 859.93 396.28 L 867.39 391.73 L 875.19 383.48 L 874.85 386.00 L 877.64 391.23 L 881.09 393.76 L 883.65 393.59 L 887.55 389.54 L 890.34 392.75 L 895.57 391.06 L 904.82 385.16 L 905.60 387.02 L 909.16 384.32 L 909.27 378.76 L 911.50 373.87 L 915.29 369.32 L 916.85 363.76 L 920.86 358.03 L 922.42 350.95 L 925.87 355.17 L 929.21 356.51 L 931.33 353.99 L 935.67 343.03 L 938.24 345.73 L 947.71 333.26 L 948.82 324.16 Z"
  />
  <path
    id="US-53"
    class="region-path"
    data-region-id="US-53"
    data-region-name="Washington"
    d="M 162.03 30.76 L 161.81 68.85 L 161.92 109.97 L 161.59 112.49 L 164.26 117.89 L 164.37 123.28 L 122.27 123.11 L 119.48 125.13 L 111.35 125.81 L 102.44 128.50 L 97.42 131.54 L 91.41 132.38 L 88.74 130.86 L 77.60 135.25 L 76.93 133.22 L 70.47 131.54 L 64.90 132.04 L 55.98 136.93 L 45.51 133.56 L 44.51 124.29 L 42.62 120.58 L 38.27 117.38 L 36.38 117.72 L 33.15 118.56 L 29.58 115.02 L 25.91 113.84 L 22.90 115.70 L 19.00 113.00 L 19.78 108.79 L 22.45 106.60 L 18.33 100.19 L 15.55 83.51 L 13.88 81.32 L 11.65 69.52 L 7.64 64.97 L 5.97 55.87 L 8.20 49.80 L 12.32 52.67 L 20.67 56.55 L 26.35 56.38 L 32.03 57.89 L 37.38 56.38 L 39.94 59.07 L 44.73 58.90 L 48.08 65.65 L 50.53 65.14 L 50.97 74.24 L 52.42 82.50 L 54.43 81.66 L 52.42 74.58 L 52.98 67.67 L 56.32 60.59 L 53.65 57.73 L 53.42 52.67 L 51.42 47.11 L 52.42 43.06 L 51.08 38.35 L 47.85 37.67 L 44.85 34.13 L 45.63 30.76 L 162.03 30.76 Z M 46.40 52.00 L 49.08 50.65 L 48.63 56.88 L 45.40 54.52 L 46.40 52.00 Z M 40.17 43.57 L 42.39 39.52 L 45.40 44.41 L 44.51 48.63 L 39.83 47.45 L 40.17 43.57 Z"
  />
  <path
    id="US-54"
    class="region-path"
    data-region-id="US-54"
    data-region-name="West Virginia"
    d="M 904.71 288.09 L 904.71 316.24 L 925.87 316.24 L 925.65 332.08 L 929.66 329.21 L 933.67 323.99 L 936.34 325.00 L 940.35 320.45 L 946.37 322.64 L 947.15 319.27 L 950.49 319.44 L 952.38 317.08 L 955.84 319.94 L 959.29 319.94 L 961.63 328.54 L 959.40 334.44 L 948.82 324.16 L 947.71 333.26 L 938.24 345.73 L 935.67 343.03 L 931.33 353.99 L 929.21 356.51 L 925.87 355.17 L 922.42 350.95 L 920.86 358.03 L 916.85 363.76 L 915.29 369.32 L 911.50 373.87 L 909.27 378.76 L 909.16 384.32 L 905.60 387.02 L 904.82 385.16 L 895.57 391.06 L 890.34 392.75 L 887.55 389.54 L 883.65 393.59 L 881.09 393.76 L 877.64 391.23 L 874.85 386.00 L 875.19 383.48 L 872.51 382.97 L 868.61 379.43 L 867.61 375.89 L 864.38 371.34 L 861.93 365.45 L 862.49 356.18 L 867.83 355.50 L 868.61 351.46 L 871.07 349.77 L 870.06 345.05 L 873.85 337.64 L 876.86 342.36 L 878.97 339.49 L 878.42 335.95 L 880.98 330.06 L 883.32 330.22 L 885.66 325.84 L 887.89 327.86 L 890.45 326.52 L 898.36 316.57 L 900.25 305.28 L 903.04 297.87 L 903.15 293.15 L 901.70 289.78 L 904.71 288.09 Z"
  />
  <path
    id="US-55"
    class="region-path"
    data-region-id="US-55"
    data-region-name="Wisconsin"
    d="M 703.42 105.59 L 707.20 107.44 L 709.43 112.66 L 730.37 118.90 L 739.06 123.45 L 741.74 122.44 L 750.42 125.47 L 752.76 129.35 L 757.00 133.05 L 756.77 138.45 L 754.88 142.66 L 759.67 143.33 L 757.78 147.72 L 760.90 150.92 L 760.12 154.62 L 756.22 155.30 L 752.87 162.38 L 751.65 167.26 L 753.99 168.11 L 757.11 164.90 L 760.45 158.84 L 764.68 156.48 L 768.02 148.73 L 772.26 147.04 L 771.92 151.09 L 769.03 154.79 L 763.35 167.60 L 761.79 174.68 L 761.90 179.73 L 759.78 181.42 L 757.89 188.33 L 758.56 194.23 L 756.77 198.10 L 754.32 207.71 L 754.88 215.29 L 757.33 222.03 L 756.55 230.97 L 736.50 230.97 L 698.85 230.46 L 697.40 226.58 L 690.16 223.04 L 688.60 218.16 L 687.93 211.25 L 690.38 207.54 L 687.37 204.51 L 687.15 199.96 L 686.04 196.42 L 686.59 191.53 L 682.70 184.79 L 679.46 183.61 L 673.67 178.39 L 672.67 174.34 L 666.43 170.97 L 664.32 167.60 L 660.08 167.10 L 654.74 161.53 L 656.18 150.24 L 655.74 145.02 L 658.08 140.30 L 655.51 136.42 L 653.18 136.09 L 653.51 131.71 L 658.19 125.13 L 663.98 122.61 L 665.21 120.75 L 665.21 102.55 L 669.33 100.02 L 670.89 101.37 L 675.45 101.71 L 689.60 96.49 L 694.84 93.62 L 696.62 95.81 L 693.83 99.86 L 700.52 105.08 L 703.42 105.59 Z"
  />
  <path
    id="US-56"
    class="region-path"
    data-region-id="US-56"
    data-region-name="Wyoming"
    d="M 323.78 153.78 L 388.17 153.78 L 425.93 153.95 L 426.04 215.29 L 426.04 276.80 L 391.95 276.97 L 347.40 276.80 L 324.45 276.97 L 283.79 276.97 L 283.79 246.13 L 283.79 169.96 L 283.68 153.78 L 323.78 153.78 Z"
  />
  <path
    id="US-72"
    class="region-path"
    data-region-id="US-72"
    data-region-name="Puerto Rico"
    d="M 1190.88 985.10 L 1184.31 984.42 L 1181.19 986.78 L 1179.96 985.43 L 1175.40 985.94 L 1176.51 978.69 L 1174.17 973.47 L 1177.74 968.75 L 1180.52 969.59 L 1191.66 969.59 L 1203.25 971.28 L 1207.48 973.30 L 1207.59 978.36 L 1205.47 978.86 L 1203.36 984.09 L 1195.23 986.78 L 1190.88 985.10 Z"
  />
</g>
</svg>