<?xml version="1.0" encoding="UTF-8"?>
<svg xmlns="http://www.w3.org/2000/svg" viewBox="0 0 800 600" width="800" height="600">
  <title></title>
  <defs>
    <style>
      .region-path {
        fill: #e6f3ff;
        stroke: #2563eb;
        stroke-width: 1.5;
        stroke-linejoin: round;
        cursor: pointer;
        transition: all 0.2s ease;
      }
      .region-path:hover {
        fill: #bfdbfe;
        stroke: #1d4ed8;
        stroke-width: 2;
      }
      .region-label {
        fill: #1e40af;
        font-family: Arial, sans-serif;
        font-size: 24px;
        font-weight: bold;
        pointer-events: none;
      }
    </style>
  </defs>
  
  <g id="100000_JD">
    <path id="100000_JD-land" 
          class="region-path"
          data-region-id="100000_JD"
          data-region-name=""
          d="M 588.86 352.03 L 591.76 340.49 L 591.76 340.46 L 591.75 340.43 L 591.74 340.40 L 591.71 340.38 L 591.68 340.37 L 591.65 340.36 L 591.62 340.37 L 591.59 340.39 L 591.57 340.41 L 591.56 340.44 L 588.66 351.98 L 588.65 352.01 L 588.66 352.04 L 588.68 352.07 L 588.70 352.09 L 588.73 352.10 L 588.76 352.11 L 588.79 352.10 L 588.82 352.08 L 588.84 352.06 L 588.86 352.03 Z M 574.90 379.55 L 582.54 370.41 L 582.56 370.38 L 582.57 370.35 L 582.56 370.32 L 582.55 370.29 L 582.53 370.27 L 582.50 370.25 L 582.47 370.24 L 582.44 370.24 L 582.41 370.26 L 582.38 370.28 L 574.74 379.42 L 574.72 379.45 L 574.72 379.48 L 574.72 379.51 L 574.73 379.54 L 574.75 379.57 L 574.78 379.58 L 574.81 379.59 L 574.84 379.59 L 574.87 379.57 L 574.90 379.55 Z M 557.29 408.56 L 563.02 398.02 L 563.03 397.99 L 563.03 397.96 L 563.02 397.92 L 563.00 397.90 L 562.97 397.88 L 562.94 397.87 L 562.91 397.87 L 562.88 397.88 L 562.85 397.89 L 562.83 397.92 L 557.11 408.46 L 557.10 408.49 L 557.10 408.52 L 557.11 408.56 L 557.13 408.58 L 557.15 408.60 L 557.18 408.61 L 557.22 408.61 L 557.25 408.60 L 557.27 408.59 L 557.29 408.56 Z M 553.14 439.31 L 553.14 428.91 L 553.13 428.88 L 553.12 428.85 L 553.09 428.83 L 553.07 428.81 L 553.03 428.81 L 553.00 428.81 L 552.97 428.83 L 552.95 428.85 L 552.94 428.88 L 552.93 428.91 L 552.93 439.30 L 552.92 439.65 L 552.93 439.68 L 552.94 439.71 L 552.97 439.73 L 553.00 439.75 L 553.03 439.75 L 553.06 439.75 L 553.09 439.74 L 553.11 439.71 L 553.13 439.68 L 553.13 439.65 L 553.14 439.31 L 553.14 439.31 Z M 549.13 479.23 L 547.46 482.07 L 547.45 482.10 L 547.45 482.13 L 547.46 482.16 L 547.47 482.19 L 547.50 482.21 L 547.53 482.22 L 547.56 482.22 L 547.59 482.22 L 547.62 482.20 L 547.64 482.17 L 549.32 479.33 L 549.32 479.31 L 551.08 474.90 L 551.08 474.90 L 552.27 470.97 L 552.27 470.94 L 552.27 470.91 L 552.25 470.88 L 552.23 470.86 L 552.20 470.85 L 552.17 470.84 L 552.14 470.85 L 552.11 470.86 L 552.09 470.89 L 552.07 470.91 L 550.89 474.83 L 549.13 479.23 Z M 516.57 521.13 L 523.88 512.50 L 523.90 512.48 L 523.91 512.44 L 523.91 512.41 L 523.89 512.38 L 523.87 512.36 L 523.84 512.34 L 523.81 512.33 L 523.78 512.34 L 523.75 512.35 L 523.73 512.37 L 516.41 521.00 L 516.39 521.03 L 516.39 521.06 L 516.39 521.09 L 516.40 521.12 L 516.42 521.15 L 516.45 521.16 L 516.48 521.17 L 516.51 521.17 L 516.54 521.15 L 516.57 521.13 Z M 483.01 558.57 L 477.62 559.80 L 477.59 559.81 L 477.56 559.83 L 477.54 559.86 L 477.54 559.89 L 477.54 559.92 L 477.55 559.95 L 477.57 559.97 L 477.60 559.99 L 477.63 560.00 L 477.66 560.00 L 483.06 558.77 L 483.06 558.77 L 485.23 558.12 L 485.24 558.11 L 488.66 556.52 L 488.68 556.51 L 488.70 556.48 L 488.72 556.45 L 488.72 556.42 L 488.71 556.39 L 488.69 556.36 L 488.66 556.34 L 488.63 556.33 L 488.60 556.33 L 488.57 556.34 L 485.16 557.92 L 483.01 558.57 Z M 441.06 532.10 L 441.37 532.89 L 441.39 532.92 L 441.41 532.94 L 441.44 532.95 L 441.47 532.95 L 441.50 532.95 L 441.53 532.93 L 441.55 532.91 L 441.57 532.88 L 441.57 532.85 L 441.56 532.81 L 441.26 532.03 L 441.02 530.66 L 440.61 527.44 L 440.63 523.18 L 440.89 521.89 L 440.90 521.86 L 440.89 521.82 L 440.87 521.80 L 440.84 521.78 L 440.81 521.77 L 440.78 521.76 L 440.75 521.77 L 440.72 521.79 L 440.70 521.82 L 440.69 521.85 L 440.43 523.15 L 440.42 523.17 L 440.40 527.45 L 440.40 527.46 L 440.81 530.69 L 440.81 530.70 L 441.06 532.08 L 441.06 532.10 Z M 460.42 477.37 L 459.67 478.57 L 459.66 478.60 L 459.65 478.63 L 459.66 478.66 L 459.68 478.69 L 459.70 478.71 L 459.73 478.72 L 459.76 478.72 L 459.80 478.72 L 459.82 478.70 L 459.85 478.68 L 460.60 477.47 L 460.61 477.47 L 461.24 476.20 L 461.24 476.20 L 461.77 474.94 L 461.78 474.92 L 462.25 473.08 L 462.25 473.07 L 462.50 471.39 L 462.50 471.38 L 462.56 469.36 L 462.56 469.35 L 462.54 468.34 L 462.53 468.30 L 462.52 468.27 L 462.49 468.25 L 462.46 468.24 L 462.43 468.23 L 462.40 468.24 L 462.37 468.25 L 462.35 468.28 L 462.34 468.31 L 462.33 468.34 L 462.35 469.36 L 462.29 471.37 L 462.05 473.03 L 461.58 474.86 L 461.05 476.11 L 460.42 477.37 Z M 457.33 437.36 L 457.49 438.14 L 457.50 438.17 L 457.52 438.20 L 457.55 438.22 L 457.58 438.22 L 457.61 438.22 L 457.64 438.21 L 457.67 438.19 L 457.69 438.16 L 457.69 438.13 L 457.69 438.10 L 457.53 437.31 L 457.53 437.31 L 456.91 435.06 L 456.91 435.04 L 455.89 432.74 L 455.88 432.73 L 454.86 431.06 L 454.86 431.05 L 454.24 430.17 L 454.24 430.16 L 451.93 427.22 L 451.91 427.19 L 451.88 427.18 L 451.84 427.18 L 451.81 427.18 L 451.78 427.20 L 451.76 427.22 L 451.75 427.25 L 451.74 427.28 L 451.75 427.32 L 451.77 427.34 L 454.07 430.29 L 454.68 431.17 L 455.70 432.83 L 456.72 435.12 L 457.33 437.36 Z">
      <title></title>
    </path>
  </g>
</svg>