<?xml version="1.0" encoding="UTF-8"?>
<svg xmlns="http://www.w3.org/2000/svg" viewBox="0 0 800 600" width="800" height="600">
  <title>北京市</title>
  <defs>
    <style>
      .region-path {
        fill: #e6f3ff;
        stroke: #2563eb;
        stroke-width: 1.5;
        stroke-linejoin: round;
        cursor: pointer;
        transition: all 0.2s ease;
      }
      .region-path:hover {
        fill: #bfdbfe;
        stroke: #1d4ed8;
        stroke-width: 2;
      }
      .region-label {
        fill: #1e40af;
        font-family: Arial, sans-serif;
        font-size: 24px;
        font-weight: bold;
        pointer-events: none;
      }
    </style>
  </defs>
  
  <g id="110000">
    <path id="110000-land" 
          class="region-path"
          data-region-id="110000"
          data-region-name="北京市"
          d="M 535.27 174.57 L 535.69 174.77 L 536.11 174.62 L 535.93 174.32 L 536.50 173.86 L 536.50 173.86 L 536.85 173.99 L 536.99 173.75 L 536.77 173.59 L 535.89 173.47 L 535.20 173.61 L 534.97 173.77 L 534.54 173.71 L 533.81 173.39 L 532.87 173.33 L 532.81 173.26 L 531.78 173.40 L 531.29 173.24 L 530.89 172.87 L 530.87 172.57 L 530.08 171.89 L 529.72 171.80 L 529.16 171.37 L 528.68 171.16 L 528.77 170.98 L 528.31 170.53 L 528.53 170.00 L 528.42 169.76 L 528.00 169.61 L 527.67 169.68 L 527.75 170.01 L 527.49 170.49 L 527.17 170.30 L 526.67 170.42 L 526.67 170.42 L 526.01 170.42 L 525.93 170.71 L 526.23 171.26 L 525.42 171.20 L 525.13 170.81 L 524.81 170.96 L 524.75 171.22 L 525.83 172.10 L 526.12 172.56 L 525.99 172.65 L 524.57 172.59 L 524.51 172.76 L 524.12 172.69 L 523.85 172.38 L 523.57 172.88 L 523.41 172.92 L 523.07 173.38 L 522.98 173.72 L 522.68 173.68 L 522.31 174.05 L 521.34 174.54 L 521.11 174.59 L 521.00 174.35 L 520.33 174.19 L 520.10 174.42 L 519.50 174.50 L 519.42 174.79 L 519.06 174.80 L 518.75 174.99 L 518.55 175.37 L 519.02 175.48 L 518.92 175.99 L 519.88 176.87 L 520.44 176.92 L 520.79 177.67 L 520.97 177.85 L 520.24 178.16 L 519.94 178.66 L 519.79 178.64 L 519.71 179.07 L 519.28 179.00 L 518.94 178.76 L 518.74 179.08 L 518.74 179.08 L 517.14 179.35 L 517.04 179.59 L 516.39 179.80 L 515.95 180.17 L 515.63 180.28 L 515.59 180.67 L 515.37 180.75 L 515.34 181.10 L 515.91 181.26 L 516.34 181.64 L 516.27 181.71 L 516.27 181.71 L 516.37 181.88 L 516.25 182.27 L 516.80 182.49 L 516.65 182.72 L 516.16 182.83 L 515.93 182.68 L 515.93 182.68 L 515.52 182.81 L 515.48 183.16 L 515.97 183.27 L 516.02 184.01 L 515.88 184.21 L 515.88 184.21 L 516.34 184.32 L 516.29 184.77 L 516.58 184.54 L 517.01 184.84 L 517.49 184.74 L 517.49 184.74 L 517.84 184.58 L 518.16 184.97 L 518.16 184.97 L 518.17 185.05 L 518.17 185.05 L 518.35 185.15 L 518.35 185.15 L 518.37 185.22 L 518.37 185.22 L 518.39 185.24 L 518.39 185.24 L 518.41 185.32 L 518.40 185.32 L 518.41 185.32 L 518.41 185.32 L 518.40 185.32 L 518.41 185.32 L 518.44 185.32 L 518.44 185.32 L 518.58 185.36 L 518.58 185.36 L 518.58 185.36 L 518.58 185.36 L 518.72 185.61 L 519.28 185.67 L 519.28 185.67 L 519.43 185.54 L 519.43 185.54 L 519.51 185.34 L 519.92 185.29 L 519.92 185.29 L 520.41 184.91 L 520.41 184.91 L 520.36 184.73 L 520.36 184.73 L 520.84 185.14 L 521.06 184.78 L 521.24 184.98 L 521.56 184.87 L 521.66 185.03 L 522.31 185.00 L 522.64 185.07 L 522.86 184.91 L 523.35 184.85 L 523.78 185.11 L 523.96 185.77 L 524.47 185.89 L 524.79 186.23 L 525.04 186.24 L 525.04 186.24 L 525.79 186.37 L 526.00 186.26 L 525.89 185.96 L 525.56 185.95 L 525.45 185.48 L 525.89 185.67 L 525.82 185.50 L 526.25 185.41 L 526.19 185.22 L 526.56 185.24 L 526.72 184.78 L 527.43 184.52 L 527.43 184.52 L 527.72 184.72 L 528.18 184.68 L 528.79 184.81 L 528.79 184.81 L 528.79 184.81 L 528.79 184.81 L 528.82 184.78 L 528.82 184.78 L 528.64 184.55 L 529.05 184.53 L 529.48 184.78 L 529.71 184.57 L 530.09 184.03 L 530.68 183.93 L 530.68 183.82 L 530.51 183.83 L 530.48 183.44 L 530.79 183.38 L 530.64 183.04 L 531.13 182.88 L 530.80 182.18 L 530.70 182.33 L 530.26 182.21 L 529.71 181.73 L 529.42 181.72 L 529.40 181.13 L 529.14 180.92 L 529.39 180.23 L 529.79 180.30 L 529.90 180.06 L 530.28 180.16 L 530.91 180.02 L 531.08 180.16 L 531.91 180.28 L 532.19 179.97 L 532.74 179.82 L 532.74 179.82 L 533.11 179.93 L 533.31 179.79 L 533.77 179.87 L 533.83 179.74 L 533.98 179.61 L 533.98 179.61 L 534.30 179.40 L 534.30 179.40 L 534.30 179.40 L 534.49 179.49 L 534.84 179.17 L 535.27 179.18 L 535.46 178.80 L 535.46 178.80 L 535.46 178.80 L 535.46 178.80 L 535.63 178.64 L 535.69 178.23 L 535.29 178.21 L 535.09 177.59 L 534.71 177.71 L 534.47 177.22 L 534.47 177.22 L 534.17 176.76 L 534.00 176.77 L 534.08 176.27 L 534.39 176.01 L 533.82 175.39 L 534.38 175.27 L 534.22 175.00 L 534.45 174.78 L 535.27 174.57 L 535.27 174.57 Z">
      <title>北京市</title>
    </path>
  </g>
</svg>