<?xml version="1.0" encoding="UTF-8"?>
<svg xmlns="http://www.w3.org/2000/svg" viewBox="0 0 800 600" width="800" height="600">
  <title>天津市</title>
  <defs>
    <style>
      .region-path {
        fill: #e6f3ff;
        stroke: #2563eb;
        stroke-width: 1.5;
        stroke-linejoin: round;
        cursor: pointer;
        transition: all 0.2s ease;
      }
      .region-path:hover {
        fill: #bfdbfe;
        stroke: #1d4ed8;
        stroke-width: 2;
      }
      .region-label {
        fill: #1e40af;
        font-family: Arial, sans-serif;
        font-size: 24px;
        font-weight: bold;
        pointer-events: none;
      }
    </style>
  </defs>
  
  <g id="120000">
    <path id="120000-land" 
          class="region-path"
          data-region-id="120000"
          data-region-name="天津市"
          d="M 539.59 186.80 L 540.43 186.73 L 540.69 186.69 L 540.67 186.24 L 540.98 186.04 L 541.11 185.59 L 541.11 185.59 L 541.03 185.43 L 541.33 185.00 L 540.66 184.77 L 540.25 184.84 L 539.60 184.75 L 539.47 184.95 L 539.47 184.95 L 539.38 185.28 L 539.07 185.46 L 538.98 184.99 L 538.75 184.85 L 538.43 185.00 L 538.26 184.70 L 538.52 184.36 L 538.59 184.04 L 538.15 183.66 L 537.64 183.42 L 537.83 183.22 L 537.47 183.13 L 537.32 182.91 L 537.48 182.67 L 537.14 182.05 L 537.14 182.05 L 536.92 181.61 L 536.92 181.61 L 536.96 181.54 L 536.96 181.54 L 536.97 181.52 L 536.97 181.52 L 536.99 181.14 L 537.19 181.06 L 537.32 180.60 L 537.82 180.65 L 537.82 180.65 L 538.02 180.88 L 538.61 180.86 L 538.82 180.75 L 539.49 180.95 L 539.75 180.94 L 539.75 180.94 L 539.90 180.62 L 539.90 180.62 L 539.88 180.53 L 539.88 180.53 L 539.62 180.36 L 539.62 180.36 L 539.37 180.40 L 539.40 180.10 L 539.70 179.97 L 539.45 179.75 L 539.10 179.74 L 539.10 179.74 L 538.65 179.74 L 538.45 179.46 L 538.45 179.46 L 538.43 179.40 L 538.43 179.40 L 538.41 179.32 L 538.41 179.32 L 538.01 178.95 L 538.01 178.95 L 537.97 178.93 L 537.97 178.93 L 537.63 178.74 L 537.58 178.32 L 537.34 178.18 L 536.89 178.24 L 536.32 177.97 L 535.96 178.01 L 535.69 178.23 L 535.63 178.64 L 535.46 178.80 L 535.46 178.80 L 535.46 178.80 L 535.46 178.80 L 535.27 179.18 L 534.84 179.17 L 534.49 179.49 L 534.30 179.40 L 534.30 179.40 L 534.30 179.40 L 533.98 179.61 L 533.98 179.61 L 533.83 179.74 L 533.64 179.90 L 533.71 180.67 L 533.22 181.16 L 533.34 181.87 L 533.34 181.87 L 534.02 182.12 L 534.22 182.03 L 534.26 182.31 L 533.64 182.32 L 533.27 182.48 L 533.29 182.70 L 533.79 183.04 L 533.33 183.19 L 533.36 183.50 L 533.36 183.50 L 533.50 184.27 L 533.24 184.49 L 532.78 184.47 L 532.78 184.47 L 531.82 184.18 L 531.48 184.34 L 531.48 184.34 L 531.28 184.29 L 531.12 183.90 L 531.12 183.90 L 531.08 183.75 L 531.08 183.75 L 530.95 183.63 L 530.95 183.63 L 530.68 183.82 L 530.68 183.93 L 530.09 184.03 L 529.71 184.57 L 529.67 184.98 L 529.45 185.21 L 529.78 185.48 L 529.79 185.96 L 529.42 186.13 L 529.92 186.44 L 530.37 186.45 L 529.99 186.67 L 530.00 187.03 L 529.77 187.08 L 529.88 187.44 L 530.31 187.25 L 530.51 187.45 L 530.33 187.94 L 530.43 188.61 L 530.43 188.61 L 530.16 188.72 L 530.31 189.36 L 530.71 189.39 L 530.75 189.81 L 530.74 189.80 L 530.74 189.80 L 530.75 189.81 L 530.32 190.39 L 529.71 190.43 L 529.71 190.43 L 529.41 190.43 L 529.41 190.43 L 529.11 190.60 L 529.11 190.60 L 529.11 190.92 L 528.84 191.21 L 528.63 191.66 L 528.77 192.02 L 528.79 192.48 L 529.07 192.71 L 528.93 193.19 L 529.02 193.50 L 529.52 193.60 L 529.52 193.60 L 530.19 193.64 L 530.38 194.27 L 531.12 194.18 L 531.14 194.18 L 531.15 194.18 L 531.14 194.18 L 531.12 194.18 L 531.15 194.18 L 532.06 194.19 L 532.36 194.27 L 532.23 194.69 L 532.39 195.02 L 532.79 195.26 L 533.22 194.92 L 533.56 194.91 L 533.56 194.91 L 533.86 194.69 L 533.86 194.69 L 534.33 195.02 L 534.33 195.02 L 534.12 195.30 L 534.28 195.56 L 535.48 195.47 L 536.13 195.09 L 536.62 194.93 L 537.44 194.96 L 538.28 194.83 L 538.46 194.48 L 539.21 194.27 L 539.33 194.06 L 539.33 193.51 L 538.61 193.32 L 538.36 193.15 L 538.35 192.73 L 539.45 192.54 L 539.72 192.31 L 540.44 192.45 L 540.73 191.78 L 540.96 191.49 L 540.52 191.40 L 540.34 190.37 L 540.69 189.69 L 541.65 189.17 L 541.79 188.82 L 542.36 188.68 L 542.38 188.69 L 542.69 188.56 L 542.69 188.30 L 542.40 188.21 L 542.27 187.96 L 542.27 187.96 L 541.84 187.86 L 541.84 187.86 L 541.80 187.84 L 541.80 187.84 L 541.74 187.72 L 541.74 187.72 L 541.66 187.69 L 541.66 187.69 L 541.18 187.66 L 541.18 187.66 L 540.87 187.51 L 540.51 187.55 L 540.51 187.55 L 540.51 187.55 L 540.51 187.55 L 540.47 187.18 L 540.47 187.18 L 540.05 187.28 L 540.00 187.09 L 539.79 187.05 L 539.37 187.28 L 538.61 187.25 L 538.59 187.61 L 537.82 187.34 L 537.21 187.45 L 537.05 187.26 L 537.57 186.76 L 537.88 186.61 L 538.02 186.74 L 538.59 186.68 L 538.63 186.95 L 538.91 186.73 L 539.59 186.80 Z M 540.00 187.09 L 540.49 187.01 L 540.43 186.73 L 539.59 186.80 L 539.79 187.05 L 540.00 187.09 Z">
      <title>天津市</title>
    </path>
  </g>
</svg>