<?xml version="1.0" encoding="UTF-8"?>
<svg xmlns="http://www.w3.org/2000/svg" viewBox="0 0 800 600" width="800" height="600">
  <title>河北省</title>
  <defs>
    <style>
      .region-path {
        fill: #e6f3ff;
        stroke: #2563eb;
        stroke-width: 1.5;
        stroke-linejoin: round;
        cursor: pointer;
        transition: all 0.2s ease;
      }
      .region-path:hover {
        fill: #bfdbfe;
        stroke: #1d4ed8;
        stroke-width: 2;
      }
      .region-label {
        fill: #1e40af;
        font-family: Arial, sans-serif;
        font-size: 24px;
        font-weight: bold;
        pointer-events: none;
      }
    </style>
  </defs>
  
  <g id="130000">
    <path id="130000-land" 
          class="region-path"
          data-region-id="130000"
          data-region-name="河北省"
          d="M 536.50 173.86 L 535.93 174.32 L 536.11 174.62 L 535.69 174.77 L 535.27 174.57 L 535.27 174.57 L 534.45 174.78 L 534.22 175.00 L 534.38 175.27 L 533.82 175.39 L 534.39 176.01 L 534.08 176.27 L 534.00 176.77 L 534.17 176.76 L 534.47 177.22 L 534.47 177.22 L 534.71 177.71 L 535.09 177.59 L 535.29 178.21 L 535.69 178.23 L 535.96 178.01 L 536.32 177.97 L 536.89 178.24 L 537.34 178.18 L 537.58 178.32 L 537.63 178.74 L 537.97 178.93 L 537.97 178.93 L 538.01 178.95 L 538.01 178.95 L 538.41 179.32 L 538.41 179.32 L 538.43 179.40 L 538.43 179.40 L 538.45 179.46 L 538.45 179.46 L 538.65 179.74 L 539.10 179.74 L 539.10 179.74 L 539.45 179.75 L 539.70 179.97 L 539.40 180.10 L 539.37 180.40 L 539.62 180.36 L 539.62 180.36 L 539.88 180.53 L 539.88 180.53 L 539.90 180.62 L 539.90 180.62 L 539.75 180.94 L 539.75 180.94 L 539.49 180.95 L 538.82 180.75 L 538.61 180.86 L 538.02 180.88 L 537.82 180.65 L 537.82 180.65 L 537.32 180.60 L 537.19 181.06 L 536.99 181.14 L 536.97 181.52 L 536.97 181.52 L 536.96 181.54 L 536.96 181.54 L 536.92 181.61 L 536.92 181.61 L 537.14 182.05 L 537.14 182.05 L 537.48 182.67 L 537.32 182.91 L 537.47 183.13 L 537.83 183.22 L 537.64 183.42 L 538.15 183.66 L 538.59 184.04 L 538.52 184.36 L 538.26 184.70 L 538.43 185.00 L 538.75 184.85 L 538.98 184.99 L 539.07 185.46 L 539.38 185.28 L 539.47 184.95 L 539.47 184.95 L 539.60 184.75 L 540.25 184.84 L 540.66 184.77 L 541.33 185.00 L 541.03 185.43 L 541.11 185.59 L 541.11 185.59 L 540.98 186.04 L 540.67 186.24 L 540.69 186.69 L 540.43 186.73 L 540.49 187.01 L 540.00 187.09 L 540.05 187.28 L 540.47 187.18 L 540.47 187.18 L 540.51 187.55 L 540.51 187.55 L 540.51 187.55 L 540.51 187.55 L 540.87 187.51 L 541.18 187.66 L 541.18 187.66 L 541.66 187.69 L 541.66 187.69 L 541.74 187.72 L 541.74 187.72 L 541.80 187.84 L 541.80 187.84 L 541.84 187.86 L 541.84 187.86 L 542.27 187.96 L 542.27 187.96 L 542.40 188.21 L 542.69 188.30 L 542.69 188.56 L 542.38 188.69 L 542.29 188.86 L 542.75 188.74 L 542.83 188.86 L 543.32 189.06 L 543.71 189.54 L 543.99 190.12 L 544.35 190.60 L 545.33 190.86 L 545.81 190.79 L 545.94 191.25 L 547.11 191.90 L 547.61 191.89 L 548.28 191.25 L 547.93 190.96 L 547.54 190.01 L 548.12 189.84 L 548.02 189.60 L 548.62 189.33 L 549.91 189.57 L 550.46 189.52 L 550.91 189.27 L 551.32 189.39 L 551.56 189.18 L 551.88 189.10 L 551.31 189.51 L 551.25 189.73 L 551.62 189.68 L 552.15 189.26 L 552.63 189.02 L 552.78 188.76 L 553.38 188.45 L 553.64 188.04 L 554.31 187.41 L 555.21 187.19 L 555.67 186.70 L 555.67 186.43 L 555.18 185.79 L 556.18 183.34 L 557.30 182.53 L 557.94 182.57 L 557.78 182.25 L 557.99 181.75 L 558.48 181.52 L 558.81 181.58 L 559.04 181.37 L 559.45 181.39 L 559.91 181.20 L 560.54 181.10 L 560.89 180.80 L 561.12 181.05 L 561.42 181.00 L 561.24 180.71 L 561.15 180.58 L 561.15 180.58 L 561.24 180.25 L 560.85 180.07 L 560.85 180.07 L 560.54 180.16 L 560.54 180.16 L 560.50 180.11 L 560.50 180.11 L 560.39 179.75 L 560.02 179.50 L 560.27 179.18 L 560.12 178.44 L 559.82 178.56 L 559.35 178.11 L 559.01 178.19 L 559.01 178.19 L 559.14 177.77 L 558.58 177.13 L 558.47 176.70 L 558.65 175.87 L 558.12 175.39 L 558.31 175.16 L 558.18 174.91 L 557.61 174.85 L 557.34 175.06 L 556.83 174.99 L 555.52 175.09 L 555.04 174.96 L 554.67 174.69 L 554.78 174.33 L 554.23 174.28 L 554.07 174.37 L 553.88 174.03 L 554.30 173.54 L 554.10 173.41 L 553.58 173.68 L 552.95 173.70 L 552.68 173.41 L 552.50 173.47 L 551.98 173.13 L 551.87 172.84 L 551.30 172.77 L 551.43 172.55 L 551.13 172.47 L 550.79 172.07 L 551.07 171.80 L 551.37 170.63 L 551.52 170.54 L 552.15 170.65 L 552.15 170.65 L 552.39 170.56 L 552.52 170.15 L 551.89 170.04 L 551.73 169.68 L 552.02 169.40 L 552.77 169.53 L 553.22 169.23 L 553.23 168.86 L 553.69 168.79 L 554.34 168.17 L 554.15 167.91 L 554.50 167.92 L 554.55 167.69 L 554.97 167.33 L 554.87 166.97 L 554.58 167.03 L 554.43 167.29 L 554.13 167.17 L 553.35 167.18 L 552.18 167.06 L 551.86 166.93 L 551.25 167.11 L 550.77 166.67 L 550.76 166.34 L 550.00 166.57 L 549.71 166.86 L 549.04 166.59 L 548.55 166.63 L 547.49 166.54 L 546.29 166.79 L 545.96 166.99 L 545.63 166.67 L 545.76 166.24 L 545.63 165.78 L 545.41 165.55 L 544.84 165.34 L 545.29 164.91 L 545.16 164.50 L 544.25 164.05 L 544.16 163.48 L 543.67 163.22 L 543.63 162.84 L 543.39 162.62 L 543.47 162.10 L 543.87 161.78 L 544.47 161.85 L 544.58 162.20 L 545.05 162.21 L 545.49 161.46 L 545.55 161.18 L 544.80 160.58 L 545.19 160.48 L 545.27 159.98 L 545.04 159.78 L 544.50 159.60 L 544.99 159.51 L 545.09 159.26 L 544.84 159.00 L 544.50 158.90 L 544.22 159.02 L 544.30 159.25 L 544.03 159.54 L 543.23 159.48 L 543.63 159.02 L 543.03 158.77 L 542.95 158.59 L 543.12 158.08 L 542.37 157.80 L 541.79 157.48 L 541.75 157.26 L 542.51 156.95 L 542.64 156.77 L 542.11 156.27 L 542.27 155.87 L 542.00 155.54 L 540.71 154.57 L 540.53 154.27 L 539.92 153.79 L 539.96 153.51 L 539.74 153.45 L 539.00 153.76 L 538.57 153.82 L 537.88 153.61 L 537.22 153.61 L 537.15 153.74 L 536.58 153.61 L 536.17 153.79 L 536.15 154.08 L 535.67 154.50 L 535.67 154.50 L 535.90 154.47 L 535.94 154.97 L 535.70 155.07 L 535.10 155.08 L 535.10 155.08 L 534.51 154.87 L 534.51 154.87 L 533.61 155.01 L 533.61 155.01 L 533.06 155.00 L 532.64 154.84 L 532.48 155.05 L 532.48 155.05 L 531.83 155.13 L 531.83 155.13 L 531.75 155.20 L 531.75 155.20 L 531.71 155.36 L 531.71 155.36 L 531.56 155.45 L 531.56 155.45 L 531.39 155.44 L 531.39 155.44 L 531.35 155.43 L 531.35 155.43 L 531.08 155.56 L 531.08 155.56 L 531.00 155.61 L 531.00 155.61 L 530.84 155.68 L 530.84 155.68 L 530.72 155.76 L 530.72 155.76 L 530.73 155.77 L 530.73 155.77 L 530.48 156.06 L 530.59 156.78 L 530.81 157.48 L 530.65 157.88 L 529.47 157.78 L 529.84 158.25 L 530.10 158.24 L 530.52 158.90 L 530.41 159.67 L 529.54 160.09 L 529.05 160.02 L 528.83 160.37 L 528.22 160.40 L 527.91 160.59 L 527.48 160.53 L 527.02 160.60 L 526.58 160.13 L 526.29 160.11 L 525.99 160.42 L 525.36 160.45 L 525.58 160.04 L 525.16 159.76 L 524.50 159.89 L 524.38 160.19 L 523.61 160.56 L 523.49 161.05 L 523.30 161.29 L 522.56 161.29 L 522.40 161.61 L 522.63 161.87 L 522.31 162.18 L 521.64 162.11 L 521.36 161.96 L 521.36 161.95 L 521.36 161.96 L 521.36 161.95 L 521.23 161.63 L 520.81 161.16 L 520.42 160.43 L 519.76 160.61 L 519.57 160.50 L 519.33 160.77 L 518.45 161.21 L 518.05 161.23 L 517.70 161.63 L 516.87 161.88 L 516.31 162.27 L 515.99 162.34 L 515.38 162.67 L 514.52 162.84 L 514.23 163.06 L 514.66 163.37 L 514.50 163.63 L 514.84 163.97 L 514.14 164.08 L 513.93 163.77 L 513.68 163.84 L 513.58 164.21 L 513.04 164.30 L 512.95 163.98 L 511.95 163.76 L 511.50 163.98 L 511.09 163.85 L 509.48 164.00 L 509.84 163.63 L 509.91 163.01 L 509.84 162.27 L 509.56 161.79 L 510.12 161.67 L 510.29 161.45 L 510.13 161.20 L 510.04 160.27 L 509.91 159.70 L 509.48 159.29 L 509.50 158.84 L 509.12 158.41 L 508.79 158.31 L 508.74 158.50 L 508.38 158.66 L 507.56 158.61 L 507.27 158.72 L 506.36 158.49 L 505.85 158.71 L 505.76 159.16 L 505.53 159.19 L 505.41 159.59 L 505.86 160.05 L 505.51 160.36 L 504.90 160.46 L 504.21 160.34 L 504.12 160.62 L 503.48 161.27 L 502.63 162.04 L 502.79 162.38 L 502.70 162.57 L 503.02 162.98 L 502.79 163.13 L 503.24 163.76 L 502.90 163.83 L 502.85 164.19 L 502.95 164.90 L 501.61 164.65 L 500.89 164.73 L 500.32 164.98 L 500.07 165.21 L 499.86 165.18 L 499.72 165.52 L 499.29 165.76 L 499.22 165.94 L 499.99 166.16 L 499.78 166.85 L 499.51 166.95 L 499.67 167.17 L 500.05 167.29 L 500.26 167.74 L 500.48 167.43 L 500.73 167.82 L 500.52 168.23 L 500.15 168.45 L 499.73 168.44 L 499.29 169.03 L 498.68 169.21 L 499.19 169.51 L 500.28 170.40 L 500.50 170.86 L 501.15 171.00 L 500.99 171.08 L 501.13 171.60 L 501.32 171.70 L 501.02 171.98 L 501.39 172.40 L 501.64 172.32 L 501.63 172.60 L 501.95 172.95 L 502.24 173.19 L 502.46 173.63 L 503.01 174.30 L 503.49 174.47 L 503.39 174.86 L 503.60 174.87 L 503.48 175.46 L 503.32 175.68 L 503.66 176.03 L 503.52 176.18 L 503.79 176.73 L 504.51 176.83 L 504.60 176.95 L 505.11 176.74 L 505.55 176.98 L 506.06 177.01 L 505.85 177.45 L 505.43 177.81 L 504.77 178.04 L 504.31 178.00 L 503.59 178.20 L 503.20 178.14 L 503.00 178.54 L 502.42 178.61 L 501.96 178.77 L 501.57 178.58 L 501.31 178.84 L 501.31 178.84 L 501.61 179.56 L 501.45 179.85 L 501.03 180.00 L 500.75 179.52 L 500.45 179.43 L 500.13 180.24 L 499.63 180.43 L 500.86 180.74 L 500.85 181.01 L 501.05 181.46 L 501.26 181.39 L 502.36 181.65 L 502.76 181.43 L 502.94 181.63 L 502.67 181.78 L 502.79 182.02 L 503.53 181.93 L 503.52 182.06 L 504.65 181.97 L 504.77 182.32 L 504.60 182.47 L 504.88 182.91 L 504.81 183.06 L 504.79 184.20 L 505.03 184.59 L 505.69 184.65 L 505.90 185.10 L 506.45 185.01 L 506.08 185.92 L 505.76 186.01 L 505.71 186.41 L 505.42 186.80 L 505.39 187.54 L 505.02 187.77 L 505.09 188.27 L 504.87 188.44 L 505.49 188.72 L 505.16 189.15 L 504.58 189.12 L 504.29 189.57 L 504.39 189.84 L 504.14 190.18 L 503.17 190.19 L 502.43 190.45 L 502.19 190.32 L 501.68 190.41 L 501.42 189.99 L 501.42 189.99 L 501.22 189.98 L 501.08 189.55 L 500.62 189.68 L 500.50 189.97 L 500.16 189.91 L 499.83 190.30 L 499.50 190.25 L 498.56 191.06 L 498.24 191.09 L 498.15 191.37 L 498.24 192.14 L 498.43 192.40 L 499.06 192.73 L 498.86 193.07 L 498.89 193.46 L 498.51 193.41 L 498.23 193.96 L 497.66 193.93 L 497.47 194.57 L 496.54 194.63 L 496.44 195.24 L 496.01 195.53 L 495.85 196.21 L 496.24 196.56 L 495.77 196.99 L 495.64 197.35 L 495.97 197.76 L 495.84 198.52 L 496.10 198.86 L 496.40 198.97 L 496.86 198.92 L 497.23 199.19 L 497.57 199.11 L 497.66 199.51 L 498.45 199.63 L 498.81 199.58 L 498.60 200.10 L 499.28 200.75 L 499.23 201.42 L 499.53 201.48 L 499.90 202.12 L 500.13 202.29 L 500.32 203.22 L 500.62 203.26 L 501.02 203.79 L 500.52 204.12 L 500.49 204.36 L 501.26 204.21 L 501.89 204.45 L 502.00 204.68 L 501.75 205.26 L 501.79 205.56 L 500.94 206.57 L 500.71 207.29 L 500.29 207.51 L 500.17 208.00 L 499.54 208.47 L 499.38 209.21 L 499.03 209.46 L 498.82 209.95 L 498.20 210.11 L 498.21 210.58 L 498.05 210.91 L 498.36 211.07 L 498.19 211.51 L 498.40 211.82 L 498.08 212.14 L 498.41 212.78 L 498.20 213.19 L 497.78 213.15 L 497.78 212.95 L 497.41 212.91 L 497.20 213.19 L 497.25 213.87 L 496.41 214.25 L 495.89 214.25 L 495.75 214.46 L 495.37 214.38 L 495.01 214.72 L 495.45 214.75 L 495.13 215.26 L 495.24 215.47 L 495.84 215.59 L 495.78 215.89 L 496.10 215.98 L 496.30 216.37 L 496.00 216.57 L 495.94 216.93 L 496.28 217.28 L 496.78 217.38 L 497.14 217.64 L 497.53 217.66 L 497.77 218.29 L 498.02 218.26 L 498.62 218.61 L 499.07 218.64 L 499.00 218.45 L 499.33 218.38 L 499.63 218.79 L 500.17 218.38 L 500.37 218.76 L 500.59 218.59 L 501.14 218.64 L 501.01 218.91 L 501.39 219.26 L 501.89 219.15 L 502.38 219.31 L 502.32 219.50 L 502.32 219.50 L 502.66 219.51 L 502.74 219.22 L 503.06 219.45 L 503.23 219.32 L 503.66 219.50 L 504.14 219.40 L 504.25 219.66 L 504.79 219.72 L 504.88 219.92 L 505.39 220.00 L 505.53 220.21 L 506.08 220.27 L 506.64 220.59 L 506.66 220.83 L 507.19 220.63 L 508.02 220.60 L 508.17 220.44 L 508.55 220.76 L 509.45 220.73 L 509.45 220.56 L 510.02 220.60 L 510.16 221.13 L 510.03 221.51 L 510.90 221.33 L 511.40 220.89 L 511.43 220.37 L 511.57 220.20 L 512.01 220.27 L 512.22 219.88 L 512.83 220.05 L 513.01 219.87 L 513.01 219.87 L 513.02 219.88 L 513.02 219.88 L 513.02 219.89 L 513.02 219.89 L 513.43 220.07 L 513.81 220.63 L 514.06 220.73 L 514.17 221.14 L 514.71 221.03 L 514.83 220.73 L 515.60 220.48 L 515.74 220.29 L 515.93 220.51 L 515.84 219.48 L 515.76 219.37 L 515.76 219.37 L 515.72 219.19 L 515.24 219.02 L 515.31 218.71 L 514.72 218.85 L 514.75 218.50 L 514.45 217.92 L 514.01 217.77 L 514.21 217.35 L 513.94 217.28 L 513.75 216.90 L 514.36 216.35 L 514.61 215.55 L 514.71 215.61 L 515.28 214.93 L 515.60 214.77 L 515.90 214.17 L 516.36 214.14 L 518.01 213.68 L 518.30 212.90 L 518.78 212.70 L 519.18 212.01 L 518.97 211.76 L 519.80 211.06 L 520.13 210.52 L 520.04 210.12 L 520.38 209.85 L 520.35 209.55 L 520.97 209.20 L 521.04 208.19 L 521.54 207.96 L 522.18 207.81 L 522.39 207.87 L 523.04 207.70 L 523.29 207.90 L 523.74 207.94 L 524.25 207.50 L 523.63 207.25 L 523.81 207.04 L 523.61 206.71 L 523.78 206.61 L 523.78 206.61 L 524.15 206.85 L 524.30 206.67 L 524.18 206.25 L 524.35 205.94 L 524.77 205.66 L 525.10 205.82 L 525.22 206.28 L 525.24 206.27 L 525.22 206.28 L 525.24 206.27 L 525.79 206.78 L 525.93 206.47 L 526.29 206.28 L 527.25 205.36 L 527.55 205.21 L 528.16 204.58 L 528.33 204.13 L 528.80 203.97 L 529.10 203.70 L 529.10 203.47 L 529.63 202.89 L 529.97 203.03 L 530.82 202.92 L 531.93 203.06 L 532.43 202.89 L 533.21 202.99 L 533.57 202.88 L 534.47 202.98 L 534.97 202.76 L 535.81 202.93 L 536.20 202.84 L 536.64 202.20 L 536.97 201.91 L 537.09 201.43 L 537.43 200.84 L 537.43 200.84 L 537.74 200.58 L 538.96 200.53 L 539.39 200.02 L 539.65 199.93 L 539.60 199.68 L 539.83 199.45 L 540.04 198.96 L 540.45 198.68 L 540.94 198.20 L 541.49 197.73 L 541.58 197.42 L 541.37 197.30 L 540.43 197.51 L 539.75 197.45 L 539.22 196.92 L 539.17 196.58 L 538.69 196.38 L 538.34 195.85 L 538.76 195.73 L 538.27 195.67 L 538.28 194.83 L 537.44 194.96 L 536.62 194.93 L 536.13 195.09 L 535.48 195.47 L 534.28 195.56 L 534.12 195.30 L 534.33 195.02 L 534.33 195.02 L 533.86 194.69 L 533.86 194.69 L 533.56 194.91 L 533.56 194.91 L 533.22 194.92 L 532.79 195.26 L 532.39 195.02 L 532.23 194.69 L 532.36 194.27 L 532.06 194.19 L 531.15 194.18 L 531.12 194.18 L 531.14 194.18 L 531.15 194.18 L 531.14 194.18 L 531.12 194.18 L 530.38 194.27 L 530.19 193.64 L 529.52 193.60 L 529.52 193.60 L 529.02 193.50 L 528.93 193.19 L 529.07 192.71 L 528.79 192.48 L 528.77 192.02 L 528.63 191.66 L 528.84 191.21 L 529.11 190.92 L 529.11 190.60 L 529.11 190.60 L 529.41 190.43 L 529.41 190.43 L 529.71 190.43 L 529.71 190.43 L 530.32 190.39 L 530.75 189.81 L 530.74 189.80 L 530.74 189.80 L 530.75 189.81 L 530.71 189.39 L 530.31 189.36 L 530.16 188.72 L 530.43 188.61 L 530.43 188.61 L 530.33 187.94 L 530.51 187.45 L 530.31 187.25 L 529.88 187.44 L 529.77 187.08 L 530.00 187.03 L 529.99 186.67 L 530.37 186.45 L 529.92 186.44 L 529.42 186.13 L 529.79 185.96 L 529.78 185.48 L 529.45 185.21 L 529.67 184.98 L 529.71 184.57 L 529.48 184.78 L 529.05 184.53 L 528.64 184.55 L 528.82 184.78 L 528.82 184.78 L 528.79 184.81 L 528.79 184.81 L 528.79 184.81 L 528.79 184.81 L 528.18 184.68 L 527.72 184.72 L 527.43 184.52 L 527.43 184.52 L 526.72 184.78 L 526.56 185.24 L 526.19 185.22 L 526.25 185.41 L 525.82 185.50 L 525.89 185.67 L 525.45 185.48 L 525.56 185.95 L 525.89 185.96 L 526.00 186.26 L 525.79 186.37 L 525.04 186.24 L 525.04 186.24 L 524.79 186.23 L 524.47 185.89 L 523.96 185.77 L 523.78 185.11 L 523.35 184.85 L 522.86 184.91 L 522.64 185.07 L 522.31 185.00 L 521.66 185.03 L 521.56 184.87 L 521.24 184.98 L 521.06 184.78 L 520.84 185.14 L 520.36 184.73 L 520.36 184.73 L 520.41 184.91 L 520.41 184.91 L 519.92 185.29 L 519.92 185.29 L 519.51 185.34 L 519.43 185.54 L 519.43 185.54 L 519.28 185.67 L 519.28 185.67 L 518.72 185.61 L 518.58 185.36 L 518.58 185.36 L 518.58 185.36 L 518.58 185.36 L 518.44 185.32 L 518.44 185.32 L 518.41 185.32 L 518.40 185.32 L 518.41 185.32 L 518.41 185.32 L 518.40 185.32 L 518.41 185.32 L 518.39 185.24 L 518.39 185.24 L 518.37 185.22 L 518.37 185.22 L 518.35 185.15 L 518.35 185.15 L 518.17 185.05 L 518.17 185.05 L 518.16 184.97 L 518.16 184.97 L 517.84 184.58 L 517.49 184.74 L 517.49 184.74 L 517.01 184.84 L 516.58 184.54 L 516.29 184.77 L 516.34 184.32 L 515.88 184.21 L 515.88 184.21 L 516.02 184.01 L 515.97 183.27 L 515.48 183.16 L 515.52 182.81 L 515.93 182.68 L 515.93 182.68 L 516.16 182.83 L 516.65 182.72 L 516.80 182.49 L 516.25 182.27 L 516.37 181.88 L 516.27 181.71 L 516.27 181.71 L 516.34 181.64 L 515.91 181.26 L 515.34 181.10 L 515.37 180.75 L 515.59 180.67 L 515.63 180.28 L 515.95 180.17 L 516.39 179.80 L 517.04 179.59 L 517.14 179.35 L 518.74 179.08 L 518.74 179.08 L 518.94 178.76 L 519.28 179.00 L 519.71 179.07 L 519.79 178.64 L 519.94 178.66 L 520.24 178.16 L 520.97 177.85 L 520.79 177.67 L 520.44 176.92 L 519.88 176.87 L 518.92 175.99 L 519.02 175.48 L 518.55 175.37 L 518.75 174.99 L 519.06 174.80 L 519.42 174.79 L 519.50 174.50 L 520.10 174.42 L 520.33 174.19 L 521.00 174.35 L 521.11 174.59 L 521.34 174.54 L 522.31 174.05 L 522.68 173.68 L 522.98 173.72 L 523.07 173.38 L 523.41 172.92 L 523.57 172.88 L 523.85 172.38 L 524.12 172.69 L 524.51 172.76 L 524.57 172.59 L 525.99 172.65 L 526.12 172.56 L 525.83 172.10 L 524.75 171.22 L 524.81 170.96 L 525.13 170.81 L 525.42 171.20 L 526.23 171.26 L 525.93 170.71 L 526.01 170.42 L 526.67 170.42 L 526.67 170.42 L 527.17 170.30 L 527.49 170.49 L 527.75 170.01 L 527.67 169.68 L 528.00 169.61 L 528.42 169.76 L 528.53 170.00 L 528.31 170.53 L 528.77 170.98 L 528.68 171.16 L 529.16 171.37 L 529.72 171.80 L 530.08 171.89 L 530.87 172.57 L 530.89 172.87 L 531.29 173.24 L 531.78 173.40 L 532.81 173.26 L 532.87 173.33 L 533.81 173.39 L 534.54 173.71 L 534.97 173.77 L 535.20 173.61 L 535.89 173.47 L 536.77 173.59 L 536.99 173.75 L 536.85 173.99 L 536.50 173.86 L 536.50 173.86 Z M 533.83 179.74 L 533.77 179.87 L 533.31 179.79 L 533.11 179.93 L 532.74 179.82 L 532.74 179.82 L 532.19 179.97 L 531.91 180.28 L 531.08 180.16 L 530.91 180.02 L 530.28 180.16 L 529.90 180.06 L 529.79 180.30 L 529.39 180.23 L 529.14 180.92 L 529.40 181.13 L 529.42 181.72 L 529.71 181.73 L 530.26 182.21 L 530.70 182.33 L 530.80 182.18 L 531.13 182.88 L 530.64 183.04 L 530.79 183.38 L 530.48 183.44 L 530.51 183.83 L 530.68 183.82 L 530.95 183.63 L 530.95 183.63 L 531.08 183.75 L 531.08 183.75 L 531.12 183.90 L 531.12 183.90 L 531.28 184.29 L 531.48 184.34 L 531.48 184.34 L 531.82 184.18 L 532.78 184.47 L 532.78 184.47 L 533.24 184.49 L 533.50 184.27 L 533.36 183.50 L 533.36 183.50 L 533.33 183.19 L 533.79 183.04 L 533.29 182.70 L 533.27 182.48 L 533.64 182.32 L 534.26 182.31 L 534.22 182.03 L 534.02 182.12 L 533.34 181.87 L 533.34 181.87 L 533.22 181.16 L 533.71 180.67 L 533.64 179.90 L 533.83 179.74 Z M 539.79 187.05 L 539.59 186.80 L 538.91 186.73 L 538.63 186.95 L 538.59 186.68 L 538.02 186.74 L 537.88 186.61 L 537.57 186.76 L 537.05 187.26 L 537.21 187.45 L 537.82 187.34 L 538.59 187.61 L 538.61 187.25 L 539.37 187.28 L 539.79 187.05 Z M 551.03 189.47 L 550.52 189.83 L 550.91 189.93 L 551.03 189.47 Z">
      <title>河北省</title>
    </path>
  </g>
</svg>