<?xml version="1.0" encoding="UTF-8"?>
<svg xmlns="http://www.w3.org/2000/svg" viewBox="0 0 800 600" width="800" height="600">
  <title>山西省</title>
  <defs>
    <style>
      .region-path {
        fill: #e6f3ff;
        stroke: #2563eb;
        stroke-width: 1.5;
        stroke-linejoin: round;
        cursor: pointer;
        transition: all 0.2s ease;
      }
      .region-path:hover {
        fill: #bfdbfe;
        stroke: #1d4ed8;
        stroke-width: 2;
      }
      .region-label {
        fill: #1e40af;
        font-family: Arial, sans-serif;
        font-size: 24px;
        font-weight: bold;
        pointer-events: none;
      }
    </style>
  </defs>
  
  <g id="140000">
    <path id="140000-land" 
          class="region-path"
          data-region-id="140000"
          data-region-name="山西省"
          d="M 463.03 236.56 L 463.50 236.69 L 464.16 236.45 L 464.62 236.74 L 465.43 236.49 L 466.45 236.51 L 466.86 236.02 L 467.30 236.05 L 467.64 236.40 L 468.25 236.11 L 468.46 235.85 L 468.63 235.22 L 469.21 235.46 L 469.82 235.10 L 470.69 234.94 L 471.00 234.41 L 471.87 234.60 L 472.10 234.29 L 472.49 234.42 L 473.04 234.16 L 473.50 234.34 L 474.01 234.10 L 474.67 234.18 L 475.10 233.94 L 475.37 234.04 L 475.60 233.65 L 475.86 233.51 L 476.16 233.05 L 476.53 232.93 L 476.34 232.58 L 477.14 232.37 L 477.82 232.08 L 477.86 231.77 L 479.13 231.55 L 479.59 231.72 L 480.02 231.71 L 480.23 231.94 L 480.47 231.84 L 480.41 231.40 L 480.51 230.83 L 480.24 230.41 L 480.64 230.14 L 480.44 229.52 L 481.26 229.61 L 482.08 229.79 L 482.34 229.99 L 482.98 229.81 L 482.81 230.14 L 483.63 230.14 L 483.88 229.94 L 485.15 230.15 L 486.43 230.08 L 486.34 229.69 L 487.29 230.28 L 487.84 230.27 L 488.35 229.74 L 488.99 229.89 L 489.51 229.69 L 489.53 229.47 L 490.11 229.35 L 490.04 228.90 L 490.15 228.67 L 490.89 228.75 L 491.50 228.97 L 491.74 228.78 L 491.90 228.14 L 492.11 228.17 L 492.16 227.77 L 492.71 227.76 L 493.35 227.99 L 493.43 227.43 L 493.80 227.56 L 494.25 227.16 L 494.74 227.16 L 495.36 226.90 L 495.52 226.47 L 495.98 225.97 L 495.87 225.61 L 496.19 225.85 L 496.67 225.86 L 496.65 225.42 L 496.33 225.25 L 496.28 224.78 L 496.46 224.15 L 496.23 223.94 L 497.04 223.74 L 496.80 223.40 L 496.97 222.76 L 496.91 222.11 L 497.23 222.20 L 497.39 221.77 L 497.04 221.69 L 497.30 221.47 L 497.15 220.86 L 496.98 220.76 L 497.58 220.71 L 497.51 220.51 L 496.94 220.24 L 497.43 220.17 L 497.26 219.81 L 497.62 219.33 L 497.57 218.91 L 497.82 218.69 L 497.77 218.29 L 497.53 217.66 L 497.14 217.64 L 496.78 217.38 L 496.28 217.28 L 495.94 216.93 L 496.00 216.57 L 496.30 216.37 L 496.10 215.98 L 495.78 215.89 L 495.84 215.59 L 495.24 215.47 L 495.13 215.26 L 495.45 214.75 L 495.01 214.72 L 495.37 214.38 L 495.75 214.46 L 495.89 214.25 L 496.41 214.25 L 497.25 213.87 L 497.20 213.19 L 497.41 212.91 L 497.78 212.95 L 497.78 213.15 L 498.20 213.19 L 498.41 212.78 L 498.08 212.14 L 498.40 211.82 L 498.19 211.51 L 498.36 211.07 L 498.05 210.91 L 498.21 210.58 L 498.20 210.11 L 498.82 209.95 L 499.03 209.46 L 499.38 209.21 L 499.54 208.47 L 500.17 208.00 L 500.29 207.51 L 500.71 207.29 L 500.94 206.57 L 501.79 205.56 L 501.75 205.26 L 502.00 204.68 L 501.89 204.45 L 501.26 204.21 L 500.49 204.36 L 500.52 204.12 L 501.02 203.79 L 500.62 203.26 L 500.32 203.22 L 500.13 202.29 L 499.90 202.12 L 499.53 201.48 L 499.23 201.42 L 499.28 200.75 L 498.60 200.10 L 498.81 199.58 L 498.45 199.63 L 497.66 199.51 L 497.57 199.11 L 497.23 199.19 L 496.86 198.92 L 496.40 198.97 L 496.10 198.86 L 495.84 198.52 L 495.97 197.76 L 495.64 197.35 L 495.77 196.99 L 496.24 196.56 L 495.85 196.21 L 496.01 195.53 L 496.44 195.24 L 496.54 194.63 L 497.47 194.57 L 497.66 193.93 L 498.23 193.96 L 498.51 193.41 L 498.89 193.46 L 498.86 193.07 L 499.06 192.73 L 498.43 192.40 L 498.24 192.14 L 498.15 191.37 L 498.24 191.09 L 498.56 191.06 L 499.50 190.25 L 499.83 190.30 L 500.16 189.91 L 500.50 189.97 L 500.62 189.68 L 501.08 189.55 L 501.22 189.98 L 501.42 189.99 L 501.42 189.99 L 501.68 190.41 L 502.19 190.32 L 502.43 190.45 L 503.17 190.19 L 504.14 190.18 L 504.39 189.84 L 504.29 189.57 L 504.58 189.12 L 505.16 189.15 L 505.49 188.72 L 504.87 188.44 L 505.09 188.27 L 505.02 187.77 L 505.39 187.54 L 505.42 186.80 L 505.71 186.41 L 505.76 186.01 L 506.08 185.92 L 506.45 185.01 L 505.90 185.10 L 505.69 184.65 L 505.03 184.59 L 504.79 184.20 L 504.81 183.06 L 504.88 182.91 L 504.60 182.47 L 504.77 182.32 L 504.65 181.97 L 503.52 182.06 L 503.53 181.93 L 502.79 182.02 L 502.67 181.78 L 502.94 181.63 L 502.76 181.43 L 502.36 181.65 L 501.26 181.39 L 501.05 181.46 L 500.85 181.01 L 500.86 180.74 L 499.63 180.43 L 500.13 180.24 L 500.45 179.43 L 500.75 179.52 L 501.03 180.00 L 501.45 179.85 L 501.61 179.56 L 501.31 178.84 L 501.31 178.84 L 501.57 178.58 L 501.96 178.77 L 502.42 178.61 L 503.00 178.54 L 503.20 178.14 L 503.59 178.20 L 504.31 178.00 L 504.77 178.04 L 505.43 177.81 L 505.85 177.45 L 506.06 177.01 L 505.55 176.98 L 505.11 176.74 L 504.60 176.95 L 504.51 176.83 L 503.79 176.73 L 503.52 176.18 L 503.66 176.03 L 503.32 175.68 L 503.48 175.46 L 503.60 174.87 L 503.39 174.86 L 503.49 174.47 L 503.01 174.30 L 502.46 173.63 L 502.24 173.19 L 501.95 172.95 L 501.43 173.03 L 501.22 173.26 L 501.31 173.55 L 500.99 174.28 L 501.35 174.62 L 501.39 174.91 L 501.20 175.11 L 500.67 175.25 L 500.02 175.26 L 499.42 175.76 L 499.01 175.82 L 498.43 175.22 L 498.10 175.68 L 497.33 175.94 L 496.00 176.98 L 495.38 177.13 L 494.21 177.28 L 493.47 177.28 L 493.05 176.56 L 492.80 176.31 L 491.05 176.70 L 490.54 176.77 L 489.14 177.18 L 488.62 178.45 L 487.54 178.86 L 487.21 178.74 L 486.35 178.15 L 485.13 177.80 L 484.55 177.48 L 484.16 177.53 L 483.44 177.92 L 483.04 177.93 L 482.93 178.40 L 482.24 178.83 L 482.23 179.21 L 481.73 179.72 L 481.71 179.95 L 481.30 180.31 L 481.21 180.57 L 480.61 181.43 L 480.26 181.77 L 479.96 182.38 L 479.52 182.70 L 479.41 183.78 L 479.05 184.04 L 479.18 184.50 L 478.57 184.67 L 478.19 184.53 L 477.58 184.85 L 476.95 184.67 L 476.29 184.31 L 475.94 184.39 L 474.91 184.09 L 474.61 184.10 L 474.08 184.32 L 474.24 184.67 L 474.03 184.77 L 473.83 185.37 L 473.93 185.68 L 473.32 185.99 L 473.18 186.47 L 472.95 186.59 L 471.24 186.57 L 470.94 186.73 L 470.76 187.16 L 471.11 187.20 L 471.07 187.45 L 471.39 187.31 L 471.32 187.57 L 471.55 187.79 L 472.03 187.82 L 471.67 188.29 L 471.73 188.43 L 471.15 189.37 L 471.26 189.56 L 470.99 189.91 L 470.89 190.29 L 470.44 190.64 L 469.86 190.75 L 469.44 190.97 L 469.26 191.27 L 469.56 191.65 L 469.63 192.10 L 469.42 192.32 L 469.56 192.54 L 469.10 193.49 L 468.58 194.02 L 468.59 194.34 L 468.22 194.83 L 468.41 195.24 L 468.63 195.29 L 468.50 195.92 L 468.12 196.03 L 468.16 196.62 L 467.81 196.76 L 467.35 196.62 L 467.16 196.75 L 466.84 197.52 L 466.36 197.66 L 465.95 198.12 L 465.33 198.13 L 465.08 198.24 L 464.96 199.09 L 464.57 199.13 L 464.37 199.33 L 464.48 199.97 L 464.30 200.31 L 464.36 201.19 L 464.57 201.42 L 464.51 201.79 L 465.25 202.13 L 466.15 203.50 L 466.72 203.70 L 466.88 204.06 L 466.52 204.13 L 466.42 204.37 L 467.13 204.63 L 467.32 204.94 L 467.01 205.06 L 467.09 205.52 L 467.33 205.90 L 467.09 206.11 L 466.96 206.77 L 466.77 207.03 L 465.77 207.18 L 465.63 207.82 L 465.74 207.96 L 466.30 208.06 L 466.13 208.39 L 466.25 208.71 L 465.96 208.76 L 465.85 209.03 L 465.22 209.75 L 464.64 210.26 L 464.65 210.49 L 464.23 210.79 L 463.87 211.22 L 463.42 211.41 L 463.52 211.60 L 463.06 211.46 L 463.05 211.66 L 463.49 212.06 L 463.33 212.80 L 462.99 212.91 L 463.49 213.19 L 463.31 213.50 L 463.48 213.57 L 463.32 214.01 L 463.73 214.41 L 463.64 214.94 L 463.27 214.82 L 463.18 215.04 L 463.52 215.24 L 463.73 215.62 L 464.24 216.02 L 464.16 216.28 L 464.31 216.99 L 464.00 217.36 L 464.17 217.60 L 464.14 217.97 L 463.86 218.65 L 464.01 218.87 L 464.01 219.48 L 463.82 219.70 L 463.73 220.35 L 463.94 221.28 L 464.19 221.69 L 464.20 222.11 L 464.45 222.35 L 464.30 222.60 L 464.45 222.90 L 464.40 223.30 L 464.79 223.32 L 464.80 223.73 L 465.02 224.12 L 465.08 225.15 L 465.41 225.87 L 465.20 226.18 L 464.98 226.83 L 464.60 227.12 L 464.05 228.13 L 463.76 229.02 L 462.98 229.81 L 463.02 230.24 L 462.87 230.37 L 462.97 231.03 L 462.42 232.37 L 461.81 233.00 L 461.49 233.65 L 461.65 234.61 L 461.61 235.26 L 461.47 235.60 L 461.88 236.26 L 462.16 236.45 L 463.03 236.56 Z">
      <title>山西省</title>
    </path>
  </g>
</svg>