<?xml version="1.0" encoding="UTF-8"?>
<svg xmlns="http://www.w3.org/2000/svg" viewBox="0 0 800 600" width="800" height="600">
  <title>内蒙古自治区</title>
  <defs>
    <style>
      .region-path {
        fill: #e6f3ff;
        stroke: #2563eb;
        stroke-width: 1.5;
        stroke-linejoin: round;
        cursor: pointer;
        transition: all 0.2s ease;
      }
      .region-path:hover {
        fill: #bfdbfe;
        stroke: #1d4ed8;
        stroke-width: 2;
      }
      .region-label {
        fill: #1e40af;
        font-family: Arial, sans-serif;
        font-size: 24px;
        font-weight: bold;
        pointer-events: none;
      }
    </style>
  </defs>
  
  <g id="150000">
    <path id="150000-land" 
          class="region-path"
          data-region-id="150000"
          data-region-name="内蒙古自治区"
          d="M 326.13 151.62 L 328.19 155.12 L 329.53 157.33 L 331.11 160.00 L 333.12 163.42 L 330.71 165.28 L 330.86 165.66 L 333.71 168.48 L 334.41 169.21 L 336.18 170.21 L 336.62 170.35 L 337.30 170.86 L 338.16 171.07 L 338.28 174.70 L 341.21 173.56 L 340.61 172.85 L 341.64 172.58 L 341.85 173.42 L 342.19 173.77 L 342.61 173.96 L 343.03 174.30 L 343.07 173.75 L 342.91 173.28 L 344.92 172.48 L 345.50 173.40 L 346.13 173.58 L 346.37 173.18 L 346.86 172.84 L 346.88 171.69 L 350.94 171.81 L 352.05 170.92 L 355.29 171.16 L 356.03 171.18 L 356.56 171.52 L 357.77 173.05 L 357.90 173.16 L 357.95 174.18 L 357.19 174.98 L 357.19 177.71 L 355.52 178.52 L 354.98 179.03 L 354.69 179.93 L 353.79 180.45 L 352.86 180.52 L 352.48 180.88 L 350.60 181.71 L 350.17 181.79 L 349.84 181.65 L 349.64 181.77 L 349.94 181.88 L 352.04 181.75 L 353.59 182.04 L 354.45 182.81 L 355.01 182.98 L 355.86 183.11 L 356.77 183.68 L 358.03 183.85 L 358.70 184.67 L 358.56 185.02 L 358.82 185.68 L 360.04 185.92 L 360.63 185.97 L 360.61 186.80 L 361.73 186.94 L 362.77 186.76 L 364.17 186.75 L 364.17 188.88 L 364.40 189.85 L 364.03 190.18 L 364.10 190.69 L 364.51 190.93 L 364.79 190.64 L 365.41 190.90 L 365.49 191.51 L 367.02 191.21 L 368.18 190.74 L 367.86 191.55 L 368.27 191.92 L 368.32 192.40 L 369.28 192.54 L 369.34 192.80 L 368.99 193.00 L 369.24 193.27 L 370.08 193.40 L 371.64 193.93 L 372.04 194.53 L 372.78 194.16 L 373.86 194.48 L 374.86 193.72 L 375.56 192.94 L 376.95 192.08 L 376.64 191.94 L 375.70 191.10 L 375.40 190.95 L 374.45 190.03 L 375.16 189.80 L 376.30 189.64 L 376.69 189.49 L 379.04 189.00 L 379.85 188.55 L 380.87 188.31 L 382.17 189.06 L 382.56 189.18 L 385.33 189.71 L 386.61 189.92 L 387.92 188.96 L 388.49 188.72 L 389.23 188.22 L 390.11 187.52 L 390.98 187.29 L 392.71 186.95 L 394.09 186.50 L 395.38 186.17 L 396.44 186.22 L 397.83 186.60 L 397.66 187.31 L 397.39 187.87 L 398.68 189.29 L 399.05 190.09 L 398.88 190.52 L 398.94 191.08 L 398.69 191.53 L 397.36 192.04 L 397.02 192.42 L 395.44 194.64 L 390.85 197.13 L 391.36 197.66 L 391.80 198.41 L 392.08 199.70 L 390.36 200.40 L 390.29 200.93 L 390.76 202.77 L 393.04 203.42 L 393.62 203.62 L 395.25 204.98 L 395.60 205.43 L 396.24 205.75 L 397.83 206.87 L 398.80 207.47 L 399.36 207.42 L 399.88 207.25 L 400.25 207.04 L 401.13 206.87 L 401.25 206.38 L 401.40 206.35 L 403.36 206.27 L 405.24 206.10 L 405.88 205.81 L 407.56 205.67 L 408.42 205.12 L 409.21 204.87 L 409.57 204.67 L 410.53 204.41 L 411.45 204.33 L 412.11 204.48 L 413.47 204.44 L 413.65 204.20 L 413.72 203.62 L 414.29 203.69 L 415.15 203.40 L 415.60 202.75 L 415.56 201.94 L 415.98 201.28 L 415.36 200.44 L 415.22 200.06 L 415.30 199.38 L 415.59 199.04 L 416.00 198.82 L 416.25 198.25 L 415.78 197.52 L 415.93 197.31 L 415.84 196.84 L 416.09 196.72 L 415.94 196.39 L 416.22 195.78 L 416.14 195.42 L 416.33 195.17 L 416.11 194.67 L 416.54 194.10 L 416.45 193.89 L 416.68 193.68 L 416.69 193.12 L 417.55 192.43 L 417.33 191.90 L 417.85 191.44 L 418.26 191.28 L 418.54 190.89 L 418.44 190.68 L 418.63 190.08 L 419.14 189.37 L 419.40 189.26 L 419.63 189.47 L 420.24 189.60 L 420.59 189.44 L 420.70 189.22 L 420.54 188.24 L 421.81 187.93 L 422.94 188.13 L 423.08 187.76 L 423.40 187.62 L 423.88 187.06 L 424.30 187.25 L 424.72 187.25 L 425.42 187.00 L 425.73 187.10 L 425.99 187.65 L 425.99 188.08 L 425.83 188.46 L 425.88 188.73 L 426.19 188.95 L 426.54 189.84 L 426.74 190.01 L 427.31 190.16 L 427.66 190.39 L 427.71 190.68 L 427.52 191.57 L 426.31 192.54 L 425.47 193.56 L 424.99 193.87 L 424.50 195.09 L 424.35 196.44 L 423.85 197.28 L 422.63 198.01 L 423.39 198.59 L 424.14 198.91 L 424.42 198.95 L 425.28 199.27 L 425.71 199.54 L 426.53 199.70 L 427.40 199.95 L 428.10 200.07 L 428.53 200.05 L 428.73 199.88 L 429.23 199.93 L 429.44 199.65 L 429.97 199.73 L 430.49 200.17 L 431.43 200.42 L 432.08 201.17 L 432.56 201.37 L 432.26 201.86 L 432.65 202.01 L 433.10 201.90 L 433.81 202.42 L 434.74 202.73 L 435.09 202.48 L 435.59 202.88 L 436.73 203.09 L 437.17 203.31 L 438.18 203.53 L 438.29 204.07 L 438.63 204.47 L 438.50 204.76 L 438.62 204.95 L 438.94 204.92 L 439.75 205.24 L 440.37 205.07 L 440.49 204.89 L 440.92 204.79 L 441.40 204.88 L 441.48 205.05 L 442.74 204.96 L 443.39 204.66 L 443.88 204.53 L 444.87 204.93 L 445.61 204.75 L 445.83 204.60 L 446.43 204.60 L 446.57 204.43 L 446.50 203.76 L 446.66 203.56 L 446.57 202.64 L 446.64 202.01 L 446.94 201.44 L 446.63 200.82 L 446.97 200.81 L 447.52 201.18 L 447.63 201.55 L 448.05 202.13 L 448.46 202.03 L 448.55 201.69 L 448.92 201.62 L 449.12 201.10 L 449.45 201.08 L 449.25 200.75 L 449.45 200.38 L 448.36 199.72 L 448.09 199.17 L 448.48 198.78 L 448.33 198.58 L 448.81 197.60 L 449.26 197.33 L 449.29 196.82 L 450.06 196.34 L 450.55 195.95 L 450.77 195.59 L 451.60 194.86 L 452.17 195.13 L 452.54 194.82 L 452.14 194.48 L 452.24 194.05 L 452.92 193.85 L 453.33 193.21 L 454.03 192.68 L 454.43 192.97 L 455.20 192.46 L 455.70 191.70 L 455.83 191.29 L 455.63 191.15 L 456.24 190.77 L 456.63 190.36 L 456.95 190.19 L 457.55 189.68 L 457.96 189.88 L 458.29 189.85 L 457.99 189.49 L 458.69 188.97 L 457.76 188.43 L 458.08 188.14 L 458.70 188.76 L 459.52 188.72 L 460.23 188.37 L 461.35 188.04 L 461.00 187.27 L 460.77 186.94 L 460.51 186.90 L 460.39 186.47 L 460.68 186.25 L 461.62 186.57 L 461.77 186.74 L 463.09 187.74 L 463.55 187.42 L 463.60 187.01 L 464.10 187.22 L 464.53 186.99 L 464.90 187.32 L 464.97 187.64 L 465.28 188.02 L 465.59 188.19 L 466.38 188.12 L 466.68 187.77 L 466.75 187.34 L 467.21 186.93 L 468.11 185.83 L 468.33 185.68 L 469.03 185.57 L 469.64 185.23 L 470.51 185.16 L 470.88 184.87 L 471.06 185.06 L 471.00 185.45 L 470.55 185.80 L 470.55 186.06 L 470.07 186.32 L 470.12 186.80 L 470.48 186.79 L 470.37 187.06 L 470.76 187.16 L 470.94 186.73 L 471.24 186.57 L 472.95 186.59 L 473.18 186.47 L 473.32 185.99 L 473.93 185.68 L 473.83 185.37 L 474.03 184.77 L 474.24 184.67 L 474.08 184.32 L 474.61 184.10 L 474.91 184.09 L 475.94 184.39 L 476.29 184.31 L 476.95 184.67 L 477.58 184.85 L 478.19 184.53 L 478.57 184.67 L 479.18 184.50 L 479.05 184.04 L 479.41 183.78 L 479.52 182.70 L 479.96 182.38 L 480.26 181.77 L 480.61 181.43 L 481.21 180.57 L 481.30 180.31 L 481.71 179.95 L 481.73 179.72 L 482.23 179.21 L 482.24 178.83 L 482.93 178.40 L 483.04 177.93 L 483.44 177.92 L 484.16 177.53 L 484.55 177.48 L 485.13 177.80 L 486.35 178.15 L 487.21 178.74 L 487.54 178.86 L 488.62 178.45 L 489.14 177.18 L 490.54 176.77 L 491.05 176.70 L 492.80 176.31 L 493.05 176.56 L 493.47 177.28 L 494.21 177.28 L 495.38 177.13 L 496.00 176.98 L 497.33 175.94 L 498.10 175.68 L 498.43 175.22 L 499.01 175.82 L 499.42 175.76 L 500.02 175.26 L 500.67 175.25 L 501.20 175.11 L 501.39 174.91 L 501.35 174.62 L 500.99 174.28 L 501.31 173.55 L 501.22 173.26 L 501.43 173.03 L 501.95 172.95 L 501.63 172.60 L 501.64 172.32 L 501.39 172.40 L 501.02 171.98 L 501.32 171.70 L 501.13 171.60 L 500.99 171.08 L 501.15 171.00 L 500.50 170.86 L 500.28 170.40 L 499.19 169.51 L 498.68 169.21 L 499.29 169.03 L 499.73 168.44 L 500.15 168.45 L 500.52 168.23 L 500.73 167.82 L 500.48 167.43 L 500.26 167.74 L 500.05 167.29 L 499.67 167.17 L 499.51 166.95 L 499.78 166.85 L 499.99 166.16 L 499.22 165.94 L 499.29 165.76 L 499.72 165.52 L 499.86 165.18 L 500.07 165.21 L 500.32 164.98 L 500.89 164.73 L 501.61 164.65 L 502.95 164.90 L 502.85 164.19 L 502.90 163.83 L 503.24 163.76 L 502.79 163.13 L 503.02 162.98 L 502.70 162.57 L 502.79 162.38 L 502.63 162.04 L 503.48 161.27 L 504.12 160.62 L 504.21 160.34 L 504.90 160.46 L 505.51 160.36 L 505.86 160.05 L 505.41 159.59 L 505.53 159.19 L 505.76 159.16 L 505.85 158.71 L 506.36 158.49 L 507.27 158.72 L 507.56 158.61 L 508.38 158.66 L 508.74 158.50 L 508.79 158.31 L 509.12 158.41 L 509.50 158.84 L 509.48 159.29 L 509.91 159.70 L 510.04 160.27 L 510.13 161.20 L 510.29 161.45 L 510.12 161.67 L 509.56 161.79 L 509.84 162.27 L 509.91 163.01 L 509.84 163.63 L 509.48 164.00 L 511.09 163.85 L 511.50 163.98 L 511.95 163.76 L 512.95 163.98 L 513.04 164.30 L 513.58 164.21 L 513.68 163.84 L 513.93 163.77 L 514.14 164.08 L 514.84 163.97 L 514.50 163.63 L 514.66 163.37 L 514.23 163.06 L 514.52 162.84 L 515.38 162.67 L 515.99 162.34 L 516.31 162.27 L 516.87 161.88 L 517.70 161.63 L 518.05 161.23 L 518.45 161.21 L 519.33 160.77 L 519.57 160.50 L 519.76 160.61 L 520.42 160.43 L 520.81 161.16 L 521.23 161.63 L 521.36 161.95 L 521.36 161.96 L 521.64 162.11 L 522.31 162.18 L 522.63 161.87 L 522.40 161.61 L 522.56 161.29 L 523.30 161.29 L 523.49 161.05 L 523.61 160.56 L 524.38 160.19 L 524.50 159.89 L 525.16 159.76 L 525.58 160.04 L 525.36 160.45 L 525.99 160.42 L 526.29 160.11 L 526.58 160.13 L 527.02 160.60 L 527.48 160.53 L 527.91 160.59 L 528.22 160.40 L 528.83 160.37 L 529.05 160.02 L 529.54 160.09 L 530.41 159.67 L 530.52 158.90 L 530.10 158.24 L 529.84 158.25 L 529.47 157.78 L 530.65 157.88 L 530.81 157.48 L 530.59 156.78 L 530.48 156.06 L 530.73 155.77 L 530.72 155.76 L 530.84 155.68 L 531.00 155.61 L 531.08 155.56 L 531.35 155.43 L 531.39 155.44 L 531.56 155.45 L 531.71 155.36 L 531.75 155.20 L 531.83 155.13 L 532.48 155.05 L 532.64 154.84 L 533.06 155.00 L 533.61 155.01 L 534.51 154.87 L 535.10 155.08 L 535.70 155.07 L 535.94 154.97 L 535.90 154.47 L 535.67 154.50 L 536.15 154.08 L 536.17 153.79 L 536.58 153.61 L 537.15 153.74 L 537.22 153.61 L 537.88 153.61 L 538.57 153.82 L 539.00 153.76 L 539.74 153.45 L 539.96 153.51 L 539.92 153.79 L 540.53 154.27 L 540.71 154.57 L 542.00 155.54 L 542.27 155.87 L 542.11 156.27 L 542.64 156.77 L 542.51 156.95 L 541.75 157.26 L 541.79 157.48 L 542.37 157.80 L 543.12 158.08 L 542.95 158.59 L 543.03 158.77 L 543.63 159.02 L 543.23 159.48 L 544.03 159.54 L 544.30 159.25 L 544.22 159.02 L 544.50 158.90 L 544.84 159.00 L 545.09 159.26 L 544.99 159.51 L 544.50 159.60 L 545.04 159.78 L 545.27 159.98 L 545.19 160.48 L 544.80 160.58 L 545.55 161.18 L 545.49 161.46 L 545.05 162.21 L 544.58 162.20 L 544.47 161.85 L 543.87 161.78 L 543.47 162.10 L 543.39 162.62 L 543.63 162.84 L 543.67 163.22 L 544.16 163.48 L 544.25 164.05 L 545.16 164.50 L 545.29 164.91 L 544.84 165.34 L 545.41 165.55 L 545.63 165.78 L 545.76 166.24 L 545.63 166.67 L 545.96 166.99 L 546.29 166.79 L 547.49 166.54 L 548.55 166.63 L 549.04 166.59 L 549.71 166.86 L 550.00 166.57 L 550.76 166.34 L 550.77 166.67 L 551.25 167.11 L 551.86 166.93 L 552.18 167.06 L 553.35 167.18 L 554.13 167.17 L 554.43 167.29 L 554.58 167.03 L 554.87 166.97 L 555.45 166.86 L 555.81 166.23 L 555.59 166.02 L 556.28 165.85 L 556.30 165.46 L 556.55 165.33 L 556.60 165.01 L 556.13 164.57 L 556.14 164.35 L 556.74 164.34 L 556.69 164.11 L 555.93 163.82 L 555.58 163.41 L 555.49 162.91 L 555.69 162.69 L 555.68 162.31 L 555.42 162.03 L 555.63 161.88 L 555.85 161.19 L 555.74 161.00 L 555.91 160.62 L 555.74 160.51 L 555.75 160.18 L 556.28 159.62 L 556.37 158.93 L 556.04 158.63 L 555.65 158.62 L 555.58 158.33 L 555.36 158.26 L 555.26 157.94 L 554.85 157.78 L 555.22 157.38 L 555.29 157.16 L 555.99 156.74 L 556.87 156.57 L 557.39 156.26 L 557.59 155.84 L 557.98 156.09 L 558.31 156.13 L 558.31 156.38 L 557.98 156.77 L 558.17 156.86 L 558.70 156.99 L 558.78 157.24 L 559.43 157.36 L 560.10 157.67 L 561.11 157.63 L 561.25 158.09 L 561.07 158.46 L 561.15 158.85 L 561.46 159.05 L 561.69 159.54 L 561.93 159.71 L 561.97 159.97 L 562.24 160.13 L 562.27 160.66 L 562.64 160.91 L 562.99 161.76 L 563.18 161.74 L 563.28 162.18 L 563.01 162.58 L 563.12 162.88 L 563.75 163.00 L 564.18 162.67 L 564.07 162.22 L 564.65 161.66 L 564.71 161.43 L 564.99 161.38 L 565.36 161.06 L 565.72 161.10 L 565.76 160.92 L 565.45 160.85 L 565.57 160.63 L 566.05 160.51 L 565.96 160.36 L 566.62 159.91 L 566.89 160.02 L 567.48 159.69 L 567.42 159.27 L 567.87 159.10 L 567.59 158.77 L 568.63 158.28 L 568.80 158.13 L 569.23 158.26 L 570.23 157.75 L 570.48 157.54 L 570.94 157.59 L 571.26 157.50 L 571.35 157.24 L 571.91 157.35 L 571.91 157.07 L 572.43 156.96 L 573.04 157.12 L 573.41 157.35 L 573.85 157.23 L 574.03 156.97 L 574.37 156.95 L 574.50 156.75 L 575.03 156.40 L 575.38 156.01 L 576.07 155.84 L 576.38 155.42 L 576.27 155.34 L 577.12 154.94 L 577.62 154.93 L 578.08 154.71 L 578.36 154.86 L 579.03 154.81 L 579.42 154.51 L 579.38 154.73 L 580.02 155.33 L 580.36 155.31 L 580.86 154.83 L 581.44 154.52 L 581.59 154.63 L 581.73 154.33 L 581.87 154.44 L 582.34 154.09 L 582.67 153.58 L 582.61 153.06 L 582.88 152.96 L 582.85 152.72 L 583.67 152.61 L 584.13 152.36 L 584.24 152.50 L 585.15 152.76 L 585.60 152.76 L 585.60 152.26 L 586.19 152.65 L 586.85 152.76 L 586.99 152.92 L 587.59 152.77 L 587.59 152.53 L 588.26 152.03 L 588.03 151.88 L 587.33 151.81 L 587.12 151.25 L 588.01 151.12 L 589.25 151.28 L 589.45 151.37 L 589.50 151.67 L 589.96 151.84 L 590.26 151.75 L 591.08 151.71 L 591.13 151.87 L 591.63 152.01 L 592.28 152.48 L 592.64 152.07 L 592.68 151.88 L 593.08 151.85 L 593.28 152.05 L 593.64 151.80 L 594.45 151.89 L 595.07 151.55 L 596.21 151.24 L 595.61 150.95 L 595.80 150.57 L 595.75 150.26 L 596.53 149.56 L 597.20 149.49 L 598.35 149.21 L 598.77 149.05 L 599.41 149.42 L 599.78 149.46 L 599.87 149.12 L 600.39 148.58 L 600.44 148.03 L 600.76 147.63 L 600.54 147.33 L 600.86 147.18 L 600.73 146.75 L 601.08 146.67 L 601.14 145.65 L 600.15 145.70 L 599.50 145.19 L 599.23 145.33 L 598.89 144.88 L 598.43 144.96 L 598.20 145.24 L 597.82 144.63 L 597.62 144.48 L 597.12 144.39 L 597.27 144.11 L 597.01 143.79 L 597.58 143.61 L 598.54 143.83 L 598.63 143.60 L 598.35 143.53 L 598.21 143.29 L 599.15 143.35 L 599.14 143.02 L 599.41 142.92 L 599.22 142.42 L 599.24 142.15 L 598.85 141.85 L 599.01 141.50 L 598.63 140.97 L 598.70 140.65 L 597.96 139.60 L 597.69 139.44 L 598.00 139.34 L 597.64 138.98 L 597.28 138.83 L 597.25 138.26 L 597.48 138.17 L 597.61 137.75 L 597.85 137.45 L 597.20 137.26 L 596.82 136.94 L 596.72 136.51 L 595.89 135.55 L 595.18 135.32 L 595.03 134.96 L 595.32 134.69 L 595.15 134.41 L 595.27 134.09 L 595.14 133.84 L 594.53 133.88 L 594.11 134.02 L 592.36 135.00 L 591.37 135.30 L 590.77 135.82 L 590.48 136.17 L 590.14 136.19 L 588.83 136.53 L 588.49 136.67 L 586.79 136.71 L 586.29 136.48 L 586.50 135.91 L 586.53 134.87 L 586.45 134.18 L 585.84 134.15 L 585.81 133.68 L 585.51 133.33 L 584.84 133.14 L 584.66 132.75 L 584.55 132.14 L 584.70 131.85 L 585.16 131.58 L 585.06 131.42 L 584.54 131.50 L 584.63 131.17 L 584.96 131.31 L 585.23 131.14 L 584.52 131.02 L 584.50 130.64 L 583.99 129.67 L 584.30 129.65 L 584.38 129.25 L 584.26 128.69 L 584.50 128.54 L 584.72 128.05 L 584.62 127.29 L 584.96 126.86 L 585.47 126.89 L 585.86 126.62 L 585.96 125.90 L 585.01 125.70 L 585.00 124.88 L 585.35 124.52 L 585.23 124.20 L 584.15 123.86 L 583.51 123.50 L 583.41 123.03 L 583.13 122.58 L 583.44 122.56 L 583.51 122.30 L 583.17 121.58 L 582.80 121.40 L 582.10 121.30 L 581.54 121.46 L 581.52 121.64 L 580.51 121.49 L 580.02 121.22 L 579.79 120.97 L 579.93 120.78 L 580.34 120.85 L 580.94 120.52 L 581.06 120.16 L 581.09 120.02 L 581.59 119.69 L 581.47 119.43 L 581.63 119.25 L 581.50 118.80 L 581.01 118.41 L 581.61 118.16 L 581.86 118.15 L 582.07 118.37 L 582.69 118.35 L 582.74 118.52 L 583.90 118.82 L 584.36 119.31 L 584.43 119.62 L 585.56 119.88 L 585.93 120.14 L 586.11 120.49 L 586.60 120.33 L 586.98 119.85 L 587.35 119.89 L 587.24 119.25 L 588.11 119.26 L 588.62 119.87 L 588.71 120.61 L 588.90 120.61 L 589.25 120.25 L 589.73 120.70 L 590.12 120.77 L 590.22 121.18 L 590.44 121.50 L 591.17 121.45 L 591.27 121.13 L 591.69 120.82 L 591.28 120.11 L 591.49 119.88 L 591.78 119.88 L 592.07 119.31 L 591.70 117.64 L 594.32 117.36 L 594.57 117.12 L 595.01 117.05 L 594.91 116.61 L 595.17 116.59 L 595.18 116.21 L 595.70 115.82 L 595.32 115.31 L 594.78 114.79 L 593.97 113.89 L 593.95 112.96 L 593.87 112.44 L 594.39 112.39 L 594.32 111.99 L 594.65 111.95 L 594.87 112.15 L 595.72 112.03 L 596.21 112.30 L 596.74 112.00 L 596.71 111.55 L 597.15 111.53 L 597.64 111.37 L 598.77 111.28 L 600.10 111.25 L 600.40 110.84 L 600.37 109.96 L 599.86 109.82 L 600.33 109.61 L 600.06 109.40 L 600.12 109.16 L 599.83 109.16 L 599.81 109.63 L 599.68 109.84 L 599.10 109.82 L 598.86 109.63 L 599.32 108.60 L 598.90 108.45 L 598.24 108.71 L 597.34 108.15 L 596.97 108.03 L 597.00 108.40 L 597.58 108.33 L 598.04 108.70 L 598.06 109.00 L 597.73 109.71 L 597.38 109.83 L 596.91 109.43 L 596.14 109.58 L 596.16 109.88 L 595.91 110.07 L 595.54 110.73 L 594.92 110.78 L 594.64 110.67 L 594.12 110.95 L 593.88 110.82 L 593.81 110.50 L 592.88 110.03 L 592.75 109.12 L 592.76 108.44 L 592.18 108.68 L 591.68 108.64 L 591.76 108.47 L 591.51 108.30 L 591.55 108.00 L 592.25 107.55 L 592.32 107.28 L 591.99 107.35 L 590.84 107.06 L 590.52 107.06 L 589.86 106.74 L 589.52 106.39 L 588.99 105.97 L 588.65 105.39 L 588.28 105.15 L 588.05 104.81 L 587.82 104.40 L 588.74 103.87 L 589.11 102.89 L 589.64 102.36 L 591.41 101.66 L 592.28 101.04 L 593.09 100.80 L 594.27 100.29 L 595.52 99.93 L 596.07 99.49 L 596.50 98.94 L 596.96 98.15 L 599.42 97.44 L 599.85 97.20 L 601.16 96.09 L 601.58 95.62 L 602.79 94.85 L 604.41 93.59 L 605.03 93.15 L 605.63 92.87 L 606.90 92.11 L 607.47 92.44 L 607.35 92.93 L 607.64 93.15 L 607.42 93.38 L 607.65 93.73 L 607.51 94.03 L 607.88 94.39 L 608.00 94.73 L 608.59 95.12 L 608.49 95.39 L 608.55 95.78 L 609.14 95.87 L 609.10 96.28 L 608.67 96.41 L 608.52 96.76 L 609.04 96.65 L 609.17 96.39 L 609.46 96.37 L 609.70 96.14 L 609.53 95.96 L 609.88 95.58 L 610.21 94.95 L 610.00 94.89 L 610.22 94.59 L 609.82 94.19 L 609.88 93.96 L 609.59 93.75 L 609.65 93.24 L 609.47 93.05 L 609.97 92.82 L 609.74 92.32 L 609.90 92.11 L 609.61 91.90 L 610.21 91.48 L 610.45 91.11 L 610.69 90.39 L 610.56 89.91 L 611.01 89.54 L 610.89 89.29 L 610.99 89.02 L 611.44 88.94 L 611.63 88.49 L 611.56 88.13 L 611.93 88.13 L 612.05 87.64 L 612.59 87.09 L 612.80 86.49 L 612.60 86.10 L 613.00 85.96 L 613.13 85.58 L 613.61 85.39 L 614.40 85.62 L 614.99 85.47 L 614.93 85.67 L 615.79 85.99 L 616.22 85.80 L 616.52 85.36 L 616.85 85.34 L 616.94 84.72 L 616.80 84.43 L 617.29 83.96 L 617.24 83.57 L 617.45 83.37 L 617.23 83.20 L 617.24 82.77 L 617.38 82.59 L 616.94 82.25 L 616.77 81.70 L 617.00 81.74 L 616.96 81.13 L 616.71 81.15 L 616.32 80.77 L 616.18 80.91 L 615.90 80.51 L 615.95 80.33 L 616.29 80.36 L 616.54 80.54 L 616.50 80.72 L 616.85 80.37 L 616.91 79.77 L 616.70 79.69 L 616.87 79.48 L 616.89 79.02 L 616.42 78.70 L 617.06 78.55 L 616.91 78.31 L 617.12 78.26 L 616.78 77.89 L 616.92 77.74 L 616.64 77.61 L 616.55 77.35 L 616.98 77.38 L 617.08 77.06 L 617.46 76.97 L 617.67 76.79 L 617.52 76.56 L 617.20 76.51 L 617.58 76.33 L 617.85 76.46 L 617.98 76.25 L 617.52 76.21 L 617.56 75.96 L 617.26 75.86 L 617.47 75.61 L 617.81 75.48 L 618.48 75.51 L 618.06 75.26 L 618.55 75.15 L 618.63 74.86 L 618.90 74.91 L 619.23 74.69 L 619.16 74.24 L 619.41 74.17 L 619.38 73.87 L 620.08 73.50 L 619.97 73.31 L 620.24 73.21 L 619.99 72.74 L 620.14 72.58 L 620.46 72.76 L 620.62 72.69 L 620.40 72.39 L 620.59 72.28 L 621.08 72.34 L 621.36 72.05 L 621.83 71.89 L 622.26 71.51 L 622.40 71.68 L 622.56 71.43 L 622.82 71.41 L 623.18 71.11 L 622.95 70.68 L 623.02 70.50 L 622.80 70.27 L 622.91 70.11 L 622.76 69.89 L 623.14 69.64 L 622.67 69.41 L 622.82 69.28 L 622.44 69.19 L 622.91 68.92 L 623.17 69.09 L 623.35 68.96 L 623.25 68.71 L 623.81 68.58 L 623.68 68.47 L 624.04 68.37 L 624.32 68.08 L 624.55 67.60 L 624.92 67.89 L 624.91 67.54 L 625.15 67.32 L 625.38 67.34 L 625.65 66.91 L 625.38 66.76 L 625.30 66.45 L 625.56 66.12 L 624.69 65.69 L 624.88 65.34 L 624.64 65.28 L 624.39 65.45 L 624.01 65.13 L 623.54 65.05 L 623.39 64.36 L 623.07 64.22 L 622.47 64.22 L 622.47 63.85 L 622.26 63.71 L 621.83 63.18 L 621.07 62.63 L 621.04 62.55 L 621.04 62.44 L 620.81 62.32 L 620.80 62.28 L 620.75 62.25 L 620.37 61.79 L 620.05 61.51 L 618.98 60.74 L 618.52 60.50 L 618.22 60.10 L 617.86 60.25 L 617.58 60.00 L 616.95 59.93 L 616.80 60.06 L 616.40 59.94 L 615.93 59.98 L 615.91 59.74 L 615.60 59.75 L 615.20 60.38 L 615.34 60.83 L 615.07 61.08 L 614.63 61.08 L 614.41 61.30 L 613.84 61.40 L 613.73 61.65 L 613.98 61.93 L 613.39 62.34 L 613.17 62.63 L 612.33 62.51 L 612.14 62.56 L 612.02 62.86 L 611.40 63.12 L 610.71 63.18 L 610.30 62.80 L 609.97 62.68 L 609.30 62.63 L 609.17 62.82 L 608.81 62.86 L 608.64 63.13 L 608.67 63.45 L 608.43 63.75 L 607.73 63.53 L 607.30 63.47 L 607.03 63.37 L 606.69 63.00 L 606.21 63.05 L 605.54 62.97 L 605.15 63.03 L 604.95 63.25 L 604.16 63.23 L 603.59 63.32 L 603.45 63.45 L 603.04 63.25 L 602.58 62.76 L 602.08 62.83 L 601.22 62.44 L 600.69 63.02 L 600.71 63.26 L 599.88 63.39 L 599.88 63.52 L 598.65 63.60 L 598.41 63.76 L 598.14 63.68 L 597.75 63.80 L 597.37 63.75 L 596.90 63.94 L 596.25 63.78 L 596.25 63.68 L 595.17 63.48 L 594.57 63.24 L 593.88 63.33 L 593.49 62.99 L 593.49 62.56 L 593.29 62.37 L 592.85 62.27 L 592.81 61.96 L 592.51 61.85 L 592.34 61.62 L 592.61 61.27 L 592.38 61.13 L 592.61 60.99 L 592.54 60.75 L 592.11 60.54 L 592.36 60.28 L 591.99 60.01 L 591.94 59.78 L 591.55 59.33 L 591.25 58.83 L 591.48 58.49 L 591.07 57.94 L 591.00 57.47 L 590.80 57.34 L 591.04 57.04 L 591.01 56.42 L 590.57 56.47 L 590.37 56.22 L 590.22 55.59 L 589.96 55.50 L 590.15 55.05 L 590.00 54.79 L 590.64 54.75 L 591.13 54.61 L 591.46 54.34 L 591.43 53.79 L 591.64 53.59 L 591.37 53.44 L 590.85 53.55 L 590.52 53.34 L 589.55 53.44 L 589.29 53.28 L 588.44 53.14 L 588.50 52.67 L 588.12 52.12 L 587.82 52.32 L 587.41 52.10 L 587.29 51.92 L 587.03 51.91 L 586.86 51.44 L 586.70 51.28 L 585.63 51.34 L 585.33 51.13 L 585.23 50.88 L 584.93 50.92 L 584.96 51.07 L 584.59 51.51 L 584.32 51.64 L 584.43 51.78 L 583.90 51.92 L 583.85 52.29 L 583.24 52.64 L 582.94 53.11 L 582.45 53.29 L 581.84 53.28 L 581.09 53.01 L 580.52 52.91 L 580.53 52.65 L 579.94 52.16 L 580.15 51.85 L 579.75 51.60 L 579.24 51.61 L 578.98 51.43 L 578.50 51.47 L 578.25 51.18 L 578.03 51.20 L 577.43 51.03 L 577.39 50.79 L 576.78 50.66 L 576.47 50.26 L 576.02 50.12 L 575.45 50.22 L 575.00 49.99 L 575.57 49.79 L 576.15 49.45 L 576.33 49.20 L 576.98 49.12 L 577.83 48.58 L 578.06 48.20 L 578.41 48.13 L 578.69 47.90 L 579.24 47.66 L 579.55 47.36 L 579.38 47.16 L 579.44 46.96 L 579.98 46.75 L 580.14 46.38 L 580.53 45.86 L 581.26 45.65 L 581.59 45.20 L 581.15 44.91 L 581.25 44.76 L 580.92 44.31 L 580.60 44.33 L 580.01 44.07 L 579.96 43.82 L 580.16 43.77 L 580.16 43.34 L 579.77 43.12 L 579.49 43.15 L 579.08 42.82 L 578.35 42.49 L 578.29 42.34 L 577.43 42.53 L 576.61 42.46 L 576.31 42.71 L 575.48 42.93 L 574.73 42.88 L 574.45 42.96 L 574.14 42.66 L 573.69 42.82 L 572.60 42.75 L 572.46 42.85 L 571.90 42.79 L 571.74 42.95 L 571.26 43.05 L 571.44 43.35 L 571.27 43.33 L 570.38 43.71 L 569.91 44.03 L 569.87 44.36 L 569.59 44.42 L 569.42 44.73 L 568.58 44.98 L 568.24 45.36 L 567.44 45.73 L 567.01 46.27 L 566.51 46.45 L 566.38 46.81 L 565.81 46.96 L 565.83 47.19 L 565.06 47.47 L 564.63 47.84 L 564.21 47.78 L 563.80 48.03 L 563.08 48.18 L 563.49 48.88 L 563.12 49.50 L 563.26 50.00 L 563.54 50.13 L 564.05 50.12 L 564.77 50.20 L 565.75 49.74 L 566.86 49.82 L 567.54 49.52 L 567.76 49.67 L 568.57 50.03 L 569.02 50.10 L 569.25 50.29 L 569.58 50.33 L 569.91 50.53 L 570.36 50.64 L 569.87 50.90 L 570.08 51.09 L 569.83 51.39 L 569.88 51.77 L 569.48 52.16 L 569.53 52.36 L 569.21 52.46 L 569.25 52.85 L 569.53 53.07 L 569.96 53.20 L 570.17 53.50 L 570.58 53.53 L 570.48 54.07 L 570.91 54.57 L 570.63 54.78 L 570.71 55.07 L 570.56 55.32 L 570.18 55.45 L 569.91 55.71 L 569.92 55.92 L 570.19 56.04 L 570.06 56.38 L 569.62 56.64 L 569.56 56.97 L 568.43 57.16 L 568.44 57.42 L 567.74 57.39 L 567.73 57.71 L 566.90 57.93 L 566.97 58.11 L 566.52 58.38 L 566.04 58.42 L 565.80 58.77 L 565.10 59.13 L 564.54 59.52 L 563.65 59.54 L 563.79 59.84 L 563.36 60.00 L 563.12 60.52 L 563.29 60.75 L 562.93 61.17 L 562.60 61.33 L 562.57 61.57 L 562.78 61.81 L 562.57 61.96 L 562.45 62.42 L 561.83 62.52 L 561.86 62.69 L 562.20 62.83 L 561.55 63.08 L 561.56 63.43 L 560.79 63.66 L 560.97 63.84 L 560.65 64.04 L 560.90 64.35 L 560.51 64.23 L 560.27 64.37 L 560.56 64.76 L 560.38 65.28 L 560.19 65.35 L 560.31 65.62 L 559.84 65.79 L 559.92 66.04 L 559.41 66.40 L 558.92 66.47 L 558.59 66.73 L 558.29 67.26 L 557.48 67.83 L 557.55 68.35 L 557.73 68.50 L 557.53 68.94 L 557.64 69.02 L 557.05 69.73 L 556.85 69.84 L 556.38 69.86 L 556.47 70.02 L 556.13 70.38 L 555.47 70.54 L 555.30 70.70 L 555.45 70.99 L 555.12 71.37 L 555.10 71.85 L 554.98 72.29 L 554.70 72.36 L 554.64 72.64 L 554.09 72.55 L 553.69 72.90 L 554.22 73.01 L 554.00 73.16 L 554.34 73.33 L 554.79 73.15 L 555.08 73.36 L 555.26 73.14 L 555.73 73.28 L 556.10 73.21 L 556.34 73.57 L 556.02 73.78 L 555.91 74.40 L 555.69 74.65 L 556.10 74.88 L 555.90 74.94 L 556.02 75.21 L 555.59 75.26 L 555.39 75.67 L 554.84 76.16 L 554.36 76.02 L 554.39 76.21 L 554.08 76.65 L 553.68 76.74 L 553.32 77.08 L 552.20 77.15 L 552.02 77.05 L 550.23 77.40 L 549.91 77.36 L 549.68 77.49 L 548.99 77.39 L 548.29 77.69 L 547.98 77.65 L 547.52 78.10 L 547.05 78.32 L 547.03 78.69 L 546.62 78.64 L 546.02 78.73 L 546.15 78.98 L 546.00 79.17 L 545.29 79.35 L 544.96 79.59 L 544.31 79.74 L 544.21 80.14 L 543.64 80.46 L 543.36 80.36 L 542.88 80.91 L 542.14 80.93 L 541.98 80.84 L 541.51 81.12 L 540.63 81.17 L 540.46 81.58 L 540.04 81.90 L 538.27 81.34 L 536.68 80.74 L 534.54 80.70 L 532.37 80.09 L 528.92 78.51 L 528.73 78.52 L 525.73 82.84 L 521.79 88.61 L 522.10 89.14 L 522.01 89.26 L 519.53 91.86 L 519.21 92.33 L 519.45 94.98 L 519.32 95.00 L 516.41 96.06 L 516.57 96.27 L 516.51 96.58 L 516.94 98.48 L 520.66 100.95 L 520.96 100.88 L 522.44 99.62 L 522.64 99.50 L 524.04 98.94 L 525.98 99.35 L 528.23 98.80 L 529.49 98.73 L 530.40 98.77 L 532.64 99.49 L 535.64 101.38 L 536.77 100.17 L 537.03 100.14 L 537.14 99.92 L 540.09 97.50 L 540.85 97.40 L 541.62 97.55 L 542.56 97.52 L 543.13 97.34 L 543.31 97.17 L 543.58 97.29 L 544.49 97.23 L 544.49 97.34 L 544.97 97.55 L 545.67 97.60 L 545.90 97.49 L 546.39 97.51 L 546.60 97.71 L 547.91 97.75 L 550.03 100.04 L 553.78 101.15 L 553.96 102.43 L 554.51 102.64 L 556.18 103.08 L 555.72 103.60 L 556.18 103.65 L 556.39 103.91 L 556.92 104.11 L 557.06 104.37 L 558.18 104.89 L 558.27 105.46 L 558.89 105.47 L 559.81 106.01 L 560.29 106.68 L 560.75 107.46 L 560.58 107.56 L 560.63 107.90 L 561.14 108.40 L 561.30 108.89 L 561.99 109.03 L 561.92 109.55 L 562.09 110.21 L 561.89 110.54 L 562.08 111.01 L 561.83 111.46 L 561.29 111.46 L 560.72 111.33 L 560.82 111.47 L 560.50 111.91 L 560.05 112.02 L 559.41 112.33 L 559.46 112.13 L 559.19 111.91 L 558.59 111.99 L 558.17 111.83 L 557.48 111.87 L 556.86 111.78 L 556.27 112.14 L 556.09 111.98 L 555.76 112.09 L 555.11 111.67 L 554.46 111.68 L 553.96 111.58 L 553.66 111.73 L 553.15 111.38 L 552.50 110.67 L 551.88 110.91 L 551.48 110.80 L 551.50 110.36 L 550.78 110.40 L 550.19 110.96 L 550.19 111.27 L 549.04 111.16 L 548.64 110.92 L 548.09 111.21 L 546.65 111.10 L 546.27 110.85 L 545.30 110.73 L 544.87 110.98 L 544.49 111.04 L 544.01 111.32 L 543.30 111.37 L 542.50 111.85 L 541.94 111.85 L 541.84 112.02 L 541.13 112.10 L 540.66 112.43 L 540.68 112.70 L 540.09 112.90 L 539.63 112.83 L 539.41 112.99 L 538.95 113.04 L 538.30 112.61 L 538.11 112.22 L 537.83 112.14 L 536.79 112.17 L 536.01 112.36 L 536.29 112.92 L 535.72 113.60 L 535.55 114.08 L 535.63 114.30 L 535.51 114.66 L 534.22 114.59 L 532.66 114.70 L 530.38 114.50 L 529.94 114.41 L 529.72 114.71 L 529.02 115.00 L 528.27 115.03 L 527.36 115.37 L 527.23 115.71 L 526.85 115.99 L 525.84 116.97 L 525.58 117.01 L 524.11 118.74 L 523.81 119.68 L 524.28 120.07 L 524.17 120.15 L 524.26 120.73 L 523.99 120.72 L 523.60 121.02 L 523.54 121.28 L 523.10 121.62 L 522.48 121.72 L 521.65 121.66 L 521.57 121.91 L 520.63 122.20 L 519.88 122.83 L 518.17 124.00 L 517.00 124.20 L 514.70 124.70 L 512.77 124.66 L 510.75 124.83 L 510.10 124.76 L 508.28 124.22 L 506.78 124.58 L 506.27 124.75 L 506.15 125.38 L 505.94 125.82 L 505.32 126.55 L 504.80 126.90 L 504.15 127.53 L 503.80 127.65 L 502.53 128.38 L 502.19 128.82 L 501.77 129.21 L 501.23 129.48 L 499.60 129.64 L 499.12 130.18 L 498.47 130.32 L 497.57 130.96 L 496.74 131.40 L 495.80 131.26 L 495.41 131.07 L 491.39 130.84 L 490.58 130.60 L 489.55 130.42 L 488.64 130.42 L 487.21 130.01 L 486.04 129.48 L 485.43 128.75 L 484.38 128.02 L 483.93 128.09 L 481.00 128.01 L 480.56 127.77 L 479.85 127.82 L 478.83 128.22 L 477.38 129.08 L 476.64 130.21 L 475.93 131.06 L 475.53 131.81 L 475.27 132.42 L 475.37 133.15 L 474.96 133.42 L 474.79 133.87 L 474.42 134.06 L 473.89 135.04 L 473.77 135.43 L 473.90 135.82 L 474.72 136.08 L 475.00 136.41 L 475.07 136.98 L 475.26 137.35 L 476.33 138.49 L 476.74 138.77 L 477.47 139.02 L 478.48 139.75 L 479.41 140.96 L 479.52 141.74 L 479.32 142.31 L 478.70 142.51 L 477.69 142.53 L 475.74 144.17 L 475.31 144.41 L 474.19 144.37 L 473.61 144.60 L 473.13 144.97 L 471.36 145.39 L 471.03 145.55 L 470.18 145.78 L 469.67 146.07 L 467.60 147.95 L 467.07 148.47 L 466.73 148.56 L 466.22 149.12 L 466.24 149.27 L 465.64 150.16 L 463.96 151.16 L 463.63 151.76 L 462.71 152.17 L 460.54 152.86 L 460.22 153.20 L 458.12 153.27 L 456.33 153.86 L 455.82 154.07 L 454.37 154.96 L 453.77 155.10 L 451.75 155.34 L 449.00 155.11 L 448.56 155.20 L 447.13 155.76 L 446.64 155.56 L 445.67 155.58 L 443.88 155.27 L 441.46 155.31 L 440.83 155.09 L 439.29 155.34 L 438.59 155.37 L 438.23 155.58 L 437.74 155.68 L 435.63 155.56 L 433.95 155.58 L 433.20 155.13 L 432.83 155.10 L 431.15 155.58 L 430.82 156.08 L 428.53 156.55 L 425.78 156.84 L 423.98 157.35 L 421.49 158.19 L 421.21 158.31 L 417.77 159.53 L 414.96 160.39 L 413.38 161.02 L 411.26 161.96 L 410.29 162.45 L 409.66 162.44 L 407.36 164.18 L 406.47 163.44 L 405.23 163.46 L 404.04 163.54 L 402.33 163.37 L 402.40 161.15 L 401.24 161.31 L 400.10 161.51 L 397.73 161.88 L 395.54 161.91 L 391.25 161.13 L 390.87 161.08 L 388.68 160.25 L 386.76 159.57 L 383.55 158.27 L 382.61 158.26 L 381.78 158.18 L 380.82 158.37 L 377.14 157.54 L 376.90 157.45 L 374.90 155.38 L 374.13 154.64 L 373.79 154.58 L 371.59 154.37 L 368.83 153.78 L 364.38 152.90 L 364.01 152.86 L 358.81 152.71 L 358.26 153.26 L 355.48 153.13 L 355.12 153.14 L 350.38 153.97 L 344.69 153.57 L 340.37 153.24 L 336.73 153.09 L 332.97 152.54 L 327.27 151.75 L 326.13 151.62 Z">
      <title>内蒙古自治区</title>
    </path>
  </g>
</svg>