<?xml version="1.0" encoding="UTF-8"?>
<svg xmlns="http://www.w3.org/2000/svg" viewBox="0 0 800 600" width="800" height="600">
  <title>辽宁省</title>
  <defs>
    <style>
      .region-path {
        fill: #e6f3ff;
        stroke: #2563eb;
        stroke-width: 1.5;
        stroke-linejoin: round;
        cursor: pointer;
        transition: all 0.2s ease;
      }
      .region-path:hover {
        fill: #bfdbfe;
        stroke: #1d4ed8;
        stroke-width: 2;
      }
      .region-label {
        fill: #1e40af;
        font-family: Arial, sans-serif;
        font-size: 24px;
        font-weight: bold;
        pointer-events: none;
      }
    </style>
  </defs>
  
  <g id="210000">
    <path id="210000-land" 
          class="region-path"
          data-region-id="210000"
          data-region-name="辽宁省"
          d="M 599.39 182.78 L 599.51 183.12 L 599.85 182.86 L 600.20 182.92 L 600.50 182.70 L 600.54 182.42 L 600.84 182.38 L 600.98 182.58 L 602.09 182.43 L 602.27 182.34 L 603.71 182.48 L 604.24 182.66 L 605.28 182.42 L 605.24 182.90 L 605.78 183.23 L 606.01 182.24 L 606.44 181.99 L 606.44 181.80 L 606.46 181.69 L 606.47 181.67 L 606.49 181.64 L 606.72 181.33 L 607.18 181.30 L 607.20 180.98 L 607.83 180.70 L 608.07 180.37 L 607.70 180.07 L 607.81 179.76 L 608.65 179.10 L 608.96 178.75 L 609.30 178.68 L 609.54 178.33 L 609.55 178.31 L 610.71 177.57 L 611.70 177.26 L 611.87 176.74 L 612.86 176.20 L 613.68 175.59 L 614.01 175.86 L 614.43 175.67 L 615.04 175.76 L 615.02 175.58 L 614.63 175.45 L 614.74 175.06 L 615.37 174.76 L 615.76 174.69 L 616.46 174.26 L 617.30 174.16 L 617.47 173.80 L 617.74 173.74 L 617.99 173.92 L 618.47 173.77 L 618.96 174.00 L 618.92 173.61 L 619.28 173.58 L 619.34 173.26 L 619.72 173.04 L 620.23 173.03 L 620.29 172.69 L 620.65 172.42 L 620.97 172.68 L 621.68 172.62 L 621.59 172.42 L 621.22 172.31 L 621.30 172.03 L 621.91 171.61 L 621.71 171.29 L 621.34 171.09 L 620.63 171.35 L 620.69 170.94 L 621.16 170.83 L 621.32 170.53 L 621.57 170.49 L 621.67 170.00 L 622.11 169.65 L 622.24 169.30 L 621.96 169.24 L 622.19 168.92 L 622.45 168.85 L 622.78 168.49 L 622.23 168.38 L 622.44 167.82 L 622.35 167.68 L 621.78 167.69 L 621.68 167.39 L 621.28 167.48 L 621.23 167.15 L 621.00 166.93 L 621.18 166.66 L 620.90 166.44 L 620.69 166.50 L 620.60 166.12 L 620.26 166.07 L 620.12 165.78 L 620.10 165.26 L 619.69 164.95 L 619.84 164.69 L 619.55 164.58 L 619.24 164.03 L 619.36 163.57 L 619.21 163.22 L 618.85 163.06 L 618.14 163.25 L 617.86 163.21 L 618.02 162.85 L 618.06 162.26 L 618.06 162.26 L 617.93 162.23 L 617.93 162.23 L 617.89 162.17 L 617.89 162.17 L 617.63 161.70 L 617.77 160.64 L 618.22 160.60 L 617.60 160.29 L 617.67 160.13 L 618.41 159.83 L 618.34 159.68 L 618.89 159.20 L 618.87 158.80 L 619.20 158.84 L 619.66 158.45 L 619.33 158.20 L 619.33 158.20 L 618.87 158.24 L 618.39 157.97 L 618.28 158.35 L 617.75 158.34 L 617.82 157.81 L 617.49 158.04 L 617.82 157.58 L 617.44 157.46 L 617.44 157.09 L 617.68 156.85 L 617.31 156.62 L 616.90 156.74 L 616.40 156.67 L 616.31 156.21 L 616.69 156.06 L 616.50 155.90 L 616.51 155.42 L 616.03 155.23 L 616.13 155.10 L 615.67 154.77 L 615.29 154.68 L 615.52 154.51 L 615.27 154.32 L 615.51 153.97 L 615.44 153.73 L 615.58 153.41 L 614.98 153.48 L 614.69 153.31 L 614.73 152.96 L 614.48 152.84 L 614.25 152.37 L 614.54 152.14 L 614.32 151.54 L 613.83 151.36 L 613.52 151.69 L 613.27 151.67 L 613.09 151.32 L 613.02 150.71 L 613.25 149.88 L 613.23 149.62 L 612.93 149.16 L 613.43 148.72 L 613.36 148.10 L 612.35 148.28 L 612.04 148.72 L 611.67 148.77 L 611.33 148.96 L 611.24 149.47 L 611.04 149.78 L 610.80 149.78 L 610.76 150.02 L 610.51 150.14 L 610.29 150.47 L 609.05 151.08 L 608.73 150.73 L 608.06 150.73 L 608.16 150.40 L 608.69 150.21 L 608.80 149.92 L 608.60 149.75 L 608.04 149.78 L 607.67 149.52 L 608.63 148.71 L 608.01 148.23 L 607.05 147.64 L 607.19 147.34 L 607.07 147.08 L 606.58 147.06 L 606.44 146.84 L 605.96 146.96 L 605.39 146.93 L 605.43 146.62 L 605.24 146.46 L 604.55 146.58 L 603.84 145.96 L 603.13 145.75 L 602.98 145.43 L 602.98 145.43 L 602.68 145.28 L 602.74 144.73 L 602.74 144.73 L 602.11 144.42 L 601.60 144.60 L 601.61 144.94 L 601.21 145.17 L 601.14 145.65 L 601.08 146.67 L 600.73 146.75 L 600.86 147.18 L 600.54 147.33 L 600.76 147.63 L 600.44 148.03 L 600.39 148.58 L 599.87 149.12 L 599.78 149.46 L 599.41 149.42 L 598.77 149.05 L 598.35 149.21 L 597.20 149.49 L 596.53 149.56 L 595.75 150.26 L 595.80 150.57 L 595.61 150.95 L 596.21 151.24 L 595.07 151.55 L 594.45 151.89 L 593.64 151.80 L 593.28 152.05 L 593.08 151.85 L 592.68 151.88 L 592.64 152.07 L 592.64 152.07 L 592.28 152.48 L 592.28 152.48 L 591.63 152.01 L 591.13 151.87 L 591.08 151.71 L 590.26 151.75 L 589.96 151.84 L 589.50 151.67 L 589.45 151.37 L 589.25 151.28 L 588.01 151.12 L 587.12 151.25 L 587.33 151.81 L 588.03 151.88 L 588.26 152.03 L 587.59 152.53 L 587.59 152.77 L 586.99 152.92 L 586.85 152.76 L 586.19 152.65 L 585.60 152.26 L 585.60 152.76 L 585.15 152.76 L 584.24 152.50 L 584.13 152.36 L 583.67 152.61 L 582.85 152.72 L 582.88 152.96 L 582.61 153.06 L 582.67 153.58 L 582.34 154.09 L 581.87 154.44 L 581.73 154.33 L 581.59 154.63 L 581.44 154.52 L 580.86 154.83 L 580.36 155.31 L 580.02 155.33 L 579.38 154.73 L 579.42 154.51 L 579.03 154.81 L 578.36 154.86 L 578.08 154.71 L 577.62 154.93 L 577.12 154.94 L 576.27 155.34 L 576.38 155.42 L 576.07 155.84 L 575.38 156.01 L 575.03 156.40 L 574.50 156.75 L 574.37 156.95 L 574.03 156.97 L 573.85 157.23 L 573.41 157.35 L 573.04 157.12 L 572.43 156.96 L 571.91 157.07 L 571.91 157.07 L 571.91 157.35 L 571.35 157.24 L 571.26 157.50 L 570.94 157.59 L 570.48 157.54 L 570.23 157.75 L 569.23 158.26 L 568.80 158.13 L 568.63 158.28 L 567.59 158.77 L 567.87 159.10 L 567.42 159.27 L 567.48 159.69 L 566.89 160.02 L 566.62 159.91 L 565.96 160.36 L 566.05 160.51 L 565.57 160.63 L 565.45 160.85 L 565.76 160.92 L 565.72 161.10 L 565.36 161.06 L 564.99 161.38 L 564.71 161.43 L 564.65 161.66 L 564.07 162.22 L 564.18 162.67 L 563.75 163.00 L 563.12 162.88 L 563.01 162.58 L 563.28 162.18 L 563.18 161.74 L 562.99 161.76 L 562.64 160.91 L 562.27 160.66 L 562.24 160.13 L 561.97 159.97 L 561.93 159.71 L 561.69 159.54 L 561.46 159.05 L 561.15 158.85 L 561.07 158.46 L 561.25 158.09 L 561.11 157.63 L 560.10 157.67 L 559.43 157.36 L 558.78 157.24 L 558.70 156.99 L 558.17 156.86 L 558.17 156.86 L 557.98 156.77 L 558.31 156.38 L 558.31 156.13 L 557.98 156.09 L 557.59 155.84 L 557.39 156.26 L 556.87 156.57 L 555.99 156.74 L 555.29 157.16 L 555.22 157.38 L 554.85 157.78 L 555.26 157.94 L 555.36 158.26 L 555.58 158.33 L 555.65 158.62 L 556.04 158.63 L 556.37 158.93 L 556.28 159.62 L 555.75 160.18 L 555.74 160.51 L 555.91 160.62 L 555.74 161.00 L 555.85 161.19 L 555.63 161.88 L 555.42 162.03 L 555.68 162.31 L 555.69 162.69 L 555.49 162.91 L 555.58 163.41 L 555.93 163.82 L 556.69 164.11 L 556.74 164.34 L 556.14 164.35 L 556.13 164.57 L 556.60 165.01 L 556.55 165.33 L 556.30 165.46 L 556.28 165.85 L 555.59 166.02 L 555.81 166.23 L 555.45 166.86 L 554.87 166.97 L 554.97 167.33 L 554.55 167.69 L 554.50 167.92 L 554.15 167.91 L 554.34 168.17 L 553.69 168.79 L 553.23 168.86 L 553.22 169.23 L 552.77 169.53 L 552.02 169.40 L 551.73 169.68 L 551.89 170.04 L 552.52 170.15 L 552.39 170.56 L 552.15 170.65 L 552.15 170.65 L 551.52 170.54 L 551.37 170.63 L 551.07 171.80 L 550.79 172.07 L 551.13 172.47 L 551.43 172.55 L 551.30 172.77 L 551.87 172.84 L 551.98 173.13 L 552.50 173.47 L 552.68 173.41 L 552.95 173.70 L 553.58 173.68 L 554.10 173.41 L 554.30 173.54 L 553.88 174.03 L 554.07 174.37 L 554.23 174.28 L 554.78 174.33 L 554.67 174.69 L 555.04 174.96 L 555.52 175.09 L 556.83 174.99 L 557.34 175.06 L 557.61 174.85 L 558.18 174.91 L 558.31 175.16 L 558.12 175.39 L 558.65 175.87 L 558.47 176.70 L 558.58 177.13 L 559.14 177.77 L 559.01 178.19 L 559.01 178.19 L 559.35 178.11 L 559.82 178.56 L 560.12 178.44 L 560.27 179.18 L 560.02 179.50 L 560.39 179.75 L 560.50 180.11 L 560.50 180.11 L 560.54 180.16 L 560.54 180.16 L 560.85 180.07 L 560.85 180.07 L 561.24 180.25 L 561.15 180.58 L 561.15 180.58 L 561.24 180.71 L 561.90 180.70 L 562.15 180.49 L 562.20 180.17 L 563.70 179.79 L 564.14 179.82 L 564.42 179.59 L 565.58 179.27 L 566.60 178.78 L 567.43 178.75 L 567.85 178.52 L 568.18 177.93 L 568.16 177.43 L 568.32 177.22 L 569.00 176.85 L 568.93 176.45 L 569.15 176.24 L 569.14 175.98 L 569.17 175.82 L 569.66 175.75 L 569.94 175.35 L 570.23 175.25 L 570.30 175.00 L 571.28 174.43 L 571.43 173.91 L 571.35 173.63 L 571.68 173.49 L 572.49 173.47 L 572.94 173.20 L 573.45 173.24 L 573.41 172.85 L 573.02 172.88 L 572.91 172.65 L 573.06 172.39 L 572.82 172.24 L 573.19 172.22 L 573.23 172.46 L 574.01 172.32 L 573.91 172.14 L 574.12 171.89 L 574.42 171.58 L 574.96 171.53 L 575.57 171.77 L 576.13 171.76 L 577.67 171.99 L 577.68 171.45 L 578.29 171.47 L 578.57 171.76 L 578.87 171.78 L 578.85 172.12 L 579.09 171.91 L 579.61 171.84 L 580.19 171.99 L 580.71 171.81 L 580.74 171.65 L 581.18 171.40 L 581.57 171.31 L 581.85 171.97 L 582.28 172.28 L 582.80 172.32 L 582.82 173.22 L 582.98 173.54 L 583.74 173.60 L 584.17 173.87 L 584.75 173.78 L 585.02 173.63 L 584.87 174.22 L 585.04 174.49 L 586.03 175.20 L 585.88 175.35 L 586.23 175.61 L 585.78 175.60 L 585.97 175.81 L 586.08 175.97 L 585.86 176.19 L 585.42 176.21 L 585.54 176.63 L 585.06 176.88 L 584.89 176.70 L 584.63 176.97 L 584.91 177.08 L 584.63 177.32 L 584.31 177.14 L 583.90 177.25 L 583.89 177.89 L 583.76 178.05 L 582.86 178.08 L 582.97 178.47 L 583.28 178.80 L 583.51 178.81 L 583.43 179.26 L 583.03 179.21 L 582.55 179.84 L 581.66 180.32 L 581.37 180.60 L 581.19 181.18 L 581.04 181.28 L 580.37 181.24 L 579.61 181.81 L 579.05 181.99 L 578.73 181.89 L 578.61 182.13 L 578.01 182.64 L 578.16 183.08 L 577.88 183.20 L 578.32 183.67 L 578.12 184.12 L 577.80 184.13 L 577.78 184.48 L 576.49 184.72 L 576.22 184.67 L 575.85 184.84 L 575.46 185.21 L 575.44 185.57 L 575.90 185.95 L 576.09 185.70 L 576.24 186.02 L 575.66 186.22 L 575.92 186.45 L 575.67 186.59 L 575.66 186.92 L 575.92 187.08 L 576.31 186.90 L 576.48 187.11 L 576.79 187.04 L 577.60 187.25 L 577.63 187.54 L 577.95 187.64 L 578.04 187.88 L 578.39 187.93 L 578.46 187.98 L 578.94 187.61 L 579.56 187.58 L 580.63 187.18 L 580.49 187.43 L 580.56 187.63 L 580.03 187.74 L 580.09 188.10 L 579.58 187.99 L 579.22 188.23 L 579.66 188.61 L 579.24 188.59 L 579.20 188.95 L 579.38 189.23 L 579.74 189.23 L 580.19 189.73 L 579.66 190.15 L 579.40 190.12 L 579.77 189.72 L 579.24 189.35 L 578.94 189.64 L 579.33 189.93 L 579.15 190.17 L 578.38 190.60 L 577.58 190.67 L 576.96 190.33 L 576.40 190.83 L 576.65 191.16 L 575.97 191.25 L 575.23 191.57 L 574.98 191.37 L 574.44 191.38 L 574.04 191.76 L 574.09 192.05 L 574.46 192.21 L 574.26 192.39 L 574.45 193.04 L 574.28 193.28 L 574.54 193.83 L 575.18 193.84 L 575.81 193.17 L 576.03 193.16 L 576.11 193.14 L 576.39 193.09 L 576.84 192.80 L 577.25 192.90 L 578.40 192.85 L 578.97 192.26 L 579.52 192.38 L 580.12 192.39 L 580.46 192.28 L 580.57 191.78 L 579.91 191.51 L 579.53 191.47 L 579.98 191.31 L 580.07 190.85 L 580.77 190.97 L 580.96 190.69 L 581.31 190.72 L 581.46 191.26 L 582.07 191.55 L 582.66 191.27 L 582.51 190.98 L 581.96 190.59 L 582.33 190.67 L 582.75 190.70 L 582.52 190.38 L 582.68 190.40 L 583.10 190.64 L 583.62 190.20 L 584.12 190.33 L 584.22 190.19 L 583.98 189.91 L 584.40 189.79 L 584.80 189.46 L 585.21 189.31 L 584.77 189.17 L 584.70 188.74 L 585.14 188.49 L 586.00 188.18 L 586.33 187.62 L 586.68 187.37 L 587.28 187.12 L 587.76 186.69 L 588.20 186.72 L 588.33 186.78 L 588.79 186.67 L 589.01 186.60 L 589.51 186.14 L 590.08 185.89 L 590.21 185.60 L 590.56 185.62 L 591.87 185.15 L 592.26 184.93 L 592.40 184.69 L 593.24 184.69 L 593.56 184.79 L 593.63 184.57 L 594.07 184.29 L 593.96 184.16 L 594.92 183.94 L 595.36 184.25 L 595.57 183.97 L 596.05 184.05 L 596.08 183.73 L 596.47 183.81 L 596.82 183.66 L 596.65 183.55 L 596.69 183.14 L 597.48 183.18 L 597.87 183.21 L 597.92 183.45 L 598.80 183.21 L 599.25 182.95 L 599.39 182.78 Z M 590.11 187.99 L 589.63 188.07 L 589.07 187.76 L 588.76 187.95 L 589.46 188.16 L 590.52 188.17 L 590.46 188.16 L 590.35 188.12 L 590.28 188.08 L 590.12 187.97 L 590.11 187.99 Z M 586.78 189.19 L 587.06 189.46 L 587.28 189.14 L 587.61 189.28 L 587.45 188.98 L 587.56 188.74 L 587.04 188.85 L 586.82 189.12 L 586.83 189.15 L 586.79 189.17 L 586.78 189.19 Z M 590.65 188.54 L 590.70 188.82 L 591.27 188.58 L 591.16 188.38 L 590.07 188.45 L 589.99 188.55 L 590.63 188.52 L 590.65 188.53 L 590.65 188.54 Z M 591.14 190.60 L 590.79 190.50 L 591.08 190.81 L 591.34 190.86 L 591.14 190.58 L 591.14 190.60 Z M 594.08 185.29 L 593.44 185.24 L 593.28 185.56 L 593.80 185.82 L 594.22 185.43 L 594.08 185.29 Z M 588.70 188.46 L 588.69 188.63 L 589.16 188.58 L 588.70 188.46 Z M 570.91 175.68 L 571.38 175.49 L 571.35 175.24 L 571.10 175.14 L 570.78 175.61 L 570.91 175.68 Z M 594.75 186.53 L 594.78 186.28 L 594.41 186.21 L 594.75 186.53 Z M 595.51 190.69 L 595.98 190.37 L 595.93 190.15 L 595.36 190.00 L 595.34 190.55 L 595.51 190.69 Z M 601.28 183.23 L 601.69 183.14 L 601.31 183.05 L 601.28 183.23 Z">
      <title>辽宁省</title>
    </path>
  </g>
</svg>