<?xml version="1.0" encoding="UTF-8"?>
<svg xmlns="http://www.w3.org/2000/svg" viewBox="0 0 800 600" width="800" height="600">
  <title>吉林省</title>
  <defs>
    <style>
      .region-path {
        fill: #e6f3ff;
        stroke: #2563eb;
        stroke-width: 1.5;
        stroke-linejoin: round;
        cursor: pointer;
        transition: all 0.2s ease;
      }
      .region-path:hover {
        fill: #bfdbfe;
        stroke: #1d4ed8;
        stroke-width: 2;
      }
      .region-label {
        fill: #1e40af;
        font-family: Arial, sans-serif;
        font-size: 24px;
        font-weight: bold;
        pointer-events: none;
      }
    </style>
  </defs>
  
  <g id="220000">
    <path id="220000-land" 
          class="region-path"
          data-region-id="220000"
          data-region-name="吉林省"
          d="M 662.27 155.56 L 662.27 155.48 L 662.17 155.22 L 662.54 155.06 L 662.80 155.44 L 663.34 155.43 L 663.80 154.98 L 663.70 154.67 L 663.81 154.19 L 663.77 153.80 L 664.20 153.48 L 663.86 153.17 L 664.30 152.79 L 663.99 152.52 L 664.16 151.95 L 664.45 151.62 L 664.50 151.04 L 664.70 150.87 L 664.82 150.34 L 665.11 150.28 L 664.92 149.99 L 665.04 149.77 L 665.41 149.82 L 665.34 149.48 L 665.93 149.38 L 666.03 149.72 L 666.43 149.69 L 666.69 149.83 L 667.16 149.79 L 667.53 149.60 L 667.90 149.74 L 667.66 149.97 L 667.73 150.19 L 667.47 150.29 L 667.82 150.49 L 668.17 150.40 L 668.58 150.51 L 669.08 150.47 L 669.28 150.61 L 669.08 150.94 L 668.95 151.58 L 668.91 152.20 L 669.07 152.49 L 669.41 152.57 L 669.86 153.12 L 670.27 153.32 L 670.43 153.61 L 670.77 153.46 L 671.03 153.56 L 670.80 153.90 L 670.92 154.12 L 671.34 153.95 L 671.17 153.76 L 671.40 153.36 L 671.83 153.41 L 671.80 153.71 L 672.20 154.72 L 672.48 154.83 L 672.43 155.35 L 673.10 155.44 L 672.63 155.19 L 672.62 154.82 L 672.27 154.61 L 672.32 154.08 L 672.86 153.92 L 672.97 153.60 L 672.55 152.90 L 671.81 152.58 L 671.22 152.72 L 670.81 152.53 L 670.63 152.28 L 671.24 151.85 L 671.93 151.70 L 672.23 151.41 L 672.66 151.37 L 673.31 151.07 L 673.75 151.08 L 673.86 151.24 L 674.23 151.09 L 674.53 151.13 L 674.72 150.74 L 675.16 150.72 L 675.64 151.02 L 675.87 150.83 L 676.25 150.77 L 676.58 150.98 L 677.22 150.92 L 676.95 150.38 L 677.12 150.23 L 677.96 150.38 L 678.28 150.15 L 678.34 149.82 L 677.97 149.75 L 678.00 149.41 L 677.83 149.28 L 678.02 148.79 L 678.55 148.77 L 678.57 148.34 L 678.93 148.13 L 679.04 147.51 L 678.86 147.39 L 678.91 147.04 L 679.42 146.75 L 679.56 146.41 L 679.63 145.67 L 680.03 145.42 L 679.84 144.92 L 680.03 144.71 L 680.07 144.32 L 679.93 144.29 L 679.82 144.62 L 679.21 144.57 L 678.86 144.91 L 678.59 144.88 L 678.25 145.08 L 677.05 144.22 L 676.35 144.46 L 675.81 144.99 L 675.36 144.96 L 675.13 144.78 L 674.94 144.28 L 674.46 144.07 L 673.95 143.69 L 673.36 143.64 L 673.31 143.44 L 672.87 143.38 L 672.94 143.04 L 672.32 143.00 L 672.32 143.00 L 671.61 142.90 L 671.47 142.69 L 670.94 142.80 L 670.68 142.73 L 670.49 142.20 L 670.79 141.77 L 670.37 141.44 L 670.36 141.02 L 670.17 140.74 L 670.41 140.64 L 670.22 140.23 L 670.36 140.06 L 669.91 139.50 L 670.18 139.21 L 670.19 138.67 L 669.71 138.72 L 669.59 139.10 L 669.23 139.32 L 669.13 139.65 L 668.56 139.66 L 668.00 140.00 L 667.89 140.39 L 667.61 140.39 L 667.55 140.66 L 667.23 140.84 L 666.69 140.66 L 666.50 140.28 L 666.64 139.98 L 666.59 139.52 L 666.19 138.97 L 665.90 138.85 L 665.45 138.88 L 665.17 139.13 L 665.04 139.00 L 664.36 139.49 L 664.13 140.24 L 663.70 140.21 L 663.74 140.41 L 663.29 140.33 L 662.79 140.44 L 661.53 140.47 L 660.89 140.43 L 660.70 140.68 L 660.37 140.75 L 660.26 141.00 L 659.65 141.22 L 659.24 141.08 L 659.04 141.23 L 658.68 141.00 L 658.23 141.36 L 658.45 142.14 L 658.26 142.29 L 658.29 142.77 L 658.45 142.91 L 658.42 143.35 L 657.79 143.67 L 657.54 143.58 L 657.01 143.82 L 656.43 143.89 L 656.18 144.07 L 655.65 143.91 L 655.52 143.75 L 654.78 143.90 L 654.33 143.40 L 654.19 142.89 L 653.83 142.38 L 653.64 141.90 L 653.23 141.86 L 653.55 141.66 L 653.34 141.13 L 653.13 141.03 L 653.56 140.61 L 653.24 140.27 L 652.89 140.13 L 652.27 140.26 L 652.31 139.67 L 652.00 139.54 L 651.73 139.23 L 651.63 138.63 L 651.16 137.96 L 650.57 137.50 L 650.34 137.02 L 650.57 136.56 L 650.38 136.46 L 650.57 135.81 L 650.30 135.61 L 650.60 135.54 L 650.67 135.23 L 650.41 134.88 L 650.48 134.65 L 650.11 134.22 L 649.80 134.11 L 649.54 133.80 L 648.73 134.15 L 648.71 134.28 L 648.04 134.51 L 647.86 134.65 L 647.46 135.53 L 647.10 135.42 L 646.66 135.45 L 646.45 135.29 L 646.19 135.50 L 646.35 135.94 L 646.73 136.09 L 646.34 136.52 L 646.75 136.74 L 646.63 137.25 L 646.30 137.38 L 646.59 137.49 L 646.62 137.75 L 646.12 138.05 L 645.16 138.21 L 644.77 138.46 L 644.25 138.48 L 644.08 138.28 L 643.69 138.23 L 643.43 138.38 L 642.87 138.10 L 642.94 137.95 L 642.69 137.06 L 642.37 137.40 L 641.96 137.12 L 641.80 137.18 L 641.43 136.77 L 641.77 136.25 L 641.31 135.91 L 640.35 134.88 L 640.58 134.60 L 640.11 134.11 L 640.13 133.77 L 640.34 133.65 L 640.87 133.72 L 641.22 133.42 L 641.08 133.16 L 639.38 132.58 L 638.17 132.49 L 638.02 132.77 L 637.53 132.65 L 637.68 132.47 L 637.20 132.45 L 636.75 132.83 L 636.29 132.74 L 636.24 132.97 L 635.82 133.25 L 635.74 133.00 L 635.77 132.35 L 635.63 132.15 L 635.73 131.75 L 635.28 131.20 L 635.15 130.59 L 635.31 130.07 L 635.54 129.81 L 636.07 129.73 L 636.27 129.31 L 635.83 128.72 L 635.50 128.51 L 635.15 128.06 L 635.01 128.03 L 634.94 127.39 L 633.82 127.25 L 633.16 127.36 L 633.10 127.11 L 632.54 126.82 L 632.05 126.82 L 631.58 126.54 L 631.63 126.43 L 630.84 126.14 L 630.54 126.29 L 630.33 126.19 L 629.12 126.45 L 628.63 126.84 L 627.98 126.90 L 627.90 127.08 L 627.38 127.31 L 627.28 127.17 L 626.67 127.38 L 626.43 127.23 L 625.90 127.21 L 625.44 126.99 L 624.92 127.08 L 624.87 126.77 L 624.50 126.68 L 624.06 126.72 L 623.39 126.29 L 623.12 126.30 L 623.03 126.02 L 622.47 125.74 L 622.10 125.28 L 621.78 125.11 L 621.96 124.73 L 621.96 123.81 L 621.71 123.43 L 621.42 123.51 L 620.97 123.39 L 620.62 123.66 L 619.73 123.90 L 619.56 123.72 L 618.98 123.73 L 619.08 123.96 L 618.71 124.44 L 618.33 124.69 L 617.89 124.38 L 617.70 124.60 L 617.15 124.43 L 616.54 124.63 L 616.01 124.52 L 615.58 124.80 L 615.26 124.63 L 615.50 124.40 L 615.09 124.32 L 614.84 123.65 L 614.17 123.63 L 613.92 123.23 L 613.66 123.21 L 613.38 123.63 L 613.40 124.17 L 612.92 124.04 L 612.43 124.23 L 612.26 123.91 L 611.77 124.16 L 611.37 124.07 L 610.69 124.23 L 610.18 124.09 L 610.22 124.36 L 609.85 124.50 L 609.47 124.36 L 609.19 124.03 L 608.34 124.19 L 608.09 124.02 L 607.87 123.62 L 608.04 123.45 L 607.83 123.09 L 607.19 123.17 L 606.95 123.01 L 607.04 122.71 L 606.68 122.63 L 606.56 122.20 L 605.89 122.37 L 605.54 122.11 L 605.74 121.87 L 605.48 121.83 L 605.61 121.61 L 605.27 121.50 L 605.23 121.27 L 604.78 120.97 L 604.37 120.99 L 604.23 120.77 L 604.88 120.45 L 604.59 120.07 L 604.91 120.05 L 604.85 119.58 L 604.17 119.36 L 603.89 119.06 L 603.94 118.67 L 604.33 118.59 L 604.10 118.27 L 604.63 118.19 L 604.56 117.93 L 604.32 117.80 L 604.37 117.48 L 604.15 117.35 L 604.39 117.17 L 604.12 116.92 L 604.23 116.67 L 603.92 116.63 L 603.76 116.26 L 604.00 116.03 L 603.72 115.74 L 603.80 115.41 L 603.55 115.43 L 603.36 115.73 L 603.13 115.25 L 602.66 115.26 L 601.89 115.67 L 601.37 115.75 L 600.83 115.72 L 600.11 115.79 L 599.75 116.08 L 599.75 116.08 L 599.02 115.70 L 598.54 115.98 L 598.31 115.87 L 597.55 115.99 L 597.55 115.99 L 597.17 115.76 L 596.81 115.80 L 596.42 115.57 L 595.70 115.82 L 595.18 116.21 L 595.17 116.59 L 594.91 116.61 L 595.01 117.05 L 594.57 117.12 L 594.32 117.36 L 591.70 117.64 L 592.07 119.31 L 591.78 119.88 L 591.49 119.88 L 591.28 120.11 L 591.69 120.82 L 591.27 121.13 L 591.17 121.45 L 590.44 121.50 L 590.22 121.18 L 590.12 120.77 L 589.73 120.70 L 589.25 120.25 L 588.90 120.61 L 588.71 120.61 L 588.62 119.87 L 588.11 119.26 L 587.24 119.25 L 587.35 119.89 L 586.98 119.85 L 586.60 120.33 L 586.11 120.49 L 585.93 120.14 L 585.56 119.88 L 584.43 119.62 L 584.36 119.31 L 583.90 118.82 L 582.74 118.52 L 582.69 118.35 L 582.07 118.37 L 581.86 118.15 L 581.61 118.16 L 581.01 118.41 L 581.50 118.80 L 581.63 119.25 L 581.47 119.43 L 581.59 119.69 L 581.09 120.02 L 581.06 120.16 L 581.06 120.16 L 580.94 120.52 L 580.34 120.85 L 579.93 120.78 L 579.79 120.97 L 580.02 121.22 L 580.51 121.49 L 581.52 121.64 L 581.54 121.46 L 582.10 121.30 L 582.80 121.40 L 583.17 121.58 L 583.51 122.30 L 583.44 122.56 L 583.13 122.58 L 583.41 123.03 L 583.51 123.50 L 584.15 123.86 L 585.23 124.20 L 585.35 124.52 L 585.00 124.88 L 585.01 125.70 L 585.96 125.90 L 585.86 126.62 L 585.47 126.89 L 584.96 126.86 L 584.62 127.29 L 584.72 128.05 L 584.50 128.54 L 584.26 128.69 L 584.38 129.25 L 584.30 129.65 L 583.99 129.67 L 584.50 130.64 L 584.52 131.02 L 585.23 131.14 L 584.96 131.31 L 584.63 131.17 L 584.54 131.50 L 585.06 131.42 L 585.16 131.58 L 584.70 131.85 L 584.55 132.14 L 584.66 132.75 L 584.84 133.14 L 585.51 133.33 L 585.81 133.68 L 585.84 134.15 L 586.45 134.18 L 586.53 134.87 L 586.50 135.91 L 586.29 136.48 L 586.79 136.71 L 588.49 136.67 L 588.83 136.53 L 590.14 136.19 L 590.48 136.17 L 590.77 135.82 L 591.37 135.30 L 592.36 135.00 L 594.11 134.02 L 594.53 133.88 L 595.14 133.84 L 595.27 134.09 L 595.15 134.41 L 595.32 134.69 L 595.03 134.96 L 595.18 135.32 L 595.89 135.55 L 596.72 136.51 L 596.82 136.94 L 597.20 137.26 L 597.85 137.45 L 597.61 137.75 L 597.48 138.17 L 597.25 138.26 L 597.28 138.83 L 597.64 138.98 L 598.00 139.34 L 597.69 139.44 L 597.96 139.60 L 598.70 140.65 L 598.63 140.97 L 599.01 141.50 L 598.85 141.85 L 599.24 142.15 L 599.22 142.42 L 599.41 142.92 L 599.14 143.02 L 599.15 143.35 L 598.21 143.29 L 598.35 143.53 L 598.63 143.60 L 598.54 143.83 L 598.54 143.83 L 597.58 143.61 L 597.01 143.79 L 597.27 144.11 L 597.12 144.39 L 597.62 144.48 L 597.82 144.63 L 598.20 145.24 L 598.43 144.96 L 598.89 144.88 L 599.23 145.33 L 599.50 145.19 L 600.15 145.70 L 601.14 145.65 L 601.21 145.17 L 601.61 144.94 L 601.60 144.60 L 602.11 144.42 L 602.74 144.73 L 602.74 144.73 L 602.68 145.28 L 602.98 145.43 L 602.98 145.43 L 603.13 145.75 L 603.84 145.96 L 604.55 146.58 L 605.24 146.46 L 605.43 146.62 L 605.39 146.93 L 605.96 146.96 L 606.44 146.84 L 606.58 147.06 L 607.07 147.08 L 607.19 147.34 L 607.05 147.64 L 608.01 148.23 L 608.63 148.71 L 607.67 149.52 L 608.04 149.78 L 608.60 149.75 L 608.80 149.92 L 608.69 150.21 L 608.16 150.40 L 608.06 150.73 L 608.73 150.73 L 609.05 151.08 L 610.29 150.47 L 610.51 150.14 L 610.76 150.02 L 610.80 149.78 L 611.04 149.78 L 611.24 149.47 L 611.33 148.96 L 611.67 148.77 L 612.04 148.72 L 612.35 148.28 L 613.36 148.10 L 613.43 148.72 L 612.93 149.16 L 613.23 149.62 L 613.25 149.88 L 613.02 150.71 L 613.09 151.32 L 613.27 151.67 L 613.52 151.69 L 613.83 151.36 L 614.32 151.54 L 614.54 152.14 L 614.25 152.37 L 614.48 152.84 L 614.73 152.96 L 614.69 153.31 L 614.98 153.48 L 615.58 153.41 L 615.44 153.73 L 615.51 153.97 L 615.27 154.32 L 615.52 154.51 L 615.29 154.68 L 615.67 154.77 L 616.13 155.10 L 616.03 155.23 L 616.51 155.42 L 616.50 155.90 L 616.69 156.06 L 616.31 156.21 L 616.40 156.67 L 616.90 156.74 L 617.31 156.62 L 617.68 156.85 L 617.44 157.09 L 617.44 157.46 L 617.82 157.58 L 617.49 158.04 L 617.82 157.81 L 617.75 158.34 L 618.28 158.35 L 618.39 157.97 L 618.87 158.24 L 619.33 158.20 L 619.33 158.20 L 619.66 158.45 L 619.20 158.84 L 618.87 158.80 L 618.89 159.20 L 618.34 159.68 L 618.41 159.83 L 617.67 160.13 L 617.60 160.29 L 618.22 160.60 L 617.77 160.64 L 617.63 161.70 L 617.89 162.17 L 617.89 162.17 L 617.93 162.23 L 617.93 162.23 L 618.06 162.26 L 618.06 162.26 L 618.02 162.85 L 617.86 163.21 L 618.14 163.25 L 618.85 163.06 L 619.21 163.22 L 619.36 163.57 L 619.24 164.03 L 619.55 164.58 L 619.84 164.69 L 619.69 164.95 L 620.10 165.26 L 620.12 165.78 L 620.26 166.07 L 620.60 166.12 L 620.69 166.50 L 620.90 166.44 L 621.18 166.66 L 621.00 166.93 L 621.23 167.15 L 621.28 167.48 L 621.68 167.39 L 621.78 167.69 L 622.35 167.68 L 622.44 167.82 L 622.23 168.38 L 622.78 168.49 L 622.45 168.85 L 622.19 168.92 L 621.96 169.24 L 622.24 169.30 L 622.11 169.65 L 621.67 170.00 L 621.57 170.49 L 621.32 170.53 L 621.16 170.83 L 620.69 170.94 L 620.63 171.35 L 621.34 171.09 L 621.71 171.29 L 621.91 171.61 L 622.65 171.29 L 623.05 171.61 L 623.50 171.38 L 623.65 171.17 L 624.13 171.44 L 624.52 171.45 L 625.03 170.88 L 625.37 170.96 L 625.48 170.62 L 625.80 170.47 L 625.63 170.25 L 626.07 170.10 L 625.98 169.85 L 626.33 169.56 L 626.23 169.27 L 626.68 169.24 L 626.89 169.05 L 626.90 169.03 L 628.00 168.45 L 628.39 167.77 L 628.62 167.69 L 628.81 167.23 L 629.48 166.56 L 630.10 166.34 L 630.38 166.60 L 630.53 166.42 L 630.10 166.01 L 630.75 164.54 L 630.98 164.39 L 630.79 163.91 L 631.09 163.75 L 631.25 163.29 L 631.63 163.37 L 632.08 163.24 L 632.45 162.86 L 632.10 162.68 L 632.15 162.44 L 632.44 162.42 L 633.24 162.94 L 633.33 162.46 L 633.74 162.62 L 633.82 162.35 L 634.14 162.02 L 634.60 161.80 L 634.82 161.89 L 634.69 162.21 L 635.10 162.17 L 635.37 162.46 L 635.84 162.50 L 635.91 162.93 L 635.70 163.21 L 636.38 163.51 L 636.28 163.70 L 636.63 163.77 L 636.72 164.00 L 637.16 164.01 L 636.61 164.35 L 636.54 164.63 L 637.02 164.60 L 637.26 164.76 L 637.81 164.83 L 638.30 165.02 L 637.94 165.18 L 638.38 165.19 L 639.05 165.39 L 639.04 165.25 L 639.51 165.26 L 639.66 165.45 L 640.07 165.44 L 640.13 165.26 L 640.76 165.38 L 640.98 165.28 L 641.15 165.74 L 641.72 165.74 L 641.91 165.94 L 642.40 165.84 L 643.40 165.80 L 644.17 165.86 L 644.32 166.04 L 644.46 165.58 L 644.74 165.77 L 644.97 165.61 L 645.37 165.68 L 645.59 165.86 L 645.67 165.64 L 646.09 166.15 L 646.82 166.15 L 646.61 166.34 L 646.86 166.45 L 647.43 166.04 L 647.79 165.97 L 648.20 165.28 L 648.15 165.06 L 648.80 164.63 L 648.97 164.26 L 648.80 163.72 L 648.25 163.16 L 647.84 163.09 L 647.37 162.75 L 647.21 162.13 L 646.84 162.00 L 646.75 161.48 L 646.87 160.93 L 646.78 160.38 L 646.03 159.86 L 646.61 159.62 L 648.73 159.59 L 649.88 159.66 L 650.51 159.65 L 650.85 159.85 L 651.87 159.78 L 651.96 159.55 L 652.28 159.49 L 652.50 159.66 L 652.95 159.65 L 653.32 159.34 L 653.75 159.51 L 653.92 159.42 L 654.98 159.69 L 655.55 159.60 L 655.57 158.99 L 655.74 158.85 L 656.13 158.91 L 656.45 158.74 L 656.54 158.43 L 657.22 158.40 L 657.77 157.91 L 658.28 157.70 L 658.21 157.40 L 657.92 157.35 L 657.94 157.14 L 658.28 157.11 L 658.44 156.92 L 658.20 156.82 L 658.74 156.38 L 658.44 156.17 L 658.53 155.96 L 659.42 155.82 L 659.24 155.68 L 659.47 155.41 L 659.73 155.43 L 659.59 155.29 L 659.85 155.10 L 659.84 155.41 L 660.11 155.42 L 660.19 155.20 L 660.73 155.29 L 661.21 155.59 L 661.70 156.11 L 662.03 155.92 L 661.94 155.72 L 662.27 155.56 Z">
      <title>吉林省</title>
    </path>
  </g>
</svg>