<?xml version="1.0" encoding="UTF-8"?>
<svg xmlns="http://www.w3.org/2000/svg" viewBox="0 0 800 600" width="800" height="600">
  <title>黑龙江省</title>
  <defs>
    <style>
      .region-path {
        fill: #e6f3ff;
        stroke: #2563eb;
        stroke-width: 1.5;
        stroke-linejoin: round;
        cursor: pointer;
        transition: all 0.2s ease;
      }
      .region-path:hover {
        fill: #bfdbfe;
        stroke: #1d4ed8;
        stroke-width: 2;
      }
      .region-label {
        fill: #1e40af;
        font-family: Arial, sans-serif;
        font-size: 24px;
        font-weight: bold;
        pointer-events: none;
      }
    </style>
  </defs>
  
  <g id="230000">
    <path id="230000-land" 
          class="region-path"
          data-region-id="230000"
          data-region-name="黑龙江省"
          d="M 599.75 116.08 L 600.11 115.79 L 600.83 115.72 L 601.37 115.75 L 601.89 115.67 L 602.66 115.26 L 603.13 115.25 L 603.36 115.73 L 603.55 115.43 L 603.80 115.41 L 603.72 115.74 L 604.00 116.03 L 603.76 116.26 L 603.92 116.63 L 604.23 116.67 L 604.12 116.92 L 604.39 117.17 L 604.15 117.35 L 604.37 117.48 L 604.32 117.80 L 604.56 117.93 L 604.63 118.19 L 604.10 118.27 L 604.33 118.59 L 603.94 118.67 L 603.89 119.06 L 604.17 119.36 L 604.85 119.58 L 604.91 120.05 L 604.59 120.07 L 604.88 120.45 L 604.23 120.77 L 604.37 120.99 L 604.78 120.97 L 605.23 121.27 L 605.27 121.50 L 605.61 121.61 L 605.48 121.83 L 605.74 121.87 L 605.54 122.11 L 605.89 122.37 L 606.56 122.20 L 606.68 122.63 L 607.04 122.71 L 606.95 123.01 L 607.19 123.17 L 607.83 123.09 L 608.04 123.45 L 607.87 123.62 L 608.09 124.02 L 608.34 124.19 L 609.19 124.03 L 609.47 124.36 L 609.85 124.50 L 610.22 124.36 L 610.18 124.09 L 610.69 124.23 L 611.37 124.07 L 611.77 124.16 L 612.26 123.91 L 612.43 124.23 L 612.92 124.04 L 613.40 124.17 L 613.38 123.63 L 613.66 123.21 L 613.92 123.23 L 614.17 123.63 L 614.84 123.65 L 615.09 124.32 L 615.50 124.40 L 615.26 124.63 L 615.58 124.80 L 616.01 124.52 L 616.54 124.63 L 617.15 124.43 L 617.70 124.60 L 617.89 124.38 L 618.33 124.69 L 618.71 124.44 L 619.08 123.96 L 618.98 123.73 L 619.56 123.72 L 619.73 123.90 L 620.62 123.66 L 620.97 123.39 L 621.42 123.51 L 621.71 123.43 L 621.96 123.81 L 621.96 124.73 L 621.78 125.11 L 622.10 125.28 L 622.47 125.74 L 623.03 126.02 L 623.12 126.30 L 623.39 126.29 L 624.06 126.72 L 624.50 126.68 L 624.87 126.77 L 624.92 127.08 L 625.44 126.99 L 625.90 127.21 L 626.43 127.23 L 626.67 127.38 L 627.28 127.17 L 627.38 127.31 L 627.90 127.08 L 627.98 126.90 L 628.63 126.84 L 629.12 126.45 L 630.33 126.19 L 630.54 126.29 L 630.84 126.14 L 631.63 126.43 L 631.58 126.54 L 632.05 126.82 L 632.54 126.82 L 633.10 127.11 L 633.16 127.36 L 633.82 127.25 L 634.94 127.39 L 635.01 128.03 L 635.15 128.06 L 635.50 128.51 L 635.83 128.72 L 636.27 129.31 L 636.07 129.73 L 635.54 129.81 L 635.31 130.07 L 635.15 130.59 L 635.28 131.20 L 635.73 131.75 L 635.63 132.15 L 635.77 132.35 L 635.74 133.00 L 635.82 133.25 L 636.24 132.97 L 636.29 132.74 L 636.75 132.83 L 637.20 132.45 L 637.68 132.47 L 637.53 132.65 L 638.02 132.77 L 638.17 132.49 L 639.38 132.58 L 641.08 133.16 L 641.22 133.42 L 640.87 133.72 L 640.34 133.65 L 640.13 133.77 L 640.11 134.11 L 640.58 134.60 L 640.35 134.88 L 641.31 135.91 L 641.77 136.25 L 641.43 136.77 L 641.80 137.18 L 641.96 137.12 L 642.37 137.40 L 642.69 137.06 L 642.94 137.95 L 642.87 138.10 L 643.43 138.38 L 643.69 138.23 L 644.08 138.28 L 644.25 138.48 L 644.77 138.46 L 645.16 138.21 L 646.12 138.05 L 646.62 137.75 L 646.59 137.49 L 646.30 137.38 L 646.63 137.25 L 646.75 136.74 L 646.34 136.52 L 646.73 136.09 L 646.35 135.94 L 646.19 135.50 L 646.45 135.29 L 646.66 135.45 L 647.10 135.42 L 647.46 135.53 L 647.86 134.65 L 648.04 134.51 L 648.71 134.28 L 648.73 134.15 L 649.54 133.80 L 649.80 134.11 L 650.11 134.22 L 650.48 134.65 L 650.41 134.88 L 650.67 135.23 L 650.60 135.54 L 650.30 135.61 L 650.57 135.81 L 650.38 136.46 L 650.57 136.56 L 650.34 137.02 L 650.57 137.50 L 651.16 137.96 L 651.63 138.63 L 651.73 139.23 L 652.00 139.54 L 652.31 139.67 L 652.27 140.26 L 652.89 140.13 L 653.24 140.27 L 653.56 140.61 L 653.13 141.03 L 653.34 141.13 L 653.55 141.66 L 653.23 141.86 L 653.64 141.90 L 653.83 142.38 L 654.19 142.89 L 654.33 143.40 L 654.78 143.90 L 655.52 143.75 L 655.65 143.91 L 656.18 144.07 L 656.43 143.89 L 657.01 143.82 L 657.54 143.58 L 657.79 143.67 L 658.42 143.35 L 658.45 142.91 L 658.29 142.77 L 658.26 142.29 L 658.45 142.14 L 658.23 141.36 L 658.68 141.00 L 659.04 141.23 L 659.24 141.08 L 659.65 141.22 L 660.26 141.00 L 660.37 140.75 L 660.70 140.68 L 660.89 140.43 L 661.53 140.47 L 662.79 140.44 L 663.29 140.33 L 663.74 140.41 L 663.70 140.21 L 664.13 140.24 L 664.36 139.49 L 665.04 139.00 L 665.17 139.13 L 665.45 138.88 L 665.90 138.85 L 666.19 138.97 L 666.59 139.52 L 666.64 139.98 L 666.50 140.28 L 666.69 140.66 L 667.23 140.84 L 667.55 140.66 L 667.61 140.39 L 667.89 140.39 L 668.00 140.00 L 668.56 139.66 L 669.13 139.65 L 669.23 139.32 L 669.59 139.10 L 669.71 138.72 L 670.19 138.67 L 670.18 139.21 L 669.91 139.50 L 670.36 140.06 L 670.22 140.23 L 670.41 140.64 L 670.17 140.74 L 670.36 141.02 L 670.37 141.44 L 670.79 141.77 L 670.49 142.20 L 670.68 142.73 L 670.94 142.80 L 671.47 142.69 L 671.61 142.90 L 672.32 143.00 L 672.32 143.00 L 672.94 143.04 L 672.87 143.38 L 673.31 143.44 L 673.36 143.64 L 673.95 143.69 L 674.46 144.07 L 674.94 144.28 L 675.13 144.78 L 675.36 144.96 L 675.81 144.99 L 676.35 144.46 L 677.05 144.22 L 678.25 145.08 L 678.59 144.88 L 678.86 144.91 L 679.21 144.57 L 679.82 144.62 L 679.93 144.29 L 679.64 144.36 L 678.85 143.98 L 679.07 143.35 L 679.01 143.14 L 679.25 142.55 L 679.07 142.42 L 679.01 141.95 L 679.18 141.80 L 678.98 141.19 L 679.02 140.83 L 679.40 140.23 L 679.49 139.66 L 679.31 139.59 L 679.53 138.77 L 679.70 138.76 L 679.75 138.73 L 679.81 138.68 L 679.99 138.65 L 677.93 131.77 L 677.71 131.69 L 677.74 131.39 L 677.49 131.25 L 677.44 130.97 L 676.94 130.94 L 676.93 130.68 L 676.49 130.63 L 676.41 130.31 L 677.59 129.99 L 677.83 129.81 L 677.71 129.55 L 678.44 129.30 L 678.88 129.46 L 678.93 129.66 L 679.50 129.49 L 679.62 129.59 L 680.02 129.27 L 680.02 129.12 L 680.45 128.87 L 680.71 128.99 L 681.02 128.91 L 681.59 129.14 L 681.97 128.99 L 681.79 128.81 L 682.26 128.64 L 682.64 128.29 L 683.33 127.98 L 683.98 127.39 L 683.90 127.20 L 683.52 127.11 L 683.84 126.53 L 684.25 126.33 L 684.64 126.55 L 685.00 126.57 L 684.95 126.21 L 685.33 125.74 L 685.37 125.53 L 685.97 125.21 L 686.28 125.24 L 686.43 125.78 L 686.89 125.89 L 687.17 126.13 L 688.94 126.51 L 691.22 127.07 L 695.06 127.92 L 696.13 128.12 L 696.64 128.44 L 697.03 128.52 L 697.37 128.31 L 697.87 128.20 L 698.23 127.76 L 698.43 127.75 L 698.62 127.47 L 698.95 127.44 L 698.85 126.57 L 698.49 126.20 L 698.65 126.00 L 698.51 125.81 L 698.84 125.27 L 698.74 125.11 L 699.00 124.96 L 698.99 124.30 L 699.21 124.23 L 699.27 123.94 L 699.61 123.41 L 700.05 123.40 L 700.96 122.93 L 701.05 123.01 L 701.58 122.75 L 701.89 122.71 L 701.78 122.36 L 702.39 122.22 L 702.15 122.05 L 702.54 121.94 L 702.53 121.59 L 702.12 121.45 L 702.21 121.18 L 702.55 121.09 L 702.37 120.70 L 702.74 120.62 L 702.37 120.48 L 702.35 120.11 L 702.62 120.05 L 702.60 119.78 L 702.81 119.57 L 703.25 119.50 L 703.55 119.76 L 703.91 119.40 L 703.88 118.99 L 704.51 118.99 L 704.57 118.54 L 705.18 117.89 L 705.23 117.62 L 704.66 117.01 L 704.82 116.70 L 705.43 116.60 L 705.74 116.39 L 705.94 116.00 L 706.31 116.28 L 706.62 115.97 L 706.49 115.80 L 706.93 115.76 L 707.02 115.49 L 706.92 115.20 L 707.07 114.97 L 706.51 114.89 L 706.59 114.64 L 707.25 114.44 L 707.34 114.24 L 706.86 113.77 L 706.33 113.73 L 706.31 113.47 L 706.74 112.95 L 707.04 112.22 L 707.98 111.78 L 708.19 111.05 L 708.21 110.53 L 708.42 110.31 L 708.13 109.99 L 708.29 109.60 L 708.31 109.21 L 708.66 108.67 L 708.53 108.24 L 708.93 107.97 L 709.09 107.39 L 709.35 107.06 L 710.17 106.94 L 710.28 106.63 L 710.25 106.14 L 710.05 105.85 L 709.49 105.46 L 709.71 104.65 L 709.97 104.43 L 710.60 104.18 L 710.63 103.97 L 711.05 103.59 L 711.38 103.47 L 712.95 103.41 L 713.29 103.18 L 713.76 103.08 L 713.84 102.65 L 714.37 102.37 L 714.90 101.93 L 715.02 101.42 L 715.95 100.61 L 715.88 100.12 L 714.90 99.54 L 714.81 99.07 L 714.89 98.86 L 714.70 98.69 L 714.17 98.61 L 714.09 98.21 L 713.61 97.85 L 713.59 97.33 L 714.42 96.64 L 714.84 95.90 L 714.91 95.01 L 715.86 94.67 L 716.82 94.22 L 718.33 93.88 L 719.17 93.48 L 719.22 93.13 L 718.94 92.90 L 718.61 93.10 L 718.20 93.11 L 717.48 92.99 L 717.06 93.13 L 716.66 93.58 L 716.38 93.77 L 715.79 93.83 L 715.17 93.46 L 714.51 93.42 L 713.86 93.46 L 713.07 93.32 L 712.41 93.46 L 711.70 93.70 L 709.98 93.70 L 709.43 94.08 L 709.07 94.21 L 708.58 94.16 L 708.17 94.27 L 707.82 94.52 L 707.25 94.54 L 706.58 94.74 L 706.05 94.79 L 705.70 94.96 L 705.18 95.03 L 704.69 95.73 L 704.42 95.77 L 703.69 95.65 L 703.44 95.78 L 703.16 96.41 L 702.18 96.50 L 701.73 96.38 L 700.63 96.60 L 699.99 96.35 L 699.39 96.26 L 698.85 96.27 L 698.05 96.52 L 697.78 96.78 L 697.67 97.10 L 697.42 97.30 L 696.29 97.64 L 695.63 98.32 L 695.11 98.30 L 694.63 98.05 L 694.30 98.05 L 693.99 98.24 L 694.00 98.47 L 694.26 98.86 L 694.00 99.18 L 693.58 99.44 L 693.35 99.82 L 693.36 100.35 L 692.92 100.59 L 692.00 100.50 L 690.99 100.10 L 690.51 100.13 L 690.13 100.34 L 689.96 100.58 L 689.65 100.67 L 689.18 100.63 L 688.76 100.72 L 688.03 100.74 L 687.14 100.65 L 686.89 101.05 L 686.11 100.92 L 685.33 101.01 L 684.46 100.71 L 683.92 100.70 L 683.42 101.15 L 682.89 101.18 L 682.66 100.96 L 682.57 100.52 L 682.40 100.40 L 681.50 100.29 L 680.50 100.46 L 679.61 100.37 L 679.23 100.43 L 678.67 100.75 L 677.97 100.88 L 677.08 100.83 L 676.60 100.64 L 676.42 100.43 L 676.37 99.45 L 675.64 98.42 L 675.43 98.25 L 674.39 97.69 L 674.05 97.31 L 673.66 97.21 L 673.31 96.58 L 673.39 96.34 L 674.34 95.70 L 674.38 95.27 L 674.57 95.01 L 674.88 94.92 L 675.16 94.59 L 674.90 94.13 L 674.55 93.96 L 674.16 93.48 L 674.14 93.01 L 674.46 92.69 L 674.36 92.40 L 673.78 92.37 L 673.12 92.64 L 672.84 92.53 L 672.79 91.70 L 672.68 91.51 L 671.99 91.32 L 671.99 91.08 L 672.38 90.53 L 672.85 89.54 L 673.56 88.86 L 673.46 88.53 L 672.72 88.53 L 672.20 88.74 L 671.61 88.69 L 671.29 88.28 L 670.68 88.28 L 669.30 88.68 L 668.87 88.66 L 668.68 88.40 L 667.58 87.75 L 667.02 87.52 L 666.62 87.08 L 665.75 86.88 L 665.56 86.67 L 665.73 86.48 L 665.51 86.18 L 665.03 86.12 L 664.90 85.92 L 665.00 85.66 L 664.83 85.42 L 664.17 85.39 L 663.85 85.14 L 663.93 84.63 L 663.61 84.31 L 663.26 84.21 L 662.31 84.41 L 661.87 84.19 L 661.70 83.20 L 661.41 82.91 L 660.69 82.73 L 660.08 82.82 L 659.92 83.01 L 659.97 83.49 L 659.75 83.61 L 659.36 83.58 L 658.80 83.20 L 658.27 83.16 L 657.91 83.29 L 657.53 83.60 L 656.92 83.57 L 656.68 83.42 L 656.18 82.56 L 655.34 82.45 L 654.71 82.20 L 653.89 82.40 L 653.57 82.30 L 653.59 81.95 L 654.10 81.52 L 653.99 81.27 L 653.39 81.13 L 653.09 81.45 L 652.47 81.31 L 652.10 81.15 L 651.25 81.04 L 650.86 81.15 L 649.72 81.19 L 649.23 81.65 L 648.65 81.43 L 648.20 81.46 L 647.60 81.71 L 646.94 81.57 L 646.41 81.53 L 645.69 81.16 L 645.15 81.12 L 644.61 81.30 L 643.76 81.15 L 643.41 80.76 L 642.62 80.41 L 642.34 80.07 L 642.30 79.38 L 642.09 79.21 L 641.35 79.15 L 640.82 78.74 L 640.80 78.34 L 640.98 77.67 L 640.94 77.51 L 640.45 76.99 L 640.51 76.35 L 641.40 75.51 L 641.60 75.08 L 641.56 74.45 L 639.93 74.13 L 639.16 73.86 L 638.75 73.40 L 639.14 72.75 L 639.09 72.39 L 638.47 72.23 L 638.35 72.11 L 638.66 71.49 L 639.05 71.26 L 639.15 70.91 L 638.36 70.06 L 638.30 69.69 L 638.48 69.33 L 638.37 69.11 L 637.76 68.84 L 636.80 67.50 L 636.49 67.22 L 635.85 66.95 L 635.16 66.27 L 634.51 65.93 L 634.46 65.13 L 634.27 64.49 L 634.55 64.02 L 635.06 63.55 L 635.14 63.26 L 635.01 63.12 L 634.14 63.23 L 634.04 63.45 L 634.36 63.63 L 634.50 63.88 L 634.36 64.01 L 633.89 63.99 L 633.45 63.66 L 633.37 63.34 L 633.62 62.99 L 634.32 63.04 L 634.58 62.85 L 634.36 62.35 L 633.60 62.28 L 633.15 62.09 L 633.07 61.92 L 633.37 61.45 L 633.69 61.16 L 633.62 61.01 L 632.15 60.57 L 631.98 60.33 L 632.62 59.91 L 632.45 59.53 L 632.55 59.20 L 632.45 59.04 L 631.92 58.98 L 631.77 58.67 L 631.40 58.51 L 630.96 58.02 L 630.70 57.51 L 630.23 57.01 L 629.74 56.74 L 629.80 56.39 L 629.59 56.11 L 629.62 55.92 L 630.00 55.77 L 630.28 55.82 L 630.79 54.97 L 630.71 54.79 L 630.12 54.54 L 629.68 54.49 L 629.13 54.29 L 628.52 54.21 L 628.12 54.07 L 628.19 53.77 L 628.65 53.47 L 629.10 53.31 L 629.47 53.33 L 629.43 53.11 L 628.34 52.99 L 628.27 52.66 L 628.56 52.49 L 628.61 52.17 L 628.33 51.81 L 627.73 51.28 L 627.07 51.37 L 626.94 51.10 L 627.15 50.76 L 626.47 50.26 L 625.63 49.94 L 625.52 50.17 L 625.26 50.23 L 624.83 49.95 L 624.62 49.67 L 624.64 49.42 L 624.90 49.21 L 625.58 49.23 L 625.70 49.04 L 625.40 48.54 L 626.11 48.36 L 626.15 48.24 L 625.49 47.91 L 625.15 47.96 L 624.79 48.34 L 624.60 48.33 L 624.29 48.05 L 624.15 47.75 L 623.44 47.22 L 623.43 46.96 L 623.16 46.88 L 622.58 46.90 L 622.36 47.07 L 622.06 47.08 L 621.61 47.28 L 621.49 47.19 L 621.47 46.73 L 622.22 46.42 L 622.28 45.90 L 621.67 45.76 L 621.25 45.43 L 621.22 45.20 L 620.94 44.97 L 620.68 45.00 L 620.08 45.31 L 619.80 45.20 L 619.80 44.85 L 619.27 44.72 L 618.14 44.34 L 617.85 44.34 L 617.19 43.97 L 616.60 43.78 L 616.05 43.72 L 614.98 43.74 L 614.27 43.83 L 613.41 44.13 L 613.64 44.61 L 613.25 44.81 L 612.85 44.33 L 612.38 44.38 L 611.82 44.32 L 611.59 44.15 L 611.68 43.84 L 611.25 43.69 L 610.33 43.68 L 610.05 43.75 L 609.36 43.69 L 609.26 43.58 L 608.73 43.52 L 608.48 43.26 L 608.11 43.15 L 607.61 42.40 L 606.69 41.90 L 606.22 41.97 L 605.52 42.23 L 604.81 41.65 L 604.35 41.66 L 604.07 41.34 L 602.82 40.76 L 602.11 40.76 L 601.58 40.65 L 601.08 40.67 L 600.78 40.31 L 600.28 40.14 L 599.94 40.17 L 599.75 40.60 L 599.35 40.58 L 599.63 40.32 L 599.51 40.12 L 599.21 40.05 L 598.93 40.21 L 599.14 40.56 L 599.02 40.68 L 598.74 40.56 L 598.56 40.28 L 597.93 40.26 L 597.06 40.03 L 596.69 40.00 L 596.25 40.14 L 595.70 40.55 L 595.27 40.67 L 594.82 40.57 L 594.39 40.59 L 593.26 40.82 L 592.75 41.04 L 592.05 41.10 L 591.40 41.03 L 590.46 41.08 L 589.78 41.01 L 589.06 41.14 L 588.62 41.08 L 587.99 41.23 L 587.36 40.92 L 587.11 40.60 L 586.25 40.97 L 585.84 41.05 L 585.16 40.98 L 584.63 41.41 L 584.28 41.46 L 583.75 41.40 L 582.19 41.42 L 581.57 41.55 L 580.94 41.80 L 580.35 41.77 L 579.23 42.20 L 578.29 42.34 L 578.35 42.49 L 579.08 42.82 L 579.49 43.15 L 579.77 43.12 L 580.16 43.34 L 580.16 43.77 L 579.96 43.82 L 580.01 44.07 L 580.60 44.33 L 580.92 44.31 L 581.25 44.76 L 581.15 44.91 L 581.59 45.20 L 581.26 45.65 L 580.53 45.86 L 580.14 46.38 L 579.98 46.75 L 579.44 46.96 L 579.38 47.16 L 579.55 47.36 L 579.24 47.66 L 578.69 47.90 L 578.41 48.13 L 578.06 48.20 L 577.83 48.58 L 576.98 49.12 L 576.33 49.20 L 576.15 49.45 L 575.57 49.79 L 575.00 49.99 L 575.45 50.22 L 576.02 50.12 L 576.47 50.26 L 576.78 50.66 L 577.39 50.79 L 577.43 51.03 L 578.03 51.20 L 578.25 51.18 L 578.50 51.47 L 578.98 51.43 L 579.24 51.61 L 579.75 51.60 L 580.15 51.85 L 579.94 52.16 L 580.53 52.65 L 580.52 52.91 L 581.09 53.01 L 581.84 53.28 L 582.45 53.29 L 582.94 53.11 L 583.24 52.64 L 583.85 52.29 L 583.90 51.92 L 584.43 51.78 L 584.32 51.64 L 584.59 51.51 L 584.96 51.07 L 584.93 50.92 L 585.23 50.88 L 585.33 51.13 L 585.63 51.34 L 586.70 51.28 L 586.86 51.44 L 587.03 51.91 L 587.29 51.92 L 587.41 52.10 L 587.82 52.32 L 588.12 52.12 L 588.50 52.67 L 588.44 53.14 L 589.29 53.28 L 589.55 53.44 L 590.52 53.34 L 590.85 53.55 L 591.37 53.44 L 591.64 53.59 L 591.43 53.79 L 591.46 54.34 L 591.13 54.61 L 590.64 54.75 L 590.00 54.79 L 590.15 55.05 L 589.96 55.50 L 590.22 55.59 L 590.37 56.22 L 590.57 56.47 L 591.01 56.42 L 591.04 57.04 L 590.80 57.34 L 591.00 57.47 L 591.07 57.94 L 591.48 58.49 L 591.25 58.83 L 591.55 59.33 L 591.94 59.78 L 591.99 60.01 L 592.36 60.28 L 592.11 60.54 L 592.54 60.75 L 592.61 60.99 L 592.38 61.13 L 592.61 61.27 L 592.34 61.62 L 592.51 61.85 L 592.81 61.96 L 592.85 62.27 L 593.29 62.37 L 593.49 62.56 L 593.49 62.99 L 593.88 63.33 L 594.57 63.24 L 595.17 63.48 L 596.25 63.68 L 596.25 63.78 L 596.90 63.94 L 597.37 63.75 L 597.75 63.80 L 598.14 63.68 L 598.41 63.76 L 598.65 63.60 L 599.88 63.52 L 599.88 63.39 L 600.71 63.26 L 600.69 63.02 L 601.22 62.44 L 602.08 62.83 L 602.58 62.76 L 603.04 63.25 L 603.45 63.45 L 603.59 63.32 L 604.16 63.23 L 604.95 63.25 L 605.15 63.03 L 605.54 62.97 L 606.21 63.05 L 606.69 63.00 L 607.03 63.37 L 607.30 63.47 L 607.73 63.53 L 608.43 63.75 L 608.67 63.45 L 608.64 63.13 L 608.81 62.86 L 609.17 62.82 L 609.30 62.63 L 609.97 62.68 L 610.30 62.80 L 610.71 63.18 L 611.40 63.12 L 612.02 62.86 L 612.14 62.56 L 612.33 62.51 L 613.17 62.63 L 613.39 62.34 L 613.98 61.93 L 613.73 61.65 L 613.84 61.40 L 614.41 61.30 L 614.63 61.08 L 615.07 61.08 L 615.34 60.83 L 615.20 60.38 L 615.60 59.75 L 615.91 59.74 L 615.93 59.98 L 616.40 59.94 L 616.80 60.06 L 616.95 59.93 L 617.58 60.00 L 617.86 60.25 L 618.22 60.10 L 618.52 60.50 L 618.98 60.74 L 620.05 61.51 L 620.37 61.79 L 620.37 61.79 L 620.75 62.25 L 620.75 62.25 L 620.80 62.28 L 620.80 62.28 L 620.81 62.32 L 620.81 62.32 L 621.04 62.44 L 621.04 62.44 L 621.04 62.55 L 621.04 62.55 L 621.07 62.63 L 621.07 62.63 L 621.83 63.18 L 621.83 63.18 L 622.26 63.71 L 622.26 63.71 L 622.47 63.85 L 622.47 63.85 L 622.47 64.22 L 623.07 64.22 L 623.39 64.36 L 623.54 65.05 L 624.01 65.13 L 624.39 65.45 L 624.64 65.28 L 624.88 65.34 L 624.69 65.69 L 625.56 66.12 L 625.30 66.45 L 625.38 66.76 L 625.65 66.91 L 625.38 67.34 L 625.15 67.32 L 624.91 67.54 L 624.92 67.89 L 624.55 67.60 L 624.32 68.08 L 624.04 68.37 L 623.68 68.47 L 623.81 68.58 L 623.25 68.71 L 623.35 68.96 L 623.17 69.09 L 622.91 68.92 L 622.44 69.19 L 622.82 69.28 L 622.67 69.41 L 623.14 69.64 L 622.76 69.89 L 622.91 70.11 L 622.80 70.27 L 623.02 70.50 L 622.95 70.68 L 623.18 71.11 L 622.82 71.41 L 622.56 71.43 L 622.40 71.68 L 622.26 71.51 L 621.83 71.89 L 621.36 72.05 L 621.08 72.34 L 620.59 72.28 L 620.40 72.39 L 620.62 72.69 L 620.46 72.76 L 620.14 72.58 L 619.99 72.74 L 620.24 73.21 L 619.97 73.31 L 620.08 73.50 L 619.38 73.87 L 619.41 74.17 L 619.16 74.24 L 619.23 74.69 L 618.90 74.91 L 618.63 74.86 L 618.55 75.15 L 618.06 75.26 L 618.48 75.51 L 617.81 75.48 L 617.47 75.61 L 617.26 75.86 L 617.56 75.96 L 617.52 76.21 L 617.98 76.25 L 617.85 76.46 L 617.58 76.33 L 617.20 76.51 L 617.52 76.56 L 617.67 76.79 L 617.46 76.97 L 617.08 77.06 L 616.98 77.38 L 616.55 77.35 L 616.64 77.61 L 616.92 77.74 L 616.78 77.89 L 617.12 78.26 L 616.91 78.31 L 617.06 78.55 L 616.42 78.70 L 616.89 79.02 L 616.87 79.48 L 616.70 79.69 L 616.91 79.77 L 616.85 80.37 L 616.50 80.72 L 616.54 80.54 L 616.29 80.36 L 615.95 80.33 L 615.90 80.51 L 616.18 80.91 L 616.32 80.77 L 616.71 81.15 L 616.96 81.13 L 617.00 81.74 L 616.77 81.70 L 616.94 82.25 L 617.38 82.59 L 617.24 82.77 L 617.23 83.20 L 617.45 83.37 L 617.24 83.57 L 617.29 83.96 L 616.80 84.43 L 616.94 84.72 L 616.85 85.34 L 616.52 85.36 L 616.22 85.80 L 615.79 85.99 L 614.93 85.67 L 614.99 85.47 L 614.40 85.62 L 613.61 85.39 L 613.13 85.58 L 613.00 85.96 L 612.60 86.10 L 612.80 86.49 L 612.59 87.09 L 612.05 87.64 L 611.93 88.13 L 611.56 88.13 L 611.63 88.49 L 611.44 88.94 L 610.99 89.02 L 610.89 89.29 L 611.01 89.54 L 610.56 89.91 L 610.69 90.39 L 610.45 91.11 L 610.21 91.48 L 609.61 91.90 L 609.90 92.11 L 609.74 92.32 L 609.97 92.82 L 609.47 93.05 L 609.65 93.24 L 609.59 93.75 L 609.88 93.96 L 609.82 94.19 L 610.22 94.59 L 610.00 94.89 L 610.21 94.95 L 609.88 95.58 L 609.53 95.96 L 609.70 96.14 L 609.46 96.37 L 609.17 96.39 L 609.04 96.65 L 608.52 96.76 L 608.67 96.41 L 609.10 96.28 L 609.14 95.87 L 608.55 95.78 L 608.49 95.39 L 608.59 95.12 L 608.00 94.73 L 607.88 94.39 L 607.51 94.03 L 607.65 93.73 L 607.42 93.38 L 607.64 93.15 L 607.35 92.93 L 607.47 92.44 L 606.90 92.11 L 606.90 92.11 L 605.63 92.87 L 605.03 93.15 L 604.41 93.59 L 602.79 94.85 L 601.58 95.62 L 601.16 96.09 L 599.85 97.20 L 599.42 97.44 L 596.96 98.15 L 596.50 98.94 L 596.07 99.49 L 595.52 99.93 L 594.27 100.29 L 593.09 100.80 L 592.28 101.04 L 591.41 101.66 L 589.64 102.36 L 589.11 102.89 L 588.74 103.87 L 587.82 104.40 L 588.05 104.81 L 588.05 104.81 L 588.28 105.15 L 588.65 105.39 L 588.99 105.97 L 589.52 106.39 L 589.52 106.39 L 589.86 106.74 L 590.52 107.06 L 590.84 107.06 L 590.84 107.06 L 591.99 107.35 L 592.32 107.28 L 592.25 107.55 L 591.55 108.00 L 591.51 108.30 L 591.76 108.47 L 591.68 108.64 L 592.18 108.68 L 592.76 108.44 L 592.75 109.12 L 592.88 110.03 L 593.81 110.50 L 593.88 110.82 L 594.12 110.95 L 594.64 110.67 L 594.92 110.78 L 595.54 110.73 L 595.91 110.07 L 596.16 109.88 L 596.14 109.58 L 596.91 109.43 L 597.38 109.83 L 597.73 109.71 L 598.06 109.00 L 598.04 108.70 L 597.58 108.33 L 597.00 108.40 L 596.97 108.03 L 597.34 108.15 L 598.24 108.71 L 598.90 108.45 L 599.32 108.60 L 598.86 109.63 L 599.10 109.82 L 599.68 109.84 L 599.81 109.63 L 599.83 109.16 L 600.12 109.16 L 600.06 109.40 L 600.33 109.61 L 599.86 109.82 L 600.37 109.96 L 600.40 110.84 L 600.10 111.25 L 598.77 111.28 L 597.64 111.37 L 597.15 111.53 L 596.71 111.55 L 596.74 112.00 L 596.21 112.30 L 595.72 112.03 L 594.87 112.15 L 594.65 111.95 L 594.32 111.99 L 594.39 112.39 L 593.87 112.44 L 593.95 112.96 L 593.97 113.89 L 594.78 114.79 L 595.32 115.31 L 595.70 115.82 L 596.42 115.57 L 596.81 115.80 L 597.17 115.76 L 597.55 115.99 L 597.55 115.99 L 598.31 115.87 L 598.54 115.98 L 599.02 115.70 L 599.75 116.08 L 599.75 116.08 Z">
      <title>黑龙江省</title>
    </path>
  </g>
</svg>