<?xml version="1.0" encoding="UTF-8"?>
<svg xmlns="http://www.w3.org/2000/svg" viewBox="0 0 800 600" width="800" height="600">
  <title>上海市</title>
  <defs>
    <style>
      .region-path {
        fill: #e6f3ff;
        stroke: #2563eb;
        stroke-width: 1.5;
        stroke-linejoin: round;
        cursor: pointer;
        transition: all 0.2s ease;
      }
      .region-path:hover {
        fill: #bfdbfe;
        stroke: #1d4ed8;
        stroke-width: 2;
      }
      .region-label {
        fill: #1e40af;
        font-family: Arial, sans-serif;
        font-size: 24px;
        font-weight: bold;
        pointer-events: none;
      }
    </style>
  </defs>
  
  <g id="310000">
    <path id="310000-land" 
          class="region-path"
          data-region-id="310000"
          data-region-name="上海市"
          d="M 572.09 273.70 L 572.49 273.78 L 572.59 273.57 L 573.01 273.73 L 573.12 274.52 L 573.04 275.03 L 573.32 275.21 L 573.03 275.57 L 573.51 275.81 L 573.74 275.48 L 574.13 275.36 L 574.54 275.68 L 574.39 276.17 L 574.93 276.25 L 575.36 276.10 L 575.52 276.41 L 575.94 276.75 L 575.96 277.23 L 576.87 277.20 L 577.53 276.68 L 578.48 276.21 L 579.35 275.90 L 580.18 275.76 L 582.49 275.81 L 582.90 276.19 L 583.17 276.06 L 583.01 275.69 L 583.42 275.30 L 583.39 274.21 L 583.25 273.71 L 582.93 273.20 L 581.51 271.84 L 580.60 270.73 L 579.33 270.00 L 578.52 269.79 L 577.31 268.91 L 576.68 268.57 L 576.24 268.71 L 576.24 268.71 L 575.68 268.94 L 575.62 268.77 L 574.93 269.22 L 574.60 269.82 L 574.30 270.00 L 574.47 270.32 L 574.60 271.03 L 574.05 270.86 L 573.74 271.34 L 573.91 272.24 L 573.31 272.49 L 572.39 272.42 L 571.88 272.48 L 571.66 272.84 L 571.98 272.90 L 572.09 273.70 Z M 583.22 267.49 L 580.53 266.90 L 579.78 266.65 L 579.33 266.59 L 578.29 266.08 L 577.59 265.91 L 577.10 265.24 L 576.47 264.88 L 575.87 264.93 L 575.19 265.23 L 574.35 266.01 L 574.62 266.07 L 576.11 267.49 L 576.97 268.15 L 577.21 267.81 L 577.62 267.76 L 578.79 268.37 L 579.60 268.68 L 580.19 268.79 L 581.61 269.34 L 582.35 269.44 L 583.29 269.07 L 583.44 268.77 L 583.22 267.49 Z M 581.36 270.46 L 581.33 270.11 L 580.81 269.66 L 579.19 269.17 L 578.99 268.87 L 578.52 268.76 L 578.40 268.88 L 579.05 269.36 L 580.66 270.20 L 581.04 270.61 L 581.25 270.65 L 581.36 270.46 Z M 581.43 270.18 L 581.45 270.47 L 581.83 270.82 L 582.78 270.95 L 583.65 270.96 L 584.49 271.23 L 584.75 270.70 L 584.69 270.55 L 583.90 270.52 L 582.98 270.38 L 581.88 270.00 L 581.33 269.97 L 581.43 270.18 Z M 579.61 269.27 L 579.66 269.15 L 579.12 268.91 L 579.61 269.27 Z M 582.90 271.65 L 583.06 272.23 L 583.44 272.21 L 583.57 271.59 L 582.97 271.51 L 582.90 271.65 Z M 582.26 271.39 L 582.54 271.86 L 582.69 271.46 L 582.26 271.39 Z">
      <title>上海市</title>
    </path>
  </g>
</svg>