<?xml version="1.0" encoding="UTF-8"?>
<svg xmlns="http://www.w3.org/2000/svg" viewBox="0 0 800 600" width="800" height="600">
  <title>江苏省</title>
  <defs>
    <style>
      .region-path {
        fill: #e6f3ff;
        stroke: #2563eb;
        stroke-width: 1.5;
        stroke-linejoin: round;
        cursor: pointer;
        transition: all 0.2s ease;
      }
      .region-path:hover {
        fill: #bfdbfe;
        stroke: #1d4ed8;
        stroke-width: 2;
      }
      .region-label {
        fill: #1e40af;
        font-family: Arial, sans-serif;
        font-size: 24px;
        font-weight: bold;
        pointer-events: none;
      }
    </style>
  </defs>
  
  <g id="320000">
    <path id="320000-land" 
          class="region-path"
          data-region-id="320000"
          data-region-name="江苏省"
          d="M 534.88 236.96 L 534.48 237.01 L 534.80 237.16 L 534.43 237.26 L 534.48 237.61 L 534.27 237.74 L 534.23 238.11 L 533.38 238.28 L 533.10 237.32 L 533.22 236.99 L 532.73 236.06 L 532.41 236.16 L 532.29 235.78 L 532.38 235.39 L 531.88 234.92 L 531.33 234.78 L 531.15 234.38 L 531.44 234.34 L 531.30 234.03 L 530.92 234.04 L 530.85 233.51 L 530.18 233.16 L 529.81 233.15 L 529.74 232.78 L 529.47 232.68 L 529.39 233.28 L 528.31 233.05 L 527.74 233.04 L 527.65 233.22 L 527.07 233.36 L 525.90 233.50 L 525.52 233.96 L 525.47 234.95 L 525.11 235.02 L 525.06 235.37 L 525.35 235.42 L 525.17 236.15 L 525.75 236.04 L 525.77 236.25 L 526.23 236.41 L 526.37 236.84 L 527.45 237.48 L 527.43 237.67 L 528.15 237.88 L 528.78 237.89 L 529.31 238.08 L 529.40 238.33 L 529.87 238.75 L 530.71 238.55 L 531.33 238.75 L 531.24 239.01 L 531.48 239.18 L 531.33 239.84 L 532.18 240.49 L 531.91 241.05 L 532.14 241.21 L 532.94 241.45 L 533.01 241.73 L 533.64 242.07 L 534.32 242.10 L 534.53 241.97 L 534.88 242.08 L 535.36 241.87 L 535.84 242.45 L 536.17 242.49 L 536.99 242.15 L 537.28 242.38 L 537.55 242.94 L 538.01 242.78 L 538.18 242.49 L 538.61 242.86 L 538.62 243.46 L 539.07 244.04 L 539.47 243.91 L 539.52 244.09 L 539.32 245.29 L 539.17 245.38 L 539.43 245.78 L 539.86 245.55 L 540.40 245.52 L 541.00 245.69 L 541.73 245.38 L 542.23 245.49 L 542.70 245.21 L 543.24 245.21 L 543.69 245.53 L 543.76 246.27 L 543.18 246.75 L 543.24 246.99 L 543.13 248.22 L 542.54 248.05 L 542.30 248.43 L 542.19 248.97 L 542.32 249.26 L 541.94 249.70 L 541.75 250.25 L 541.39 250.43 L 541.42 250.82 L 541.79 250.80 L 541.90 251.28 L 542.40 251.57 L 542.42 251.75 L 543.57 251.39 L 543.87 250.89 L 544.27 251.16 L 544.29 251.97 L 544.54 252.86 L 544.56 253.17 L 544.81 253.47 L 545.17 253.47 L 545.04 253.71 L 544.63 253.81 L 544.43 254.04 L 544.61 254.72 L 545.14 254.74 L 545.13 255.40 L 545.48 255.62 L 545.78 255.53 L 545.91 256.06 L 546.28 256.10 L 546.69 255.81 L 547.03 256.04 L 547.82 255.95 L 547.95 256.05 L 548.68 255.80 L 549.35 256.05 L 549.86 255.87 L 549.67 255.51 L 549.72 254.67 L 549.72 254.67 L 550.42 254.67 L 550.53 253.97 L 550.79 253.96 L 550.82 253.60 L 551.30 253.59 L 551.30 253.59 L 551.27 253.76 L 551.70 253.79 L 552.31 253.58 L 552.60 253.61 L 552.95 254.45 L 553.56 254.98 L 554.30 254.96 L 554.58 256.17 L 554.55 256.87 L 554.78 257.22 L 554.67 257.54 L 553.97 257.74 L 554.13 257.96 L 553.86 258.34 L 553.26 258.82 L 552.81 258.18 L 552.13 258.28 L 551.58 257.74 L 551.57 257.74 L 551.58 257.74 L 551.57 257.74 L 551.25 257.78 L 551.43 257.38 L 550.76 257.63 L 550.53 257.25 L 550.16 257.48 L 549.87 257.25 L 549.64 257.41 L 549.47 257.15 L 549.47 257.15 L 549.16 257.42 L 548.85 257.35 L 548.58 257.52 L 548.21 257.29 L 547.91 257.44 L 547.87 257.69 L 548.33 257.95 L 548.16 258.53 L 548.53 258.67 L 549.18 258.62 L 549.12 259.33 L 549.31 260.11 L 548.83 260.39 L 549.01 260.92 L 548.69 261.34 L 547.31 261.50 L 547.15 261.80 L 547.21 262.25 L 546.52 262.62 L 546.11 262.73 L 546.06 263.67 L 545.79 264.24 L 546.91 264.76 L 546.85 264.99 L 547.25 265.16 L 547.01 265.81 L 547.55 265.93 L 547.43 266.18 L 547.80 266.31 L 547.95 266.14 L 548.67 266.02 L 548.80 266.31 L 549.25 266.52 L 548.69 266.92 L 548.69 267.15 L 549.65 267.32 L 549.77 266.88 L 550.04 266.80 L 550.34 267.46 L 550.92 267.42 L 551.16 268.03 L 551.20 268.50 L 551.18 268.70 L 550.85 269.80 L 550.56 269.99 L 549.98 270.11 L 549.75 270.02 L 549.49 270.54 L 549.55 270.96 L 549.86 270.98 L 550.26 271.50 L 551.04 271.37 L 552.22 271.42 L 552.54 271.38 L 553.48 271.44 L 553.49 271.28 L 554.02 270.82 L 554.43 270.82 L 554.44 271.08 L 555.15 271.29 L 555.44 271.15 L 555.89 271.20 L 556.02 270.76 L 556.27 271.20 L 556.12 271.67 L 556.44 272.08 L 556.94 272.04 L 557.17 272.26 L 557.91 272.23 L 558.60 272.75 L 558.85 272.53 L 559.41 272.14 L 559.70 272.30 L 559.80 272.12 L 560.47 272.03 L 560.78 272.34 L 560.96 272.08 L 561.49 272.21 L 561.93 272.12 L 562.19 272.78 L 562.63 273.27 L 562.76 273.60 L 563.29 273.82 L 563.90 274.34 L 564.30 274.53 L 565.07 274.64 L 566.03 274.57 L 566.60 274.41 L 566.46 275.05 L 567.14 274.89 L 567.26 274.70 L 567.33 275.32 L 567.52 275.54 L 567.82 276.33 L 567.98 276.39 L 568.59 275.59 L 568.86 275.39 L 569.54 275.47 L 569.83 275.10 L 570.15 275.07 L 570.10 274.57 L 569.85 274.34 L 569.99 274.19 L 570.48 274.27 L 570.73 273.91 L 571.26 273.81 L 571.72 273.99 L 572.09 273.70 L 571.98 272.90 L 571.66 272.84 L 571.88 272.48 L 572.39 272.42 L 573.31 272.49 L 573.91 272.24 L 573.74 271.34 L 574.05 270.86 L 574.60 271.03 L 574.47 270.32 L 574.30 270.00 L 574.60 269.82 L 574.93 269.22 L 575.62 268.77 L 575.68 268.94 L 576.24 268.71 L 576.24 268.71 L 576.68 268.57 L 576.97 268.15 L 576.11 267.49 L 574.62 266.07 L 574.35 266.01 L 575.19 265.23 L 575.87 264.93 L 576.47 264.88 L 577.10 265.24 L 577.59 265.91 L 578.29 266.08 L 579.33 266.59 L 579.78 266.65 L 580.53 266.90 L 583.22 267.49 L 583.17 266.43 L 582.33 264.90 L 581.99 263.98 L 581.12 263.17 L 580.99 262.90 L 578.56 262.10 L 578.74 261.94 L 577.87 261.68 L 578.29 261.32 L 578.23 260.78 L 577.78 260.59 L 577.53 259.05 L 577.16 258.74 L 576.77 258.60 L 575.91 258.50 L 574.70 258.03 L 574.38 257.62 L 573.91 257.54 L 573.32 257.24 L 572.72 257.17 L 572.90 256.92 L 572.74 256.44 L 572.25 256.25 L 572.63 256.11 L 572.83 255.63 L 572.92 254.60 L 572.67 254.25 L 572.42 253.09 L 572.26 252.88 L 571.79 252.66 L 571.81 252.18 L 571.49 250.97 L 571.24 250.68 L 571.39 250.30 L 571.19 250.00 L 570.73 249.97 L 570.43 249.65 L 570.18 248.62 L 569.80 247.76 L 569.21 246.77 L 569.09 246.65 L 568.80 246.22 L 568.29 245.04 L 567.78 244.24 L 566.56 241.83 L 566.35 240.93 L 566.01 240.14 L 565.98 239.60 L 563.82 238.73 L 562.36 238.03 L 560.80 237.75 L 560.49 237.44 L 559.03 236.89 L 558.72 236.64 L 558.28 236.41 L 557.21 235.81 L 557.84 235.18 L 557.12 235.03 L 556.34 234.99 L 557.51 234.96 L 557.54 234.97 L 556.94 234.65 L 556.95 234.81 L 556.31 234.86 L 555.63 234.75 L 555.21 234.51 L 554.85 234.50 L 554.64 234.20 L 554.48 233.56 L 554.61 233.19 L 554.57 232.61 L 554.85 231.91 L 555.34 231.71 L 555.41 232.12 L 555.57 232.08 L 555.42 231.71 L 555.56 231.62 L 555.36 231.22 L 554.98 231.13 L 554.64 231.31 L 553.81 231.42 L 553.57 231.85 L 552.66 231.84 L 551.79 232.00 L 551.64 231.89 L 550.96 232.15 L 550.94 233.00 L 550.37 233.73 L 550.31 234.04 L 550.02 234.55 L 549.68 234.57 L 549.47 235.06 L 549.94 235.11 L 550.14 235.29 L 549.68 235.59 L 549.17 235.75 L 548.90 235.59 L 548.32 235.59 L 548.25 235.38 L 547.68 235.47 L 546.80 235.98 L 546.93 236.32 L 546.57 236.29 L 546.42 236.61 L 546.57 237.52 L 546.33 237.87 L 546.22 238.35 L 545.95 238.48 L 545.03 238.38 L 544.89 238.59 L 544.30 238.58 L 544.28 238.85 L 543.88 238.85 L 543.86 238.09 L 543.39 237.77 L 543.73 237.55 L 543.94 237.15 L 542.84 236.88 L 543.21 236.42 L 542.89 235.99 L 542.58 236.04 L 541.52 235.75 L 541.08 235.83 L 541.01 236.10 L 539.88 236.03 L 539.86 236.74 L 539.97 237.41 L 538.75 237.11 L 538.48 237.59 L 537.97 237.70 L 537.79 237.99 L 537.23 237.94 L 536.47 237.76 L 535.83 237.07 L 535.83 236.88 L 535.50 236.72 L 535.02 236.84 L 535.02 236.84 L 534.99 236.91 L 534.99 236.91 L 534.88 236.96 L 534.88 236.96 Z">
      <title>江苏省</title>
    </path>
  </g>
</svg>