<?xml version="1.0" encoding="UTF-8"?>
<svg xmlns="http://www.w3.org/2000/svg" viewBox="0 0 800 600" width="800" height="600">
  <title>浙江省</title>
  <defs>
    <style>
      .region-path {
        fill: #e6f3ff;
        stroke: #2563eb;
        stroke-width: 1.5;
        stroke-linejoin: round;
        cursor: pointer;
        transition: all 0.2s ease;
      }
      .region-path:hover {
        fill: #bfdbfe;
        stroke: #1d4ed8;
        stroke-width: 2;
      }
      .region-label {
        fill: #1e40af;
        font-family: Arial, sans-serif;
        font-size: 24px;
        font-weight: bold;
        pointer-events: none;
      }
    </style>
  </defs>
  
  <g id="330000">
    <path id="330000-land" 
          class="region-path"
          data-region-id="330000"
          data-region-name="浙江省"
          d="M 546.52 301.99 L 546.62 302.35 L 547.10 302.51 L 547.13 302.26 L 548.12 302.05 L 548.19 302.30 L 548.77 302.10 L 549.01 302.16 L 549.27 301.77 L 549.48 301.74 L 549.86 302.36 L 550.33 302.49 L 550.35 302.83 L 550.01 303.02 L 550.37 303.37 L 550.33 303.76 L 549.98 303.88 L 549.47 304.32 L 549.63 304.69 L 549.59 305.28 L 549.83 305.52 L 550.50 305.84 L 550.61 306.55 L 551.07 307.74 L 551.14 308.42 L 551.49 308.92 L 551.44 309.45 L 551.03 309.75 L 551.43 310.57 L 551.92 310.68 L 552.24 310.41 L 552.21 310.17 L 552.60 310.18 L 552.80 310.38 L 553.34 310.51 L 553.73 310.42 L 553.64 310.80 L 553.92 310.94 L 554.71 311.02 L 555.17 310.97 L 555.34 310.60 L 555.85 310.37 L 556.12 309.90 L 556.71 309.75 L 556.93 310.07 L 557.22 309.89 L 557.59 309.01 L 557.58 308.61 L 558.00 308.43 L 558.67 308.35 L 559.06 308.46 L 558.88 308.91 L 558.92 309.31 L 559.38 309.39 L 559.22 309.74 L 559.54 309.77 L 559.73 310.01 L 559.67 310.71 L 559.49 310.80 L 559.76 311.17 L 560.17 311.47 L 560.05 311.58 L 560.49 311.92 L 560.35 312.15 L 561.12 312.23 L 562.11 311.93 L 562.34 311.55 L 562.83 311.45 L 563.02 311.78 L 563.29 311.83 L 563.75 311.30 L 564.17 311.17 L 564.14 310.99 L 565.04 310.99 L 565.47 310.86 L 565.58 311.31 L 566.28 311.20 L 566.31 311.58 L 567.21 312.66 L 566.91 312.74 L 566.94 313.23 L 567.53 313.87 L 567.85 313.93 L 568.41 313.72 L 568.71 312.91 L 568.50 312.73 L 568.77 312.01 L 569.65 311.63 L 569.73 310.99 L 570.04 310.38 L 569.35 309.53 L 569.33 309.36 L 569.85 308.89 L 570.10 308.27 L 570.75 307.73 L 570.81 307.31 L 571.14 307.31 L 571.46 307.48 L 572.19 306.38 L 572.51 306.05 L 572.85 306.15 L 573.40 306.71 L 573.84 306.70 L 574.23 306.91 L 574.69 306.89 L 574.51 307.19 L 574.51 307.19 L 574.67 307.04 L 574.67 307.03 L 574.70 306.95 L 574.70 306.94 L 575.11 306.82 L 575.12 306.30 L 574.80 306.23 L 574.80 305.94 L 574.15 306.07 L 573.70 306.01 L 573.03 305.50 L 573.27 305.17 L 573.73 303.98 L 574.24 303.54 L 574.37 303.68 L 574.58 304.65 L 574.94 304.75 L 575.82 304.62 L 576.22 304.28 L 576.52 303.59 L 576.99 303.60 L 577.28 302.93 L 577.85 302.38 L 578.18 301.85 L 578.70 301.87 L 579.04 302.08 L 579.13 302.49 L 579.62 302.37 L 580.05 301.52 L 579.96 301.29 L 579.69 301.37 L 579.95 300.91 L 580.30 300.76 L 580.07 300.08 L 579.81 299.68 L 579.69 299.15 L 579.29 299.02 L 578.89 298.29 L 578.72 298.18 L 579.81 297.90 L 580.26 297.52 L 580.42 296.64 L 580.24 296.03 L 581.15 296.02 L 581.12 295.67 L 580.82 295.08 L 580.49 294.76 L 580.50 294.31 L 579.95 294.00 L 579.96 293.39 L 579.51 293.13 L 579.42 292.86 L 580.53 293.32 L 580.89 293.20 L 581.08 292.88 L 581.20 293.47 L 581.52 293.47 L 582.03 293.72 L 582.28 293.52 L 583.13 294.06 L 583.17 293.65 L 583.36 293.46 L 583.34 293.01 L 582.95 292.61 L 583.19 292.61 L 583.14 292.02 L 583.50 291.91 L 583.48 291.72 L 582.91 291.66 L 583.05 291.15 L 582.82 291.00 L 582.84 290.63 L 583.23 290.35 L 583.41 289.92 L 583.20 289.66 L 583.16 289.27 L 583.43 288.96 L 583.48 288.57 L 583.13 288.02 L 582.54 287.87 L 582.16 288.06 L 581.75 287.84 L 582.83 286.85 L 583.51 286.71 L 583.94 286.08 L 584.54 285.70 L 584.96 285.51 L 584.93 285.27 L 583.55 285.37 L 583.52 285.07 L 583.18 284.71 L 582.65 285.07 L 581.77 284.68 L 581.24 284.32 L 580.59 284.32 L 580.37 284.17 L 579.88 283.51 L 579.70 283.52 L 578.94 282.34 L 578.27 281.56 L 577.21 280.74 L 576.97 280.40 L 576.52 280.13 L 575.45 280.05 L 575.02 279.74 L 574.08 278.90 L 573.72 278.40 L 574.66 278.03 L 575.07 277.69 L 575.60 277.52 L 575.96 277.23 L 575.94 276.75 L 575.52 276.41 L 575.36 276.10 L 574.93 276.25 L 574.39 276.17 L 574.54 275.68 L 574.13 275.36 L 573.74 275.48 L 573.51 275.81 L 573.03 275.57 L 573.32 275.21 L 573.04 275.03 L 573.12 274.52 L 573.01 273.73 L 572.59 273.57 L 572.49 273.78 L 572.09 273.70 L 571.72 273.99 L 571.26 273.81 L 570.73 273.91 L 570.48 274.27 L 569.99 274.19 L 569.85 274.34 L 570.10 274.57 L 570.15 275.07 L 569.83 275.10 L 569.54 275.47 L 568.86 275.39 L 568.59 275.59 L 567.98 276.39 L 567.82 276.33 L 567.52 275.54 L 567.33 275.32 L 567.26 274.70 L 567.14 274.89 L 566.46 275.05 L 566.60 274.41 L 566.03 274.57 L 565.07 274.64 L 564.30 274.53 L 563.90 274.34 L 563.29 273.82 L 562.76 273.60 L 562.63 273.27 L 562.19 272.78 L 561.93 272.12 L 561.49 272.21 L 560.96 272.08 L 560.78 272.34 L 560.47 272.03 L 559.80 272.12 L 559.70 272.30 L 559.41 272.14 L 558.85 272.53 L 559.11 272.79 L 558.91 272.99 L 558.95 273.68 L 558.40 274.22 L 558.42 274.58 L 558.23 274.72 L 558.16 275.19 L 558.35 275.64 L 558.13 275.69 L 557.85 276.17 L 557.36 276.24 L 557.39 276.94 L 556.99 277.50 L 556.62 277.56 L 556.43 277.14 L 555.94 277.36 L 555.74 277.71 L 554.86 277.93 L 555.14 278.29 L 554.84 278.58 L 555.21 278.96 L 555.77 278.72 L 555.87 278.97 L 555.86 279.60 L 556.20 280.26 L 556.56 280.36 L 556.00 280.63 L 555.77 280.39 L 555.26 280.71 L 554.94 280.71 L 554.84 281.17 L 554.47 281.23 L 553.70 281.09 L 553.33 280.89 L 553.03 281.09 L 552.27 280.80 L 551.91 280.51 L 551.14 280.98 L 551.12 281.32 L 551.40 282.00 L 551.66 282.15 L 550.86 282.52 L 550.85 282.69 L 551.30 282.71 L 551.07 283.05 L 551.13 283.57 L 551.37 283.95 L 551.29 284.89 L 550.71 284.92 L 550.74 285.37 L 549.70 286.17 L 549.74 286.95 L 549.28 287.29 L 548.73 287.94 L 548.44 287.83 L 547.97 288.00 L 547.54 288.51 L 547.21 288.64 L 547.16 289.23 L 545.97 289.38 L 545.62 289.70 L 545.44 289.48 L 545.19 289.64 L 545.30 290.23 L 544.59 290.14 L 544.02 290.51 L 544.15 291.05 L 543.75 291.36 L 543.87 291.52 L 543.46 291.67 L 542.83 291.60 L 542.78 292.36 L 542.46 292.43 L 542.31 292.87 L 542.49 293.07 L 542.41 293.55 L 542.81 293.84 L 542.71 294.05 L 543.03 294.62 L 543.22 294.51 L 543.22 294.51 L 543.41 294.78 L 543.73 294.75 L 544.38 295.21 L 544.05 295.61 L 544.82 295.45 L 545.13 296.41 L 545.79 296.55 L 546.20 297.69 L 546.46 297.92 L 546.46 298.58 L 546.46 298.58 L 546.29 299.21 L 546.48 299.64 L 546.32 299.82 L 546.94 300.01 L 546.75 300.58 L 546.50 300.81 L 546.74 301.00 L 546.99 301.58 L 546.52 301.99 Z M 585.17 284.37 L 585.97 284.63 L 586.37 284.90 L 586.82 284.86 L 587.02 284.49 L 587.05 284.04 L 586.69 283.83 L 586.50 283.47 L 586.60 283.35 L 586.53 283.20 L 585.07 283.07 L 584.47 282.61 L 583.99 282.72 L 583.02 282.34 L 582.81 282.57 L 583.31 283.20 L 583.37 283.45 L 583.25 283.63 L 583.77 284.34 L 584.59 284.19 L 584.71 284.39 L 585.17 284.37 Z M 585.70 282.31 L 585.33 282.18 L 585.07 282.27 L 584.97 282.56 L 585.23 282.81 L 585.70 282.31 Z M 585.86 287.23 L 585.67 287.35 L 586.28 287.51 L 585.88 287.25 L 585.86 287.23 Z M 587.91 276.59 L 587.91 277.01 L 589.01 277.02 L 588.95 276.73 L 588.41 276.84 L 588.10 276.52 L 587.91 276.59 Z M 585.17 280.83 L 584.08 281.22 L 585.08 281.71 L 585.88 281.82 L 586.04 281.12 L 585.84 280.83 L 585.46 280.83 L 585.31 280.60 L 585.17 280.83 Z M 586.77 281.66 L 586.36 281.73 L 587.20 281.80 L 587.27 281.60 L 587.80 281.77 L 587.70 281.42 L 586.94 281.42 L 586.77 281.66 Z M 583.75 292.76 L 583.62 293.04 L 584.07 292.97 L 584.27 292.79 L 583.86 292.46 L 583.75 292.76 Z M 587.34 285.35 L 587.49 285.97 L 587.79 286.02 L 587.65 285.60 L 587.98 285.46 L 587.97 285.08 L 587.75 284.75 L 587.61 284.87 L 587.13 284.67 L 586.91 284.89 L 586.99 285.16 L 587.15 285.29 L 587.24 285.34 L 587.34 285.35 Z M 587.94 280.01 L 587.96 279.63 L 587.36 279.46 L 586.36 279.36 L 586.40 279.91 L 586.78 280.03 L 587.13 279.87 L 587.94 280.01 Z M 581.80 296.99 L 582.06 296.87 L 582.05 296.54 L 581.80 296.99 Z M 586.23 285.85 L 585.77 285.98 L 586.06 286.27 L 586.69 286.67 L 586.85 286.51 L 586.59 286.12 L 586.79 286.01 L 586.23 285.85 Z M 581.31 293.76 L 581.75 294.09 L 581.85 293.76 L 581.62 293.58 L 581.31 293.76 Z M 575.20 308.88 L 575.16 308.94 L 575.18 308.95 L 575.23 308.85 L 575.20 308.88 Z M 582.90 276.19 L 583.15 277.11 L 583.45 277.42 L 584.38 278.01 L 584.86 278.08 L 584.26 277.53 L 583.60 277.31 L 583.41 277.04 L 583.35 276.44 L 583.17 276.06 L 582.90 276.19 Z M 582.33 300.09 L 582.64 299.82 L 582.26 299.77 L 582.33 300.09 Z M 585.37 287.87 L 585.67 287.44 L 585.56 287.23 L 585.00 286.84 L 584.84 286.43 L 584.35 286.49 L 583.97 287.15 L 584.25 287.34 L 584.47 287.18 L 584.91 287.75 L 585.37 287.87 Z M 588.26 284.83 L 588.25 284.82 L 588.25 284.79 L 588.16 284.84 L 588.16 284.86 L 588.15 284.86 L 588.14 284.87 L 588.18 284.90 L 588.17 284.92 L 588.21 285.01 L 588.23 285.00 L 588.28 284.99 L 588.32 284.99 L 588.24 284.88 L 588.26 284.83 Z M 589.39 277.57 L 589.28 277.20 L 589.15 277.49 L 589.39 277.57 Z M 582.13 300.59 L 582.56 300.42 L 582.34 300.30 L 582.13 300.59 Z M 584.16 282.38 L 584.06 282.17 L 583.66 282.31 L 583.74 282.57 L 584.16 282.38 Z M 587.54 284.55 L 587.75 283.98 L 587.40 284.00 L 587.29 284.45 L 587.54 284.55 Z M 581.93 284.48 L 582.18 284.61 L 582.79 284.30 L 582.70 283.70 L 582.30 283.26 L 581.91 283.20 L 581.82 283.76 L 581.87 284.42 L 581.93 284.48 Z M 573.80 310.38 L 573.80 310.56 L 574.23 310.74 L 573.81 310.38 L 573.80 310.38 Z M 582.98 292.67 L 583.27 292.95 L 583.24 292.62 L 582.98 292.67 Z M 583.88 286.74 L 583.60 286.88 L 583.79 287.18 L 583.88 286.74 Z M 582.86 283.06 L 582.55 283.32 L 582.92 283.58 L 583.09 283.15 L 582.86 283.06 Z M 583.04 281.26 L 583.49 281.05 L 583.37 280.72 L 582.88 280.79 L 582.67 281.06 L 583.04 281.26 Z M 585.48 284.61 L 585.17 284.37 L 585.06 284.55 L 585.08 284.55 L 585.09 284.55 L 585.39 284.71 L 585.48 284.61 Z M 586.46 287.11 L 586.60 286.85 L 586.16 286.80 L 585.99 286.48 L 585.69 286.61 L 586.09 287.03 L 586.46 287.11 Z M 574.51 307.19 L 574.51 307.20 L 574.51 307.19 L 574.51 307.19 Z M 591.36 282.78 L 591.61 282.90 L 591.58 282.87 L 591.55 282.83 L 591.47 282.81 L 591.39 282.78 L 591.38 282.77 L 591.36 282.78 Z M 586.22 281.45 L 586.11 281.79 L 586.75 281.65 L 586.59 281.43 L 586.22 281.45 Z M 586.41 285.69 L 586.68 285.81 L 587.04 285.69 L 587.04 285.46 L 586.60 285.45 L 586.41 285.69 Z M 591.58 277.05 L 591.77 276.82 L 591.55 276.68 L 591.33 276.85 L 591.58 277.05 Z M 574.14 305.63 L 574.70 305.38 L 574.37 305.12 L 573.84 305.14 L 573.51 305.51 L 574.14 305.63 Z M 575.04 305.36 L 575.58 305.10 L 575.16 304.97 L 574.89 305.20 L 575.04 305.36 Z M 588.19 284.70 L 588.12 284.70 L 588.10 284.74 L 588.11 284.75 L 588.12 284.79 L 588.24 284.76 L 588.23 284.75 L 588.20 284.70 L 588.19 284.70 Z M 592.15 277.00 L 592.10 276.69 L 591.85 276.84 L 592.15 277.00 Z M 585.56 284.56 L 585.90 284.80 L 586.32 284.95 L 585.97 284.66 L 585.56 284.56 Z M 583.78 284.71 L 583.94 284.97 L 584.09 284.70 L 583.78 284.71 Z M 573.57 305.19 L 574.05 304.99 L 573.88 304.90 L 573.57 305.19 Z M 588.37 285.00 L 588.36 285.01 L 588.39 285.02 L 588.38 285.00 L 588.37 285.00 Z M 585.06 284.55 L 585.09 284.55 L 585.08 284.55 L 585.06 284.55 Z">
      <title>浙江省</title>
    </path>
  </g>
</svg>