<?xml version="1.0" encoding="UTF-8"?>
<svg xmlns="http://www.w3.org/2000/svg" viewBox="0 0 800 600" width="800" height="600">
  <title>安徽省</title>
  <defs>
    <style>
      .region-path {
        fill: #e6f3ff;
        stroke: #2563eb;
        stroke-width: 1.5;
        stroke-linejoin: round;
        cursor: pointer;
        transition: all 0.2s ease;
      }
      .region-path:hover {
        fill: #bfdbfe;
        stroke: #1d4ed8;
        stroke-width: 2;
      }
      .region-label {
        fill: #1e40af;
        font-family: Arial, sans-serif;
        font-size: 24px;
        font-weight: bold;
        pointer-events: none;
      }
    </style>
  </defs>
  
  <g id="340000">
    <path id="340000-land" 
          class="region-path"
          data-region-id="340000"
          data-region-name="安徽省"
          d="M 527.50 242.64 L 527.94 243.01 L 527.96 243.86 L 527.83 243.95 L 527.16 243.74 L 527.08 244.01 L 526.33 244.13 L 525.82 244.38 L 525.82 244.84 L 525.52 244.80 L 525.37 245.04 L 524.57 245.15 L 524.02 245.58 L 523.67 245.53 L 522.90 245.79 L 522.66 245.36 L 522.32 245.04 L 522.06 245.05 L 521.87 244.81 L 521.90 244.23 L 521.11 243.64 L 521.29 243.15 L 520.85 242.70 L 520.29 242.68 L 520.01 242.49 L 520.01 242.75 L 519.73 242.73 L 519.69 242.49 L 519.31 242.14 L 518.89 242.14 L 518.55 241.99 L 518.24 242.16 L 517.75 242.15 L 517.58 242.45 L 517.22 242.47 L 516.92 243.05 L 516.91 243.30 L 516.60 244.08 L 517.47 244.13 L 517.29 245.11 L 516.90 244.98 L 516.76 245.14 L 517.16 245.70 L 517.15 246.32 L 517.56 247.08 L 516.78 247.18 L 516.22 247.42 L 515.73 247.27 L 515.30 247.37 L 515.01 247.90 L 514.72 247.73 L 514.50 247.94 L 514.50 248.49 L 514.29 248.41 L 514.19 248.68 L 514.33 248.97 L 514.17 249.24 L 514.47 249.30 L 514.71 249.67 L 514.67 250.06 L 514.40 250.06 L 514.45 250.44 L 514.04 251.03 L 514.07 251.60 L 513.92 251.78 L 513.46 251.74 L 512.94 251.90 L 512.67 252.23 L 511.35 252.25 L 510.83 252.09 L 510.57 251.62 L 510.23 251.56 L 509.91 251.80 L 509.86 252.25 L 510.02 252.29 L 510.15 252.97 L 509.80 252.94 L 509.71 253.25 L 510.05 253.45 L 510.33 253.82 L 511.02 253.77 L 511.29 253.85 L 511.23 254.11 L 512.37 254.21 L 512.54 254.55 L 512.97 254.64 L 512.89 255.09 L 513.11 255.37 L 512.89 255.53 L 512.78 255.99 L 512.82 256.60 L 513.00 257.38 L 513.44 257.36 L 513.69 257.52 L 514.09 257.47 L 514.08 257.78 L 515.19 257.55 L 515.16 257.82 L 516.08 258.41 L 516.20 258.66 L 516.21 258.66 L 516.21 258.66 L 516.21 258.67 L 516.20 258.68 L 516.34 258.93 L 516.84 259.17 L 517.19 259.10 L 517.42 259.32 L 517.74 259.07 L 517.84 259.27 L 518.23 258.38 L 518.62 258.58 L 518.92 258.28 L 519.10 258.66 L 519.85 257.94 L 520.16 257.54 L 520.36 257.64 L 520.00 257.89 L 519.69 258.32 L 520.08 258.46 L 519.89 258.76 L 520.24 259.46 L 520.38 261.16 L 520.68 261.79 L 520.48 263.00 L 520.55 263.48 L 520.35 264.10 L 520.46 264.34 L 520.20 264.92 L 520.19 265.25 L 520.40 265.44 L 520.11 265.83 L 519.75 265.73 L 519.30 265.90 L 519.30 265.90 L 518.88 265.72 L 518.50 265.93 L 517.93 265.81 L 516.66 266.67 L 516.46 266.64 L 516.06 266.90 L 515.86 267.22 L 515.95 267.57 L 515.48 267.78 L 515.23 268.43 L 514.77 268.74 L 514.96 269.21 L 514.80 269.67 L 515.00 269.84 L 514.78 270.26 L 515.14 270.38 L 515.52 270.31 L 515.83 271.13 L 516.18 271.11 L 516.51 271.48 L 516.52 271.86 L 516.99 272.39 L 517.18 272.08 L 517.72 271.69 L 518.19 271.79 L 518.99 272.72 L 519.19 272.55 L 519.61 272.56 L 519.91 272.35 L 520.12 272.75 L 520.66 273.14 L 520.65 273.39 L 521.35 273.52 L 521.44 273.76 L 521.90 273.75 L 522.03 274.33 L 521.70 274.32 L 521.04 274.59 L 520.59 275.03 L 519.89 275.29 L 519.72 275.66 L 519.87 275.79 L 519.75 276.40 L 519.04 276.45 L 518.83 277.14 L 519.36 277.64 L 519.41 278.05 L 519.72 278.01 L 520.01 278.21 L 520.12 278.62 L 520.36 278.87 L 520.20 279.56 L 520.47 279.93 L 520.10 280.31 L 520.41 280.74 L 520.28 281.00 L 521.14 281.23 L 521.27 281.63 L 521.97 282.13 L 521.87 282.37 L 522.20 283.10 L 522.10 283.60 L 522.24 283.87 L 522.05 284.56 L 522.62 285.30 L 522.69 286.12 L 523.08 286.03 L 523.65 286.14 L 523.88 286.47 L 524.20 286.43 L 524.84 285.95 L 526.14 285.32 L 526.74 285.31 L 527.01 285.18 L 527.36 283.77 L 527.72 283.49 L 528.20 283.45 L 528.75 283.69 L 529.04 283.66 L 529.41 283.93 L 529.61 284.28 L 529.90 284.20 L 529.92 284.69 L 530.29 284.45 L 530.62 284.77 L 530.44 285.35 L 529.38 286.40 L 529.19 286.29 L 528.27 287.25 L 528.53 287.28 L 528.60 287.39 L 528.61 287.39 L 528.59 287.47 L 528.34 287.55 L 528.05 288.01 L 528.72 288.49 L 528.77 288.76 L 529.17 288.40 L 529.38 288.70 L 530.09 288.64 L 530.34 288.29 L 531.03 287.89 L 531.39 287.80 L 531.61 287.53 L 532.09 287.56 L 532.82 287.23 L 532.78 286.82 L 533.07 286.57 L 532.93 286.33 L 532.41 285.99 L 532.97 285.68 L 533.00 285.29 L 533.43 285.07 L 533.90 285.00 L 534.21 285.13 L 534.37 285.48 L 534.28 285.96 L 534.69 286.08 L 535.16 285.82 L 535.37 286.19 L 535.62 285.90 L 535.96 285.79 L 535.89 286.29 L 536.37 286.84 L 536.36 287.48 L 536.73 287.77 L 537.15 287.83 L 537.08 288.08 L 537.28 288.51 L 537.96 288.48 L 538.37 288.24 L 538.69 288.44 L 538.81 288.85 L 539.22 288.91 L 539.90 288.70 L 540.70 288.94 L 541.33 288.92 L 542.06 288.62 L 542.46 288.74 L 542.54 288.98 L 543.00 289.08 L 543.51 289.54 L 543.34 289.72 L 543.43 290.27 L 544.02 290.51 L 544.59 290.14 L 545.30 290.23 L 545.19 289.64 L 545.44 289.48 L 545.62 289.70 L 545.97 289.38 L 547.16 289.23 L 547.21 288.64 L 547.54 288.51 L 547.97 288.00 L 548.44 287.83 L 548.73 287.94 L 549.28 287.29 L 549.74 286.95 L 549.70 286.17 L 550.74 285.37 L 550.71 284.92 L 551.29 284.89 L 551.37 283.95 L 551.13 283.57 L 551.07 283.05 L 551.30 282.71 L 550.85 282.69 L 550.86 282.52 L 551.66 282.15 L 551.40 282.00 L 551.12 281.32 L 551.14 280.98 L 551.91 280.51 L 552.27 280.80 L 553.03 281.09 L 553.33 280.89 L 553.70 281.09 L 554.47 281.23 L 554.84 281.17 L 554.94 280.71 L 555.26 280.71 L 555.77 280.39 L 556.00 280.63 L 556.56 280.36 L 556.20 280.26 L 555.86 279.60 L 555.87 278.97 L 555.77 278.72 L 555.21 278.96 L 554.84 278.58 L 555.14 278.29 L 554.86 277.93 L 555.74 277.71 L 555.94 277.36 L 556.43 277.14 L 556.62 277.56 L 556.99 277.50 L 557.39 276.94 L 557.36 276.24 L 557.85 276.17 L 558.13 275.69 L 558.35 275.64 L 558.16 275.19 L 558.23 274.72 L 558.42 274.58 L 558.40 274.22 L 558.95 273.68 L 558.91 272.99 L 559.11 272.79 L 558.85 272.53 L 558.60 272.75 L 557.91 272.23 L 557.17 272.26 L 556.94 272.04 L 556.44 272.08 L 556.12 271.67 L 556.27 271.20 L 556.02 270.76 L 555.89 271.20 L 555.44 271.15 L 555.15 271.29 L 554.44 271.08 L 554.43 270.82 L 554.02 270.82 L 553.49 271.28 L 553.48 271.44 L 552.54 271.38 L 552.22 271.42 L 551.04 271.37 L 550.26 271.50 L 549.86 270.98 L 549.55 270.96 L 549.49 270.54 L 549.75 270.02 L 549.98 270.11 L 550.56 269.99 L 550.85 269.80 L 551.18 268.70 L 550.90 268.63 L 550.99 268.50 L 551.20 268.50 L 551.16 268.03 L 550.92 267.42 L 550.34 267.46 L 550.04 266.80 L 549.77 266.88 L 549.65 267.32 L 548.69 267.15 L 548.69 266.92 L 549.25 266.52 L 548.80 266.31 L 548.67 266.02 L 547.95 266.14 L 547.80 266.31 L 547.43 266.18 L 547.55 265.93 L 547.01 265.81 L 547.25 265.16 L 546.85 264.99 L 546.91 264.76 L 545.79 264.24 L 546.06 263.67 L 546.11 262.73 L 546.52 262.62 L 547.21 262.25 L 547.15 261.80 L 547.31 261.50 L 548.69 261.34 L 549.01 260.92 L 548.83 260.39 L 549.31 260.11 L 549.12 259.33 L 549.18 258.62 L 548.53 258.67 L 548.16 258.53 L 548.33 257.95 L 547.87 257.69 L 547.91 257.44 L 548.21 257.29 L 548.58 257.52 L 548.85 257.35 L 549.16 257.42 L 549.47 257.15 L 549.47 257.15 L 549.64 257.41 L 549.87 257.25 L 550.16 257.48 L 550.53 257.25 L 550.76 257.63 L 551.43 257.38 L 551.25 257.78 L 551.57 257.74 L 551.58 257.74 L 551.57 257.74 L 551.58 257.74 L 552.13 258.28 L 552.81 258.18 L 553.26 258.82 L 553.86 258.34 L 554.13 257.96 L 553.97 257.74 L 554.67 257.54 L 554.78 257.22 L 554.55 256.87 L 554.58 256.17 L 554.30 254.96 L 553.56 254.98 L 552.95 254.45 L 552.60 253.61 L 552.31 253.58 L 551.70 253.79 L 551.27 253.76 L 551.30 253.59 L 551.30 253.59 L 550.82 253.60 L 550.79 253.96 L 550.53 253.97 L 550.42 254.67 L 549.72 254.67 L 549.72 254.67 L 549.67 255.51 L 549.86 255.87 L 549.35 256.05 L 548.68 255.80 L 547.95 256.05 L 547.82 255.95 L 547.03 256.04 L 546.69 255.81 L 546.28 256.10 L 545.91 256.06 L 545.78 255.53 L 545.48 255.62 L 545.13 255.40 L 545.14 254.74 L 544.61 254.72 L 544.43 254.04 L 544.63 253.81 L 545.04 253.71 L 545.17 253.47 L 544.81 253.47 L 544.56 253.17 L 544.54 252.86 L 544.29 251.97 L 544.27 251.16 L 543.87 250.89 L 543.57 251.39 L 542.42 251.75 L 542.40 251.57 L 541.90 251.28 L 541.79 250.80 L 541.42 250.82 L 541.39 250.43 L 541.75 250.25 L 541.94 249.70 L 542.32 249.26 L 542.19 248.97 L 542.30 248.43 L 542.54 248.05 L 543.13 248.22 L 543.24 246.99 L 543.18 246.75 L 543.76 246.27 L 543.69 245.53 L 543.24 245.21 L 542.70 245.21 L 542.23 245.49 L 541.73 245.38 L 541.00 245.69 L 540.40 245.52 L 539.86 245.55 L 539.43 245.78 L 539.17 245.38 L 539.32 245.29 L 539.52 244.09 L 539.47 243.91 L 539.07 244.04 L 538.62 243.46 L 538.61 242.86 L 538.18 242.49 L 538.01 242.78 L 537.55 242.94 L 537.28 242.38 L 536.99 242.15 L 536.17 242.49 L 535.84 242.45 L 535.36 241.87 L 534.88 242.08 L 534.53 241.97 L 534.32 242.10 L 533.64 242.07 L 533.01 241.73 L 532.94 241.45 L 532.14 241.21 L 531.91 241.05 L 532.18 240.49 L 531.33 239.84 L 531.48 239.18 L 531.24 239.01 L 531.33 238.75 L 530.71 238.55 L 529.87 238.75 L 529.40 238.33 L 529.31 238.08 L 528.78 237.89 L 528.15 237.88 L 527.43 237.67 L 527.45 237.48 L 526.37 236.84 L 526.23 236.41 L 525.77 236.25 L 525.75 236.04 L 525.17 236.15 L 524.75 236.35 L 524.66 236.55 L 524.25 236.47 L 523.86 237.06 L 523.33 236.81 L 523.27 237.23 L 523.40 237.51 L 523.14 237.64 L 522.97 238.02 L 523.14 238.32 L 523.53 238.60 L 523.50 238.82 L 523.94 238.88 L 524.41 239.24 L 524.99 239.47 L 525.15 240.03 L 525.53 239.95 L 525.53 239.95 L 526.02 240.00 L 526.64 239.71 L 527.11 239.82 L 527.32 240.02 L 526.94 240.28 L 526.92 240.67 L 527.15 241.03 L 526.85 241.22 L 526.76 241.51 L 527.26 242.07 L 527.26 242.07 L 527.50 242.64 L 527.50 242.64 Z M 550.99 268.50 L 550.90 268.63 L 551.18 268.70 L 551.20 268.50 L 550.99 268.50 Z M 528.53 287.28 L 528.27 287.25 L 528.06 287.41 L 528.34 287.55 L 528.59 287.47 L 528.61 287.39 L 528.60 287.39 L 528.53 287.28 Z M 516.20 258.66 L 516.20 258.68 L 516.21 258.67 L 516.21 258.66 L 516.21 258.66 L 516.20 258.66 Z">
      <title>安徽省</title>
    </path>
  </g>
</svg>