<?xml version="1.0" encoding="UTF-8"?>
<svg xmlns="http://www.w3.org/2000/svg" viewBox="0 0 800 600" width="800" height="600">
  <title>福建省</title>
  <defs>
    <style>
      .region-path {
        fill: #e6f3ff;
        stroke: #2563eb;
        stroke-width: 1.5;
        stroke-linejoin: round;
        cursor: pointer;
        transition: all 0.2s ease;
      }
      .region-path:hover {
        fill: #bfdbfe;
        stroke: #1d4ed8;
        stroke-width: 2;
      }
      .region-label {
        fill: #1e40af;
        font-family: Arial, sans-serif;
        font-size: 24px;
        font-weight: bold;
        pointer-events: none;
      }
    </style>
  </defs>
  
  <g id="350000">
    <path id="350000-land" 
          class="region-path"
          data-region-id="350000"
          data-region-name="福建省"
          d="M 552.43 336.39 L 552.27 336.35 L 552.63 335.62 L 552.56 335.47 L 552.12 335.82 L 551.82 335.78 L 551.27 335.11 L 552.12 334.88 L 551.89 334.50 L 552.23 334.32 L 552.23 334.05 L 551.78 333.89 L 551.76 333.82 L 551.80 333.78 L 551.38 333.59 L 551.35 333.56 L 551.55 333.50 L 551.51 333.41 L 551.53 333.41 L 551.93 333.25 L 552.35 333.31 L 552.13 333.61 L 552.28 333.98 L 552.96 333.80 L 553.16 333.89 L 552.95 334.33 L 552.72 334.27 L 552.68 334.63 L 553.07 335.01 L 553.17 335.04 L 553.78 334.97 L 553.49 335.29 L 553.62 335.94 L 553.90 335.49 L 554.10 334.56 L 553.81 334.47 L 553.51 334.06 L 553.75 333.76 L 554.36 334.25 L 554.78 334.12 L 555.17 334.42 L 555.65 334.10 L 555.44 333.62 L 555.82 333.68 L 556.33 333.48 L 555.84 333.09 L 555.49 332.67 L 554.95 332.62 L 554.88 332.79 L 554.65 332.26 L 553.88 332.05 L 553.95 331.65 L 554.37 331.68 L 554.79 331.49 L 554.66 331.22 L 555.04 331.01 L 555.24 331.13 L 555.11 331.64 L 555.37 331.82 L 556.05 331.80 L 555.95 331.18 L 556.11 330.67 L 556.54 330.96 L 557.08 330.96 L 556.93 331.80 L 557.18 331.42 L 557.48 331.48 L 557.42 331.73 L 557.64 331.97 L 557.43 332.24 L 558.07 332.28 L 558.38 331.92 L 558.14 331.63 L 558.37 331.45 L 558.51 331.94 L 558.42 332.20 L 558.58 332.61 L 559.11 332.52 L 559.28 332.22 L 559.19 331.96 L 559.33 331.56 L 558.84 331.58 L 559.38 331.22 L 559.46 331.45 L 559.52 331.50 L 560.40 331.97 L 560.31 331.58 L 560.73 331.33 L 561.37 331.36 L 561.34 331.21 L 561.33 331.15 L 560.79 330.82 L 560.85 330.56 L 561.31 330.57 L 561.55 330.41 L 561.00 330.06 L 561.12 329.88 L 560.57 329.71 L 560.53 329.15 L 559.64 329.68 L 559.47 329.93 L 559.82 330.36 L 559.80 330.77 L 559.44 330.91 L 559.38 331.15 L 558.96 331.15 L 558.72 330.68 L 558.77 330.30 L 558.47 329.93 L 557.93 330.01 L 558.00 329.60 L 557.34 329.53 L 557.29 329.21 L 558.02 328.98 L 558.63 328.97 L 558.63 328.67 L 558.88 328.58 L 558.90 327.03 L 559.00 326.85 L 559.59 326.70 L 559.89 325.59 L 559.64 325.37 L 559.32 325.44 L 559.17 324.78 L 558.80 324.47 L 558.65 323.96 L 559.27 323.61 L 559.39 322.98 L 560.38 322.75 L 560.70 322.92 L 560.75 322.52 L 561.14 322.36 L 561.33 322.52 L 561.76 322.51 L 562.28 322.05 L 562.19 321.83 L 561.65 322.02 L 561.05 321.21 L 561.05 321.00 L 560.56 319.66 L 560.06 319.38 L 559.33 319.30 L 558.66 319.53 L 558.37 319.26 L 558.81 318.98 L 558.99 318.42 L 559.27 318.18 L 559.76 318.59 L 561.03 318.55 L 561.34 318.75 L 561.44 319.05 L 561.80 318.85 L 561.70 318.52 L 562.11 317.96 L 562.16 317.58 L 563.29 317.55 L 563.39 317.74 L 562.69 318.24 L 562.43 318.59 L 562.46 318.92 L 562.22 319.23 L 561.73 319.23 L 561.21 319.54 L 560.97 320.28 L 561.37 320.43 L 562.21 319.90 L 562.11 319.73 L 562.41 319.51 L 562.83 319.53 L 563.41 319.20 L 563.72 319.35 L 564.18 319.10 L 563.89 318.53 L 564.43 318.27 L 564.32 317.93 L 563.86 317.90 L 564.16 317.44 L 563.82 317.47 L 563.81 317.14 L 563.51 317.17 L 563.31 316.76 L 563.97 316.56 L 564.06 316.17 L 564.10 316.19 L 564.62 316.17 L 565.17 316.30 L 565.44 315.52 L 565.65 315.47 L 565.61 315.06 L 565.82 314.97 L 565.68 314.41 L 566.81 314.50 L 566.93 314.30 L 567.53 313.87 L 566.94 313.23 L 566.91 312.74 L 567.21 312.66 L 566.31 311.58 L 566.28 311.20 L 565.58 311.31 L 565.47 310.86 L 565.04 310.99 L 564.14 310.99 L 564.17 311.17 L 563.75 311.30 L 563.29 311.83 L 563.02 311.78 L 562.83 311.45 L 562.34 311.55 L 562.11 311.93 L 561.12 312.23 L 560.35 312.15 L 560.49 311.92 L 560.05 311.58 L 560.17 311.47 L 559.76 311.17 L 559.49 310.80 L 559.67 310.71 L 559.73 310.01 L 559.54 309.77 L 559.22 309.74 L 559.38 309.39 L 558.92 309.31 L 558.88 308.91 L 559.06 308.46 L 558.67 308.35 L 558.00 308.43 L 557.58 308.61 L 557.59 309.01 L 557.22 309.89 L 556.93 310.07 L 556.71 309.75 L 556.12 309.90 L 555.85 310.37 L 555.34 310.60 L 555.17 310.97 L 554.71 311.02 L 553.92 310.94 L 553.64 310.80 L 553.73 310.42 L 553.34 310.51 L 552.80 310.38 L 552.60 310.18 L 552.21 310.17 L 552.24 310.41 L 551.92 310.68 L 551.43 310.57 L 551.03 309.75 L 551.44 309.45 L 551.49 308.92 L 551.14 308.42 L 551.07 307.74 L 550.61 306.55 L 550.50 305.84 L 549.83 305.52 L 549.59 305.28 L 549.63 304.69 L 549.47 304.32 L 549.98 303.88 L 550.33 303.76 L 550.37 303.37 L 550.01 303.02 L 550.35 302.83 L 550.33 302.49 L 549.86 302.36 L 549.48 301.74 L 549.27 301.77 L 549.01 302.16 L 548.77 302.10 L 548.19 302.30 L 548.12 302.05 L 547.13 302.26 L 547.10 302.51 L 546.62 302.35 L 546.52 301.99 L 546.41 301.96 L 545.28 302.68 L 545.53 302.97 L 545.91 303.04 L 545.76 303.36 L 545.71 304.03 L 544.53 304.19 L 544.09 304.46 L 543.61 304.33 L 543.27 304.54 L 543.36 304.80 L 543.00 304.94 L 543.02 305.28 L 542.01 305.07 L 541.66 305.36 L 541.43 305.24 L 541.10 305.50 L 540.53 305.54 L 539.81 306.06 L 539.83 306.47 L 539.33 307.05 L 538.96 306.70 L 538.73 306.81 L 538.39 306.52 L 537.97 306.40 L 537.42 305.33 L 537.06 305.16 L 536.61 305.69 L 536.36 305.60 L 535.88 306.08 L 535.45 306.20 L 535.20 306.47 L 535.12 306.14 L 534.56 306.31 L 534.52 306.55 L 534.79 306.71 L 534.72 307.42 L 534.19 307.89 L 533.78 307.94 L 533.77 308.26 L 533.47 308.32 L 532.84 308.17 L 532.65 308.43 L 532.81 308.65 L 532.63 308.84 L 532.33 308.44 L 532.07 308.40 L 531.69 308.86 L 531.91 309.20 L 531.83 309.50 L 532.22 309.72 L 532.45 309.48 L 532.73 309.82 L 532.80 310.59 L 533.03 310.97 L 532.76 311.26 L 532.74 311.91 L 533.11 312.00 L 533.07 312.20 L 533.43 312.33 L 533.20 312.84 L 532.12 313.82 L 532.20 314.30 L 531.31 314.70 L 531.00 315.14 L 530.72 314.98 L 530.11 315.25 L 529.76 315.15 L 528.33 315.57 L 527.85 316.03 L 527.53 316.50 L 526.97 317.00 L 526.92 317.38 L 527.07 317.69 L 526.63 318.24 L 526.68 318.61 L 527.16 318.97 L 527.02 319.74 L 526.88 319.91 L 527.48 320.39 L 527.62 320.77 L 527.91 320.76 L 527.59 321.25 L 527.52 321.84 L 527.02 321.92 L 527.02 321.56 L 526.67 321.45 L 526.47 321.96 L 526.05 322.13 L 525.82 322.52 L 525.57 322.62 L 525.28 323.24 L 525.43 323.61 L 525.35 323.93 L 525.80 324.05 L 526.23 323.92 L 526.36 324.53 L 525.27 325.39 L 525.02 325.80 L 525.12 326.09 L 524.67 326.16 L 524.43 326.49 L 523.97 326.72 L 523.62 326.65 L 523.13 326.81 L 522.66 327.16 L 522.65 327.53 L 523.16 328.00 L 522.63 328.21 L 522.40 328.81 L 521.99 328.78 L 522.00 329.38 L 521.72 329.60 L 521.94 330.24 L 521.71 330.39 L 521.67 330.74 L 521.34 330.99 L 521.53 331.56 L 521.21 332.20 L 521.37 332.76 L 521.16 333.07 L 520.77 333.04 L 520.57 333.63 L 519.79 333.90 L 519.84 334.36 L 520.13 334.74 L 520.05 335.12 L 520.34 335.20 L 520.54 335.55 L 519.98 335.87 L 520.51 336.48 L 519.94 336.49 L 520.17 336.73 L 520.33 336.87 L 521.14 337.12 L 521.44 337.05 L 521.99 337.63 L 522.87 337.66 L 523.28 337.35 L 523.58 337.84 L 523.89 337.89 L 523.82 338.21 L 524.37 338.13 L 524.87 337.85 L 525.06 337.41 L 525.38 337.34 L 525.62 337.72 L 525.24 337.89 L 525.18 338.11 L 525.63 338.48 L 525.60 338.73 L 525.91 339.04 L 526.32 338.97 L 526.65 339.68 L 526.54 340.00 L 526.78 340.17 L 527.20 340.00 L 527.52 339.66 L 527.75 339.79 L 528.21 339.61 L 529.35 339.40 L 529.74 339.65 L 529.18 340.40 L 529.16 340.78 L 529.55 341.24 L 529.92 341.29 L 530.21 341.67 L 529.99 341.86 L 530.66 342.61 L 530.57 342.81 L 530.82 343.11 L 530.77 343.46 L 531.01 343.52 L 530.96 344.16 L 531.20 344.19 L 531.64 344.58 L 530.98 345.13 L 530.93 345.77 L 531.17 346.35 L 531.46 346.45 L 531.41 347.15 L 531.19 347.24 L 531.46 347.94 L 531.78 347.94 L 531.85 348.49 L 532.15 348.94 L 532.23 349.61 L 532.94 350.09 L 533.18 350.03 L 533.65 350.28 L 533.65 350.98 L 534.67 350.88 L 534.79 351.10 L 535.67 351.05 L 536.46 350.74 L 536.36 350.29 L 536.77 350.15 L 536.85 349.50 L 537.30 349.38 L 537.89 349.53 L 538.50 348.62 L 538.41 348.36 L 538.62 347.70 L 538.82 347.59 L 539.56 347.61 L 539.87 347.41 L 540.02 346.98 L 540.62 346.39 L 541.09 346.32 L 541.27 346.03 L 541.36 345.40 L 542.02 344.86 L 542.22 344.40 L 542.79 344.10 L 543.22 344.06 L 543.66 343.64 L 543.18 342.74 L 542.86 342.74 L 542.93 342.20 L 542.53 342.11 L 542.89 340.96 L 543.28 340.53 L 543.58 340.39 L 543.77 340.64 L 544.54 341.13 L 545.91 340.88 L 545.79 340.55 L 546.62 340.07 L 547.33 340.14 L 547.79 340.50 L 547.81 341.13 L 548.39 341.03 L 549.07 340.41 L 549.14 339.87 L 548.87 339.99 L 548.78 339.66 L 548.97 339.39 L 549.31 339.54 L 550.09 338.73 L 550.17 338.39 L 548.76 338.06 L 548.73 337.70 L 549.30 337.47 L 549.26 337.64 L 549.78 337.71 L 550.39 337.41 L 550.67 337.58 L 550.98 337.24 L 551.69 337.41 L 552.27 337.33 L 552.25 337.13 L 551.69 337.04 L 551.54 336.77 L 551.82 336.55 L 552.53 336.68 L 552.72 336.48 L 552.72 336.47 L 552.46 336.45 L 552.43 336.39 Z M 546.29 341.11 L 545.90 341.68 L 545.32 341.39 L 545.11 341.49 L 545.25 342.04 L 544.95 342.16 L 545.44 342.48 L 545.68 342.13 L 546.22 342.00 L 546.77 342.17 L 546.96 341.90 L 546.70 341.19 L 546.29 341.11 Z M 557.27 334.03 L 557.64 334.18 L 557.83 334.44 L 558.08 334.40 L 558.26 333.90 L 557.99 333.98 L 557.58 333.82 L 557.29 333.38 L 556.98 333.60 L 556.99 333.98 L 557.27 334.03 Z M 558.40 329.57 L 558.72 329.13 L 558.40 329.34 L 558.40 329.57 Z M 562.51 323.73 L 562.92 323.46 L 562.74 323.27 L 562.45 323.45 L 562.51 323.73 Z M 544.41 342.28 L 544.86 341.87 L 544.44 341.82 L 544.41 342.28 Z M 561.78 318.56 L 561.99 318.82 L 562.24 318.53 L 561.78 318.56 Z M 544.13 341.21 L 544.01 340.88 L 543.52 340.63 L 542.99 340.84 L 542.73 341.64 L 542.89 341.93 L 543.50 342.08 L 544.03 341.64 L 544.13 341.21 Z M 562.02 324.32 L 562.34 324.19 L 561.92 323.92 L 562.02 324.32 Z M 559.05 324.37 L 559.28 324.10 L 558.88 323.91 L 558.67 324.12 L 559.05 324.37 Z M 563.10 320.64 L 563.44 320.54 L 563.49 320.30 L 563.12 320.36 L 563.10 320.64 Z M 559.25 329.37 L 559.37 329.52 L 559.83 329.49 L 559.82 329.19 L 559.25 329.37 Z M 560.27 319.35 L 560.43 319.49 L 560.87 319.32 L 560.64 319.17 L 560.27 319.35 Z M 564.16 320.00 L 564.48 319.78 L 564.34 319.44 L 563.97 319.81 L 564.16 320.00 Z M 566.49 316.20 L 566.84 316.03 L 566.51 315.68 L 566.15 315.72 L 566.06 315.92 L 566.49 316.20 Z M 564.31 317.43 L 564.20 317.47 L 564.44 317.43 L 564.42 317.38 L 564.31 317.43 Z M 559.31 319.20 L 559.85 319.12 L 560.25 318.87 L 560.15 318.65 L 559.77 318.78 L 559.37 318.65 L 559.14 318.90 L 559.31 319.20 Z">
      <title>福建省</title>
    </path>
  </g>
</svg>