<?xml version="1.0" encoding="UTF-8"?>
<svg xmlns="http://www.w3.org/2000/svg" viewBox="0 0 800 600" width="800" height="600">
  <title>江西省</title>
  <defs>
    <style>
      .region-path {
        fill: #e6f3ff;
        stroke: #2563eb;
        stroke-width: 1.5;
        stroke-linejoin: round;
        cursor: pointer;
        transition: all 0.2s ease;
      }
      .region-path:hover {
        fill: #bfdbfe;
        stroke: #1d4ed8;
        stroke-width: 2;
      }
      .region-label {
        fill: #1e40af;
        font-family: Arial, sans-serif;
        font-size: 24px;
        font-weight: bold;
        pointer-events: none;
      }
    </style>
  </defs>
  
  <g id="360000">
    <path id="360000-land" 
          class="region-path"
          data-region-id="360000"
          data-region-name="江西省"
          d="M 544.02 290.51 L 543.43 290.27 L 543.34 289.72 L 543.51 289.54 L 543.00 289.08 L 542.54 288.98 L 542.46 288.74 L 542.06 288.62 L 541.33 288.92 L 540.70 288.94 L 539.90 288.70 L 539.22 288.91 L 538.81 288.85 L 538.69 288.44 L 538.37 288.24 L 537.96 288.48 L 537.28 288.51 L 537.08 288.08 L 537.15 287.83 L 536.73 287.77 L 536.36 287.48 L 536.37 286.84 L 535.89 286.29 L 535.96 285.79 L 535.62 285.90 L 535.37 286.19 L 535.16 285.82 L 534.69 286.08 L 534.28 285.96 L 534.37 285.48 L 534.21 285.13 L 533.90 285.00 L 533.43 285.07 L 533.00 285.29 L 532.97 285.68 L 532.41 285.99 L 532.93 286.33 L 533.07 286.57 L 532.78 286.82 L 532.82 287.23 L 532.09 287.56 L 531.61 287.53 L 531.39 287.80 L 531.03 287.89 L 530.34 288.29 L 530.09 288.64 L 529.38 288.70 L 529.17 288.40 L 528.77 288.76 L 528.72 288.49 L 528.05 288.01 L 528.34 287.55 L 528.06 287.41 L 528.27 287.25 L 529.19 286.29 L 529.38 286.40 L 530.44 285.35 L 530.62 284.77 L 530.29 284.45 L 529.92 284.69 L 529.90 284.20 L 529.61 284.28 L 529.41 283.93 L 529.04 283.66 L 528.75 283.69 L 528.20 283.45 L 527.72 283.49 L 527.36 283.77 L 527.01 285.18 L 526.74 285.31 L 526.14 285.32 L 524.84 285.95 L 524.20 286.43 L 523.88 286.47 L 523.65 286.14 L 523.08 286.03 L 522.69 286.12 L 522.19 286.37 L 521.80 286.71 L 520.93 287.10 L 520.35 287.11 L 519.60 286.85 L 518.83 286.39 L 518.25 285.93 L 517.84 285.80 L 517.26 285.89 L 516.23 285.90 L 515.89 286.20 L 515.80 286.95 L 515.20 287.47 L 514.61 287.88 L 514.08 288.01 L 513.88 288.20 L 513.52 287.77 L 512.75 287.82 L 512.10 287.51 L 512.14 287.81 L 512.41 287.92 L 512.17 288.42 L 512.55 288.55 L 512.52 289.32 L 511.82 289.16 L 511.83 288.81 L 511.27 288.95 L 510.93 288.68 L 510.38 288.98 L 510.58 289.20 L 510.30 289.49 L 509.89 289.37 L 509.47 289.68 L 509.77 290.09 L 510.07 289.90 L 509.94 289.71 L 510.26 289.57 L 510.37 289.79 L 510.21 290.23 L 509.84 290.49 L 509.54 290.42 L 508.97 290.64 L 508.69 290.61 L 508.43 290.85 L 508.23 290.60 L 507.53 290.51 L 507.00 290.68 L 506.67 290.96 L 505.94 291.24 L 505.39 291.25 L 505.12 291.07 L 504.45 291.26 L 504.10 291.22 L 503.74 290.83 L 503.24 291.05 L 503.17 292.18 L 502.32 292.36 L 501.21 292.49 L 500.92 293.03 L 500.43 293.31 L 500.06 293.65 L 499.95 294.12 L 500.16 294.62 L 500.09 294.83 L 500.29 295.26 L 500.65 295.07 L 500.61 295.46 L 500.85 295.74 L 501.18 295.62 L 501.14 295.94 L 501.35 296.33 L 501.85 296.24 L 502.15 296.38 L 501.98 296.89 L 502.19 297.08 L 501.82 298.51 L 501.93 298.68 L 501.45 299.19 L 501.99 299.45 L 502.16 299.72 L 502.82 299.95 L 502.81 300.14 L 502.34 300.49 L 502.78 300.80 L 503.17 300.88 L 503.18 301.67 L 502.61 301.96 L 502.44 302.39 L 502.05 302.42 L 501.69 302.85 L 501.67 303.08 L 501.27 303.20 L 500.68 303.16 L 500.48 303.31 L 500.82 304.14 L 501.05 304.38 L 500.82 304.65 L 500.25 304.55 L 500.21 304.79 L 499.90 304.78 L 499.67 305.07 L 499.15 304.93 L 498.95 305.27 L 498.72 305.16 L 497.99 305.67 L 497.74 306.27 L 498.03 306.43 L 498.10 307.06 L 497.44 307.66 L 497.41 307.88 L 496.95 308.46 L 496.49 308.86 L 496.50 309.28 L 496.19 309.69 L 496.24 309.90 L 496.69 310.16 L 496.32 310.49 L 496.38 310.90 L 496.74 311.14 L 496.47 311.31 L 496.58 311.76 L 497.01 311.74 L 497.44 311.90 L 497.74 311.71 L 499.24 311.35 L 499.24 311.75 L 499.05 312.18 L 499.24 312.34 L 498.97 313.04 L 498.27 313.92 L 498.19 314.34 L 498.52 314.31 L 498.73 314.97 L 499.14 315.15 L 499.44 315.71 L 499.80 315.87 L 499.42 316.43 L 499.28 316.80 L 498.86 317.35 L 499.04 317.73 L 499.11 318.82 L 499.65 319.35 L 500.52 319.33 L 500.76 319.62 L 501.68 319.81 L 501.31 320.73 L 501.70 320.70 L 501.49 320.98 L 501.44 321.50 L 501.20 321.50 L 500.87 321.80 L 501.05 322.21 L 500.78 322.72 L 500.86 322.95 L 500.34 323.24 L 500.27 323.57 L 500.03 323.71 L 500.17 324.15 L 500.69 323.80 L 501.47 323.96 L 501.62 323.76 L 502.44 323.48 L 502.80 323.60 L 503.02 324.13 L 502.51 324.45 L 501.65 324.70 L 501.81 324.82 L 501.47 325.02 L 501.01 324.92 L 500.64 325.54 L 500.85 325.90 L 500.85 326.82 L 500.26 327.41 L 500.16 328.02 L 499.73 328.39 L 499.66 328.81 L 500.11 329.73 L 500.38 329.86 L 500.41 330.59 L 500.17 330.60 L 499.99 331.50 L 500.59 331.49 L 500.38 331.77 L 501.08 332.30 L 500.86 332.67 L 500.74 333.23 L 500.97 333.48 L 501.13 333.20 L 501.42 333.22 L 501.75 332.94 L 502.53 332.79 L 502.68 332.97 L 503.25 333.05 L 503.62 332.97 L 503.82 332.57 L 504.52 332.79 L 505.02 332.51 L 505.11 332.17 L 505.51 332.23 L 506.17 331.75 L 506.77 332.07 L 507.16 332.71 L 507.96 332.80 L 508.26 333.23 L 508.18 333.73 L 507.75 333.86 L 507.67 334.28 L 508.18 334.46 L 508.18 334.81 L 507.45 335.03 L 507.19 335.31 L 506.82 335.20 L 506.38 335.27 L 506.08 335.84 L 505.80 336.08 L 505.28 336.11 L 505.27 336.31 L 504.66 336.58 L 504.74 337.34 L 504.48 337.51 L 504.10 338.07 L 504.04 338.68 L 503.48 338.94 L 503.38 339.18 L 502.31 339.29 L 502.53 339.63 L 503.24 339.79 L 503.56 340.02 L 503.68 340.44 L 504.33 340.40 L 504.61 340.60 L 504.74 341.28 L 505.00 341.40 L 506.10 340.64 L 506.67 340.87 L 507.06 340.46 L 507.45 340.39 L 507.86 340.99 L 508.21 340.58 L 508.12 340.13 L 508.66 340.09 L 509.13 340.34 L 509.33 340.19 L 509.56 340.61 L 509.82 340.40 L 509.98 339.58 L 510.30 339.70 L 510.96 339.40 L 511.18 339.50 L 511.52 339.15 L 511.79 339.19 L 512.01 339.52 L 512.83 339.06 L 513.60 338.88 L 513.72 338.67 L 514.10 338.57 L 514.64 338.82 L 514.78 338.41 L 515.20 338.22 L 515.86 338.54 L 516.34 339.16 L 516.68 339.35 L 516.83 339.99 L 517.20 339.96 L 517.88 340.17 L 518.07 340.79 L 518.72 340.78 L 519.06 340.56 L 519.67 340.61 L 519.64 340.38 L 519.19 339.92 L 519.01 339.57 L 519.23 339.13 L 518.90 339.10 L 518.76 338.68 L 518.97 338.41 L 518.85 338.23 L 519.11 337.57 L 519.29 337.50 L 519.46 337.02 L 519.87 337.20 L 519.85 337.49 L 520.33 337.32 L 520.10 337.12 L 520.17 336.73 L 519.94 336.49 L 520.51 336.48 L 519.98 335.87 L 520.54 335.55 L 520.34 335.20 L 520.05 335.12 L 520.13 334.74 L 519.84 334.36 L 519.79 333.90 L 520.57 333.63 L 520.77 333.04 L 521.16 333.07 L 521.37 332.76 L 521.21 332.20 L 521.53 331.56 L 521.34 330.99 L 521.67 330.74 L 521.71 330.39 L 521.94 330.24 L 521.72 329.60 L 522.00 329.38 L 521.99 328.78 L 522.40 328.81 L 522.63 328.21 L 523.16 328.00 L 522.65 327.53 L 522.66 327.16 L 523.13 326.81 L 523.62 326.65 L 523.97 326.72 L 524.43 326.49 L 524.67 326.16 L 525.12 326.09 L 525.02 325.80 L 525.27 325.39 L 526.36 324.53 L 526.23 323.92 L 525.80 324.05 L 525.35 323.93 L 525.43 323.61 L 525.28 323.24 L 525.57 322.62 L 525.82 322.52 L 526.05 322.13 L 526.47 321.96 L 526.67 321.45 L 527.02 321.56 L 527.02 321.92 L 527.52 321.84 L 527.59 321.25 L 527.91 320.76 L 527.62 320.77 L 527.48 320.39 L 526.88 319.91 L 527.02 319.74 L 527.16 318.97 L 526.68 318.61 L 526.63 318.24 L 527.07 317.69 L 526.92 317.38 L 526.97 317.00 L 527.53 316.50 L 527.85 316.03 L 528.33 315.57 L 529.76 315.15 L 530.11 315.25 L 530.72 314.98 L 531.00 315.14 L 531.31 314.70 L 532.20 314.30 L 532.12 313.82 L 533.20 312.84 L 533.43 312.33 L 533.07 312.20 L 533.11 312.00 L 532.74 311.91 L 532.76 311.26 L 533.03 310.97 L 532.80 310.59 L 532.73 309.82 L 532.45 309.48 L 532.22 309.72 L 531.83 309.50 L 531.91 309.20 L 531.69 308.86 L 532.07 308.40 L 532.33 308.44 L 532.63 308.84 L 532.81 308.65 L 532.65 308.43 L 532.84 308.17 L 533.47 308.32 L 533.77 308.26 L 533.78 307.94 L 534.19 307.89 L 534.72 307.42 L 534.79 306.71 L 534.52 306.55 L 534.56 306.31 L 535.12 306.14 L 535.20 306.47 L 535.45 306.20 L 535.88 306.08 L 536.36 305.60 L 536.61 305.69 L 537.06 305.16 L 537.42 305.33 L 537.97 306.40 L 538.39 306.52 L 538.73 306.81 L 538.96 306.70 L 539.33 307.05 L 539.83 306.47 L 539.81 306.06 L 540.53 305.54 L 541.10 305.50 L 541.43 305.24 L 541.66 305.36 L 542.01 305.07 L 543.02 305.28 L 543.00 304.94 L 543.36 304.80 L 543.27 304.54 L 543.61 304.33 L 544.09 304.46 L 544.53 304.19 L 545.71 304.03 L 545.76 303.36 L 545.91 303.04 L 545.53 302.97 L 545.28 302.68 L 546.41 301.96 L 546.52 301.99 L 546.99 301.58 L 546.74 301.00 L 546.50 300.81 L 546.75 300.58 L 546.94 300.01 L 546.32 299.82 L 546.48 299.64 L 546.29 299.21 L 546.46 298.58 L 546.46 298.58 L 546.46 297.92 L 546.20 297.69 L 545.79 296.55 L 545.13 296.41 L 544.82 295.45 L 544.05 295.61 L 544.38 295.21 L 543.73 294.75 L 543.41 294.78 L 543.22 294.51 L 543.22 294.51 L 543.03 294.62 L 542.71 294.05 L 542.81 293.84 L 542.41 293.55 L 542.49 293.07 L 542.31 292.87 L 542.46 292.43 L 542.78 292.36 L 542.83 291.60 L 543.46 291.67 L 543.87 291.52 L 543.75 291.36 L 544.15 291.05 L 544.02 290.51 Z">
      <title>江西省</title>
    </path>
  </g>
</svg>