<?xml version="1.0" encoding="UTF-8"?>
<svg xmlns="http://www.w3.org/2000/svg" viewBox="0 0 800 600" width="800" height="600">
  <title>山东省</title>
  <defs>
    <style>
      .region-path {
        fill: #e6f3ff;
        stroke: #2563eb;
        stroke-width: 1.5;
        stroke-linejoin: round;
        cursor: pointer;
        transition: all 0.2s ease;
      }
      .region-path:hover {
        fill: #bfdbfe;
        stroke: #1d4ed8;
        stroke-width: 2;
      }
      .region-label {
        fill: #1e40af;
        font-family: Arial, sans-serif;
        font-size: 24px;
        font-weight: bold;
        pointer-events: none;
      }
    </style>
  </defs>
  
  <g id="370000">
    <path id="370000-land" 
          class="region-path"
          data-region-id="370000"
          data-region-name="山东省"
          d="M 525.17 236.15 L 525.35 235.42 L 525.06 235.37 L 525.11 235.02 L 525.47 234.95 L 525.52 233.96 L 525.90 233.50 L 527.07 233.36 L 527.65 233.22 L 527.74 233.04 L 528.31 233.05 L 529.39 233.28 L 529.47 232.68 L 529.74 232.78 L 529.81 233.15 L 530.18 233.16 L 530.85 233.51 L 530.92 234.04 L 531.30 234.03 L 531.44 234.34 L 531.15 234.38 L 531.33 234.78 L 531.88 234.92 L 532.38 235.39 L 532.29 235.78 L 532.41 236.16 L 532.73 236.06 L 533.22 236.99 L 533.10 237.32 L 533.38 238.28 L 534.23 238.11 L 534.27 237.74 L 534.48 237.61 L 534.43 237.26 L 534.80 237.16 L 534.48 237.01 L 534.88 236.96 L 534.88 236.96 L 534.99 236.91 L 534.99 236.91 L 535.02 236.84 L 535.02 236.84 L 535.50 236.72 L 535.83 236.88 L 535.83 237.07 L 536.47 237.76 L 537.23 237.94 L 537.79 237.99 L 537.97 237.70 L 538.48 237.59 L 538.75 237.11 L 539.97 237.41 L 539.86 236.74 L 539.88 236.03 L 541.01 236.10 L 541.08 235.83 L 541.52 235.75 L 542.58 236.04 L 542.89 235.99 L 543.21 236.42 L 542.84 236.88 L 543.94 237.15 L 543.73 237.55 L 543.39 237.77 L 543.86 238.09 L 543.88 238.85 L 544.28 238.85 L 544.30 238.58 L 544.89 238.59 L 545.03 238.38 L 545.95 238.48 L 546.22 238.35 L 546.33 237.87 L 546.57 237.52 L 546.42 236.61 L 546.57 236.29 L 546.93 236.32 L 546.80 235.98 L 547.68 235.47 L 548.25 235.38 L 548.32 235.59 L 548.90 235.59 L 549.17 235.75 L 549.68 235.59 L 550.14 235.29 L 549.94 235.11 L 549.47 235.06 L 549.68 234.57 L 550.02 234.55 L 550.31 234.04 L 550.37 233.73 L 550.94 233.00 L 550.96 232.15 L 551.64 231.89 L 551.79 232.00 L 552.66 231.84 L 553.57 231.85 L 553.81 231.42 L 554.64 231.31 L 554.98 231.13 L 555.36 231.22 L 555.56 231.62 L 556.05 231.59 L 556.26 231.60 L 556.82 231.16 L 556.51 230.99 L 556.65 230.02 L 557.06 229.46 L 557.50 229.12 L 557.96 229.34 L 558.02 228.81 L 558.50 228.55 L 558.39 228.21 L 558.80 227.65 L 559.26 226.58 L 559.25 226.31 L 559.83 226.04 L 560.17 226.01 L 560.39 226.42 L 560.47 226.36 L 560.60 226.04 L 560.93 225.72 L 560.99 225.99 L 561.39 226.11 L 561.97 225.81 L 561.84 225.57 L 562.23 224.85 L 561.92 224.75 L 561.99 224.54 L 562.32 224.54 L 562.89 225.02 L 563.26 224.27 L 563.08 224.00 L 563.42 223.37 L 563.91 223.24 L 564.05 223.02 L 564.34 223.01 L 564.90 222.60 L 564.51 223.21 L 564.85 223.17 L 564.92 222.91 L 565.50 222.40 L 565.91 222.35 L 566.03 222.03 L 565.75 221.87 L 565.71 221.92 L 565.33 222.13 L 565.41 221.79 L 564.81 222.10 L 565.18 221.73 L 565.23 221.41 L 564.63 221.36 L 564.33 221.07 L 563.96 220.99 L 563.88 220.73 L 564.23 220.57 L 564.21 220.25 L 564.63 219.94 L 565.03 219.88 L 565.08 220.07 L 565.45 219.99 L 565.48 220.16 L 565.96 220.13 L 565.83 219.71 L 566.07 219.64 L 566.51 220.02 L 566.46 220.24 L 565.71 221.56 L 566.25 221.48 L 567.20 221.46 L 567.61 221.14 L 568.42 221.10 L 568.42 220.94 L 568.91 221.01 L 569.13 220.81 L 569.42 220.87 L 569.72 220.71 L 570.13 220.74 L 569.97 220.44 L 569.97 219.94 L 569.81 219.58 L 569.86 219.16 L 569.56 219.19 L 569.62 218.61 L 570.46 218.65 L 569.95 218.01 L 570.62 217.26 L 571.34 217.22 L 571.43 217.29 L 571.65 217.65 L 571.55 217.87 L 571.79 218.25 L 572.19 217.78 L 572.26 217.72 L 572.17 217.39 L 572.48 217.41 L 572.76 217.22 L 572.64 216.79 L 572.94 216.39 L 572.72 216.22 L 572.18 216.16 L 571.92 215.82 L 571.53 215.64 L 571.89 215.55 L 572.35 215.71 L 572.65 216.08 L 573.41 216.11 L 573.92 215.76 L 574.79 215.30 L 575.73 215.09 L 576.21 214.77 L 576.35 214.77 L 576.82 214.66 L 577.27 214.78 L 577.20 214.40 L 577.83 214.25 L 578.27 213.81 L 578.37 213.72 L 578.98 213.44 L 578.80 213.68 L 578.15 213.91 L 578.63 214.42 L 579.08 214.38 L 578.88 214.13 L 579.87 214.55 L 579.66 213.75 L 580.12 213.56 L 580.64 213.49 L 581.02 213.28 L 581.08 212.99 L 582.73 212.39 L 583.12 212.33 L 583.57 212.08 L 583.92 213.02 L 584.02 212.67 L 584.45 212.58 L 584.68 212.31 L 584.77 212.27 L 584.94 212.33 L 584.72 212.81 L 585.30 212.78 L 585.44 213.08 L 585.29 213.32 L 585.77 213.25 L 586.34 213.37 L 586.39 213.39 L 587.05 213.47 L 587.40 213.30 L 587.46 213.08 L 587.79 213.15 L 588.19 212.94 L 588.17 212.87 L 587.98 212.57 L 588.49 212.58 L 588.55 212.86 L 589.00 212.71 L 589.26 212.01 L 589.13 211.64 L 589.53 211.30 L 589.45 211.12 L 588.60 211.34 L 588.32 211.30 L 588.44 211.08 L 588.50 210.35 L 589.01 210.10 L 589.50 210.16 L 589.43 209.86 L 589.95 209.71 L 589.62 208.98 L 589.36 209.00 L 589.43 208.62 L 589.82 208.17 L 589.78 207.91 L 590.22 207.66 L 590.66 207.81 L 590.88 207.62 L 590.75 207.35 L 590.49 207.40 L 590.13 207.25 L 589.22 207.47 L 588.62 207.40 L 588.53 207.18 L 587.80 207.39 L 586.97 207.39 L 586.39 207.22 L 586.46 207.07 L 586.10 206.84 L 585.49 206.96 L 585.21 207.14 L 584.85 206.51 L 585.17 206.31 L 585.04 205.91 L 584.40 205.94 L 584.26 206.08 L 583.66 206.18 L 583.46 206.56 L 582.69 206.78 L 581.13 206.85 L 580.02 206.78 L 579.70 206.57 L 579.08 206.92 L 579.04 207.11 L 578.06 206.75 L 577.88 206.27 L 577.27 205.91 L 577.22 205.57 L 577.63 205.54 L 577.17 205.20 L 576.73 205.10 L 576.83 205.49 L 576.27 205.65 L 575.37 205.65 L 574.92 205.49 L 574.66 205.19 L 574.79 204.99 L 574.60 204.83 L 574.77 204.44 L 574.53 204.19 L 573.50 204.24 L 573.06 203.82 L 572.53 203.55 L 572.50 203.19 L 571.82 203.05 L 571.51 203.12 L 571.45 203.14 L 570.35 203.05 L 569.56 203.47 L 569.32 203.43 L 568.87 203.77 L 568.12 203.91 L 567.46 203.83 L 566.56 204.45 L 565.11 204.50 L 565.03 204.72 L 565.54 204.86 L 565.57 205.09 L 564.98 205.25 L 564.91 205.59 L 565.31 205.92 L 565.06 206.16 L 564.25 206.69 L 563.65 206.87 L 563.42 207.03 L 562.85 207.10 L 562.23 207.33 L 561.99 207.68 L 561.13 207.78 L 561.06 208.09 L 561.54 208.46 L 561.63 208.95 L 561.35 209.26 L 560.99 209.35 L 560.76 209.65 L 560.06 210.30 L 559.51 210.20 L 559.42 210.05 L 558.36 210.37 L 557.46 210.29 L 556.82 210.39 L 556.13 210.39 L 555.78 210.49 L 555.51 210.24 L 555.48 209.64 L 554.53 209.37 L 554.36 209.00 L 554.50 208.78 L 553.80 209.29 L 553.71 209.05 L 553.33 209.02 L 553.26 209.20 L 552.95 209.05 L 552.80 208.53 L 552.40 208.38 L 551.79 206.53 L 551.76 206.22 L 552.27 205.25 L 552.63 205.03 L 553.97 204.90 L 554.84 204.93 L 555.10 204.84 L 555.29 204.51 L 555.59 203.34 L 555.41 202.67 L 554.87 202.59 L 554.59 202.99 L 554.06 203.20 L 553.71 202.90 L 553.53 202.13 L 552.40 201.36 L 552.12 200.35 L 551.43 199.88 L 550.43 199.69 L 549.31 199.76 L 548.51 199.89 L 548.32 199.98 L 548.21 200.50 L 547.74 200.75 L 547.56 200.66 L 547.38 200.40 L 547.25 200.14 L 546.68 200.03 L 546.49 200.22 L 546.21 200.07 L 545.45 200.02 L 544.27 199.80 L 543.86 199.39 L 543.18 199.14 L 542.49 199.10 L 542.21 199.22 L 540.95 198.42 L 540.94 198.20 L 540.45 198.68 L 540.04 198.96 L 539.83 199.45 L 539.60 199.68 L 539.65 199.93 L 539.39 200.02 L 538.96 200.53 L 537.74 200.58 L 537.43 200.84 L 537.43 200.84 L 537.09 201.43 L 536.97 201.91 L 536.64 202.20 L 536.20 202.84 L 535.81 202.93 L 534.97 202.76 L 534.47 202.98 L 533.57 202.88 L 533.21 202.99 L 532.43 202.89 L 531.93 203.06 L 530.82 202.92 L 529.97 203.03 L 529.63 202.89 L 529.10 203.47 L 529.10 203.70 L 528.80 203.97 L 528.33 204.13 L 528.16 204.58 L 527.55 205.21 L 527.25 205.36 L 526.29 206.28 L 525.93 206.47 L 525.79 206.78 L 525.24 206.27 L 525.22 206.28 L 525.24 206.27 L 525.22 206.28 L 525.10 205.82 L 524.77 205.66 L 524.35 205.94 L 524.18 206.25 L 524.30 206.67 L 524.15 206.85 L 523.78 206.61 L 523.78 206.61 L 523.61 206.71 L 523.81 207.04 L 523.63 207.25 L 524.25 207.50 L 523.74 207.94 L 523.29 207.90 L 523.04 207.70 L 522.39 207.87 L 522.18 207.81 L 521.54 207.96 L 521.04 208.19 L 520.97 209.20 L 520.35 209.55 L 520.38 209.85 L 520.04 210.12 L 520.13 210.52 L 519.80 211.06 L 518.97 211.76 L 519.18 212.01 L 518.78 212.70 L 518.30 212.90 L 518.01 213.68 L 516.36 214.14 L 515.90 214.17 L 515.60 214.77 L 515.28 214.93 L 514.71 215.61 L 514.61 215.55 L 514.36 216.35 L 513.75 216.90 L 513.94 217.28 L 514.21 217.35 L 514.01 217.77 L 514.45 217.92 L 514.75 218.50 L 514.72 218.85 L 515.31 218.71 L 515.24 219.02 L 515.72 219.19 L 515.76 219.37 L 515.76 219.37 L 515.84 219.48 L 515.93 220.51 L 515.94 220.75 L 515.58 221.56 L 515.56 221.92 L 514.68 222.35 L 514.59 222.69 L 514.70 223.15 L 514.40 224.16 L 514.69 224.34 L 515.15 224.03 L 515.69 223.43 L 515.98 223.29 L 516.06 223.13 L 516.16 223.10 L 516.24 223.19 L 516.97 222.86 L 517.65 222.85 L 518.17 222.40 L 518.95 222.32 L 519.00 222.12 L 519.39 221.92 L 519.83 222.01 L 520.24 221.78 L 521.18 221.58 L 521.88 220.97 L 522.32 220.89 L 521.94 221.75 L 521.80 222.36 L 521.13 222.32 L 520.37 222.47 L 520.33 222.81 L 519.98 222.89 L 520.07 223.30 L 519.83 223.53 L 519.39 223.67 L 518.94 223.57 L 518.54 223.78 L 518.14 224.24 L 518.11 224.60 L 517.38 224.75 L 516.40 224.81 L 515.96 225.06 L 514.89 226.52 L 514.50 226.68 L 514.61 227.34 L 514.11 227.44 L 513.38 228.03 L 512.71 228.00 L 512.23 228.08 L 512.14 228.27 L 511.87 228.10 L 511.69 228.54 L 511.37 228.51 L 510.48 229.71 L 510.19 229.88 L 510.22 230.36 L 509.49 230.53 L 509.28 230.85 L 509.71 231.40 L 509.22 231.62 L 509.05 231.88 L 509.39 231.99 L 509.10 232.29 L 509.68 232.38 L 510.13 232.74 L 510.41 232.52 L 511.01 232.54 L 511.22 232.71 L 511.70 232.41 L 512.25 232.37 L 512.55 232.85 L 513.20 232.83 L 513.05 233.31 L 513.53 233.39 L 513.40 233.68 L 513.58 234.02 L 514.21 233.88 L 515.35 234.44 L 515.58 235.07 L 515.42 235.27 L 515.70 236.18 L 516.27 236.75 L 516.66 236.89 L 517.38 236.83 L 518.03 237.02 L 518.15 236.63 L 519.09 236.76 L 519.50 237.00 L 519.61 236.90 L 521.12 236.68 L 521.19 236.41 L 521.67 236.64 L 522.34 236.50 L 522.68 236.98 L 522.91 237.04 L 523.33 236.81 L 523.86 237.06 L 524.25 236.47 L 524.66 236.55 L 524.75 236.35 L 525.17 236.15 Z M 570.31 201.87 L 570.23 202.18 L 570.68 202.41 L 570.68 202.11 L 570.31 201.87 Z M 569.93 201.49 L 570.34 201.72 L 570.26 201.45 L 569.93 201.49 Z M 573.01 217.77 L 572.89 217.61 L 572.60 217.75 L 573.01 217.77 Z M 570.53 199.77 L 570.91 199.68 L 570.45 199.26 L 570.53 199.77 Z M 572.27 197.74 L 572.23 197.45 L 572.03 197.56 L 572.27 197.74 Z M 564.40 224.49 L 564.51 224.74 L 564.75 224.57 L 564.53 224.28 L 564.40 224.49 Z M 569.25 201.89 L 569.30 201.52 L 568.99 201.54 L 569.25 201.89 Z M 571.06 198.38 L 571.54 198.15 L 571.21 198.03 L 571.06 198.38 Z M 578.19 205.71 L 578.19 205.70 L 578.19 205.69 L 578.18 205.70 L 578.19 205.71 Z M 578.15 205.69 L 578.17 205.70 L 578.17 205.69 L 578.15 205.69 Z M 578.17 205.69 L 578.17 205.70 L 578.18 205.70 L 578.18 205.69 L 578.18 205.69 L 578.17 205.69 Z M 516.06 223.13 L 515.98 223.29 L 516.24 223.19 L 516.16 223.10 L 516.06 223.13 Z">
      <title>山东省</title>
    </path>
  </g>
</svg>