<?xml version="1.0" encoding="UTF-8"?>
<svg xmlns="http://www.w3.org/2000/svg" viewBox="0 0 800 600" width="800" height="600">
  <title>河南省</title>
  <defs>
    <style>
      .region-path {
        fill: #e6f3ff;
        stroke: #2563eb;
        stroke-width: 1.5;
        stroke-linejoin: round;
        cursor: pointer;
        transition: all 0.2s ease;
      }
      .region-path:hover {
        fill: #bfdbfe;
        stroke: #1d4ed8;
        stroke-width: 2;
      }
      .region-label {
        fill: #1e40af;
        font-family: Arial, sans-serif;
        font-size: 24px;
        font-weight: bold;
        pointer-events: none;
      }
    </style>
  </defs>
  
  <g id="410000">
    <path id="410000-land" 
          class="region-path"
          data-region-id="410000"
          data-region-name="河南省"
          d="M 487.25 259.81 L 487.45 259.82 L 487.87 259.80 L 488.75 259.41 L 489.04 259.61 L 489.28 259.46 L 490.11 259.59 L 490.20 259.20 L 490.46 259.11 L 491.01 259.43 L 491.31 259.38 L 491.42 259.62 L 491.81 259.57 L 491.84 259.26 L 492.39 259.04 L 492.64 259.30 L 493.65 260.03 L 493.49 260.12 L 493.86 260.46 L 494.09 260.42 L 494.64 260.71 L 495.50 260.23 L 496.67 259.77 L 496.93 259.24 L 497.45 259.15 L 497.81 259.26 L 498.15 259.68 L 498.01 260.11 L 498.16 260.39 L 498.15 260.57 L 498.05 260.65 L 497.96 260.69 L 497.85 260.86 L 497.99 261.28 L 498.30 261.60 L 497.97 262.31 L 497.68 262.23 L 497.74 262.65 L 498.40 263.14 L 498.04 263.62 L 498.66 263.88 L 498.54 264.25 L 498.82 264.36 L 498.80 264.77 L 499.05 265.14 L 499.46 265.10 L 499.67 264.79 L 500.12 265.04 L 500.06 265.65 L 500.44 266.11 L 500.74 265.89 L 501.45 265.77 L 501.82 265.49 L 501.95 265.14 L 502.55 265.05 L 503.00 265.24 L 503.59 266.08 L 504.19 266.05 L 504.74 266.14 L 505.16 266.33 L 506.06 266.18 L 506.26 265.93 L 506.63 265.98 L 506.48 267.03 L 506.24 267.42 L 506.37 268.07 L 506.49 268.14 L 506.95 267.81 L 507.21 267.84 L 507.77 268.43 L 508.63 268.48 L 508.74 268.90 L 509.16 269.12 L 509.57 268.91 L 509.72 269.02 L 510.53 268.75 L 510.87 269.00 L 511.16 268.41 L 511.92 268.61 L 512.11 268.38 L 512.03 268.00 L 512.22 267.67 L 512.63 267.61 L 513.12 268.12 L 513.37 268.12 L 513.18 268.54 L 513.11 269.30 L 513.54 269.51 L 513.52 269.82 L 514.04 269.90 L 514.43 269.69 L 514.80 269.67 L 514.96 269.21 L 514.77 268.74 L 515.23 268.43 L 515.48 267.78 L 515.95 267.57 L 515.86 267.22 L 516.06 266.90 L 516.46 266.64 L 516.66 266.67 L 517.93 265.81 L 518.50 265.93 L 518.88 265.72 L 519.30 265.90 L 519.30 265.90 L 519.75 265.73 L 520.11 265.83 L 520.40 265.44 L 520.19 265.25 L 520.20 264.92 L 520.46 264.34 L 520.35 264.10 L 520.55 263.48 L 520.48 263.00 L 520.68 261.79 L 520.38 261.16 L 520.24 259.46 L 519.89 258.76 L 520.08 258.46 L 519.69 258.32 L 520.00 257.89 L 520.36 257.64 L 520.16 257.54 L 519.85 257.94 L 519.10 258.66 L 518.92 258.28 L 518.62 258.58 L 518.23 258.38 L 517.84 259.27 L 517.74 259.07 L 517.42 259.32 L 517.19 259.10 L 516.84 259.17 L 516.34 258.93 L 516.20 258.68 L 516.20 258.66 L 516.08 258.41 L 515.16 257.82 L 515.19 257.55 L 514.08 257.78 L 514.09 257.47 L 513.69 257.52 L 513.44 257.36 L 513.00 257.38 L 512.82 256.60 L 512.78 255.99 L 512.89 255.53 L 513.11 255.37 L 512.89 255.09 L 512.97 254.64 L 512.54 254.55 L 512.37 254.21 L 511.23 254.11 L 511.29 253.85 L 511.02 253.77 L 510.33 253.82 L 510.05 253.45 L 509.71 253.25 L 509.80 252.94 L 510.15 252.97 L 510.02 252.29 L 509.86 252.25 L 509.91 251.80 L 510.23 251.56 L 510.57 251.62 L 510.83 252.09 L 511.35 252.25 L 512.67 252.23 L 512.94 251.90 L 513.46 251.74 L 513.92 251.78 L 514.07 251.60 L 514.04 251.03 L 514.45 250.44 L 514.40 250.06 L 514.67 250.06 L 514.71 249.67 L 514.47 249.30 L 514.17 249.24 L 514.33 248.97 L 514.19 248.68 L 514.29 248.41 L 514.50 248.49 L 514.50 247.94 L 514.72 247.73 L 515.01 247.90 L 515.30 247.37 L 515.73 247.27 L 516.22 247.42 L 516.78 247.18 L 517.56 247.08 L 517.15 246.32 L 517.16 245.70 L 516.76 245.14 L 516.90 244.98 L 517.29 245.11 L 517.47 244.13 L 516.60 244.08 L 516.91 243.30 L 516.92 243.05 L 517.22 242.47 L 517.58 242.45 L 517.75 242.15 L 518.24 242.16 L 518.55 241.99 L 518.89 242.14 L 519.31 242.14 L 519.69 242.49 L 519.73 242.73 L 520.01 242.75 L 520.01 242.49 L 520.29 242.68 L 520.85 242.70 L 521.29 243.15 L 521.11 243.64 L 521.90 244.23 L 521.87 244.81 L 522.06 245.05 L 522.32 245.04 L 522.66 245.36 L 522.90 245.79 L 523.67 245.53 L 524.02 245.58 L 524.57 245.15 L 525.37 245.04 L 525.52 244.80 L 525.82 244.84 L 525.82 244.38 L 526.33 244.13 L 527.08 244.01 L 527.16 243.74 L 527.83 243.95 L 527.96 243.86 L 527.94 243.01 L 527.50 242.64 L 527.50 242.64 L 527.26 242.07 L 527.26 242.07 L 526.76 241.51 L 526.85 241.22 L 527.15 241.03 L 526.92 240.67 L 526.94 240.28 L 527.32 240.02 L 527.11 239.82 L 526.64 239.71 L 526.02 240.00 L 525.53 239.95 L 525.53 239.95 L 525.15 240.03 L 524.99 239.47 L 524.41 239.24 L 523.94 238.88 L 523.50 238.82 L 523.53 238.60 L 523.14 238.32 L 522.97 238.02 L 523.14 237.64 L 523.40 237.51 L 523.27 237.23 L 523.33 236.81 L 522.91 237.04 L 522.68 236.98 L 522.34 236.50 L 521.67 236.64 L 521.19 236.41 L 521.12 236.68 L 519.61 236.90 L 519.50 237.00 L 519.09 236.76 L 518.15 236.63 L 518.03 237.02 L 517.38 236.83 L 516.66 236.89 L 516.27 236.75 L 515.70 236.18 L 515.42 235.27 L 515.58 235.07 L 515.35 234.44 L 514.21 233.88 L 513.58 234.02 L 513.40 233.68 L 513.53 233.39 L 513.05 233.31 L 513.20 232.83 L 512.55 232.85 L 512.25 232.37 L 511.70 232.41 L 511.22 232.71 L 511.01 232.54 L 510.41 232.52 L 510.13 232.74 L 509.68 232.38 L 509.10 232.29 L 509.39 231.99 L 509.05 231.88 L 509.22 231.62 L 509.71 231.40 L 509.28 230.85 L 509.49 230.53 L 510.22 230.36 L 510.19 229.88 L 510.48 229.71 L 511.37 228.51 L 511.69 228.54 L 511.87 228.10 L 512.14 228.27 L 512.23 228.08 L 512.71 228.00 L 513.38 228.03 L 514.11 227.44 L 514.61 227.34 L 514.50 226.68 L 514.89 226.52 L 515.96 225.06 L 516.40 224.81 L 517.38 224.75 L 518.11 224.60 L 518.14 224.24 L 518.54 223.78 L 518.94 223.57 L 519.39 223.67 L 519.83 223.53 L 520.07 223.30 L 519.98 222.89 L 520.33 222.81 L 520.37 222.47 L 521.13 222.32 L 521.80 222.36 L 521.94 221.75 L 522.32 220.89 L 521.88 220.97 L 521.18 221.58 L 520.24 221.78 L 519.83 222.01 L 519.39 221.92 L 519.00 222.12 L 518.95 222.32 L 518.17 222.40 L 517.65 222.85 L 516.97 222.86 L 516.24 223.19 L 515.98 223.29 L 515.69 223.43 L 515.15 224.03 L 514.69 224.34 L 514.40 224.16 L 514.70 223.15 L 514.59 222.69 L 514.68 222.35 L 515.56 221.92 L 515.58 221.56 L 515.94 220.75 L 515.93 220.51 L 515.74 220.29 L 515.60 220.48 L 514.83 220.73 L 514.71 221.03 L 514.17 221.14 L 514.06 220.73 L 513.81 220.63 L 513.43 220.07 L 513.02 219.89 L 513.02 219.89 L 513.02 219.88 L 513.02 219.88 L 513.01 219.87 L 513.01 219.87 L 512.83 220.05 L 512.22 219.88 L 512.01 220.27 L 511.57 220.20 L 511.43 220.37 L 511.40 220.89 L 510.90 221.33 L 510.03 221.51 L 510.16 221.13 L 510.02 220.60 L 509.45 220.56 L 509.45 220.73 L 508.55 220.76 L 508.17 220.44 L 508.02 220.60 L 507.19 220.63 L 506.66 220.83 L 506.64 220.59 L 506.08 220.27 L 505.53 220.21 L 505.39 220.00 L 504.88 219.92 L 504.79 219.72 L 504.25 219.66 L 504.14 219.40 L 503.66 219.50 L 503.23 219.32 L 503.06 219.45 L 502.74 219.22 L 502.66 219.51 L 502.32 219.50 L 502.32 219.50 L 502.38 219.31 L 501.89 219.15 L 501.39 219.26 L 501.01 218.91 L 501.14 218.64 L 500.59 218.59 L 500.37 218.76 L 500.17 218.38 L 499.63 218.79 L 499.33 218.38 L 499.00 218.45 L 499.07 218.64 L 498.62 218.61 L 498.02 218.26 L 497.77 218.29 L 497.82 218.69 L 497.57 218.91 L 497.62 219.33 L 497.26 219.81 L 497.43 220.17 L 496.94 220.24 L 497.51 220.51 L 497.58 220.71 L 496.98 220.76 L 497.15 220.86 L 497.30 221.47 L 497.04 221.69 L 497.39 221.77 L 497.23 222.20 L 496.91 222.11 L 496.97 222.76 L 496.80 223.40 L 497.04 223.74 L 496.23 223.94 L 496.46 224.15 L 496.28 224.78 L 496.33 225.25 L 496.65 225.42 L 496.67 225.86 L 496.19 225.85 L 495.87 225.61 L 495.98 225.97 L 495.52 226.47 L 495.36 226.90 L 494.74 227.16 L 494.25 227.16 L 493.80 227.56 L 493.43 227.43 L 493.35 227.99 L 492.71 227.76 L 492.16 227.77 L 492.11 228.17 L 491.90 228.14 L 491.74 228.78 L 491.50 228.97 L 490.89 228.75 L 490.15 228.67 L 490.04 228.90 L 490.11 229.35 L 489.53 229.47 L 489.51 229.69 L 488.99 229.89 L 488.35 229.74 L 487.84 230.27 L 487.29 230.28 L 486.34 229.69 L 486.43 230.08 L 485.15 230.15 L 483.88 229.94 L 483.63 230.14 L 482.81 230.14 L 482.98 229.81 L 482.34 229.99 L 482.08 229.79 L 481.26 229.61 L 480.44 229.52 L 480.64 230.14 L 480.24 230.41 L 480.51 230.83 L 480.41 231.40 L 480.47 231.84 L 480.23 231.94 L 480.02 231.71 L 479.59 231.72 L 479.13 231.55 L 477.86 231.77 L 477.82 232.08 L 477.14 232.37 L 476.34 232.58 L 476.53 232.93 L 476.16 233.05 L 475.86 233.51 L 475.60 233.65 L 475.37 234.04 L 475.10 233.94 L 474.67 234.18 L 474.01 234.10 L 473.50 234.34 L 473.04 234.16 L 472.49 234.42 L 472.10 234.29 L 471.87 234.60 L 471.00 234.41 L 470.69 234.94 L 469.82 235.10 L 469.21 235.46 L 468.63 235.22 L 468.46 235.85 L 468.25 236.11 L 467.64 236.40 L 467.30 236.05 L 466.86 236.02 L 466.45 236.51 L 465.43 236.49 L 464.62 236.74 L 464.16 236.45 L 463.50 236.69 L 463.03 236.56 L 462.90 236.91 L 463.29 237.00 L 462.95 237.14 L 462.83 237.43 L 463.27 238.29 L 463.27 238.29 L 464.00 238.71 L 464.31 239.29 L 463.78 239.75 L 463.54 239.80 L 463.65 240.26 L 464.36 240.53 L 464.81 240.58 L 464.88 240.78 L 465.54 240.95 L 465.75 241.12 L 465.46 241.61 L 465.23 241.73 L 465.18 242.54 L 465.53 242.41 L 466.05 243.13 L 465.99 243.43 L 465.60 243.56 L 465.61 243.72 L 465.18 243.95 L 465.44 244.31 L 465.96 244.31 L 466.48 244.51 L 466.78 244.87 L 467.20 244.90 L 467.56 245.37 L 467.72 245.75 L 467.63 246.04 L 468.20 246.57 L 469.12 246.84 L 469.50 247.15 L 469.49 247.60 L 469.74 248.19 L 469.74 248.30 L 469.42 248.63 L 469.73 249.26 L 469.73 249.72 L 469.30 250.50 L 469.95 251.05 L 469.93 251.39 L 470.38 251.26 L 470.79 251.54 L 470.97 251.87 L 471.32 251.96 L 471.46 252.41 L 471.04 252.74 L 471.76 252.71 L 472.14 253.08 L 472.30 253.44 L 471.98 253.87 L 472.10 254.35 L 472.32 254.15 L 472.50 254.61 L 473.40 254.92 L 473.74 255.67 L 474.39 255.64 L 474.21 255.99 L 474.78 256.53 L 474.96 257.00 L 475.45 257.36 L 476.10 256.94 L 476.16 257.23 L 476.85 257.23 L 477.84 257.95 L 478.35 258.03 L 478.69 258.30 L 479.29 258.15 L 479.57 258.63 L 479.98 258.85 L 480.49 258.60 L 480.67 259.10 L 481.44 259.60 L 481.38 259.25 L 481.62 259.52 L 481.96 259.44 L 483.23 260.18 L 483.56 259.72 L 483.88 259.67 L 484.48 259.96 L 484.77 259.57 L 485.33 259.61 L 485.48 259.33 L 485.93 259.56 L 486.17 259.50 L 486.51 259.70 L 487.25 259.81 Z M 498.15 260.57 L 498.16 260.39 L 497.96 260.69 L 498.05 260.65 L 498.15 260.57 Z">
      <title>河南省</title>
    </path>
  </g>
</svg>