<?xml version="1.0" encoding="UTF-8"?>
<svg xmlns="http://www.w3.org/2000/svg" viewBox="0 0 800 600" width="800" height="600">
  <title>湖北省</title>
  <defs>
    <style>
      .region-path {
        fill: #e6f3ff;
        stroke: #2563eb;
        stroke-width: 1.5;
        stroke-linejoin: round;
        cursor: pointer;
        transition: all 0.2s ease;
      }
      .region-path:hover {
        fill: #bfdbfe;
        stroke: #1d4ed8;
        stroke-width: 2;
      }
      .region-label {
        fill: #1e40af;
        font-family: Arial, sans-serif;
        font-size: 24px;
        font-weight: bold;
        pointer-events: none;
      }
    </style>
  </defs>
  
  <g id="420000">
    <path id="420000-land" 
          class="region-path"
          data-region-id="420000"
          data-region-name="湖北省"
          d="M 469.93 251.39 L 469.81 251.31 L 469.83 251.20 L 469.95 251.05 L 469.30 250.50 L 469.05 250.52 L 468.65 251.04 L 468.06 250.93 L 467.69 251.06 L 467.64 251.51 L 466.90 251.59 L 466.38 252.14 L 465.84 251.52 L 465.56 251.66 L 465.25 251.40 L 465.08 250.55 L 464.70 250.50 L 463.98 251.37 L 463.22 251.32 L 463.22 251.32 L 462.95 251.22 L 462.60 251.49 L 462.05 251.37 L 461.36 251.46 L 460.80 250.98 L 459.42 251.16 L 459.09 250.95 L 458.82 251.04 L 458.23 250.77 L 457.56 250.58 L 457.16 250.70 L 456.32 250.75 L 455.91 250.51 L 455.47 250.54 L 455.15 250.29 L 455.02 250.70 L 454.06 250.68 L 453.90 251.00 L 453.28 251.57 L 453.58 251.70 L 454.14 251.71 L 454.70 252.01 L 455.86 251.94 L 456.03 252.10 L 456.97 252.45 L 456.87 253.28 L 456.65 254.09 L 456.92 254.37 L 457.52 254.25 L 457.61 254.08 L 458.13 254.15 L 458.34 254.32 L 458.98 254.33 L 459.63 254.69 L 460.18 254.89 L 460.57 255.19 L 460.41 255.45 L 460.75 255.56 L 460.72 256.43 L 461.23 256.95 L 460.69 257.36 L 460.38 257.12 L 460.03 257.12 L 459.97 257.50 L 459.28 257.85 L 458.79 257.53 L 458.17 257.37 L 457.20 257.53 L 456.46 257.35 L 456.26 257.21 L 455.27 257.30 L 455.15 257.63 L 455.33 257.91 L 454.69 258.26 L 454.19 259.02 L 454.22 259.31 L 453.94 259.48 L 454.05 259.97 L 453.86 260.40 L 454.21 260.72 L 454.43 261.18 L 454.87 261.24 L 454.99 261.45 L 454.81 261.84 L 455.17 262.41 L 454.85 263.02 L 454.85 263.38 L 455.27 263.90 L 455.16 264.26 L 454.79 264.55 L 454.99 264.70 L 455.30 265.33 L 455.30 265.54 L 454.87 265.70 L 454.80 266.35 L 455.18 266.50 L 455.81 266.42 L 456.31 266.62 L 456.37 267.36 L 456.65 267.63 L 456.46 267.68 L 456.27 268.20 L 457.41 268.12 L 458.00 268.50 L 458.78 268.61 L 458.52 269.00 L 458.96 268.96 L 459.48 269.35 L 459.65 269.62 L 460.32 269.63 L 460.77 270.62 L 460.71 270.98 L 460.96 272.02 L 461.17 272.24 L 460.96 272.62 L 460.62 272.67 L 460.34 272.96 L 460.34 273.55 L 460.55 273.56 L 460.55 274.02 L 460.89 274.10 L 460.69 274.36 L 460.67 274.80 L 459.95 275.96 L 459.60 275.95 L 459.30 275.65 L 459.18 275.09 L 458.51 275.14 L 458.00 274.92 L 457.32 275.29 L 456.82 275.45 L 456.00 276.12 L 455.54 276.36 L 455.58 276.59 L 455.21 276.96 L 454.85 277.06 L 454.68 277.54 L 454.36 277.62 L 454.28 277.36 L 453.24 278.07 L 453.07 278.44 L 452.41 279.20 L 452.22 278.84 L 452.47 278.54 L 451.99 278.03 L 451.83 277.71 L 451.27 278.23 L 450.72 278.59 L 450.72 278.59 L 450.22 278.84 L 449.80 278.38 L 449.69 278.25 L 449.83 277.92 L 449.89 277.55 L 449.46 277.61 L 449.17 277.45 L 448.79 277.75 L 448.44 277.74 L 447.63 278.39 L 447.06 279.03 L 446.74 279.15 L 446.55 278.93 L 446.07 279.12 L 445.61 278.60 L 445.50 278.16 L 445.03 278.25 L 445.10 278.66 L 444.25 279.39 L 444.13 279.19 L 443.68 279.05 L 443.26 279.20 L 442.79 279.14 L 442.63 279.70 L 442.82 279.93 L 442.53 280.34 L 442.83 280.57 L 443.14 280.52 L 443.56 280.98 L 443.79 281.04 L 444.01 281.45 L 444.40 281.60 L 444.08 282.55 L 444.25 282.61 L 444.02 283.17 L 443.69 283.65 L 443.88 283.71 L 443.92 284.42 L 443.73 284.87 L 443.71 285.43 L 443.21 285.65 L 442.86 285.49 L 442.21 285.89 L 442.76 286.15 L 442.74 286.60 L 442.95 286.54 L 442.89 286.93 L 443.14 286.93 L 443.59 287.28 L 443.60 287.06 L 444.05 286.84 L 443.81 286.62 L 444.13 286.13 L 444.59 285.66 L 445.19 285.75 L 445.42 286.32 L 445.38 286.84 L 445.53 287.46 L 446.16 287.88 L 446.51 287.44 L 446.63 287.77 L 446.46 288.02 L 447.11 287.79 L 447.57 288.09 L 447.38 288.43 L 447.70 288.34 L 447.83 288.66 L 447.47 289.02 L 447.57 289.41 L 447.34 289.73 L 447.53 290.04 L 447.98 290.10 L 448.05 290.47 L 447.89 291.23 L 448.56 291.16 L 448.72 290.84 L 449.09 290.88 L 449.36 290.43 L 449.89 290.87 L 449.83 291.62 L 450.20 291.81 L 449.87 292.37 L 450.17 292.86 L 450.42 292.74 L 450.96 293.10 L 451.14 293.38 L 451.57 293.35 L 451.44 292.94 L 451.58 292.51 L 451.40 292.30 L 451.97 292.01 L 452.38 291.66 L 452.29 290.78 L 452.78 290.76 L 452.55 290.32 L 453.07 289.91 L 453.04 289.45 L 453.25 289.55 L 453.22 289.11 L 453.48 289.29 L 453.57 288.81 L 453.79 288.88 L 454.08 288.12 L 454.52 288.32 L 454.73 288.08 L 455.49 288.13 L 455.62 288.40 L 456.17 288.23 L 456.00 288.02 L 456.14 287.63 L 456.61 287.47 L 456.56 287.01 L 456.81 286.76 L 457.75 286.58 L 458.14 286.69 L 458.49 286.59 L 459.34 286.63 L 460.27 286.42 L 460.76 286.80 L 461.37 286.87 L 462.10 287.39 L 462.23 287.75 L 462.61 287.68 L 462.95 288.05 L 463.73 287.72 L 463.94 287.22 L 464.35 287.44 L 464.93 287.23 L 465.76 286.57 L 465.32 285.91 L 464.79 285.82 L 464.68 285.33 L 464.26 285.15 L 464.46 284.65 L 464.87 284.37 L 464.19 284.04 L 464.25 283.67 L 464.60 283.61 L 465.32 283.68 L 465.84 283.44 L 466.48 283.90 L 466.93 283.68 L 466.84 283.08 L 467.92 282.94 L 468.68 283.09 L 468.73 283.59 L 469.79 283.74 L 471.97 283.83 L 472.23 284.13 L 472.90 284.55 L 473.01 284.82 L 473.43 284.76 L 473.55 285.15 L 473.99 284.97 L 474.39 285.09 L 474.93 285.01 L 475.20 285.34 L 476.39 285.40 L 476.39 285.40 L 476.77 285.39 L 476.96 285.19 L 476.96 285.19 L 477.31 285.07 L 477.86 285.27 L 478.39 285.73 L 478.78 285.74 L 478.78 285.74 L 479.06 285.94 L 479.47 285.98 L 479.36 286.35 L 479.91 286.54 L 480.61 286.90 L 480.51 287.55 L 480.76 287.51 L 480.98 287.78 L 481.67 287.80 L 481.92 288.04 L 482.36 287.78 L 482.25 288.22 L 482.97 288.54 L 482.74 289.05 L 482.84 289.25 L 483.28 288.96 L 483.65 289.00 L 484.23 288.41 L 484.38 288.04 L 485.00 288.09 L 485.44 288.38 L 485.75 288.14 L 486.46 288.31 L 486.57 288.47 L 487.02 288.37 L 487.23 287.89 L 487.43 287.92 L 488.00 287.55 L 488.05 286.98 L 488.75 286.49 L 489.09 286.49 L 489.18 286.41 L 489.46 286.59 L 489.40 286.67 L 489.43 287.44 L 489.62 287.53 L 489.93 287.02 L 490.46 286.60 L 490.24 287.42 L 489.32 288.18 L 489.28 288.32 L 489.67 289.71 L 490.55 289.18 L 490.79 289.19 L 491.00 290.07 L 491.23 289.85 L 491.70 289.96 L 492.07 289.58 L 492.50 288.97 L 493.06 288.44 L 494.11 287.32 L 496.12 285.81 L 496.15 286.22 L 495.90 286.65 L 495.98 287.08 L 495.79 287.36 L 495.86 287.61 L 496.47 287.70 L 497.07 287.52 L 497.25 287.94 L 497.49 288.04 L 497.85 288.61 L 497.55 288.85 L 496.73 289.19 L 497.21 289.29 L 498.02 289.98 L 497.77 290.53 L 497.18 290.59 L 497.04 291.16 L 496.74 291.33 L 496.51 292.01 L 496.95 292.27 L 497.37 292.27 L 497.36 292.57 L 497.06 292.86 L 497.35 293.42 L 497.41 293.81 L 497.68 293.53 L 497.96 293.98 L 498.23 293.63 L 498.65 293.52 L 499.03 294.00 L 499.33 293.93 L 499.28 294.22 L 499.50 294.31 L 499.95 294.12 L 500.06 293.65 L 500.43 293.31 L 500.92 293.03 L 501.21 292.49 L 502.32 292.36 L 503.17 292.18 L 503.24 291.05 L 503.74 290.83 L 504.10 291.22 L 504.45 291.26 L 505.12 291.07 L 505.39 291.25 L 505.94 291.24 L 506.67 290.96 L 507.00 290.68 L 507.53 290.51 L 508.23 290.60 L 508.43 290.85 L 508.69 290.61 L 508.97 290.64 L 509.54 290.42 L 509.84 290.49 L 510.21 290.23 L 510.37 289.79 L 510.26 289.57 L 509.94 289.71 L 510.07 289.90 L 509.77 290.09 L 509.47 289.68 L 509.89 289.37 L 510.30 289.49 L 510.58 289.20 L 510.38 288.98 L 510.93 288.68 L 511.27 288.95 L 511.83 288.81 L 511.82 289.16 L 512.52 289.32 L 512.55 288.55 L 512.17 288.42 L 512.41 287.92 L 512.14 287.81 L 512.10 287.51 L 512.75 287.82 L 513.52 287.77 L 513.88 288.20 L 514.08 288.01 L 514.61 287.88 L 515.20 287.47 L 515.80 286.95 L 515.89 286.20 L 516.23 285.90 L 517.26 285.89 L 517.84 285.80 L 518.25 285.93 L 518.83 286.39 L 519.60 286.85 L 520.35 287.11 L 520.93 287.10 L 521.80 286.71 L 522.19 286.37 L 522.69 286.12 L 522.62 285.30 L 522.05 284.56 L 522.24 283.87 L 522.10 283.60 L 522.20 283.10 L 521.87 282.37 L 521.97 282.13 L 521.27 281.63 L 521.14 281.23 L 520.28 281.00 L 520.41 280.74 L 520.10 280.31 L 520.47 279.93 L 520.20 279.56 L 520.36 278.87 L 520.12 278.62 L 520.01 278.21 L 519.72 278.01 L 519.41 278.05 L 519.36 277.64 L 518.83 277.14 L 519.04 276.45 L 519.75 276.40 L 519.87 275.79 L 519.72 275.66 L 519.89 275.29 L 520.59 275.03 L 521.04 274.59 L 521.70 274.32 L 522.03 274.33 L 521.90 273.75 L 521.44 273.76 L 521.35 273.52 L 520.65 273.39 L 520.66 273.14 L 520.12 272.75 L 519.91 272.35 L 519.61 272.56 L 519.19 272.55 L 518.99 272.72 L 518.19 271.79 L 517.72 271.69 L 517.18 272.08 L 516.99 272.39 L 516.52 271.86 L 516.51 271.48 L 516.18 271.11 L 515.83 271.13 L 515.52 270.31 L 515.14 270.38 L 514.78 270.26 L 515.00 269.84 L 514.80 269.67 L 514.43 269.69 L 514.04 269.90 L 513.52 269.82 L 513.54 269.51 L 513.11 269.30 L 513.18 268.54 L 513.37 268.12 L 513.12 268.12 L 512.63 267.61 L 512.22 267.67 L 512.03 268.00 L 512.11 268.38 L 511.92 268.61 L 511.16 268.41 L 510.87 269.00 L 510.53 268.75 L 509.72 269.02 L 509.57 268.91 L 509.16 269.12 L 508.74 268.90 L 508.63 268.48 L 507.77 268.43 L 507.21 267.84 L 506.95 267.81 L 506.49 268.14 L 506.37 268.07 L 506.24 267.42 L 506.48 267.03 L 506.63 265.98 L 506.26 265.93 L 506.06 266.18 L 505.16 266.33 L 504.74 266.14 L 504.19 266.05 L 503.59 266.08 L 503.00 265.24 L 502.55 265.05 L 501.95 265.14 L 501.82 265.49 L 501.45 265.77 L 500.74 265.89 L 500.44 266.11 L 500.06 265.65 L 500.12 265.04 L 499.67 264.79 L 499.46 265.10 L 499.05 265.14 L 498.80 264.77 L 498.82 264.36 L 498.54 264.25 L 498.66 263.88 L 498.04 263.62 L 498.40 263.14 L 497.74 262.65 L 497.68 262.23 L 497.97 262.31 L 498.30 261.60 L 497.99 261.28 L 497.85 260.86 L 497.96 260.69 L 498.16 260.39 L 498.01 260.11 L 498.15 259.68 L 497.81 259.26 L 497.45 259.15 L 496.93 259.24 L 496.67 259.77 L 495.50 260.23 L 494.64 260.71 L 494.09 260.42 L 493.86 260.46 L 493.49 260.12 L 493.65 260.03 L 492.64 259.30 L 492.39 259.04 L 491.84 259.26 L 491.81 259.57 L 491.42 259.62 L 491.31 259.38 L 491.01 259.43 L 490.46 259.11 L 490.20 259.20 L 490.11 259.59 L 489.28 259.46 L 489.04 259.61 L 488.75 259.41 L 487.87 259.80 L 487.45 259.82 L 487.43 259.82 L 487.33 259.80 L 487.25 259.81 L 486.51 259.70 L 486.17 259.50 L 485.93 259.56 L 485.48 259.33 L 485.33 259.61 L 484.77 259.57 L 484.48 259.96 L 483.88 259.67 L 483.56 259.72 L 483.23 260.18 L 481.96 259.44 L 481.62 259.52 L 481.38 259.25 L 481.44 259.60 L 480.67 259.10 L 480.49 258.60 L 479.98 258.85 L 479.57 258.63 L 479.29 258.15 L 478.69 258.30 L 478.35 258.03 L 477.84 257.95 L 476.85 257.23 L 476.16 257.23 L 476.10 256.94 L 475.45 257.36 L 474.96 257.00 L 474.78 256.53 L 474.21 255.99 L 474.39 255.64 L 473.74 255.67 L 473.40 254.92 L 472.50 254.61 L 472.32 254.15 L 472.10 254.35 L 471.98 253.87 L 472.30 253.44 L 472.14 253.08 L 471.76 252.71 L 471.04 252.74 L 471.46 252.41 L 471.32 251.96 L 470.97 251.87 L 470.79 251.54 L 470.38 251.26 L 469.93 251.39 Z M 449.83 278.33 L 449.78 278.24 L 449.75 278.24 L 449.83 278.33 Z M 469.95 251.05 L 469.83 251.20 L 469.81 251.31 L 469.93 251.39 L 469.95 251.05 Z M 487.25 259.81 L 487.45 259.82 L 487.43 259.82 L 487.33 259.80 L 487.25 259.81 Z M 489.18 286.41 L 489.09 286.49 L 489.40 286.67 L 489.46 286.59 L 489.18 286.41 Z">
      <title>湖北省</title>
    </path>
  </g>
</svg>