<?xml version="1.0" encoding="UTF-8"?>
<svg xmlns="http://www.w3.org/2000/svg" viewBox="0 0 800 600" width="800" height="600">
  <title>湖南省</title>
  <defs>
    <style>
      .region-path {
        fill: #e6f3ff;
        stroke: #2563eb;
        stroke-width: 1.5;
        stroke-linejoin: round;
        cursor: pointer;
        transition: all 0.2s ease;
      }
      .region-path:hover {
        fill: #bfdbfe;
        stroke: #1d4ed8;
        stroke-width: 2;
      }
      .region-label {
        fill: #1e40af;
        font-family: Arial, sans-serif;
        font-size: 24px;
        font-weight: bold;
        pointer-events: none;
      }
    </style>
  </defs>
  
  <g id="430000">
    <path id="430000-land" 
          class="region-path"
          data-region-id="430000"
          data-region-name="湖南省"
          d="M 480.08 338.77 L 480.17 338.45 L 481.11 337.72 L 481.37 337.76 L 481.56 337.53 L 481.64 336.82 L 481.07 336.45 L 481.09 336.18 L 481.44 335.80 L 481.40 335.50 L 481.66 334.97 L 481.76 334.18 L 482.38 334.15 L 482.48 334.42 L 482.96 334.45 L 483.10 334.26 L 483.61 334.09 L 484.13 334.60 L 484.42 334.15 L 484.57 334.50 L 485.66 334.78 L 486.34 334.62 L 486.67 334.70 L 487.21 335.21 L 487.24 335.81 L 487.52 336.09 L 487.53 336.49 L 487.89 336.62 L 487.92 337.14 L 488.88 337.14 L 489.20 336.89 L 489.58 336.95 L 490.13 336.83 L 490.29 336.31 L 489.97 335.72 L 490.24 335.15 L 489.86 334.60 L 489.92 334.33 L 490.55 334.02 L 490.11 333.51 L 489.76 333.44 L 489.13 333.60 L 488.81 333.49 L 488.68 332.57 L 489.06 332.55 L 489.41 333.00 L 489.51 332.70 L 489.88 332.44 L 490.33 332.42 L 491.00 332.11 L 491.19 331.80 L 491.55 331.78 L 491.42 331.46 L 492.02 331.19 L 492.53 330.79 L 492.77 330.75 L 493.42 330.99 L 493.45 331.49 L 493.73 331.42 L 494.06 331.90 L 494.41 331.91 L 494.85 332.35 L 495.17 332.19 L 495.75 332.25 L 496.19 332.51 L 496.25 332.90 L 496.53 332.68 L 497.24 332.61 L 497.31 332.43 L 498.00 332.31 L 498.11 332.62 L 498.64 332.67 L 498.89 332.31 L 499.28 332.13 L 499.39 331.55 L 499.99 331.50 L 500.17 330.60 L 500.41 330.59 L 500.38 329.86 L 500.11 329.73 L 499.66 328.81 L 499.73 328.39 L 500.16 328.02 L 500.26 327.41 L 500.85 326.82 L 500.85 325.90 L 500.64 325.54 L 501.01 324.92 L 501.47 325.02 L 501.81 324.82 L 501.65 324.70 L 502.51 324.45 L 503.02 324.13 L 502.80 323.60 L 502.44 323.48 L 501.62 323.76 L 501.47 323.96 L 500.69 323.80 L 500.17 324.15 L 500.03 323.71 L 500.27 323.57 L 500.34 323.24 L 500.86 322.95 L 500.78 322.72 L 501.05 322.21 L 500.87 321.80 L 501.20 321.50 L 501.44 321.50 L 501.49 320.98 L 501.70 320.70 L 501.31 320.73 L 501.68 319.81 L 500.76 319.62 L 500.52 319.33 L 499.65 319.35 L 499.11 318.82 L 499.04 317.73 L 498.86 317.35 L 499.28 316.80 L 499.42 316.43 L 499.80 315.87 L 499.44 315.71 L 499.14 315.15 L 498.73 314.97 L 498.52 314.31 L 498.19 314.34 L 498.27 313.92 L 498.97 313.04 L 499.24 312.34 L 499.05 312.18 L 499.24 311.75 L 499.24 311.35 L 497.74 311.71 L 497.44 311.90 L 497.01 311.74 L 496.58 311.76 L 496.47 311.31 L 496.74 311.14 L 496.38 310.90 L 496.32 310.49 L 496.69 310.16 L 496.24 309.90 L 496.19 309.69 L 496.50 309.28 L 496.49 308.86 L 496.95 308.46 L 497.41 307.88 L 497.44 307.66 L 498.10 307.06 L 498.03 306.43 L 497.74 306.27 L 497.99 305.67 L 498.72 305.16 L 498.95 305.27 L 499.15 304.93 L 499.67 305.07 L 499.90 304.78 L 500.21 304.79 L 500.25 304.55 L 500.82 304.65 L 501.05 304.38 L 500.82 304.14 L 500.48 303.31 L 500.68 303.16 L 501.27 303.20 L 501.67 303.08 L 501.69 302.85 L 502.05 302.42 L 502.44 302.39 L 502.61 301.96 L 503.18 301.67 L 503.17 300.88 L 502.78 300.80 L 502.34 300.49 L 502.81 300.14 L 502.82 299.95 L 502.16 299.72 L 501.99 299.45 L 501.45 299.19 L 501.93 298.68 L 501.82 298.51 L 502.19 297.08 L 501.98 296.89 L 502.15 296.38 L 501.85 296.24 L 501.35 296.33 L 501.14 295.94 L 501.18 295.62 L 500.85 295.74 L 500.61 295.46 L 500.65 295.07 L 500.29 295.26 L 500.09 294.83 L 500.16 294.62 L 499.95 294.12 L 499.50 294.31 L 499.28 294.22 L 499.33 293.93 L 499.03 294.00 L 498.65 293.52 L 498.23 293.63 L 497.96 293.98 L 497.68 293.53 L 497.41 293.81 L 497.35 293.42 L 497.06 292.86 L 497.36 292.57 L 497.37 292.27 L 496.95 292.27 L 496.51 292.01 L 496.74 291.33 L 497.04 291.16 L 497.18 290.59 L 497.77 290.53 L 498.02 289.98 L 497.21 289.29 L 496.73 289.19 L 497.55 288.85 L 497.85 288.61 L 497.49 288.04 L 497.25 287.94 L 497.07 287.52 L 496.47 287.70 L 495.86 287.61 L 495.79 287.36 L 495.98 287.08 L 495.90 286.65 L 496.15 286.22 L 496.12 285.81 L 494.11 287.32 L 493.06 288.44 L 492.50 288.97 L 492.07 289.58 L 491.70 289.96 L 491.23 289.85 L 491.00 290.07 L 490.79 289.19 L 490.55 289.18 L 489.67 289.71 L 489.28 288.32 L 489.32 288.18 L 490.24 287.42 L 490.46 286.60 L 489.93 287.02 L 489.62 287.53 L 489.43 287.44 L 489.40 286.67 L 489.09 286.49 L 488.75 286.49 L 488.05 286.98 L 488.00 287.55 L 487.43 287.92 L 487.23 287.89 L 487.02 288.37 L 486.57 288.47 L 486.46 288.31 L 485.75 288.14 L 485.44 288.38 L 485.00 288.09 L 484.38 288.04 L 484.23 288.41 L 483.65 289.00 L 483.28 288.96 L 482.84 289.25 L 482.74 289.05 L 482.97 288.54 L 482.25 288.22 L 482.36 287.78 L 481.92 288.04 L 481.67 287.80 L 480.98 287.78 L 480.76 287.51 L 480.51 287.55 L 480.61 286.90 L 479.91 286.54 L 479.36 286.35 L 479.47 285.98 L 479.06 285.94 L 478.78 285.74 L 478.78 285.74 L 478.39 285.73 L 477.86 285.27 L 477.31 285.07 L 476.96 285.19 L 476.96 285.19 L 476.77 285.39 L 476.39 285.40 L 476.39 285.40 L 475.20 285.34 L 474.93 285.01 L 474.39 285.09 L 473.99 284.97 L 473.55 285.15 L 473.43 284.76 L 473.01 284.82 L 472.90 284.55 L 472.23 284.13 L 471.97 283.83 L 469.79 283.74 L 468.73 283.59 L 468.68 283.09 L 467.92 282.94 L 466.84 283.08 L 466.93 283.68 L 466.48 283.90 L 465.84 283.44 L 465.32 283.68 L 464.60 283.61 L 464.25 283.67 L 464.19 284.04 L 464.87 284.37 L 464.46 284.65 L 464.26 285.15 L 464.68 285.33 L 464.79 285.82 L 465.32 285.91 L 465.76 286.57 L 464.93 287.23 L 464.35 287.44 L 463.94 287.22 L 463.73 287.72 L 462.95 288.05 L 462.61 287.68 L 462.23 287.75 L 462.10 287.39 L 461.37 286.87 L 460.76 286.80 L 460.27 286.42 L 459.34 286.63 L 458.49 286.59 L 458.14 286.69 L 457.75 286.58 L 456.81 286.76 L 456.56 287.01 L 456.61 287.47 L 456.14 287.63 L 456.00 288.02 L 456.17 288.23 L 455.62 288.40 L 455.49 288.13 L 454.73 288.08 L 454.52 288.32 L 454.08 288.12 L 453.79 288.88 L 453.57 288.81 L 453.48 289.29 L 453.22 289.11 L 453.25 289.55 L 453.04 289.45 L 453.07 289.91 L 452.55 290.32 L 452.78 290.76 L 452.29 290.78 L 452.38 291.66 L 451.97 292.01 L 451.40 292.30 L 451.58 292.51 L 451.44 292.94 L 451.57 293.35 L 451.14 293.38 L 451.22 293.72 L 451.97 293.92 L 452.04 294.17 L 451.78 294.45 L 451.76 294.74 L 451.44 295.11 L 451.17 295.83 L 451.28 296.67 L 451.23 296.93 L 451.83 297.23 L 451.78 297.49 L 451.35 297.81 L 451.54 298.01 L 450.73 298.38 L 450.82 298.78 L 451.17 298.55 L 451.34 298.69 L 451.91 298.54 L 452.04 298.97 L 451.56 299.40 L 451.57 299.85 L 451.43 300.16 L 451.47 300.91 L 451.72 301.10 L 451.51 301.48 L 451.58 301.73 L 452.02 302.10 L 452.20 301.93 L 452.75 302.20 L 452.54 302.34 L 452.25 303.01 L 452.24 303.51 L 451.99 303.90 L 451.82 304.60 L 452.21 304.32 L 452.66 304.62 L 452.48 304.90 L 452.04 305.10 L 451.86 305.43 L 452.06 306.35 L 452.32 306.65 L 452.18 307.23 L 452.64 307.71 L 452.53 307.86 L 453.02 307.83 L 453.61 308.29 L 453.46 308.36 L 453.60 308.83 L 453.40 309.27 L 453.51 309.46 L 452.92 309.64 L 451.87 310.41 L 451.84 310.95 L 451.27 311.01 L 450.82 310.68 L 450.46 311.01 L 450.20 310.70 L 450.20 311.01 L 449.80 311.85 L 449.19 311.91 L 449.29 312.30 L 448.56 312.57 L 448.35 312.90 L 447.77 313.22 L 447.97 313.68 L 447.47 314.24 L 446.56 314.47 L 447.46 315.18 L 448.14 315.17 L 448.14 315.17 L 448.11 314.88 L 448.81 314.51 L 449.07 314.26 L 450.06 314.07 L 449.78 314.63 L 450.45 314.65 L 450.98 314.15 L 451.21 313.80 L 451.47 313.98 L 452.20 313.90 L 452.45 313.76 L 453.03 313.75 L 453.30 314.12 L 453.63 313.94 L 453.44 314.62 L 453.77 314.78 L 453.89 314.52 L 454.12 314.73 L 454.48 315.89 L 453.25 316.46 L 453.42 316.77 L 453.77 316.43 L 454.01 316.61 L 454.05 317.00 L 453.88 317.26 L 454.14 317.94 L 454.21 318.00 L 454.48 318.09 L 454.92 317.87 L 454.62 318.18 L 454.21 318.00 L 454.14 317.94 L 453.77 317.83 L 453.37 317.83 L 452.95 318.25 L 452.41 318.52 L 451.67 318.47 L 451.90 318.86 L 452.19 319.01 L 452.41 318.88 L 452.78 319.50 L 452.95 320.18 L 452.68 320.33 L 452.73 320.59 L 452.48 320.82 L 452.68 321.00 L 452.04 321.37 L 451.79 322.08 L 451.54 322.31 L 451.69 322.64 L 452.10 322.70 L 452.37 322.97 L 452.56 322.83 L 453.31 322.71 L 453.57 322.45 L 453.28 323.23 L 453.67 324.17 L 454.05 324.38 L 453.94 324.71 L 453.39 324.65 L 453.42 325.13 L 453.73 325.40 L 454.05 325.73 L 454.53 325.49 L 454.83 325.51 L 455.31 325.22 L 455.46 325.53 L 456.30 325.81 L 456.10 326.18 L 455.92 326.13 L 455.77 326.52 L 455.83 326.95 L 456.69 326.84 L 456.81 327.10 L 457.14 326.98 L 457.29 326.63 L 457.09 325.98 L 456.84 325.74 L 457.17 325.28 L 457.69 325.42 L 458.05 324.72 L 458.10 324.30 L 458.79 323.68 L 459.41 323.99 L 460.12 323.96 L 460.14 324.34 L 459.77 325.19 L 460.14 325.50 L 460.84 325.41 L 460.98 325.08 L 461.68 325.60 L 461.76 326.11 L 462.47 325.96 L 462.96 324.79 L 463.63 324.11 L 464.05 323.85 L 464.23 323.99 L 464.76 323.29 L 464.83 322.77 L 465.15 322.63 L 465.44 322.25 L 465.76 322.51 L 466.08 322.42 L 466.57 322.66 L 466.79 322.45 L 466.72 322.90 L 466.96 323.13 L 467.76 323.06 L 468.84 322.74 L 468.69 322.39 L 468.88 322.32 L 468.89 321.84 L 469.19 321.71 L 469.55 321.99 L 469.54 322.22 L 470.40 322.52 L 471.63 322.56 L 471.58 322.84 L 471.82 323.00 L 472.34 322.89 L 472.50 323.41 L 472.28 323.46 L 472.31 323.81 L 472.14 324.14 L 472.22 324.71 L 472.00 324.90 L 472.23 325.10 L 471.90 325.21 L 471.43 326.19 L 471.85 326.58 L 472.07 327.11 L 472.49 327.22 L 472.54 327.01 L 473.05 326.68 L 473.36 326.68 L 473.43 326.93 L 474.23 326.90 L 474.50 327.17 L 473.95 327.30 L 474.04 328.07 L 473.60 328.36 L 472.66 328.61 L 472.67 329.39 L 473.02 329.83 L 472.83 330.23 L 472.86 330.67 L 472.35 331.69 L 471.64 332.31 L 471.38 332.27 L 470.90 332.93 L 470.53 333.12 L 470.63 333.82 L 469.45 334.40 L 469.29 335.02 L 468.96 335.62 L 469.14 336.33 L 469.56 336.89 L 470.50 336.64 L 470.51 335.71 L 470.91 335.64 L 471.54 335.30 L 471.76 334.97 L 472.31 334.51 L 472.79 334.99 L 473.27 334.95 L 473.35 334.74 L 473.97 335.10 L 473.78 335.58 L 474.31 335.85 L 474.23 336.15 L 473.95 336.28 L 473.97 336.58 L 474.33 336.81 L 474.10 337.18 L 474.12 337.56 L 474.43 338.17 L 474.24 338.88 L 473.93 339.31 L 474.14 339.54 L 474.63 339.52 L 474.92 339.83 L 475.37 339.76 L 475.56 339.28 L 476.11 339.34 L 476.07 339.03 L 476.37 338.55 L 476.80 338.26 L 477.58 338.29 L 477.90 338.46 L 478.46 338.44 L 478.53 338.60 L 479.10 338.60 L 479.32 338.46 L 480.08 338.77 Z M 454.21 318.00 L 454.14 317.94 L 454.14 317.94 L 454.21 318.00 Z">
      <title>湖南省</title>
    </path>
  </g>
</svg>