<?xml version="1.0" encoding="UTF-8"?>
<svg xmlns="http://www.w3.org/2000/svg" viewBox="0 0 800 600" width="800" height="600">
  <title>广东省</title>
  <defs>
    <style>
      .region-path {
        fill: #e6f3ff;
        stroke: #2563eb;
        stroke-width: 1.5;
        stroke-linejoin: round;
        cursor: pointer;
        transition: all 0.2s ease;
      }
      .region-path:hover {
        fill: #bfdbfe;
        stroke: #1d4ed8;
        stroke-width: 2;
      }
      .region-label {
        fill: #1e40af;
        font-family: Arial, sans-serif;
        font-size: 24px;
        font-weight: bold;
        pointer-events: none;
      }
    </style>
  </defs>
  
  <g id="440000">
    <path id="440000-land" 
          class="region-path"
          data-region-id="440000"
          data-region-name="广东省"
          d="M 495.98 364.97 L 496.35 364.80 L 496.37 364.02 L 496.60 363.90 L 496.46 363.65 L 496.70 363.55 L 497.13 362.85 L 497.09 362.62 L 496.67 362.58 L 496.50 362.93 L 496.14 362.91 L 496.74 362.24 L 497.12 362.19 L 497.36 361.83 L 497.87 361.63 L 497.62 360.48 L 497.22 359.65 L 497.80 359.54 L 498.05 360.09 L 498.13 360.27 L 498.52 361.02 L 499.07 361.58 L 499.21 362.41 L 499.46 362.58 L 500.07 362.13 L 500.09 362.08 L 500.31 361.88 L 500.89 361.95 L 501.41 361.86 L 501.54 361.63 L 502.18 361.54 L 502.28 361.37 L 502.86 361.44 L 502.97 361.58 L 503.61 361.33 L 503.89 361.08 L 504.51 360.93 L 504.98 361.07 L 505.45 361.76 L 505.50 362.41 L 505.81 362.62 L 506.25 362.34 L 506.89 362.18 L 507.07 361.84 L 506.93 361.52 L 506.45 361.36 L 506.35 361.12 L 506.81 360.55 L 506.57 360.32 L 505.90 360.38 L 506.43 360.06 L 506.69 360.02 L 506.79 359.59 L 507.70 359.22 L 507.92 359.00 L 508.33 359.25 L 508.18 359.66 L 508.11 360.42 L 508.27 360.61 L 508.29 361.14 L 509.54 361.04 L 509.73 361.59 L 510.12 361.48 L 510.18 360.73 L 510.35 360.48 L 511.33 359.77 L 511.16 359.65 L 511.48 359.42 L 511.71 359.00 L 512.52 358.86 L 512.90 359.15 L 512.89 358.68 L 513.37 358.62 L 513.31 359.12 L 514.23 359.05 L 514.43 359.12 L 514.54 359.79 L 514.87 360.08 L 515.38 360.08 L 515.81 359.94 L 516.89 360.42 L 516.78 360.08 L 517.24 359.37 L 516.53 359.34 L 516.83 359.02 L 516.97 358.58 L 517.70 358.20 L 518.14 358.43 L 518.80 358.52 L 519.09 358.78 L 519.18 359.51 L 519.52 359.55 L 520.08 359.03 L 520.58 358.85 L 520.93 358.87 L 521.26 358.60 L 521.87 358.42 L 522.37 358.71 L 522.75 358.51 L 523.77 357.62 L 523.97 357.51 L 524.43 357.31 L 525.26 357.64 L 525.95 357.46 L 526.53 357.52 L 526.93 356.84 L 527.27 356.66 L 527.06 356.22 L 527.16 355.89 L 527.00 355.67 L 527.16 355.41 L 528.19 355.17 L 528.56 354.75 L 529.01 354.57 L 529.65 354.72 L 529.80 354.31 L 529.57 354.27 L 529.40 353.55 L 530.32 352.49 L 530.32 352.49 L 530.35 352.17 L 530.36 352.16 L 530.57 351.87 L 530.50 351.61 L 530.91 351.31 L 531.28 351.55 L 531.76 351.60 L 532.12 351.21 L 532.54 351.24 L 533.65 350.98 L 533.65 350.28 L 533.18 350.03 L 532.94 350.09 L 532.23 349.61 L 532.15 348.94 L 531.85 348.49 L 531.78 347.94 L 531.46 347.94 L 531.19 347.24 L 531.41 347.15 L 531.46 346.45 L 531.17 346.35 L 530.93 345.77 L 530.98 345.13 L 531.64 344.58 L 531.20 344.19 L 530.96 344.16 L 531.01 343.52 L 530.77 343.46 L 530.82 343.11 L 530.57 342.81 L 530.66 342.61 L 529.99 341.86 L 530.21 341.67 L 529.92 341.29 L 529.55 341.24 L 529.16 340.78 L 529.18 340.40 L 529.74 339.65 L 529.35 339.40 L 528.21 339.61 L 527.75 339.79 L 527.52 339.66 L 527.20 340.00 L 526.78 340.17 L 526.54 340.00 L 526.65 339.68 L 526.32 338.97 L 525.91 339.04 L 525.60 338.73 L 525.63 338.48 L 525.18 338.11 L 525.24 337.89 L 525.62 337.72 L 525.38 337.34 L 525.06 337.41 L 524.87 337.85 L 524.37 338.13 L 523.82 338.21 L 523.89 337.89 L 523.58 337.84 L 523.28 337.35 L 522.87 337.66 L 521.99 337.63 L 521.44 337.05 L 521.14 337.12 L 520.33 336.87 L 520.17 336.73 L 520.10 337.12 L 520.33 337.32 L 519.85 337.49 L 519.87 337.20 L 519.46 337.02 L 519.29 337.50 L 519.11 337.57 L 518.85 338.23 L 518.97 338.41 L 518.76 338.68 L 518.90 339.10 L 519.23 339.13 L 519.01 339.57 L 519.19 339.92 L 519.64 340.38 L 519.67 340.61 L 519.06 340.56 L 518.72 340.78 L 518.07 340.79 L 517.88 340.17 L 517.20 339.96 L 516.83 339.99 L 516.68 339.35 L 516.34 339.16 L 515.86 338.54 L 515.20 338.22 L 514.78 338.41 L 514.64 338.82 L 514.10 338.57 L 513.72 338.67 L 513.60 338.88 L 512.83 339.06 L 512.01 339.52 L 511.79 339.19 L 511.52 339.15 L 511.18 339.50 L 510.96 339.40 L 510.30 339.70 L 509.98 339.58 L 509.82 340.40 L 509.56 340.61 L 509.33 340.19 L 509.13 340.34 L 508.66 340.09 L 508.12 340.13 L 508.21 340.58 L 507.86 340.99 L 507.45 340.39 L 507.06 340.46 L 506.67 340.87 L 506.10 340.64 L 505.00 341.40 L 504.74 341.28 L 504.61 340.60 L 504.33 340.40 L 503.68 340.44 L 503.56 340.02 L 503.24 339.79 L 502.53 339.63 L 502.31 339.29 L 503.38 339.18 L 503.48 338.94 L 504.04 338.68 L 504.10 338.07 L 504.48 337.51 L 504.74 337.34 L 504.66 336.58 L 505.27 336.31 L 505.28 336.11 L 505.80 336.08 L 506.08 335.84 L 506.38 335.27 L 506.82 335.20 L 507.19 335.31 L 507.45 335.03 L 508.18 334.81 L 508.18 334.46 L 507.67 334.28 L 507.75 333.86 L 508.18 333.73 L 508.26 333.23 L 507.96 332.80 L 507.16 332.71 L 506.77 332.07 L 506.17 331.75 L 505.51 332.23 L 505.11 332.17 L 505.02 332.51 L 504.52 332.79 L 503.82 332.57 L 503.62 332.97 L 503.25 333.05 L 502.68 332.97 L 502.53 332.79 L 501.75 332.94 L 501.42 333.22 L 501.13 333.20 L 500.97 333.48 L 500.74 333.23 L 500.86 332.67 L 501.08 332.30 L 500.38 331.77 L 500.59 331.49 L 499.99 331.50 L 499.39 331.55 L 499.28 332.13 L 498.89 332.31 L 498.64 332.67 L 498.11 332.62 L 498.00 332.31 L 497.31 332.43 L 497.24 332.61 L 496.53 332.68 L 496.25 332.90 L 496.19 332.51 L 495.75 332.25 L 495.17 332.19 L 494.85 332.35 L 494.41 331.91 L 494.06 331.90 L 493.73 331.42 L 493.45 331.49 L 493.42 330.99 L 492.77 330.75 L 492.53 330.79 L 492.02 331.19 L 491.42 331.46 L 491.55 331.78 L 491.19 331.80 L 491.00 332.11 L 490.33 332.42 L 489.88 332.44 L 489.51 332.70 L 489.41 333.00 L 489.06 332.55 L 488.68 332.57 L 488.81 333.49 L 489.13 333.60 L 489.76 333.44 L 490.11 333.51 L 490.55 334.02 L 489.92 334.33 L 489.86 334.60 L 490.24 335.15 L 489.97 335.72 L 490.29 336.31 L 490.13 336.83 L 489.58 336.95 L 489.20 336.89 L 488.88 337.14 L 487.92 337.14 L 487.89 336.62 L 487.53 336.49 L 487.52 336.09 L 487.24 335.81 L 487.21 335.21 L 486.67 334.70 L 486.34 334.62 L 485.66 334.78 L 484.57 334.50 L 484.42 334.15 L 484.13 334.60 L 483.61 334.09 L 483.10 334.26 L 482.96 334.45 L 482.48 334.42 L 482.38 334.15 L 481.76 334.18 L 481.66 334.97 L 481.40 335.50 L 481.44 335.80 L 481.09 336.18 L 481.07 336.45 L 481.64 336.82 L 481.56 337.53 L 481.37 337.76 L 481.11 337.72 L 480.17 338.45 L 480.08 338.77 L 479.43 338.96 L 479.20 339.32 L 479.34 339.73 L 479.08 339.92 L 479.17 340.27 L 479.54 340.44 L 479.90 340.90 L 479.93 341.23 L 479.67 341.59 L 480.08 341.89 L 480.42 342.43 L 480.44 342.92 L 480.10 343.38 L 479.73 343.54 L 479.68 343.78 L 479.40 343.71 L 478.92 344.14 L 478.55 344.08 L 478.49 344.61 L 478.65 344.74 L 478.57 345.30 L 479.01 346.32 L 479.21 346.56 L 478.91 347.02 L 478.32 346.98 L 478.23 347.43 L 477.88 347.61 L 478.01 348.18 L 477.86 348.44 L 476.95 348.27 L 476.54 348.28 L 476.54 348.28 L 476.25 348.17 L 475.97 348.63 L 475.90 349.28 L 476.37 349.36 L 475.83 349.98 L 475.84 350.18 L 475.22 350.16 L 474.51 350.31 L 474.43 351.28 L 473.90 351.97 L 473.60 351.94 L 473.43 352.67 L 473.50 352.91 L 473.23 353.27 L 473.36 353.65 L 473.12 353.86 L 473.24 354.32 L 473.49 354.63 L 473.44 355.07 L 473.25 355.30 L 473.37 355.95 L 473.63 356.12 L 473.95 356.05 L 473.96 356.43 L 473.50 356.75 L 473.64 356.90 L 473.22 357.14 L 473.34 357.44 L 473.18 357.95 L 471.72 359.42 L 471.38 359.54 L 470.69 359.45 L 470.06 359.61 L 470.39 359.96 L 470.04 360.45 L 469.43 360.62 L 469.03 360.57 L 468.94 360.84 L 468.38 360.81 L 468.40 361.04 L 467.51 361.20 L 467.16 361.11 L 466.86 361.40 L 467.00 361.80 L 466.77 362.00 L 466.78 362.36 L 466.23 362.22 L 466.48 362.60 L 466.47 363.34 L 466.78 363.42 L 466.86 363.75 L 467.25 364.24 L 466.96 364.32 L 466.61 364.10 L 466.22 364.58 L 465.80 364.88 L 466.13 365.38 L 465.62 365.63 L 465.30 365.48 L 465.34 365.27 L 464.88 365.14 L 464.33 365.69 L 463.83 365.21 L 463.39 365.01 L 463.01 365.47 L 462.71 365.14 L 462.48 365.59 L 462.87 365.87 L 462.74 366.16 L 462.82 367.01 L 462.75 367.42 L 462.98 367.51 L 462.98 367.51 L 463.02 367.79 L 463.02 367.79 L 463.15 368.27 L 462.59 368.33 L 462.11 368.02 L 462.04 368.29 L 461.42 368.39 L 461.42 368.39 L 461.29 368.35 L 461.29 368.35 L 461.13 368.21 L 460.43 368.18 L 460.15 368.52 L 459.62 368.65 L 459.09 368.40 L 458.52 368.78 L 458.47 369.56 L 458.22 370.60 L 457.94 370.78 L 457.94 370.78 L 457.43 370.94 L 456.88 370.93 L 456.79 370.59 L 456.43 371.15 L 456.55 371.77 L 456.90 372.45 L 456.87 372.80 L 457.22 372.92 L 458.00 372.95 L 458.10 373.08 L 457.73 373.74 L 456.72 373.81 L 456.58 373.94 L 456.65 375.19 L 455.72 376.12 L 455.71 376.83 L 455.52 378.27 L 455.62 378.96 L 456.10 379.87 L 456.30 380.44 L 456.45 381.46 L 456.95 381.52 L 457.16 381.95 L 457.14 382.29 L 457.43 382.83 L 457.94 382.97 L 458.01 383.47 L 457.69 383.74 L 457.66 384.00 L 458.22 384.62 L 458.15 385.45 L 458.36 385.71 L 459.03 385.27 L 459.95 385.22 L 460.32 385.63 L 460.84 385.63 L 461.38 385.29 L 462.17 385.32 L 462.71 385.22 L 463.08 384.86 L 463.50 384.88 L 463.78 384.68 L 464.19 384.03 L 464.70 383.54 L 464.80 383.00 L 464.28 381.97 L 464.14 381.27 L 463.93 380.85 L 463.36 380.95 L 463.16 380.83 L 463.32 380.31 L 463.17 379.44 L 462.73 379.18 L 462.49 379.11 L 461.88 379.20 L 461.27 378.99 L 461.00 378.66 L 460.97 377.72 L 461.22 377.50 L 461.26 377.01 L 461.60 377.37 L 461.68 377.07 L 462.17 376.57 L 463.15 376.24 L 463.47 375.56 L 463.77 375.61 L 464.29 375.28 L 464.63 375.42 L 465.59 375.30 L 465.93 375.05 L 466.49 374.30 L 467.06 373.76 L 467.35 373.65 L 468.31 373.73 L 468.73 373.64 L 469.82 372.99 L 470.53 372.81 L 471.24 372.79 L 472.39 372.50 L 472.32 372.94 L 472.05 372.86 L 472.13 373.24 L 472.42 373.20 L 473.12 372.72 L 473.43 372.40 L 474.06 372.21 L 474.59 372.34 L 474.87 372.17 L 475.27 372.30 L 475.78 372.04 L 476.20 372.23 L 476.48 372.05 L 476.65 371.42 L 477.10 371.22 L 477.70 371.20 L 478.09 371.54 L 477.86 371.78 L 478.66 371.54 L 479.22 371.24 L 479.54 371.28 L 480.10 370.97 L 479.80 370.73 L 479.35 370.62 L 479.37 370.17 L 480.20 369.64 L 481.24 369.31 L 481.82 369.35 L 481.87 369.90 L 482.27 370.00 L 482.30 370.26 L 483.49 370.21 L 484.13 369.92 L 484.25 369.35 L 484.45 369.21 L 484.98 369.39 L 485.38 369.72 L 486.53 369.68 L 486.94 369.13 L 488.04 367.99 L 488.54 368.00 L 489.09 368.78 L 489.46 368.84 L 490.08 368.52 L 490.68 367.62 L 490.75 367.05 L 490.52 366.69 L 490.66 366.25 L 491.09 365.86 L 491.14 366.49 L 491.67 367.05 L 491.76 367.38 L 492.63 368.33 L 492.96 368.50 L 493.51 368.11 L 493.61 367.57 L 494.78 367.07 L 494.95 366.72 L 495.66 366.41 L 496.07 366.39 L 495.94 366.06 L 495.94 365.69 L 495.73 365.37 L 495.77 365.00 L 495.98 364.97 Z M 531.91 352.27 L 531.47 352.03 L 531.08 352.24 L 531.15 352.45 L 531.93 352.50 L 532.18 352.65 L 532.50 352.56 L 532.94 352.77 L 533.13 352.65 L 533.13 352.04 L 532.99 351.79 L 532.62 352.04 L 532.26 351.90 L 531.96 352.21 L 531.91 352.27 Z M 488.67 369.86 L 488.91 369.53 L 488.54 369.49 L 487.94 369.87 L 487.33 370.07 L 487.14 370.49 L 487.44 370.63 L 487.91 370.58 L 487.40 371.18 L 487.86 371.69 L 488.30 371.42 L 488.10 371.20 L 488.34 370.74 L 488.17 370.42 L 488.46 369.90 L 488.67 369.86 Z M 485.33 371.49 L 485.66 371.41 L 485.75 371.11 L 486.26 371.25 L 486.72 370.88 L 486.45 370.56 L 486.73 370.45 L 486.71 370.13 L 485.96 370.35 L 485.63 370.63 L 485.74 370.84 L 485.37 371.02 L 485.33 371.49 Z M 502.95 367.00 L 503.78 366.74 L 503.69 366.65 L 503.04 366.80 L 502.95 367.00 Z M 463.59 375.76 L 464.17 376.10 L 464.37 376.08 L 464.74 376.67 L 465.13 376.55 L 465.65 375.35 L 465.20 375.52 L 464.54 375.56 L 464.27 375.33 L 463.71 375.62 L 463.57 375.66 L 463.59 375.76 Z M 484.34 370.66 L 484.55 370.81 L 484.58 370.39 L 484.34 370.66 Z M 464.46 376.72 L 463.86 376.88 L 463.22 376.54 L 462.75 376.71 L 462.27 376.62 L 461.95 377.19 L 461.28 377.67 L 461.18 378.18 L 462.30 377.91 L 462.70 377.69 L 463.32 377.64 L 464.00 377.71 L 464.40 378.40 L 464.65 378.34 L 464.69 377.67 L 464.90 376.90 L 464.46 376.72 Z M 498.12 367.56 L 498.22 367.19 L 497.88 367.26 L 498.12 367.56 Z M 497.69 367.98 L 497.89 367.68 L 497.64 367.67 L 497.69 367.98 Z M 491.67 368.92 L 491.87 368.69 L 492.30 368.61 L 491.93 368.45 L 491.61 368.53 L 491.67 368.92 Z M 498.69 363.07 L 498.63 362.82 L 498.34 362.88 L 498.69 363.07 Z M 502.53 367.31 L 502.94 367.22 L 502.43 367.07 L 502.53 367.31 Z M 502.15 367.43 L 502.33 367.17 L 501.84 367.32 L 502.15 367.43 Z M 529.26 379.90 L 529.18 380.12 L 530.33 380.25 L 530.51 380.82 L 530.09 381.39 L 529.05 381.67 L 529.54 381.86 L 530.23 381.80 L 530.67 381.48 L 530.97 380.89 L 530.88 380.37 L 530.47 379.86 L 529.79 379.81 L 529.26 379.90 Z M 490.45 368.75 L 490.66 368.39 L 490.27 368.52 L 490.45 368.75 Z M 463.29 380.87 L 463.63 380.88 L 463.39 380.54 L 463.29 380.87 Z M 465.78 378.20 L 465.15 378.07 L 464.78 378.48 L 464.93 378.98 L 465.43 378.99 L 465.80 378.40 L 465.78 378.20 Z M 464.86 384.51 L 465.25 384.17 L 465.17 383.95 L 464.86 384.51 Z M 520.70 376.53 L 520.81 376.87 L 521.18 377.17 L 521.71 377.32 L 521.99 377.12 L 521.74 376.39 L 521.54 376.25 L 520.93 376.25 L 520.70 376.53 Z M 520.52 377.73 L 520.66 378.10 L 520.98 378.37 L 521.28 378.34 L 521.30 378.07 L 520.81 377.54 L 520.52 377.73 Z M 519.57 359.68 L 519.57 359.69 L 519.58 359.68 L 519.57 359.68 Z M 519.57 359.67 L 519.57 359.68 L 519.58 359.68 L 519.57 359.67 Z">
      <title>广东省</title>
    </path>
  </g>
</svg>