<?xml version="1.0" encoding="UTF-8"?>
<svg xmlns="http://www.w3.org/2000/svg" viewBox="0 0 800 600" width="800" height="600">
  <title>广西壮族自治区</title>
  <defs>
    <style>
      .region-path {
        fill: #e6f3ff;
        stroke: #2563eb;
        stroke-width: 1.5;
        stroke-linejoin: round;
        cursor: pointer;
        transition: all 0.2s ease;
      }
      .region-path:hover {
        fill: #bfdbfe;
        stroke: #1d4ed8;
        stroke-width: 2;
      }
      .region-label {
        fill: #1e40af;
        font-family: Arial, sans-serif;
        font-size: 24px;
        font-weight: bold;
        pointer-events: none;
      }
    </style>
  </defs>
  
  <g id="450000">
    <path id="450000-land" 
          class="region-path"
          data-region-id="450000"
          data-region-name="广西壮族自治区"
          d="M 453.73 325.40 L 453.63 325.64 L 452.96 326.05 L 453.24 326.40 L 452.84 326.74 L 452.45 327.41 L 452.25 327.43 L 452.13 328.18 L 452.25 328.49 L 451.80 328.67 L 450.88 328.40 L 450.87 327.91 L 450.26 328.39 L 450.10 328.17 L 450.22 327.83 L 449.71 327.73 L 449.53 328.02 L 449.23 327.88 L 448.62 328.00 L 448.72 328.14 L 448.35 328.48 L 448.11 328.40 L 447.65 328.67 L 447.70 329.00 L 448.25 328.96 L 448.25 328.96 L 448.81 328.46 L 449.18 328.42 L 449.55 328.60 L 449.51 328.88 L 449.05 329.55 L 449.27 330.20 L 449.64 330.37 L 448.99 330.76 L 448.20 330.30 L 447.58 330.44 L 447.59 330.31 L 446.93 330.37 L 446.81 330.61 L 446.46 330.33 L 446.66 330.10 L 446.49 329.56 L 445.88 329.49 L 445.51 329.62 L 445.47 329.99 L 445.21 330.01 L 445.19 330.37 L 445.51 330.54 L 444.94 330.68 L 444.66 330.98 L 444.59 331.59 L 444.89 332.60 L 444.84 332.88 L 444.47 332.60 L 444.43 332.28 L 443.25 331.32 L 442.70 331.48 L 442.51 330.98 L 442.09 330.75 L 441.98 330.52 L 441.56 330.62 L 441.27 331.10 L 440.86 331.28 L 440.97 331.61 L 440.36 331.32 L 440.05 331.46 L 440.37 331.87 L 439.84 332.02 L 439.94 332.71 L 439.85 333.28 L 439.56 333.90 L 439.20 334.06 L 438.38 334.04 L 437.62 334.46 L 437.04 334.61 L 436.70 334.87 L 435.90 334.78 L 436.18 334.47 L 435.88 334.12 L 435.90 333.70 L 435.69 333.58 L 435.26 334.06 L 435.21 333.80 L 434.86 333.39 L 434.84 332.80 L 434.55 332.86 L 434.21 333.48 L 433.98 333.41 L 433.31 333.91 L 432.89 333.86 L 433.08 333.21 L 432.99 332.97 L 432.48 333.08 L 432.24 332.48 L 432.36 332.00 L 431.89 331.80 L 431.72 332.00 L 431.29 331.91 L 431.19 331.59 L 431.49 331.29 L 430.73 330.44 L 430.41 330.30 L 430.37 329.81 L 430.13 329.77 L 429.92 330.07 L 428.66 330.28 L 428.69 330.80 L 428.16 330.94 L 427.96 331.49 L 427.62 331.54 L 427.87 332.35 L 428.13 332.42 L 428.14 333.22 L 427.74 333.66 L 427.30 333.48 L 427.00 333.67 L 426.84 334.19 L 426.47 334.14 L 425.80 334.30 L 425.56 334.18 L 425.22 334.39 L 424.79 334.22 L 424.32 334.37 L 424.26 334.70 L 423.75 335.17 L 423.35 335.22 L 423.02 335.51 L 422.30 335.73 L 422.22 335.87 L 421.08 336.19 L 420.79 336.35 L 420.26 336.37 L 419.87 336.26 L 419.62 336.56 L 419.14 336.55 L 419.68 337.26 L 419.77 337.62 L 419.43 338.56 L 419.19 338.54 L 418.81 339.04 L 418.12 339.35 L 417.89 339.88 L 417.24 339.41 L 417.03 338.92 L 416.22 338.88 L 415.84 339.16 L 415.22 338.99 L 414.58 338.47 L 413.67 338.34 L 413.56 338.11 L 413.21 338.17 L 412.42 338.05 L 412.38 337.80 L 412.01 337.41 L 411.71 336.79 L 411.05 336.66 L 410.73 336.84 L 410.04 336.81 L 409.87 336.41 L 409.47 336.12 L 409.11 336.23 L 408.90 336.50 L 408.63 336.49 L 408.26 336.81 L 408.26 336.82 L 408.12 336.95 L 408.07 336.92 L 407.67 337.39 L 407.54 337.98 L 407.61 338.28 L 406.22 338.64 L 405.88 338.87 L 405.63 339.43 L 404.90 339.60 L 404.46 340.03 L 404.19 339.75 L 403.42 339.59 L 403.07 339.09 L 402.39 338.86 L 401.98 339.67 L 402.30 340.89 L 402.60 341.06 L 402.87 342.04 L 403.29 342.07 L 403.43 342.31 L 403.23 342.53 L 403.55 342.63 L 404.25 343.11 L 404.38 342.91 L 404.19 342.09 L 404.32 341.86 L 404.66 341.93 L 404.84 341.68 L 405.03 341.84 L 405.57 341.81 L 406.37 342.02 L 406.54 342.18 L 407.06 342.16 L 407.71 341.86 L 408.37 342.14 L 408.42 342.58 L 408.71 342.54 L 409.22 342.84 L 409.31 343.06 L 408.97 343.45 L 409.50 344.21 L 409.78 344.28 L 409.64 344.72 L 409.16 344.71 L 409.34 345.35 L 409.96 345.81 L 410.30 345.66 L 410.10 345.48 L 410.59 345.23 L 410.73 345.46 L 411.37 345.76 L 411.48 345.99 L 412.38 346.26 L 412.80 345.09 L 413.43 345.01 L 413.78 345.13 L 414.00 346.10 L 414.57 345.75 L 414.93 345.82 L 415.20 345.67 L 415.58 345.90 L 415.52 346.20 L 415.99 346.12 L 416.18 345.85 L 416.51 346.02 L 416.68 345.72 L 416.62 345.41 L 416.79 345.17 L 417.25 345.29 L 417.61 345.19 L 417.75 345.41 L 418.15 345.51 L 418.19 345.91 L 418.63 346.25 L 418.58 346.45 L 418.96 346.89 L 419.27 347.57 L 419.63 347.69 L 419.43 347.87 L 419.62 348.25 L 419.05 348.56 L 419.27 349.30 L 419.18 349.91 L 418.88 350.53 L 419.10 350.90 L 418.52 351.37 L 418.38 351.67 L 418.05 351.78 L 417.63 352.16 L 417.49 351.73 L 416.97 351.53 L 416.73 351.63 L 416.51 351.36 L 416.10 351.35 L 415.72 351.55 L 415.62 351.96 L 415.13 352.04 L 414.52 352.64 L 413.88 352.61 L 414.46 353.04 L 414.52 353.41 L 414.00 353.22 L 413.42 353.57 L 413.07 354.14 L 412.72 354.37 L 412.89 354.89 L 413.06 354.96 L 413.23 356.12 L 413.75 356.14 L 413.99 355.99 L 414.78 356.16 L 414.96 356.49 L 415.35 356.57 L 415.62 356.86 L 415.96 356.94 L 416.38 357.67 L 416.53 357.46 L 417.21 357.34 L 417.57 357.45 L 417.84 356.90 L 418.52 356.84 L 418.74 357.00 L 419.23 356.92 L 419.78 357.03 L 420.43 357.76 L 420.31 357.95 L 420.61 358.18 L 421.43 358.28 L 421.48 358.07 L 421.92 358.08 L 422.86 357.74 L 423.08 357.36 L 423.46 357.60 L 423.91 357.58 L 424.18 358.04 L 424.44 358.22 L 424.63 357.93 L 425.06 358.03 L 424.99 358.19 L 425.66 358.75 L 425.68 358.74 L 425.70 358.73 L 425.71 358.74 L 425.71 358.74 L 425.73 358.74 L 425.76 358.75 L 425.89 358.75 L 425.94 358.72 L 425.97 358.71 L 426.01 358.70 L 426.06 358.70 L 426.33 358.84 L 426.14 359.21 L 425.60 359.51 L 425.72 359.82 L 425.47 360.02 L 425.01 361.21 L 424.37 361.21 L 424.00 360.93 L 423.70 361.81 L 423.73 362.27 L 423.44 362.45 L 423.73 363.29 L 423.47 363.59 L 424.51 363.74 L 424.58 364.24 L 424.77 364.47 L 424.91 365.02 L 424.61 365.28 L 424.95 365.51 L 424.80 365.77 L 425.05 366.24 L 424.95 366.95 L 424.71 367.17 L 424.87 367.59 L 425.29 367.09 L 425.82 367.12 L 425.95 367.36 L 426.54 367.32 L 427.23 367.51 L 427.33 367.86 L 427.73 367.97 L 427.99 367.71 L 428.62 368.05 L 428.61 368.34 L 428.19 368.63 L 428.18 369.04 L 428.97 369.21 L 429.54 369.67 L 430.02 369.90 L 430.06 370.09 L 430.51 370.25 L 430.82 370.00 L 431.22 369.93 L 431.70 370.62 L 431.77 371.30 L 432.02 371.38 L 432.47 370.88 L 432.95 370.70 L 433.19 371.18 L 433.04 371.36 L 433.67 371.46 L 434.06 371.16 L 434.25 371.34 L 435.39 371.15 L 436.37 370.74 L 436.68 370.90 L 436.95 370.79 L 437.24 371.08 L 437.26 371.35 L 437.63 371.46 L 437.93 372.00 L 438.72 371.88 L 439.49 372.27 L 440.37 372.15 L 439.98 371.83 L 440.49 371.34 L 440.86 371.32 L 440.95 371.72 L 440.55 372.29 L 440.75 372.44 L 441.78 371.94 L 442.49 372.01 L 443.47 371.79 L 444.50 370.52 L 444.85 370.49 L 445.19 370.86 L 445.39 370.70 L 445.99 371.03 L 445.97 371.04 L 446.09 371.29 L 446.67 371.04 L 447.00 371.20 L 447.50 371.04 L 448.09 371.42 L 449.70 371.53 L 449.75 371.61 L 449.87 371.65 L 450.17 371.65 L 450.20 372.23 L 449.50 372.46 L 449.14 372.79 L 449.21 373.14 L 449.71 373.19 L 450.17 373.51 L 450.66 373.48 L 451.28 373.13 L 453.05 372.99 L 453.75 372.84 L 454.22 373.00 L 454.34 372.70 L 454.71 372.42 L 454.99 372.11 L 455.08 371.76 L 455.52 372.42 L 456.03 372.74 L 456.87 372.80 L 456.90 372.45 L 456.55 371.77 L 456.43 371.15 L 456.79 370.59 L 456.88 370.93 L 457.43 370.94 L 457.94 370.78 L 457.94 370.78 L 458.22 370.60 L 458.47 369.56 L 458.52 368.78 L 459.09 368.40 L 459.62 368.65 L 460.15 368.52 L 460.43 368.18 L 461.13 368.21 L 461.29 368.35 L 461.29 368.35 L 461.42 368.39 L 461.42 368.39 L 462.04 368.29 L 462.11 368.02 L 462.59 368.33 L 463.15 368.27 L 463.02 367.79 L 463.02 367.79 L 462.98 367.51 L 462.98 367.51 L 462.75 367.42 L 462.82 367.01 L 462.74 366.16 L 462.87 365.87 L 462.48 365.59 L 462.71 365.14 L 463.01 365.47 L 463.39 365.01 L 463.83 365.21 L 464.33 365.69 L 464.88 365.14 L 465.34 365.27 L 465.30 365.48 L 465.62 365.63 L 466.13 365.38 L 465.80 364.88 L 466.22 364.58 L 466.61 364.10 L 466.96 364.32 L 467.25 364.24 L 466.86 363.75 L 466.78 363.42 L 466.47 363.34 L 466.48 362.60 L 466.23 362.22 L 466.78 362.36 L 466.77 362.00 L 467.00 361.80 L 466.86 361.40 L 467.16 361.11 L 467.51 361.20 L 468.40 361.04 L 468.38 360.81 L 468.94 360.84 L 469.03 360.57 L 469.43 360.62 L 470.04 360.45 L 470.39 359.96 L 470.06 359.61 L 470.69 359.45 L 471.38 359.54 L 471.72 359.42 L 473.18 357.95 L 473.34 357.44 L 473.22 357.14 L 473.64 356.90 L 473.50 356.75 L 473.96 356.43 L 473.95 356.05 L 473.63 356.12 L 473.37 355.95 L 473.25 355.30 L 473.44 355.07 L 473.49 354.63 L 473.24 354.32 L 473.12 353.86 L 473.36 353.65 L 473.23 353.27 L 473.50 352.91 L 473.43 352.67 L 473.60 351.94 L 473.90 351.97 L 474.43 351.28 L 474.51 350.31 L 475.22 350.16 L 475.84 350.18 L 475.83 349.98 L 476.37 349.36 L 475.90 349.28 L 475.97 348.63 L 476.25 348.17 L 476.54 348.28 L 476.54 348.28 L 476.95 348.27 L 477.86 348.44 L 478.01 348.18 L 477.88 347.61 L 478.23 347.43 L 478.32 346.98 L 478.91 347.02 L 479.21 346.56 L 479.01 346.32 L 478.57 345.30 L 478.65 344.74 L 478.49 344.61 L 478.55 344.08 L 478.92 344.14 L 479.40 343.71 L 479.68 343.78 L 479.73 343.54 L 480.10 343.38 L 480.44 342.92 L 480.42 342.43 L 480.08 341.89 L 479.67 341.59 L 479.93 341.23 L 479.90 340.90 L 479.54 340.44 L 479.17 340.27 L 479.08 339.92 L 479.34 339.73 L 479.20 339.32 L 479.43 338.96 L 480.08 338.77 L 479.32 338.46 L 479.10 338.60 L 478.53 338.60 L 478.46 338.44 L 477.90 338.46 L 477.58 338.29 L 476.80 338.26 L 476.37 338.55 L 476.07 339.03 L 476.11 339.34 L 475.56 339.28 L 475.37 339.76 L 474.92 339.83 L 474.63 339.52 L 474.14 339.54 L 473.93 339.31 L 474.24 338.88 L 474.43 338.17 L 474.12 337.56 L 474.10 337.18 L 474.33 336.81 L 473.97 336.58 L 473.95 336.28 L 474.23 336.15 L 474.31 335.85 L 473.78 335.58 L 473.97 335.10 L 473.35 334.74 L 473.27 334.95 L 472.79 334.99 L 472.31 334.51 L 471.76 334.97 L 471.54 335.30 L 470.91 335.64 L 470.51 335.71 L 470.50 336.64 L 469.56 336.89 L 469.14 336.33 L 468.96 335.62 L 469.29 335.02 L 469.45 334.40 L 470.63 333.82 L 470.53 333.12 L 470.90 332.93 L 471.38 332.27 L 471.64 332.31 L 472.35 331.69 L 472.86 330.67 L 472.83 330.23 L 473.02 329.83 L 472.67 329.39 L 472.66 328.61 L 473.60 328.36 L 474.04 328.07 L 473.95 327.30 L 474.50 327.17 L 474.23 326.90 L 473.43 326.93 L 473.36 326.68 L 473.05 326.68 L 472.54 327.01 L 472.49 327.22 L 472.07 327.11 L 471.85 326.58 L 471.43 326.19 L 471.90 325.21 L 472.23 325.10 L 472.00 324.90 L 472.22 324.71 L 472.14 324.14 L 472.31 323.81 L 472.28 323.46 L 472.50 323.41 L 472.34 322.89 L 471.82 323.00 L 471.58 322.84 L 471.63 322.56 L 470.40 322.52 L 469.54 322.22 L 469.55 321.99 L 469.19 321.71 L 468.89 321.84 L 468.88 322.32 L 468.69 322.39 L 468.84 322.74 L 467.76 323.06 L 466.96 323.13 L 466.72 322.90 L 466.79 322.45 L 466.57 322.66 L 466.08 322.42 L 465.76 322.51 L 465.44 322.25 L 465.15 322.63 L 464.83 322.77 L 464.76 323.29 L 464.23 323.99 L 464.05 323.85 L 463.63 324.11 L 462.96 324.79 L 462.47 325.96 L 461.76 326.11 L 461.68 325.60 L 460.98 325.08 L 460.84 325.41 L 460.14 325.50 L 459.77 325.19 L 460.14 324.34 L 460.12 323.96 L 459.41 323.99 L 458.79 323.68 L 458.10 324.30 L 458.05 324.72 L 457.69 325.42 L 457.17 325.28 L 456.84 325.74 L 457.09 325.98 L 457.29 326.63 L 457.14 326.98 L 456.81 327.10 L 456.69 326.84 L 455.83 326.95 L 455.77 326.52 L 455.92 326.13 L 456.10 326.18 L 456.30 325.81 L 455.46 325.53 L 455.31 325.22 L 454.83 325.51 L 454.53 325.49 L 454.05 325.73 L 453.73 325.40 Z M 408.26 336.82 L 408.26 336.81 L 408.07 336.92 L 408.12 336.95 L 408.26 336.82 Z M 449.64 377.38 L 449.89 377.28 L 449.95 377.35 L 450.22 377.11 L 450.17 376.84 L 449.69 376.94 L 449.65 377.21 L 449.64 377.38 Z">
      <title>广西壮族自治区</title>
    </path>
  </g>
</svg>