<?xml version="1.0" encoding="UTF-8"?>
<svg xmlns="http://www.w3.org/2000/svg" viewBox="0 0 800 600" width="800" height="600">
  <title>海南省</title>
  <defs>
    <style>
      .region-path {
        fill: #e6f3ff;
        stroke: #2563eb;
        stroke-width: 1.5;
        stroke-linejoin: round;
        cursor: pointer;
        transition: all 0.2s ease;
      }
      .region-path:hover {
        fill: #bfdbfe;
        stroke: #1d4ed8;
        stroke-width: 2;
      }
      .region-label {
        fill: #1e40af;
        font-family: Arial, sans-serif;
        font-size: 24px;
        font-weight: bold;
        pointer-events: none;
      }
    </style>
  </defs>
  
  <g id="460000">
    <path id="460000-land" 
          class="region-path"
          data-region-id="460000"
          data-region-name="海南省"
          d="M 460.20 387.62 L 459.53 387.99 L 459.07 388.11 L 458.73 387.97 L 458.05 387.96 L 457.59 388.07 L 457.17 387.97 L 456.62 388.10 L 456.11 387.72 L 455.55 387.78 L 454.80 388.03 L 454.19 388.49 L 453.90 389.22 L 452.99 388.99 L 452.35 388.95 L 451.85 388.76 L 451.42 388.95 L 451.38 389.28 L 451.12 389.32 L 450.38 390.07 L 450.49 390.63 L 450.26 390.96 L 449.70 391.12 L 449.23 391.84 L 448.66 392.18 L 447.99 392.83 L 447.23 393.40 L 446.72 393.60 L 446.30 394.11 L 445.56 394.25 L 445.05 394.64 L 444.68 395.40 L 444.49 396.80 L 444.57 397.69 L 444.90 398.24 L 444.98 399.05 L 444.54 399.59 L 444.51 400.24 L 445.13 400.96 L 445.24 401.65 L 445.01 402.77 L 445.05 403.59 L 445.51 403.99 L 446.41 404.05 L 447.50 404.32 L 447.75 404.60 L 448.16 405.38 L 448.79 405.28 L 449.85 405.28 L 450.17 405.85 L 450.54 405.94 L 451.71 405.89 L 452.41 406.40 L 453.30 406.57 L 453.57 406.83 L 454.20 406.88 L 454.79 407.15 L 455.59 406.81 L 456.26 406.79 L 456.50 406.63 L 456.87 405.11 L 458.26 404.74 L 459.33 404.90 L 459.83 404.74 L 460.03 404.49 L 460.31 403.38 L 461.31 402.64 L 461.65 402.31 L 462.51 401.98 L 462.90 402.08 L 464.27 401.88 L 464.27 400.84 L 465.09 400.50 L 465.22 399.94 L 465.16 399.50 L 465.52 396.69 L 466.11 395.30 L 466.42 394.95 L 466.66 394.34 L 467.25 394.12 L 467.85 393.60 L 468.30 392.89 L 468.64 392.54 L 469.55 392.01 L 470.10 391.92 L 470.20 391.75 L 469.91 390.35 L 469.60 389.46 L 469.11 387.71 L 468.85 387.61 L 468.13 387.78 L 467.48 387.53 L 467.16 387.19 L 466.81 387.13 L 466.53 386.36 L 466.22 386.20 L 465.89 386.51 L 464.92 386.76 L 464.55 387.12 L 464.23 387.10 L 463.11 386.73 L 462.39 386.77 L 462.09 387.32 L 461.61 387.10 L 460.59 387.13 L 460.20 387.62 Z M 481.99 555.04 L 482.33 555.35 L 482.73 555.12 L 482.52 554.60 L 482.10 554.69 L 481.99 555.04 Z M 492.95 510.98 L 493.42 510.45 L 493.75 510.28 L 493.19 511.05 L 493.82 510.50 L 494.19 509.82 L 494.19 509.29 L 493.86 509.14 L 493.86 509.82 L 493.24 510.46 L 492.95 510.98 Z M 479.80 555.33 L 479.98 555.58 L 480.49 555.51 L 480.59 555.14 L 480.17 554.87 L 479.80 555.33 Z M 474.26 418.20 L 475.02 417.91 L 474.50 418.40 L 475.26 418.09 L 475.08 417.76 L 474.15 418.04 L 474.26 418.20 Z M 539.00 437.84 L 539.04 438.50 L 539.19 438.64 L 540.23 438.57 L 539.17 438.37 L 539.12 437.70 L 539.37 437.47 L 539.79 437.98 L 540.35 438.08 L 539.77 437.79 L 539.41 437.35 L 539.07 437.42 L 539.00 437.84 Z M 482.33 554.35 L 482.86 554.30 L 482.81 554.03 L 482.46 553.96 L 482.33 554.35 Z M 477.07 427.32 L 477.54 427.32 L 477.93 427.04 L 477.89 426.65 L 477.57 426.53 L 476.89 426.78 L 477.65 426.77 L 477.65 427.08 L 477.07 427.32 Z M 476.19 426.71 L 475.45 427.21 L 475.35 427.68 L 475.79 427.74 L 476.62 427.18 L 475.75 427.52 L 475.67 427.31 L 476.52 426.65 L 476.19 426.71 Z M 499.49 516.36 L 499.72 516.78 L 500.43 517.10 L 501.17 517.08 L 502.19 516.83 L 503.56 516.26 L 504.38 516.03 L 504.78 515.57 L 504.91 514.72 L 505.37 514.21 L 506.16 513.72 L 506.31 513.42 L 506.16 512.85 L 505.86 512.64 L 505.46 512.61 L 504.86 512.78 L 503.34 513.63 L 502.75 514.50 L 501.54 515.18 L 500.86 515.71 L 499.74 516.03 L 499.49 516.36 Z M 500.32 503.24 L 500.69 503.61 L 500.92 504.17 L 501.18 503.83 L 500.98 503.54 L 500.45 503.18 L 500.32 503.24 Z M 500.10 503.58 L 500.30 504.07 L 500.68 504.01 L 500.32 503.57 L 500.10 503.58 Z M 479.56 426.01 L 479.85 426.19 L 480.61 426.01 L 480.60 425.74 L 480.31 425.63 L 479.85 425.73 L 479.56 426.01 Z M 477.12 424.67 L 477.41 424.49 L 477.61 423.97 L 477.33 423.71 L 477.40 424.23 L 477.12 424.67 Z M 482.07 503.31 L 481.96 503.09 L 481.69 503.35 L 482.07 503.31 Z M 498.40 518.78 L 498.78 518.90 L 498.79 518.68 L 498.40 518.78 Z M 502.57 504.36 L 502.64 504.74 L 503.13 504.78 L 502.86 504.15 L 502.57 504.36 Z M 482.24 419.04 L 481.98 419.13 L 482.13 419.41 L 482.86 419.33 L 482.59 419.06 L 482.24 419.04 Z M 507.70 487.98 L 507.84 488.32 L 508.08 488.25 L 508.30 487.70 L 507.99 487.61 L 507.70 487.98 Z M 519.61 494.57 L 519.85 494.73 L 519.91 495.18 L 520.26 494.97 L 520.52 493.82 L 520.26 493.67 L 519.95 493.85 L 519.61 494.57 Z M 506.96 491.91 L 507.21 492.41 L 507.53 492.30 L 507.67 491.77 L 506.96 491.91 Z M 498.17 516.05 L 498.21 516.42 L 498.64 516.40 L 498.81 515.97 L 498.17 516.05 Z M 453.54 519.09 L 453.54 519.39 L 454.05 519.34 L 454.66 518.78 L 455.51 517.68 L 456.08 517.36 L 456.93 517.22 L 458.46 517.42 L 458.56 517.23 L 458.11 516.94 L 457.19 516.72 L 456.21 516.69 L 455.50 516.85 L 454.28 518.00 L 453.54 519.09 Z M 524.12 503.17 L 524.34 503.39 L 524.73 502.95 L 524.46 502.78 L 524.12 503.17 Z M 484.76 429.35 L 485.74 429.25 L 486.17 428.96 L 485.92 428.63 L 484.62 428.91 L 484.48 429.31 L 484.76 429.35 Z M 485.40 503.52 L 485.74 503.84 L 486.46 503.80 L 486.03 503.38 L 485.40 503.52 Z M 505.42 482.89 L 505.48 483.11 L 505.88 482.76 L 506.41 482.89 L 506.71 482.68 L 506.64 482.13 L 506.31 482.22 L 505.42 482.89 Z M 484.07 426.31 L 483.80 426.61 L 484.09 426.63 L 484.76 426.37 L 485.33 426.40 L 485.39 426.13 L 485.10 426.07 L 484.07 426.31 Z M 526.35 487.46 L 526.07 487.94 L 526.13 488.35 L 526.59 488.47 L 527.16 488.40 L 527.97 488.08 L 527.90 487.77 L 526.62 487.94 L 526.91 487.21 L 526.74 487.13 L 526.35 487.46 Z M 483.44 419.91 L 483.56 419.77 L 483.29 419.39 L 482.96 419.38 L 483.44 419.91 Z M 474.65 424.68 L 474.59 424.83 L 475.12 424.86 L 475.04 424.58 L 474.65 424.68 Z M 516.11 492.62 L 516.60 492.92 L 516.99 492.63 L 516.95 492.41 L 516.29 492.24 L 516.11 492.62 Z M 507.50 510.11 L 507.72 510.37 L 508.24 510.33 L 508.09 510.11 L 507.50 510.11 Z M 505.82 511.05 L 506.05 511.22 L 506.73 511.04 L 507.03 510.74 L 506.73 510.65 L 505.82 511.05 Z M 512.66 508.28 L 512.80 508.71 L 513.37 508.95 L 513.88 509.03 L 514.19 508.60 L 514.03 508.45 L 513.02 508.19 L 512.66 508.28 Z M 499.47 512.24 L 499.57 512.67 L 500.25 512.86 L 500.24 512.55 L 499.93 512.10 L 499.47 512.24 Z M 515.44 497.85 L 515.59 498.35 L 515.79 498.20 L 515.65 497.60 L 515.44 497.85 Z M 526.03 500.12 L 526.23 500.50 L 526.47 500.22 L 526.03 500.12 Z M 496.81 502.16 L 496.98 502.32 L 497.76 501.88 L 497.65 501.72 L 496.88 502.03 L 496.81 502.16 Z M 507.78 481.15 L 507.92 481.17 L 508.78 480.40 L 508.85 480.11 L 508.50 480.05 L 507.92 480.78 L 507.78 481.15 Z M 506.98 476.71 L 507.32 476.66 L 507.42 475.78 L 507.00 475.82 L 506.98 476.71 Z M 510.00 482.61 L 510.21 482.83 L 510.51 482.21 L 510.24 482.20 L 510.00 482.61 Z M 475.40 424.49 L 475.46 424.73 L 475.83 424.80 L 475.60 424.28 L 475.40 424.49 Z M 499.93 503.22 L 499.65 503.08 L 499.46 503.35 L 499.69 503.60 L 499.93 503.22 Z M 458.43 513.86 L 458.43 514.12 L 458.97 514.23 L 459.62 513.88 L 459.95 513.36 L 459.90 512.81 L 459.44 512.86 L 458.61 513.44 L 458.43 513.86 Z M 528.82 475.99 L 529.22 476.73 L 529.29 476.57 L 528.94 475.85 L 528.82 475.99 Z M 476.62 423.27 L 476.97 423.56 L 476.89 423.21 L 476.62 423.27 Z M 485.08 424.53 L 485.91 423.91 L 485.79 423.80 L 485.00 424.25 L 485.08 424.53 Z M 477.35 428.73 L 477.66 429.07 L 478.05 428.85 L 478.06 428.63 L 477.35 428.73 Z M 498.96 491.36 L 499.16 491.52 L 499.23 490.28 L 499.07 490.29 L 498.96 491.36 Z M 508.76 510.62 L 508.61 511.11 L 508.97 511.14 L 509.04 510.82 L 508.76 510.62 Z M 527.06 494.20 L 527.16 494.47 L 527.44 494.42 L 527.06 494.20 Z M 513.85 489.57 L 513.91 489.77 L 514.38 489.48 L 513.92 489.37 L 513.85 489.57 Z M 529.92 486.61 L 530.15 486.70 L 530.29 486.42 L 529.92 486.61 Z M 507.84 427.60 L 509.02 427.31 L 508.88 427.13 L 507.86 427.30 L 507.84 427.60 Z M 521.05 498.59 L 520.52 498.70 L 520.70 499.13 L 521.04 499.14 L 521.28 498.88 L 521.05 498.59 Z M 497.04 499.53 L 497.21 499.82 L 497.42 499.58 L 497.04 499.53 Z M 507.46 516.54 L 507.52 516.81 L 508.04 516.52 L 507.85 516.28 L 507.46 516.54 Z M 505.67 484.12 L 505.88 484.07 L 506.39 483.49 L 506.15 483.33 L 505.67 484.12 Z M 539.64 483.54 L 539.93 483.75 L 540.32 483.22 L 540.27 482.87 L 539.97 482.85 L 539.69 483.17 L 539.64 483.54 Z M 503.07 489.05 L 503.29 489.07 L 503.94 488.61 L 503.80 488.44 L 503.31 488.70 L 503.07 489.05 Z M 507.70 476.33 L 508.04 476.74 L 508.20 476.38 L 508.02 476.09 L 507.70 476.33 Z M 527.91 486.33 L 528.06 486.47 L 528.63 486.45 L 528.54 486.19 L 527.91 486.33 Z M 463.86 511.08 L 463.98 511.54 L 464.84 511.32 L 465.31 510.66 L 464.99 510.50 L 463.88 510.96 L 463.86 511.08 Z M 474.26 506.85 L 474.61 506.86 L 474.74 506.58 L 474.26 506.85 Z M 513.60 507.01 L 513.73 507.34 L 513.99 506.99 L 513.60 507.01 Z M 492.49 511.52 L 492.64 511.58 L 493.13 511.14 L 492.99 511.05 L 492.49 511.52 Z M 501.33 481.93 L 501.22 482.18 L 501.70 482.04 L 501.56 481.73 L 501.33 481.93 Z M 534.33 488.24 L 534.76 488.30 L 534.76 488.00 L 534.50 487.85 L 534.33 488.24 Z M 502.76 428.94 L 503.79 429.01 L 503.73 428.77 L 503.34 428.75 L 502.76 428.94 Z M 465.41 512.18 L 465.76 512.40 L 465.74 511.97 L 465.55 511.86 L 465.41 512.18 Z M 516.20 507.20 L 516.33 507.52 L 516.67 507.51 L 516.82 507.21 L 516.71 506.87 L 516.25 506.91 L 516.20 507.20 Z M 475.05 517.01 L 475.09 517.22 L 475.51 517.02 L 475.81 516.51 L 475.33 516.37 L 475.05 517.01 Z M 476.28 505.31 L 476.36 505.83 L 476.90 505.55 L 476.69 505.25 L 476.28 505.31 Z M 463.87 514.36 L 464.15 514.53 L 464.40 514.30 L 464.12 514.07 L 463.87 514.36 Z M 483.41 502.69 L 483.90 502.76 L 483.81 502.47 L 483.41 502.69 Z M 526.16 493.53 L 526.26 493.78 L 526.56 493.72 L 526.37 493.41 L 526.16 493.53 Z M 479.05 511.55 L 479.30 511.76 L 479.77 511.80 L 480.02 511.61 L 479.96 511.32 L 479.36 511.19 L 479.05 511.55 Z M 505.30 433.52 L 505.39 433.75 L 505.65 433.58 L 505.30 433.52 Z M 510.77 480.38 L 511.06 480.54 L 511.15 480.30 L 510.77 480.38 Z M 501.65 429.32 L 501.70 429.59 L 501.93 429.29 L 501.65 429.32 Z M 521.76 490.57 L 521.99 490.88 L 522.28 490.59 L 522.02 490.22 L 521.76 490.57 Z M 534.42 484.39 L 535.27 484.58 L 535.85 484.60 L 535.99 484.27 L 535.48 483.86 L 534.69 483.94 L 534.42 484.39 Z M 509.41 520.12 L 509.05 520.65 L 509.57 520.59 L 509.41 520.12 Z M 488.36 502.85 L 488.74 503.07 L 488.88 502.87 L 488.36 502.85 Z M 476.41 515.91 L 476.79 515.93 L 477.23 515.36 L 476.99 515.09 L 476.62 515.28 L 476.41 515.91 Z M 481.98 503.63 L 482.27 503.71 L 482.33 503.45 L 481.98 503.63 Z M 485.29 535.15 L 485.34 535.44 L 485.66 535.52 L 485.65 534.88 L 485.29 535.15 Z M 506.77 503.52 L 507.25 503.54 L 507.63 503.16 L 507.46 502.96 L 506.95 503.16 L 506.77 503.52 Z M 509.56 512.46 L 509.96 512.80 L 510.03 512.21 L 509.71 512.17 L 509.56 512.46 Z M 489.62 508.04 L 490.04 507.84 L 489.67 507.80 L 489.62 508.04 Z M 496.41 523.05 L 496.21 523.48 L 496.65 523.25 L 496.41 523.05 Z M 528.49 425.78 L 528.63 426.26 L 528.95 426.22 L 529.04 425.63 L 528.73 425.49 L 528.49 425.78 Z M 535.26 490.62 L 535.32 490.91 L 535.65 490.90 L 535.53 490.45 L 535.26 490.62 Z M 490.12 393.38 L 490.59 393.29 L 490.69 393.02 L 490.49 392.78 L 490.12 392.81 L 489.99 393.12 L 490.12 393.38 Z M 505.20 429.01 L 505.58 429.01 L 505.96 428.78 L 505.38 428.67 L 505.20 429.01 Z M 498.82 396.62 L 499.25 396.70 L 499.67 396.48 L 499.73 395.95 L 499.27 395.81 L 498.56 395.96 L 498.48 396.20 L 498.82 396.62 Z M 486.57 542.28 L 486.62 542.81 L 486.90 542.88 L 487.28 542.60 L 486.86 542.13 L 486.57 542.28 Z M 476.08 513.25 L 476.36 513.46 L 476.85 513.46 L 476.85 513.04 L 476.22 512.99 L 476.08 513.25 Z M 482.36 503.22 L 482.74 503.42 L 482.82 503.11 L 482.36 503.22 Z M 489.07 513.90 L 489.46 514.07 L 489.48 513.66 L 489.07 513.90 Z M 485.87 537.56 L 486.11 538.02 L 486.19 538.56 L 486.49 538.31 L 486.21 537.49 L 485.87 537.56 Z M 485.25 536.58 L 485.47 537.00 L 485.69 536.85 L 485.65 536.37 L 485.31 536.26 L 485.25 536.58 Z M 514.67 450.62 L 515.04 450.87 L 515.47 450.68 L 515.31 450.33 L 514.84 450.42 L 514.67 450.62 Z M 496.38 489.06 L 496.60 489.26 L 496.81 489.04 L 496.38 489.06 Z M 499.11 434.78 L 499.46 434.92 L 499.42 434.64 L 499.11 434.78 Z M 489.23 543.46 L 489.60 543.47 L 489.70 542.89 L 489.27 542.99 L 489.23 543.46 Z M 485.60 542.25 L 485.72 542.64 L 486.16 542.44 L 486.06 542.14 L 485.60 542.25 Z M 483.46 536.94 L 483.83 537.00 L 483.82 536.72 L 483.46 536.94 Z M 482.17 421.50 L 482.46 421.57 L 482.54 421.30 L 482.01 421.12 L 482.17 421.50 Z M 482.25 432.51 L 482.52 432.11 L 482.32 432.05 L 481.94 432.33 L 482.25 432.51 Z M 486.17 539.57 L 486.46 539.78 L 486.93 539.53 L 486.99 539.17 L 486.29 539.22 L 486.17 539.57 Z M 484.72 535.72 L 484.98 535.75 L 484.99 535.35 L 484.72 535.72 Z M 492.45 529.85 L 492.58 530.06 L 492.72 529.64 L 492.45 529.85 Z M 522.87 495.92 L 523.25 496.06 L 523.23 495.75 L 522.87 495.92 Z M 510.39 517.38 L 510.51 517.63 L 511.05 517.63 L 511.06 517.20 L 510.39 517.38 Z M 475.20 514.28 L 475.53 514.66 L 475.88 513.94 L 475.72 513.72 L 475.20 514.28 Z M 499.92 431.07 L 500.28 431.38 L 500.25 431.03 L 499.92 431.07 Z M 510.16 428.98 L 509.84 428.99 L 510.00 429.35 L 510.16 428.98 Z M 529.05 501.34 L 528.54 501.41 L 528.63 501.67 L 528.96 501.63 L 529.05 501.34 Z M 486.53 425.37 L 486.89 425.21 L 486.67 424.94 L 486.53 425.37 Z M 471.57 388.67 L 471.57 388.68 L 471.57 388.67 L 471.57 388.67 L 471.57 388.67 Z M 518.78 486.78 L 518.97 487.05 L 519.23 486.75 L 518.78 486.78 Z M 533.87 483.94 L 533.59 483.87 L 533.80 484.22 L 533.87 483.94 Z M 486.79 425.93 L 487.09 425.93 L 486.85 425.64 L 486.79 425.93 Z M 519.03 485.95 L 519.16 486.38 L 519.27 486.12 L 519.03 485.95 Z M 485.13 496.28 L 485.10 496.47 L 485.72 496.57 L 485.70 496.18 L 485.13 496.28 Z M 506.88 433.00 L 506.58 433.25 L 506.89 433.35 L 506.88 433.00 Z M 534.76 480.39 L 534.39 480.54 L 534.60 480.93 L 534.81 480.91 L 534.76 480.39 Z M 538.82 480.68 L 538.43 480.72 L 538.45 480.93 L 538.81 481.02 L 538.82 480.68 Z M 502.28 497.94 L 502.37 498.38 L 502.58 498.29 L 502.57 497.86 L 502.28 497.94 Z M 507.97 494.28 L 507.74 494.24 L 507.61 494.59 L 507.86 494.66 L 507.97 494.28 Z M 485.57 533.24 L 485.56 533.61 L 485.79 533.32 L 485.57 533.24 Z">
      <title>海南省</title>
    </path>
  </g>
</svg>