<?xml version="1.0" encoding="UTF-8"?>
<svg xmlns="http://www.w3.org/2000/svg" viewBox="0 0 800 600" width="800" height="600">
  <title>重庆市</title>
  <defs>
    <style>
      .region-path {
        fill: #e6f3ff;
        stroke: #2563eb;
        stroke-width: 1.5;
        stroke-linejoin: round;
        cursor: pointer;
        transition: all 0.2s ease;
      }
      .region-path:hover {
        fill: #bfdbfe;
        stroke: #1d4ed8;
        stroke-width: 2;
      }
      .region-label {
        fill: #1e40af;
        font-family: Arial, sans-serif;
        font-size: 24px;
        font-weight: bold;
        pointer-events: none;
      }
    </style>
  </defs>
  
  <g id="500000">
    <path id="500000-land" 
          class="region-path"
          data-region-id="500000"
          data-region-name="重庆市"
          d="M 421.51 299.53 L 421.81 299.07 L 422.58 299.48 L 422.87 299.33 L 422.47 298.90 L 422.74 298.85 L 422.84 298.12 L 423.11 297.95 L 422.73 297.28 L 422.42 297.09 L 422.33 296.51 L 422.55 296.34 L 423.45 297.14 L 423.45 297.52 L 423.72 297.81 L 424.03 297.81 L 424.03 298.06 L 424.39 298.25 L 424.04 298.29 L 424.23 298.52 L 423.92 298.83 L 424.01 299.28 L 423.52 299.55 L 423.49 299.95 L 424.19 299.76 L 424.86 300.04 L 424.97 300.31 L 425.38 300.13 L 425.16 299.60 L 425.29 299.23 L 425.69 299.14 L 425.48 298.68 L 425.76 298.48 L 426.00 298.87 L 426.24 298.51 L 426.61 298.50 L 426.85 297.76 L 426.61 297.82 L 426.17 297.14 L 426.40 296.88 L 426.67 296.92 L 427.20 296.58 L 427.50 297.03 L 427.88 296.93 L 427.83 296.15 L 428.20 296.05 L 428.17 295.83 L 429.47 295.77 L 430.14 295.97 L 430.02 296.29 L 430.36 296.31 L 430.18 296.50 L 430.27 296.97 L 430.55 297.08 L 430.71 296.76 L 431.40 296.57 L 431.52 296.21 L 431.98 296.18 L 432.28 295.53 L 432.57 295.19 L 432.28 295.02 L 432.11 294.68 L 431.77 294.51 L 432.10 294.18 L 431.83 293.66 L 432.27 293.63 L 432.43 293.28 L 432.23 293.18 L 432.16 292.70 L 432.57 292.50 L 433.04 292.81 L 433.91 292.35 L 434.10 293.06 L 434.28 292.90 L 434.84 292.93 L 435.26 293.15 L 435.76 292.54 L 436.40 293.17 L 436.13 294.11 L 436.54 294.26 L 436.40 294.77 L 436.99 295.02 L 437.15 294.55 L 437.42 294.54 L 437.60 294.28 L 438.64 294.20 L 439.10 293.72 L 439.92 294.06 L 440.37 293.86 L 441.02 294.19 L 441.24 293.66 L 441.54 293.79 L 441.45 294.14 L 441.68 295.01 L 441.94 295.20 L 442.07 295.72 L 441.96 296.07 L 442.02 296.52 L 442.36 296.65 L 442.36 296.97 L 441.96 297.34 L 441.81 297.94 L 442.91 298.41 L 443.56 298.48 L 443.57 298.37 L 444.33 298.14 L 444.96 298.54 L 444.63 298.85 L 444.70 299.39 L 444.31 299.47 L 444.45 300.17 L 444.68 300.46 L 444.68 300.76 L 444.34 300.97 L 444.38 301.42 L 444.70 301.61 L 445.28 301.51 L 445.17 301.25 L 445.59 300.82 L 445.50 300.60 L 445.00 300.24 L 445.17 300.04 L 445.62 299.98 L 445.72 299.78 L 446.10 300.30 L 446.45 300.56 L 446.24 300.94 L 446.48 301.03 L 446.26 301.83 L 445.90 302.05 L 446.02 302.61 L 446.37 302.77 L 446.88 302.44 L 447.23 302.91 L 447.64 302.70 L 447.94 302.73 L 448.00 303.01 L 448.79 303.29 L 449.00 302.69 L 449.62 303.07 L 449.78 302.88 L 449.57 302.41 L 449.94 302.10 L 450.31 301.35 L 450.32 300.65 L 450.72 300.10 L 451.15 300.06 L 451.57 299.85 L 451.56 299.40 L 452.04 298.97 L 451.91 298.54 L 451.34 298.69 L 451.17 298.55 L 450.82 298.78 L 450.73 298.38 L 451.54 298.01 L 451.35 297.81 L 451.78 297.49 L 451.83 297.23 L 451.23 296.93 L 451.28 296.67 L 451.17 295.83 L 451.44 295.11 L 451.76 294.74 L 451.78 294.45 L 452.04 294.17 L 451.97 293.92 L 451.22 293.72 L 451.14 293.38 L 450.96 293.10 L 450.42 292.74 L 450.17 292.86 L 449.87 292.37 L 450.20 291.81 L 449.83 291.62 L 449.89 290.87 L 449.36 290.43 L 449.09 290.88 L 448.72 290.84 L 448.56 291.16 L 447.89 291.23 L 448.05 290.47 L 447.98 290.10 L 447.53 290.04 L 447.34 289.73 L 447.57 289.41 L 447.47 289.02 L 447.83 288.66 L 447.70 288.34 L 447.38 288.43 L 447.57 288.09 L 447.11 287.79 L 446.46 288.02 L 446.63 287.77 L 446.51 287.44 L 446.16 287.88 L 445.53 287.46 L 445.38 286.84 L 445.42 286.32 L 445.19 285.75 L 444.59 285.66 L 444.13 286.13 L 443.81 286.62 L 444.05 286.84 L 443.60 287.06 L 443.59 287.28 L 443.14 286.93 L 442.89 286.93 L 442.95 286.54 L 442.74 286.60 L 442.76 286.15 L 442.21 285.89 L 442.86 285.49 L 443.21 285.65 L 443.71 285.43 L 443.73 284.87 L 443.92 284.42 L 443.88 283.71 L 443.69 283.65 L 444.02 283.17 L 444.25 282.61 L 444.08 282.55 L 444.40 281.60 L 444.01 281.45 L 443.79 281.04 L 443.56 280.98 L 443.14 280.52 L 442.83 280.57 L 442.53 280.34 L 442.82 279.93 L 442.63 279.70 L 442.79 279.14 L 443.26 279.20 L 443.68 279.05 L 444.13 279.19 L 444.25 279.39 L 445.10 278.66 L 445.03 278.25 L 445.50 278.16 L 445.61 278.60 L 446.07 279.12 L 446.55 278.93 L 446.74 279.15 L 447.06 279.03 L 447.63 278.39 L 448.44 277.74 L 448.79 277.75 L 449.17 277.45 L 449.46 277.61 L 449.89 277.55 L 449.83 277.92 L 449.82 278.18 L 449.79 278.23 L 449.78 278.24 L 449.83 278.33 L 449.80 278.38 L 450.22 278.84 L 450.72 278.59 L 450.72 278.59 L 451.27 278.23 L 451.83 277.71 L 451.99 278.03 L 452.47 278.54 L 452.22 278.84 L 452.41 279.20 L 453.07 278.44 L 453.24 278.07 L 454.28 277.36 L 454.36 277.62 L 454.68 277.54 L 454.85 277.06 L 455.21 276.96 L 455.58 276.59 L 455.54 276.36 L 456.00 276.12 L 456.82 275.45 L 457.32 275.29 L 458.00 274.92 L 458.51 275.14 L 459.18 275.09 L 459.30 275.65 L 459.60 275.95 L 459.95 275.96 L 460.67 274.80 L 460.69 274.36 L 460.89 274.10 L 460.55 274.02 L 460.55 273.56 L 460.34 273.55 L 460.34 272.96 L 460.62 272.67 L 460.96 272.62 L 461.17 272.24 L 460.96 272.02 L 460.71 270.98 L 460.77 270.62 L 460.32 269.63 L 459.65 269.62 L 459.48 269.35 L 458.96 268.96 L 458.52 269.00 L 458.78 268.61 L 458.00 268.50 L 457.41 268.12 L 456.27 268.20 L 456.46 267.68 L 456.65 267.63 L 456.37 267.36 L 456.31 266.62 L 455.81 266.42 L 455.18 266.50 L 454.80 266.35 L 454.43 266.31 L 453.94 266.46 L 453.35 266.39 L 452.68 266.57 L 451.65 266.45 L 451.66 266.18 L 451.36 266.01 L 451.63 265.83 L 451.59 265.60 L 450.75 265.41 L 450.71 265.01 L 450.01 264.63 L 449.62 264.25 L 448.59 263.72 L 447.71 263.67 L 447.04 263.11 L 446.53 263.01 L 446.15 262.73 L 445.97 262.41 L 445.38 262.45 L 444.43 261.73 L 444.00 261.67 L 443.65 261.43 L 443.34 261.62 L 442.50 261.50 L 442.20 261.73 L 442.30 261.92 L 442.30 261.92 L 442.29 261.92 L 442.29 261.92 L 442.51 261.99 L 443.05 262.58 L 442.82 262.88 L 442.22 262.72 L 441.93 262.82 L 442.12 263.15 L 441.78 263.31 L 442.20 263.63 L 442.01 263.81 L 441.55 263.54 L 441.05 263.86 L 441.92 264.96 L 442.36 265.03 L 442.42 265.28 L 442.81 265.49 L 443.08 265.44 L 443.16 265.79 L 443.91 266.03 L 443.60 266.27 L 443.70 266.69 L 444.03 266.98 L 443.74 266.98 L 443.22 267.28 L 442.95 267.31 L 442.41 267.75 L 442.36 268.24 L 441.88 268.29 L 441.93 268.57 L 441.00 268.71 L 440.79 268.63 L 440.35 268.78 L 440.37 269.03 L 440.69 269.07 L 440.60 269.63 L 439.96 270.03 L 440.29 270.39 L 439.35 271.10 L 438.76 271.26 L 438.69 271.63 L 439.15 271.48 L 439.29 271.76 L 438.63 272.68 L 438.46 272.74 L 438.64 273.24 L 438.99 273.34 L 438.40 273.62 L 438.19 274.05 L 437.77 273.99 L 437.83 274.72 L 438.31 274.83 L 437.91 275.10 L 436.82 276.03 L 436.17 275.75 L 435.92 275.78 L 435.88 275.30 L 435.67 275.08 L 435.18 275.17 L 434.68 275.73 L 433.98 275.46 L 433.34 275.39 L 433.00 275.55 L 433.16 275.86 L 432.70 276.25 L 432.70 276.25 L 432.40 276.57 L 432.75 276.94 L 432.95 277.36 L 433.36 277.56 L 433.03 278.04 L 432.43 278.57 L 432.59 278.72 L 432.23 278.84 L 431.82 279.39 L 431.51 280.24 L 430.99 280.75 L 430.67 281.48 L 430.29 282.03 L 429.07 283.31 L 428.83 283.27 L 428.87 283.59 L 428.60 283.80 L 428.57 283.83 L 428.56 283.82 L 428.55 283.79 L 428.21 283.86 L 427.81 283.37 L 427.75 283.38 L 427.42 283.86 L 427.10 283.98 L 426.57 283.90 L 426.31 283.73 L 426.19 283.92 L 426.19 283.92 L 425.77 284.07 L 425.22 283.97 L 425.14 283.64 L 424.88 283.48 L 424.89 283.09 L 424.60 282.98 L 424.65 282.62 L 424.18 282.31 L 423.97 281.80 L 423.98 281.80 L 423.97 281.80 L 423.98 281.80 L 423.98 281.80 L 423.98 281.80 L 423.98 281.80 L 424.29 281.69 L 423.97 281.22 L 423.44 280.98 L 423.28 281.17 L 422.80 281.18 L 422.19 281.05 L 422.07 281.61 L 421.79 281.73 L 421.25 281.70 L 421.10 281.91 L 420.81 281.78 L 420.70 282.12 L 420.37 282.07 L 420.33 282.21 L 420.04 282.32 L 419.50 281.83 L 419.38 281.10 L 419.00 280.89 L 419.01 281.11 L 418.38 280.79 L 417.96 280.37 L 417.04 280.39 L 416.60 280.05 L 416.04 279.99 L 415.82 279.73 L 415.48 279.82 L 415.15 280.26 L 415.09 280.70 L 414.67 280.90 L 414.73 281.63 L 414.73 281.63 L 414.22 281.61 L 413.74 281.39 L 413.69 281.82 L 414.13 282.07 L 413.93 282.31 L 413.09 282.34 L 412.98 282.39 L 412.82 282.66 L 413.45 282.60 L 413.22 282.89 L 413.28 282.90 L 413.31 282.93 L 413.31 282.96 L 413.92 283.20 L 413.89 283.46 L 414.28 283.54 L 414.39 283.84 L 414.73 283.81 L 415.08 284.06 L 414.76 284.50 L 414.84 284.69 L 414.55 285.03 L 414.70 285.35 L 414.92 285.37 L 414.60 285.90 L 413.60 285.93 L 413.31 286.12 L 413.23 286.90 L 412.75 287.28 L 412.26 287.17 L 412.21 287.62 L 411.62 287.48 L 411.21 288.10 L 410.87 288.17 L 410.72 288.47 L 410.34 288.69 L 410.43 289.10 L 410.77 289.85 L 410.73 290.04 L 411.28 289.89 L 411.28 289.89 L 411.41 290.06 L 411.13 290.25 L 411.69 290.26 L 411.85 290.46 L 411.60 290.96 L 411.62 291.38 L 412.09 291.26 L 412.03 291.62 L 412.59 291.68 L 412.67 291.87 L 413.05 291.72 L 413.81 291.71 L 413.98 291.99 L 414.47 291.63 L 414.65 292.34 L 414.56 292.78 L 414.82 293.22 L 415.06 293.27 L 414.82 293.51 L 415.12 293.90 L 414.96 294.21 L 415.21 294.47 L 415.17 294.70 L 415.58 295.05 L 415.53 295.27 L 415.88 295.19 L 416.11 295.37 L 416.70 295.44 L 417.31 294.96 L 417.64 294.88 L 418.05 295.07 L 418.14 295.58 L 418.37 295.44 L 418.68 295.66 L 419.17 295.63 L 419.43 295.44 L 419.78 295.60 L 420.38 296.21 L 420.18 296.50 L 420.41 296.90 L 420.47 297.32 L 420.80 297.68 L 420.78 298.24 L 421.23 298.93 L 421.07 299.24 L 421.51 299.53 Z M 449.82 278.18 L 449.83 277.92 L 449.69 278.25 L 449.75 278.24 L 449.78 278.24 L 449.79 278.23 L 449.82 278.18 Z M 413.31 282.96 L 413.31 282.93 L 413.28 282.90 L 413.22 282.89 L 413.31 282.96 Z M 449.75 278.24 L 449.69 278.25 L 449.80 278.38 L 449.83 278.33 L 449.75 278.24 Z M 428.60 283.80 L 428.55 283.79 L 428.56 283.82 L 428.57 283.83 L 428.60 283.80 Z">
      <title>重庆市</title>
    </path>
  </g>
</svg>