<?xml version="1.0" encoding="UTF-8"?>
<svg xmlns="http://www.w3.org/2000/svg" viewBox="0 0 800 600" width="800" height="600">
  <title>四川省</title>
  <defs>
    <style>
      .region-path {
        fill: #e6f3ff;
        stroke: #2563eb;
        stroke-width: 1.5;
        stroke-linejoin: round;
        cursor: pointer;
        transition: all 0.2s ease;
      }
      .region-path:hover {
        fill: #bfdbfe;
        stroke: #1d4ed8;
        stroke-width: 2;
      }
      .region-label {
        fill: #1e40af;
        font-family: Arial, sans-serif;
        font-size: 24px;
        font-weight: bold;
        pointer-events: none;
      }
    </style>
  </defs>
  
  <g id="510000">
    <path id="510000-land" 
          class="region-path"
          data-region-id="510000"
          data-region-name="四川省"
          d="M 367.54 313.29 L 367.57 313.52 L 367.31 314.27 L 367.44 314.36 L 367.22 315.10 L 368.18 315.53 L 368.16 315.77 L 368.55 315.81 L 368.58 316.35 L 369.03 316.35 L 369.59 316.55 L 369.94 316.98 L 369.52 317.71 L 369.82 317.90 L 369.84 318.21 L 370.32 318.03 L 370.56 318.13 L 370.42 317.68 L 370.63 317.55 L 371.13 317.74 L 370.50 318.53 L 370.79 318.73 L 370.58 319.07 L 370.59 319.42 L 369.98 319.44 L 369.91 319.57 L 370.19 320.20 L 370.56 320.57 L 371.06 320.53 L 371.30 320.87 L 371.67 321.00 L 372.42 321.68 L 372.39 322.00 L 372.65 322.12 L 372.44 322.40 L 371.99 322.57 L 371.88 322.81 L 372.34 323.38 L 372.96 323.21 L 373.44 323.43 L 373.82 323.96 L 374.18 324.09 L 374.06 324.52 L 374.51 324.85 L 374.46 325.23 L 374.69 325.20 L 375.13 324.68 L 375.44 324.61 L 375.70 324.83 L 376.39 324.71 L 377.00 325.03 L 377.29 325.00 L 377.75 324.58 L 377.98 324.19 L 378.69 323.73 L 378.71 323.51 L 379.79 323.17 L 380.24 322.63 L 380.73 322.59 L 381.79 322.20 L 382.09 321.95 L 382.69 322.22 L 382.79 322.52 L 382.39 323.11 L 383.00 323.41 L 383.52 323.53 L 383.84 322.92 L 384.31 322.61 L 384.81 322.53 L 385.28 321.93 L 385.43 322.20 L 386.28 322.18 L 386.52 321.85 L 386.42 321.43 L 386.43 320.70 L 386.85 320.67 L 387.08 320.38 L 387.08 319.95 L 386.90 319.94 L 386.81 318.82 L 386.59 318.67 L 386.62 318.34 L 386.37 317.76 L 386.45 317.67 L 386.19 317.02 L 386.01 316.97 L 385.46 316.25 L 385.45 315.33 L 385.20 315.07 L 385.64 313.96 L 385.54 312.98 L 385.33 312.66 L 385.33 312.24 L 385.50 312.05 L 385.93 311.14 L 386.43 311.53 L 387.11 311.10 L 387.37 311.23 L 388.00 310.98 L 388.03 310.68 L 388.51 309.92 L 388.95 309.44 L 389.50 309.52 L 389.56 308.78 L 390.16 308.31 L 390.37 308.00 L 390.61 307.99 L 391.31 307.26 L 391.59 307.10 L 391.82 306.60 L 391.74 305.91 L 392.28 305.20 L 391.88 305.34 L 391.58 304.63 L 391.29 304.76 L 391.00 304.52 L 391.41 303.71 L 392.06 303.23 L 392.48 302.58 L 393.21 302.28 L 393.71 302.57 L 393.81 302.92 L 394.21 302.53 L 394.53 302.56 L 395.13 302.02 L 395.63 301.70 L 395.38 301.28 L 395.45 301.00 L 395.13 300.42 L 395.14 300.21 L 394.64 299.53 L 394.86 299.14 L 395.23 298.89 L 395.17 298.71 L 395.36 298.06 L 395.74 298.55 L 395.97 298.43 L 396.42 298.75 L 397.52 298.47 L 397.90 298.72 L 398.12 298.41 L 398.67 298.31 L 399.29 298.39 L 399.52 298.13 L 399.77 298.43 L 400.16 298.60 L 400.76 298.25 L 401.31 298.48 L 401.23 298.78 L 400.79 298.81 L 400.59 299.22 L 400.25 299.37 L 399.60 299.42 L 399.68 299.80 L 399.54 300.79 L 399.82 301.42 L 400.16 301.80 L 400.46 301.51 L 400.89 301.56 L 400.97 301.96 L 401.25 302.18 L 401.56 302.18 L 401.70 302.48 L 401.49 302.79 L 401.07 302.87 L 401.11 303.18 L 401.51 303.30 L 401.55 303.80 L 401.06 304.03 L 400.77 304.44 L 400.05 304.45 L 400.10 304.60 L 400.66 304.84 L 401.06 305.47 L 401.56 305.73 L 402.17 306.24 L 402.35 306.13 L 402.84 306.63 L 403.20 306.45 L 403.46 306.53 L 403.91 306.21 L 404.61 305.99 L 404.80 306.18 L 405.16 306.00 L 405.63 306.01 L 406.11 305.86 L 406.42 305.61 L 406.27 305.37 L 407.01 304.76 L 407.06 304.32 L 407.29 304.31 L 407.91 303.97 L 408.51 304.23 L 409.01 304.24 L 409.20 304.41 L 409.01 304.76 L 409.20 305.02 L 409.53 305.07 L 409.84 304.88 L 410.07 305.01 L 410.22 305.64 L 409.68 306.06 L 409.96 306.76 L 410.51 306.94 L 410.10 307.10 L 410.31 307.36 L 410.28 307.96 L 410.46 308.04 L 410.93 307.58 L 411.83 307.31 L 412.54 307.37 L 413.07 307.88 L 413.54 307.93 L 413.73 308.44 L 414.15 308.26 L 414.73 308.26 L 414.76 308.03 L 415.22 307.90 L 416.06 308.01 L 416.26 307.75 L 416.83 307.60 L 416.89 307.78 L 417.48 307.57 L 417.87 307.60 L 418.29 307.29 L 418.88 307.26 L 419.64 307.53 L 420.15 307.39 L 420.81 306.96 L 421.13 306.44 L 421.00 306.03 L 420.79 306.02 L 420.82 305.63 L 421.03 305.47 L 420.60 304.90 L 420.18 304.86 L 420.40 304.29 L 419.78 303.59 L 419.14 303.29 L 418.60 303.29 L 417.38 303.86 L 417.05 303.49 L 416.55 303.74 L 416.19 303.32 L 416.49 302.51 L 416.06 302.33 L 415.81 301.80 L 415.43 301.50 L 415.19 301.78 L 415.19 301.78 L 414.91 301.84 L 414.83 302.16 L 414.41 302.03 L 413.90 301.62 L 414.06 301.22 L 413.94 300.51 L 413.62 300.43 L 413.73 299.61 L 414.34 299.44 L 414.45 298.87 L 414.66 298.90 L 414.99 298.59 L 415.12 298.86 L 415.40 298.65 L 415.65 298.76 L 416.44 298.81 L 416.49 298.02 L 416.99 297.86 L 417.29 297.09 L 417.64 297.27 L 417.95 297.77 L 418.52 297.91 L 418.70 298.38 L 419.17 298.31 L 419.41 298.45 L 419.55 298.87 L 420.27 299.39 L 420.66 299.41 L 420.79 299.74 L 421.25 300.07 L 421.56 300.00 L 421.51 299.53 L 421.07 299.24 L 421.23 298.93 L 420.78 298.24 L 420.80 297.68 L 420.47 297.32 L 420.41 296.90 L 420.18 296.50 L 420.38 296.21 L 419.78 295.60 L 419.43 295.44 L 419.17 295.63 L 418.68 295.66 L 418.37 295.44 L 418.14 295.58 L 418.05 295.07 L 417.64 294.88 L 417.31 294.96 L 416.70 295.44 L 416.11 295.37 L 415.88 295.19 L 415.53 295.27 L 415.58 295.05 L 415.17 294.70 L 415.21 294.47 L 414.96 294.21 L 415.12 293.90 L 414.82 293.51 L 415.06 293.27 L 414.82 293.22 L 414.56 292.78 L 414.65 292.34 L 414.47 291.63 L 413.98 291.99 L 413.81 291.71 L 413.05 291.72 L 412.67 291.87 L 412.59 291.68 L 412.03 291.62 L 412.09 291.26 L 411.62 291.38 L 411.60 290.96 L 411.85 290.46 L 411.69 290.26 L 411.13 290.25 L 411.41 290.06 L 411.28 289.89 L 411.28 289.89 L 410.73 290.04 L 410.77 289.85 L 410.43 289.10 L 410.34 288.69 L 410.72 288.47 L 410.87 288.17 L 411.21 288.10 L 411.62 287.48 L 412.21 287.62 L 412.26 287.17 L 412.75 287.28 L 413.23 286.90 L 413.31 286.12 L 413.60 285.93 L 414.60 285.90 L 414.92 285.37 L 414.70 285.35 L 414.55 285.03 L 414.84 284.69 L 414.76 284.50 L 415.08 284.06 L 414.73 283.81 L 414.39 283.84 L 414.28 283.54 L 413.89 283.46 L 413.92 283.20 L 413.31 282.96 L 413.22 282.89 L 413.45 282.60 L 412.82 282.66 L 412.98 282.39 L 413.03 282.30 L 413.06 282.32 L 413.09 282.34 L 413.93 282.31 L 414.13 282.07 L 413.69 281.82 L 413.74 281.39 L 414.22 281.61 L 414.73 281.63 L 414.73 281.63 L 414.67 280.90 L 415.09 280.70 L 415.15 280.26 L 415.48 279.82 L 415.82 279.73 L 416.04 279.99 L 416.60 280.05 L 417.04 280.39 L 417.96 280.37 L 418.38 280.79 L 419.01 281.11 L 419.00 280.89 L 419.38 281.10 L 419.50 281.83 L 420.04 282.32 L 420.33 282.21 L 420.33 282.13 L 420.33 282.09 L 420.37 282.07 L 420.70 282.12 L 420.81 281.78 L 421.10 281.91 L 421.25 281.70 L 421.79 281.73 L 422.07 281.61 L 422.19 281.05 L 422.80 281.18 L 423.28 281.17 L 423.44 280.98 L 423.97 281.22 L 424.29 281.69 L 423.98 281.80 L 423.98 281.80 L 423.98 281.80 L 423.98 281.80 L 423.97 281.80 L 423.98 281.80 L 423.97 281.80 L 424.18 282.31 L 424.65 282.62 L 424.60 282.98 L 424.89 283.09 L 424.88 283.48 L 425.14 283.64 L 425.22 283.97 L 425.77 284.07 L 426.19 283.92 L 426.19 283.92 L 426.31 283.73 L 426.57 283.90 L 427.10 283.98 L 427.42 283.86 L 427.75 283.38 L 427.74 283.33 L 427.76 283.33 L 427.76 283.34 L 427.78 283.34 L 427.79 283.33 L 427.80 283.34 L 427.81 283.37 L 428.21 283.86 L 428.55 283.79 L 428.60 283.80 L 428.87 283.59 L 428.83 283.27 L 429.07 283.31 L 430.29 282.03 L 430.67 281.48 L 430.99 280.75 L 431.51 280.24 L 431.82 279.39 L 432.23 278.84 L 432.59 278.72 L 432.43 278.57 L 433.03 278.04 L 433.36 277.56 L 432.95 277.36 L 432.75 276.94 L 432.40 276.57 L 432.70 276.25 L 432.70 276.25 L 433.16 275.86 L 433.00 275.55 L 433.34 275.39 L 433.98 275.46 L 434.68 275.73 L 435.18 275.17 L 435.67 275.08 L 435.88 275.30 L 435.92 275.78 L 436.17 275.75 L 436.82 276.03 L 437.91 275.10 L 438.31 274.83 L 437.83 274.72 L 437.77 273.99 L 438.19 274.05 L 438.40 273.62 L 438.99 273.34 L 438.64 273.24 L 438.46 272.74 L 438.63 272.68 L 439.29 271.76 L 439.15 271.48 L 438.69 271.63 L 438.76 271.26 L 439.35 271.10 L 440.29 270.39 L 439.96 270.03 L 440.60 269.63 L 440.69 269.07 L 440.37 269.03 L 440.35 268.78 L 440.79 268.63 L 441.00 268.71 L 441.93 268.57 L 441.88 268.29 L 442.36 268.24 L 442.41 267.75 L 442.95 267.31 L 443.22 267.28 L 443.74 266.98 L 444.03 266.98 L 443.70 266.69 L 443.60 266.27 L 443.91 266.03 L 443.16 265.79 L 443.08 265.44 L 442.81 265.49 L 442.42 265.28 L 442.36 265.03 L 441.92 264.96 L 441.05 263.86 L 441.55 263.54 L 442.01 263.81 L 442.20 263.63 L 441.78 263.31 L 442.12 263.15 L 441.93 262.82 L 442.22 262.72 L 442.82 262.88 L 443.05 262.58 L 442.51 261.99 L 442.29 261.92 L 442.29 261.92 L 442.30 261.92 L 442.30 261.92 L 442.20 261.73 L 442.50 261.50 L 443.34 261.62 L 443.65 261.43 L 443.62 260.97 L 443.23 260.71 L 442.66 260.90 L 442.40 260.78 L 441.59 261.11 L 440.86 260.67 L 440.23 261.22 L 439.99 261.04 L 439.85 261.24 L 439.26 261.10 L 438.55 261.32 L 438.62 261.68 L 438.15 262.00 L 437.58 261.47 L 437.23 261.29 L 436.96 261.43 L 436.41 260.95 L 435.81 260.01 L 435.34 260.08 L 435.05 259.40 L 434.72 259.23 L 434.20 259.25 L 433.46 259.55 L 433.08 259.11 L 432.73 259.19 L 432.78 258.81 L 432.55 258.69 L 432.52 258.02 L 431.96 257.91 L 431.70 258.26 L 431.25 258.44 L 430.98 258.78 L 430.73 259.34 L 430.20 259.07 L 429.97 258.66 L 429.31 258.52 L 428.83 257.89 L 429.12 257.29 L 429.02 256.78 L 428.62 256.40 L 428.69 256.17 L 428.13 256.04 L 427.09 256.22 L 427.00 256.04 L 426.49 256.01 L 426.17 256.21 L 425.85 256.13 L 425.75 255.89 L 425.23 255.85 L 424.58 256.31 L 424.13 256.45 L 423.70 256.38 L 423.00 256.59 L 422.80 256.78 L 422.31 256.68 L 422.00 257.12 L 421.67 257.02 L 421.24 256.56 L 420.75 256.47 L 420.41 256.53 L 420.27 256.33 L 419.44 256.28 L 418.88 256.05 L 418.37 255.66 L 418.38 255.60 L 418.60 254.97 L 418.37 254.93 L 418.09 254.55 L 417.75 254.92 L 417.31 254.71 L 416.92 254.95 L 416.53 254.82 L 416.07 255.04 L 415.82 254.97 L 415.79 255.53 L 415.35 255.74 L 415.24 255.56 L 414.72 255.64 L 414.29 255.99 L 413.45 256.27 L 413.33 255.96 L 413.11 256.00 L 413.02 255.28 L 412.80 255.32 L 412.70 254.73 L 412.40 254.46 L 412.44 254.06 L 412.11 253.87 L 411.56 253.96 L 411.50 254.33 L 411.21 254.43 L 411.37 254.70 L 411.37 254.70 L 411.70 255.39 L 411.97 255.56 L 411.92 255.92 L 411.09 256.13 L 410.86 256.44 L 410.35 256.71 L 410.00 256.75 L 409.54 256.61 L 409.50 256.92 L 409.18 257.11 L 408.42 257.36 L 408.09 256.91 L 407.54 256.77 L 406.49 257.22 L 406.04 257.29 L 405.67 256.74 L 405.40 256.64 L 405.15 256.85 L 404.57 256.93 L 404.12 256.53 L 403.57 256.65 L 403.04 256.30 L 402.94 256.03 L 402.36 255.97 L 402.21 255.70 L 401.66 255.76 L 400.67 254.99 L 399.95 254.85 L 399.77 254.16 L 399.89 253.74 L 400.48 253.77 L 400.82 253.64 L 400.88 253.21 L 401.32 253.04 L 400.96 252.78 L 400.40 252.76 L 400.82 252.02 L 400.54 251.50 L 400.30 250.83 L 400.26 250.36 L 400.05 249.99 L 400.36 249.88 L 400.90 250.06 L 401.25 249.76 L 400.78 249.57 L 399.93 249.66 L 399.72 249.09 L 399.19 248.96 L 399.11 248.52 L 398.77 248.25 L 398.51 247.52 L 398.73 246.93 L 397.97 246.27 L 397.38 246.04 L 396.70 246.20 L 395.46 246.08 L 394.60 246.32 L 393.70 245.96 L 393.46 246.04 L 393.23 245.80 L 392.69 245.73 L 392.38 245.90 L 392.26 246.19 L 391.93 246.12 L 392.19 245.69 L 391.91 244.78 L 391.35 244.83 L 391.04 245.34 L 390.21 245.44 L 389.42 245.12 L 389.49 244.83 L 389.12 244.71 L 388.90 244.91 L 388.25 244.80 L 388.13 244.66 L 388.42 243.81 L 388.24 243.52 L 387.90 243.49 L 387.78 243.27 L 388.17 242.80 L 388.06 242.40 L 387.78 242.43 L 387.88 242.10 L 388.39 241.96 L 387.80 241.62 L 387.82 241.10 L 387.57 240.90 L 387.07 240.76 L 386.60 240.87 L 386.26 240.65 L 386.30 240.17 L 386.01 239.76 L 385.62 239.54 L 385.08 239.66 L 385.05 239.98 L 384.44 239.96 L 384.25 240.33 L 383.72 240.34 L 383.37 240.73 L 383.05 240.79 L 382.92 241.06 L 382.38 241.25 L 382.97 241.61 L 382.90 241.95 L 382.55 241.75 L 381.48 241.89 L 381.05 242.03 L 380.70 241.88 L 380.38 242.44 L 380.24 243.08 L 379.75 243.10 L 379.44 242.85 L 379.14 243.02 L 378.75 242.92 L 378.51 243.17 L 377.91 242.96 L 377.58 243.15 L 378.79 244.22 L 378.88 244.64 L 378.69 244.99 L 379.24 245.02 L 379.53 245.33 L 379.12 245.70 L 379.72 245.63 L 379.44 246.25 L 379.76 246.87 L 380.73 247.19 L 381.12 247.52 L 380.80 247.63 L 380.95 247.95 L 380.96 248.49 L 380.81 248.43 L 380.24 248.96 L 379.99 248.87 L 379.39 249.02 L 379.24 248.86 L 378.84 248.91 L 378.43 249.53 L 378.16 249.66 L 378.42 250.58 L 378.25 250.83 L 377.83 250.63 L 377.67 250.31 L 377.38 250.16 L 377.10 250.79 L 377.10 251.03 L 376.74 251.18 L 376.11 251.08 L 375.50 251.21 L 375.36 251.56 L 375.00 251.74 L 374.78 252.08 L 374.36 251.91 L 374.53 251.23 L 374.41 250.93 L 373.79 250.57 L 373.78 250.36 L 374.90 249.89 L 375.00 249.17 L 375.29 248.73 L 375.61 248.56 L 375.20 248.15 L 375.21 247.56 L 374.97 247.16 L 374.55 246.90 L 374.42 247.40 L 373.92 247.38 L 373.78 247.57 L 373.86 247.62 L 373.78 248.42 L 373.02 248.65 L 372.68 249.17 L 372.54 249.80 L 372.83 250.07 L 373.43 250.25 L 373.16 250.94 L 372.58 251.46 L 372.66 251.74 L 372.37 252.10 L 371.59 251.42 L 371.14 251.15 L 370.86 250.80 L 369.98 250.81 L 369.81 251.00 L 369.89 251.51 L 369.76 251.56 L 368.88 250.43 L 368.06 250.49 L 367.70 250.36 L 367.43 250.70 L 367.10 250.85 L 367.00 251.13 L 367.56 252.11 L 367.30 252.26 L 367.32 252.56 L 367.72 252.72 L 367.58 253.05 L 367.71 253.31 L 367.14 253.26 L 367.20 253.65 L 367.09 254.08 L 367.65 254.26 L 368.13 254.65 L 368.27 254.96 L 368.12 255.99 L 367.44 256.66 L 367.10 256.69 L 366.61 256.44 L 366.12 256.67 L 365.78 257.01 L 365.35 257.08 L 365.10 257.29 L 364.64 256.96 L 364.08 256.79 L 363.43 256.84 L 362.60 256.49 L 362.82 256.83 L 362.80 257.19 L 362.42 257.00 L 362.30 257.13 L 362.26 257.85 L 362.13 258.06 L 361.69 257.78 L 361.09 257.61 L 360.80 256.96 L 360.31 256.31 L 360.11 256.31 L 359.79 255.93 L 359.36 256.27 L 359.58 255.68 L 358.96 256.06 L 358.12 255.82 L 357.83 256.30 L 357.82 256.77 L 357.60 257.23 L 357.41 256.98 L 356.58 256.88 L 356.35 256.58 L 356.88 256.01 L 356.65 255.20 L 356.72 254.84 L 356.11 254.23 L 355.75 254.23 L 355.83 253.89 L 354.99 253.69 L 354.90 253.29 L 354.17 252.68 L 354.17 253.22 L 353.89 253.75 L 353.42 253.77 L 353.24 253.60 L 352.99 253.93 L 353.28 254.36 L 353.02 254.95 L 352.96 255.54 L 352.51 255.92 L 352.34 255.57 L 351.77 255.49 L 351.71 255.32 L 351.18 255.33 L 350.86 254.82 L 349.77 254.58 L 348.97 254.19 L 348.74 254.34 L 347.86 254.41 L 347.63 253.94 L 347.51 253.33 L 347.30 253.24 L 347.11 252.78 L 346.37 252.67 L 346.01 252.33 L 345.33 252.17 L 345.22 252.31 L 344.78 252.13 L 344.73 251.96 L 344.27 251.92 L 343.61 251.59 L 343.05 250.88 L 343.02 250.35 L 342.58 250.28 L 342.79 249.31 L 342.34 248.93 L 342.40 248.20 L 342.23 247.93 L 341.74 247.73 L 341.42 247.46 L 341.47 246.98 L 341.16 246.83 L 341.11 246.54 L 341.51 246.44 L 341.04 246.07 L 340.75 245.57 L 340.30 245.41 L 340.08 245.13 L 339.83 245.18 L 339.82 244.90 L 339.51 244.35 L 339.22 244.41 L 338.93 244.16 L 339.12 243.69 L 339.01 243.23 L 339.27 242.98 L 339.15 242.48 L 338.82 242.23 L 338.85 241.90 L 338.28 241.80 L 337.38 241.92 L 336.85 241.91 L 336.35 241.67 L 335.72 241.51 L 335.00 241.51 L 334.24 240.81 L 333.65 240.61 L 332.74 240.63 L 332.60 240.72 L 332.60 240.72 L 332.52 240.89 L 332.52 240.89 L 332.29 241.14 L 331.24 241.47 L 331.62 242.40 L 331.11 242.80 L 331.18 243.24 L 330.86 243.62 L 330.58 243.51 L 329.75 243.79 L 329.56 243.70 L 329.12 243.95 L 328.44 243.93 L 328.47 244.35 L 328.20 244.42 L 328.21 244.67 L 328.55 244.91 L 328.73 245.32 L 328.67 245.60 L 328.85 246.08 L 328.65 246.87 L 329.01 247.12 L 329.77 247.17 L 329.65 247.75 L 330.07 248.32 L 330.83 248.37 L 331.34 248.66 L 332.16 248.90 L 331.35 249.62 L 330.79 249.66 L 330.64 250.41 L 330.03 251.04 L 329.40 251.40 L 329.50 251.72 L 329.39 252.04 L 329.70 252.14 L 329.96 252.78 L 329.52 253.03 L 329.77 253.27 L 328.89 253.40 L 328.23 253.60 L 327.95 254.23 L 328.24 254.33 L 328.41 254.93 L 328.34 255.44 L 328.79 256.11 L 328.73 256.21 L 329.35 256.73 L 329.89 256.90 L 329.98 257.07 L 330.64 257.15 L 330.74 257.44 L 331.61 257.97 L 331.92 258.05 L 332.59 258.11 L 332.71 258.33 L 333.30 258.34 L 333.46 258.47 L 334.09 258.52 L 335.53 259.21 L 335.82 259.46 L 336.00 259.36 L 336.97 259.97 L 336.87 260.22 L 337.10 260.79 L 336.97 261.08 L 337.40 261.35 L 337.85 262.25 L 338.41 262.61 L 338.90 263.05 L 338.88 263.24 L 339.22 263.44 L 339.19 264.32 L 338.85 264.59 L 339.13 265.00 L 339.01 265.25 L 339.49 265.59 L 339.98 266.09 L 340.06 266.44 L 340.37 266.44 L 340.45 267.04 L 341.12 267.75 L 341.46 267.88 L 341.93 268.30 L 342.11 268.61 L 343.46 269.43 L 343.45 269.57 L 343.90 270.00 L 343.11 270.70 L 343.06 270.99 L 342.72 271.30 L 341.88 270.43 L 341.38 270.37 L 341.09 270.73 L 340.97 271.21 L 341.17 271.59 L 340.95 271.89 L 341.71 272.28 L 342.07 272.66 L 342.09 273.02 L 342.34 273.37 L 342.74 273.56 L 343.07 273.92 L 342.97 274.41 L 342.73 274.83 L 342.97 275.13 L 343.52 275.44 L 344.09 276.13 L 344.64 276.32 L 344.69 276.70 L 344.11 277.01 L 344.27 277.93 L 344.44 278.04 L 344.31 278.34 L 344.37 278.84 L 344.71 279.58 L 344.73 280.78 L 344.94 281.34 L 344.77 281.54 L 345.00 282.01 L 344.88 282.35 L 344.96 282.67 L 345.54 283.42 L 345.45 283.69 L 345.65 284.68 L 345.78 284.96 L 345.32 285.84 L 345.27 286.40 L 344.99 287.59 L 345.22 288.32 L 345.61 288.77 L 345.54 289.22 L 345.77 290.25 L 345.68 290.29 L 345.86 291.33 L 346.26 292.09 L 346.25 292.32 L 346.16 292.93 L 346.30 293.57 L 346.25 293.86 L 346.44 295.14 L 346.35 295.75 L 346.15 296.25 L 346.26 297.04 L 346.46 297.36 L 346.39 297.74 L 346.60 298.34 L 346.98 298.87 L 346.84 299.11 L 347.06 299.85 L 347.01 300.42 L 346.78 300.57 L 347.15 301.19 L 347.45 301.34 L 347.53 301.68 L 348.07 302.01 L 348.25 302.62 L 348.96 303.09 L 349.35 301.92 L 349.14 301.68 L 349.60 300.85 L 349.27 300.37 L 349.49 300.27 L 349.18 299.89 L 349.25 299.32 L 349.88 299.28 L 349.90 298.97 L 350.30 298.56 L 350.68 298.51 L 350.59 297.95 L 350.81 297.61 L 351.44 297.31 L 351.39 296.85 L 351.56 296.53 L 352.09 296.58 L 352.51 296.20 L 352.56 297.13 L 352.90 297.71 L 353.31 297.73 L 353.73 298.13 L 353.72 298.47 L 354.12 298.43 L 354.15 298.63 L 354.60 298.77 L 355.29 299.49 L 355.34 300.04 L 356.21 300.56 L 356.03 301.15 L 356.86 301.35 L 357.26 301.61 L 356.96 301.98 L 357.39 302.36 L 357.03 302.82 L 356.51 302.89 L 356.38 303.10 L 356.08 302.97 L 355.78 303.07 L 355.66 303.45 L 356.03 303.96 L 356.36 304.67 L 356.69 304.78 L 357.48 305.64 L 357.20 305.93 L 357.62 306.25 L 358.64 306.42 L 358.64 306.74 L 358.40 306.99 L 358.60 307.17 L 358.67 307.84 L 358.84 307.88 L 359.07 307.51 L 359.71 306.88 L 360.03 306.36 L 360.67 306.51 L 360.74 306.76 L 361.09 306.95 L 361.75 306.44 L 362.02 305.85 L 362.50 305.78 L 362.90 306.44 L 362.77 307.04 L 363.29 307.36 L 363.48 307.64 L 363.55 308.17 L 364.23 308.38 L 364.02 308.96 L 364.30 308.88 L 364.89 309.94 L 364.78 310.64 L 365.15 310.48 L 365.30 310.92 L 366.03 311.89 L 366.08 312.54 L 366.24 313.04 L 366.55 313.33 L 367.04 313.18 L 367.54 313.29 L 367.54 313.29 Z M 420.37 282.07 L 420.33 282.09 L 420.33 282.13 L 420.33 282.21 L 420.37 282.07 Z M 427.76 283.33 L 427.74 283.33 L 427.75 283.38 L 427.81 283.37 L 427.80 283.34 L 427.79 283.33 L 427.78 283.34 L 427.76 283.34 L 427.76 283.33 Z M 413.06 282.32 L 413.03 282.30 L 412.98 282.39 L 413.09 282.34 L 413.06 282.32 Z">
      <title>四川省</title>
    </path>
  </g>
</svg>