<?xml version="1.0" encoding="UTF-8"?>
<svg xmlns="http://www.w3.org/2000/svg" viewBox="0 0 800 600" width="800" height="600">
  <title>贵州省</title>
  <defs>
    <style>
      .region-path {
        fill: #e6f3ff;
        stroke: #2563eb;
        stroke-width: 1.5;
        stroke-linejoin: round;
        cursor: pointer;
        transition: all 0.2s ease;
      }
      .region-path:hover {
        fill: #bfdbfe;
        stroke: #1d4ed8;
        stroke-width: 2;
      }
      .region-label {
        fill: #1e40af;
        font-family: Arial, sans-serif;
        font-size: 24px;
        font-weight: bold;
        pointer-events: none;
      }
    </style>
  </defs>
  
  <g id="520000">
    <path id="520000-land" 
          class="region-path"
          data-region-id="520000"
          data-region-name="贵州省"
          d="M 451.57 299.85 L 451.15 300.06 L 450.72 300.10 L 450.32 300.65 L 450.31 301.35 L 449.94 302.10 L 449.57 302.41 L 449.78 302.88 L 449.62 303.07 L 449.00 302.69 L 448.79 303.29 L 448.00 303.01 L 447.94 302.73 L 447.64 302.70 L 447.23 302.91 L 446.88 302.44 L 446.37 302.77 L 446.02 302.61 L 445.90 302.05 L 446.26 301.83 L 446.48 301.03 L 446.24 300.94 L 446.45 300.56 L 446.10 300.30 L 445.72 299.78 L 445.62 299.98 L 445.17 300.04 L 445.00 300.24 L 445.50 300.60 L 445.59 300.82 L 445.17 301.25 L 445.28 301.51 L 444.70 301.61 L 444.38 301.42 L 444.34 300.97 L 444.68 300.76 L 444.68 300.46 L 444.45 300.17 L 444.31 299.47 L 444.70 299.39 L 444.63 298.85 L 444.96 298.54 L 444.33 298.14 L 443.57 298.37 L 443.56 298.48 L 442.91 298.41 L 441.81 297.94 L 441.96 297.34 L 442.36 296.97 L 442.36 296.65 L 442.02 296.52 L 441.96 296.07 L 442.07 295.72 L 441.94 295.20 L 441.68 295.01 L 441.45 294.14 L 441.54 293.79 L 441.24 293.66 L 441.02 294.19 L 440.37 293.86 L 439.92 294.06 L 439.10 293.72 L 438.64 294.20 L 437.60 294.28 L 437.42 294.54 L 437.15 294.55 L 436.99 295.02 L 436.40 294.77 L 436.54 294.26 L 436.13 294.11 L 436.40 293.17 L 435.76 292.54 L 435.26 293.15 L 434.84 292.93 L 434.28 292.90 L 434.10 293.06 L 433.91 292.35 L 433.04 292.81 L 432.57 292.50 L 432.16 292.70 L 432.23 293.18 L 432.43 293.28 L 432.27 293.63 L 431.83 293.66 L 432.10 294.18 L 431.77 294.51 L 432.11 294.68 L 432.28 295.02 L 432.57 295.19 L 432.28 295.53 L 431.98 296.18 L 431.52 296.21 L 431.40 296.57 L 430.71 296.76 L 430.55 297.08 L 430.27 296.97 L 430.18 296.50 L 430.36 296.31 L 430.02 296.29 L 430.14 295.97 L 429.47 295.77 L 428.17 295.83 L 428.20 296.05 L 427.83 296.15 L 427.88 296.93 L 427.50 297.03 L 427.20 296.58 L 426.67 296.92 L 426.40 296.88 L 426.17 297.14 L 426.61 297.82 L 426.85 297.76 L 426.61 298.50 L 426.24 298.51 L 426.00 298.87 L 425.76 298.48 L 425.48 298.68 L 425.69 299.14 L 425.29 299.23 L 425.16 299.60 L 425.38 300.13 L 424.97 300.31 L 424.86 300.04 L 424.19 299.76 L 423.49 299.95 L 423.52 299.55 L 424.01 299.28 L 423.92 298.83 L 424.23 298.52 L 424.04 298.29 L 424.39 298.25 L 424.03 298.06 L 424.03 297.81 L 423.72 297.81 L 423.45 297.52 L 423.45 297.14 L 422.55 296.34 L 422.33 296.51 L 422.42 297.09 L 422.73 297.28 L 423.11 297.95 L 422.84 298.12 L 422.74 298.85 L 422.47 298.90 L 422.87 299.33 L 422.58 299.48 L 421.81 299.07 L 421.51 299.53 L 421.56 300.00 L 421.25 300.07 L 420.79 299.74 L 420.66 299.41 L 420.27 299.39 L 419.55 298.87 L 419.41 298.45 L 419.17 298.31 L 418.70 298.38 L 418.52 297.91 L 417.95 297.77 L 417.64 297.27 L 417.29 297.09 L 416.99 297.86 L 416.49 298.02 L 416.44 298.81 L 415.65 298.76 L 415.40 298.65 L 415.12 298.86 L 414.99 298.59 L 414.66 298.90 L 414.45 298.87 L 414.34 299.44 L 413.73 299.61 L 413.62 300.43 L 413.94 300.51 L 414.06 301.22 L 413.90 301.62 L 414.41 302.03 L 414.83 302.16 L 414.91 301.84 L 415.19 301.78 L 415.19 301.78 L 415.43 301.50 L 415.81 301.80 L 416.06 302.33 L 416.49 302.51 L 416.19 303.32 L 416.55 303.74 L 417.05 303.49 L 417.38 303.86 L 418.60 303.29 L 419.14 303.29 L 419.78 303.59 L 420.40 304.29 L 420.18 304.86 L 420.60 304.90 L 421.03 305.47 L 420.82 305.63 L 420.79 306.02 L 421.00 306.03 L 421.13 306.44 L 420.81 306.96 L 420.15 307.39 L 419.64 307.53 L 418.88 307.26 L 418.29 307.29 L 417.87 307.60 L 417.48 307.57 L 416.89 307.78 L 416.83 307.60 L 416.26 307.75 L 416.06 308.01 L 415.22 307.90 L 414.76 308.03 L 414.73 308.26 L 414.15 308.26 L 413.73 308.44 L 413.54 307.93 L 413.07 307.88 L 412.54 307.37 L 411.83 307.31 L 410.93 307.58 L 410.46 308.04 L 410.33 308.79 L 410.42 309.00 L 409.92 309.31 L 409.68 309.67 L 409.96 310.01 L 409.69 310.27 L 409.68 310.82 L 409.16 311.53 L 409.18 311.27 L 408.52 311.01 L 407.97 311.01 L 407.38 311.41 L 406.37 311.95 L 405.93 312.33 L 405.73 312.24 L 405.78 311.90 L 405.45 311.68 L 404.89 312.05 L 404.72 311.76 L 403.24 312.16 L 402.81 311.90 L 402.49 311.95 L 402.05 311.04 L 401.75 311.05 L 400.67 310.49 L 400.10 311.12 L 399.96 311.46 L 399.47 311.85 L 399.48 312.32 L 399.08 312.26 L 398.69 312.61 L 398.08 311.84 L 397.77 311.91 L 397.08 311.36 L 397.06 310.90 L 396.45 310.93 L 396.20 310.74 L 395.92 311.35 L 395.90 311.74 L 395.60 311.91 L 395.51 312.42 L 394.83 312.59 L 394.84 312.75 L 394.30 313.17 L 393.75 314.03 L 393.10 314.09 L 392.97 314.34 L 393.30 314.38 L 393.38 314.66 L 392.90 314.52 L 392.77 314.70 L 393.00 314.98 L 392.99 315.27 L 393.54 314.81 L 393.84 314.83 L 394.12 315.15 L 394.35 315.72 L 394.57 315.85 L 394.45 316.32 L 394.61 316.65 L 394.02 316.89 L 393.85 317.47 L 394.05 318.01 L 394.55 318.28 L 394.40 318.56 L 394.30 319.25 L 394.45 319.64 L 394.99 319.98 L 395.03 320.22 L 395.51 320.40 L 396.42 320.30 L 396.99 320.40 L 397.60 320.37 L 397.61 319.77 L 398.16 319.10 L 398.57 319.01 L 399.21 319.28 L 399.68 319.31 L 399.75 319.14 L 400.15 319.36 L 400.57 319.27 L 401.03 318.60 L 401.30 318.36 L 401.75 319.03 L 401.66 319.46 L 401.96 319.70 L 402.67 319.59 L 402.91 319.82 L 402.82 320.27 L 403.11 320.31 L 403.52 320.75 L 403.45 321.03 L 403.80 321.21 L 403.79 321.59 L 403.99 321.80 L 403.74 322.23 L 403.04 322.42 L 402.53 323.08 L 402.59 323.36 L 402.28 323.99 L 402.38 324.53 L 402.08 324.98 L 401.67 324.82 L 401.78 325.61 L 401.45 326.46 L 401.20 326.64 L 401.48 327.07 L 401.29 327.35 L 401.02 328.18 L 400.74 328.50 L 400.31 328.19 L 400.12 329.36 L 400.35 329.87 L 400.94 329.90 L 401.34 330.10 L 401.42 330.68 L 401.24 330.90 L 401.41 331.18 L 401.56 330.94 L 401.91 330.95 L 402.33 330.61 L 402.67 330.63 L 402.53 331.92 L 402.77 331.90 L 403.28 332.29 L 403.60 332.38 L 403.53 333.01 L 404.05 333.00 L 404.53 333.30 L 405.36 333.35 L 405.47 333.63 L 405.26 333.75 L 405.43 334.31 L 405.21 334.38 L 404.71 333.85 L 404.41 334.05 L 404.49 334.33 L 404.11 334.81 L 404.01 335.26 L 403.32 335.45 L 404.00 335.51 L 404.29 336.12 L 403.78 336.44 L 403.49 337.07 L 402.98 337.39 L 402.49 338.01 L 402.53 338.60 L 402.39 338.86 L 403.07 339.09 L 403.42 339.59 L 404.19 339.75 L 404.46 340.03 L 404.90 339.60 L 405.63 339.43 L 405.88 338.87 L 406.22 338.64 L 407.61 338.28 L 407.54 337.98 L 407.67 337.39 L 408.07 336.92 L 408.26 336.81 L 408.63 336.49 L 408.90 336.50 L 409.11 336.23 L 409.47 336.12 L 409.87 336.41 L 410.04 336.81 L 410.73 336.84 L 411.05 336.66 L 411.71 336.79 L 412.01 337.41 L 412.38 337.80 L 412.42 338.05 L 413.21 338.17 L 413.56 338.11 L 413.67 338.34 L 414.58 338.47 L 415.22 338.99 L 415.84 339.16 L 416.22 338.88 L 417.03 338.92 L 417.24 339.41 L 417.89 339.88 L 418.12 339.35 L 418.81 339.04 L 419.19 338.54 L 419.43 338.56 L 419.77 337.62 L 419.68 337.26 L 419.14 336.55 L 419.62 336.56 L 419.87 336.26 L 420.26 336.37 L 420.79 336.35 L 421.08 336.19 L 422.22 335.87 L 422.30 335.73 L 423.02 335.51 L 423.35 335.22 L 423.75 335.17 L 424.26 334.70 L 424.32 334.37 L 424.79 334.22 L 425.22 334.39 L 425.56 334.18 L 425.80 334.30 L 426.47 334.14 L 426.84 334.19 L 427.00 333.67 L 427.30 333.48 L 427.74 333.66 L 428.14 333.22 L 428.13 332.42 L 427.87 332.35 L 427.62 331.54 L 427.96 331.49 L 428.16 330.94 L 428.69 330.80 L 428.66 330.28 L 429.92 330.07 L 430.13 329.77 L 430.37 329.81 L 430.41 330.30 L 430.73 330.44 L 431.49 331.29 L 431.19 331.59 L 431.29 331.91 L 431.72 332.00 L 431.89 331.80 L 432.36 332.00 L 432.24 332.48 L 432.48 333.08 L 432.99 332.97 L 433.08 333.21 L 432.89 333.86 L 433.31 333.91 L 433.98 333.41 L 434.21 333.48 L 434.55 332.86 L 434.84 332.80 L 434.86 333.39 L 435.21 333.80 L 435.26 334.06 L 435.69 333.58 L 435.90 333.70 L 435.88 334.12 L 436.18 334.47 L 435.90 334.78 L 436.70 334.87 L 437.04 334.61 L 437.62 334.46 L 438.38 334.04 L 439.20 334.06 L 439.56 333.90 L 439.85 333.28 L 439.94 332.71 L 439.84 332.02 L 440.37 331.87 L 440.05 331.46 L 440.36 331.32 L 440.97 331.61 L 440.86 331.28 L 441.27 331.10 L 441.56 330.62 L 441.98 330.52 L 442.09 330.75 L 442.51 330.98 L 442.70 331.48 L 443.25 331.32 L 444.43 332.28 L 444.47 332.60 L 444.84 332.88 L 444.89 332.60 L 444.59 331.59 L 444.66 330.98 L 444.94 330.68 L 445.51 330.54 L 445.19 330.37 L 445.21 330.01 L 445.47 329.99 L 445.51 329.62 L 445.88 329.49 L 446.49 329.56 L 446.66 330.10 L 446.46 330.33 L 446.81 330.61 L 446.93 330.37 L 447.59 330.31 L 447.58 330.44 L 448.20 330.30 L 448.99 330.76 L 449.64 330.37 L 449.27 330.20 L 449.05 329.55 L 449.51 328.88 L 449.55 328.60 L 449.18 328.42 L 448.81 328.46 L 448.25 328.96 L 448.25 328.96 L 447.70 329.00 L 447.65 328.67 L 448.11 328.40 L 448.35 328.48 L 448.72 328.14 L 448.62 328.00 L 449.23 327.88 L 449.53 328.02 L 449.71 327.73 L 450.22 327.83 L 450.10 328.17 L 450.26 328.39 L 450.87 327.91 L 450.88 328.40 L 451.80 328.67 L 452.25 328.49 L 452.13 328.18 L 452.25 327.43 L 452.45 327.41 L 452.84 326.74 L 453.24 326.40 L 452.96 326.05 L 453.63 325.64 L 453.73 325.40 L 453.42 325.13 L 453.39 324.65 L 453.94 324.71 L 454.05 324.38 L 453.67 324.17 L 453.28 323.23 L 453.57 322.45 L 453.31 322.71 L 452.56 322.83 L 452.37 322.97 L 452.10 322.70 L 451.69 322.64 L 451.54 322.31 L 451.79 322.08 L 452.04 321.37 L 452.68 321.00 L 452.48 320.82 L 452.73 320.59 L 452.68 320.33 L 452.95 320.18 L 452.78 319.50 L 452.41 318.88 L 452.19 319.01 L 451.90 318.86 L 451.67 318.47 L 452.41 318.52 L 452.95 318.25 L 453.37 317.83 L 453.77 317.83 L 453.67 317.11 L 453.57 317.08 L 453.42 316.77 L 453.25 316.46 L 454.48 315.89 L 454.12 314.73 L 453.89 314.52 L 453.77 314.78 L 453.44 314.62 L 453.63 313.94 L 453.30 314.12 L 453.03 313.75 L 452.45 313.76 L 452.20 313.90 L 451.47 313.98 L 451.21 313.80 L 450.98 314.15 L 450.45 314.65 L 449.78 314.63 L 450.06 314.07 L 449.07 314.26 L 448.81 314.51 L 448.11 314.88 L 448.14 315.17 L 448.14 315.17 L 447.46 315.18 L 446.56 314.47 L 447.47 314.24 L 447.97 313.68 L 447.77 313.22 L 448.35 312.90 L 448.56 312.57 L 449.29 312.30 L 449.19 311.91 L 449.80 311.85 L 450.20 311.01 L 450.20 310.70 L 450.46 311.01 L 450.82 310.68 L 451.27 311.01 L 451.84 310.95 L 451.87 310.41 L 452.92 309.64 L 453.51 309.46 L 453.40 309.27 L 453.60 308.83 L 453.46 308.36 L 453.61 308.29 L 453.02 307.83 L 452.53 307.86 L 452.64 307.71 L 452.18 307.23 L 452.32 306.65 L 452.06 306.35 L 451.86 305.43 L 452.04 305.10 L 452.48 304.90 L 452.66 304.62 L 452.21 304.32 L 451.82 304.60 L 451.99 303.90 L 452.24 303.51 L 452.25 303.01 L 452.54 302.34 L 452.75 302.20 L 452.20 301.93 L 452.02 302.10 L 451.58 301.73 L 451.51 301.48 L 451.72 301.10 L 451.47 300.91 L 451.43 300.16 L 451.57 299.85 Z M 453.67 317.11 L 453.77 317.83 L 454.14 317.94 L 454.14 317.94 L 453.88 317.26 L 454.05 317.00 L 454.01 316.61 L 453.77 316.43 L 453.42 316.77 L 453.57 317.08 L 453.67 317.11 Z M 454.21 318.00 L 454.62 318.18 L 454.92 317.87 L 454.48 318.09 L 454.21 318.00 Z">
      <title>贵州省</title>
    </path>
  </g>
</svg>