<?xml version="1.0" encoding="UTF-8"?>
<svg xmlns="http://www.w3.org/2000/svg" viewBox="0 0 800 600" width="800" height="600">
  <title>云南省</title>
  <defs>
    <style>
      .region-path {
        fill: #e6f3ff;
        stroke: #2563eb;
        stroke-width: 1.5;
        stroke-linejoin: round;
        cursor: pointer;
        transition: all 0.2s ease;
      }
      .region-path:hover {
        fill: #bfdbfe;
        stroke: #1d4ed8;
        stroke-width: 2;
      }
      .region-label {
        fill: #1e40af;
        font-family: Arial, sans-serif;
        font-size: 24px;
        font-weight: bold;
        pointer-events: none;
      }
    </style>
  </defs>
  
  <g id="530000">
    <path id="530000-land" 
          class="region-path"
          data-region-id="530000"
          data-region-name="云南省"
          d="M 410.46 308.04 L 410.28 307.96 L 410.31 307.36 L 410.10 307.10 L 410.51 306.94 L 409.96 306.76 L 409.68 306.06 L 410.22 305.64 L 410.07 305.01 L 409.84 304.88 L 409.53 305.07 L 409.20 305.02 L 409.01 304.76 L 409.20 304.41 L 409.01 304.24 L 408.51 304.23 L 407.91 303.97 L 407.29 304.31 L 407.06 304.32 L 407.01 304.76 L 406.27 305.37 L 406.42 305.61 L 406.11 305.86 L 405.63 306.01 L 405.16 306.00 L 404.80 306.18 L 404.61 305.99 L 403.91 306.21 L 403.46 306.53 L 403.20 306.45 L 402.84 306.63 L 402.35 306.13 L 402.17 306.24 L 401.56 305.73 L 401.06 305.47 L 400.66 304.84 L 400.10 304.60 L 400.05 304.45 L 400.77 304.44 L 401.06 304.03 L 401.55 303.80 L 401.51 303.30 L 401.11 303.18 L 401.07 302.87 L 401.49 302.79 L 401.70 302.48 L 401.56 302.18 L 401.25 302.18 L 400.97 301.96 L 400.89 301.56 L 400.46 301.51 L 400.16 301.80 L 399.82 301.42 L 399.54 300.79 L 399.68 299.80 L 399.60 299.42 L 400.25 299.37 L 400.59 299.22 L 400.79 298.81 L 401.23 298.78 L 401.31 298.48 L 400.76 298.25 L 400.16 298.60 L 399.77 298.43 L 399.52 298.13 L 399.29 298.39 L 398.67 298.31 L 398.12 298.41 L 397.90 298.72 L 397.52 298.47 L 396.42 298.75 L 395.97 298.43 L 395.74 298.55 L 395.36 298.06 L 395.17 298.71 L 395.23 298.89 L 394.86 299.14 L 394.64 299.53 L 395.14 300.21 L 395.13 300.42 L 395.45 301.00 L 395.38 301.28 L 395.63 301.70 L 395.13 302.02 L 394.53 302.56 L 394.21 302.53 L 393.81 302.92 L 393.71 302.57 L 393.21 302.28 L 392.48 302.58 L 392.06 303.23 L 391.41 303.71 L 391.00 304.52 L 391.29 304.76 L 391.58 304.63 L 391.88 305.34 L 392.28 305.20 L 391.74 305.91 L 391.82 306.60 L 391.59 307.10 L 391.31 307.26 L 390.61 307.99 L 390.37 308.00 L 390.16 308.31 L 389.56 308.78 L 389.50 309.52 L 388.95 309.44 L 388.51 309.92 L 388.03 310.68 L 388.00 310.98 L 387.37 311.23 L 387.11 311.10 L 386.43 311.53 L 385.93 311.14 L 385.50 312.05 L 385.33 312.24 L 385.33 312.66 L 385.54 312.98 L 385.64 313.96 L 385.20 315.07 L 385.45 315.33 L 385.46 316.25 L 386.01 316.97 L 386.19 317.02 L 386.45 317.67 L 386.37 317.76 L 386.62 318.34 L 386.59 318.67 L 386.81 318.82 L 386.90 319.94 L 387.08 319.95 L 387.08 320.38 L 386.85 320.67 L 386.43 320.70 L 386.42 321.43 L 386.52 321.85 L 386.28 322.18 L 385.43 322.20 L 385.28 321.93 L 384.81 322.53 L 384.31 322.61 L 383.84 322.92 L 383.52 323.53 L 383.00 323.41 L 382.39 323.11 L 382.79 322.52 L 382.69 322.22 L 382.09 321.95 L 381.79 322.20 L 380.73 322.59 L 380.24 322.63 L 379.79 323.17 L 378.71 323.51 L 378.69 323.73 L 377.98 324.19 L 377.75 324.58 L 377.29 325.00 L 377.00 325.03 L 376.39 324.71 L 375.70 324.83 L 375.44 324.61 L 375.13 324.68 L 374.69 325.20 L 374.46 325.23 L 374.51 324.85 L 374.06 324.52 L 374.18 324.09 L 373.82 323.96 L 373.44 323.43 L 372.96 323.21 L 372.34 323.38 L 371.88 322.81 L 371.99 322.57 L 372.44 322.40 L 372.65 322.12 L 372.39 322.00 L 372.42 321.68 L 371.67 321.00 L 371.30 320.87 L 371.06 320.53 L 370.56 320.57 L 370.19 320.20 L 369.91 319.57 L 369.98 319.44 L 370.59 319.42 L 370.58 319.07 L 370.79 318.73 L 370.50 318.53 L 371.13 317.74 L 370.63 317.55 L 370.42 317.68 L 370.56 318.13 L 370.32 318.03 L 369.84 318.21 L 369.82 317.90 L 369.52 317.71 L 369.94 316.98 L 369.59 316.55 L 369.03 316.35 L 368.58 316.35 L 368.55 315.81 L 368.16 315.77 L 368.18 315.53 L 367.22 315.10 L 367.44 314.36 L 367.31 314.27 L 367.57 313.52 L 367.54 313.29 L 367.54 313.29 L 367.04 313.18 L 366.55 313.33 L 366.24 313.04 L 366.08 312.54 L 366.03 311.89 L 365.30 310.92 L 365.15 310.48 L 364.78 310.64 L 364.89 309.94 L 364.30 308.88 L 364.02 308.96 L 364.23 308.38 L 363.55 308.17 L 363.48 307.64 L 363.29 307.36 L 362.77 307.04 L 362.90 306.44 L 362.50 305.78 L 362.02 305.85 L 361.75 306.44 L 361.09 306.95 L 360.74 306.76 L 360.67 306.51 L 360.03 306.36 L 359.71 306.88 L 359.07 307.51 L 358.84 307.88 L 358.67 307.84 L 358.60 307.17 L 358.40 306.99 L 358.64 306.74 L 358.64 306.42 L 357.62 306.25 L 357.20 305.93 L 357.48 305.64 L 356.69 304.78 L 356.36 304.67 L 356.03 303.96 L 355.66 303.45 L 355.78 303.07 L 356.08 302.97 L 356.38 303.10 L 356.51 302.89 L 357.03 302.82 L 357.39 302.36 L 356.96 301.98 L 357.26 301.61 L 356.86 301.35 L 356.03 301.15 L 356.21 300.56 L 355.34 300.04 L 355.29 299.49 L 354.60 298.77 L 354.15 298.63 L 354.12 298.43 L 353.72 298.47 L 353.73 298.13 L 353.31 297.73 L 352.90 297.71 L 352.56 297.13 L 352.51 296.20 L 352.09 296.58 L 351.56 296.53 L 351.39 296.85 L 351.44 297.31 L 350.81 297.61 L 350.59 297.95 L 350.68 298.51 L 350.30 298.56 L 349.90 298.97 L 349.88 299.28 L 349.25 299.32 L 349.18 299.89 L 349.49 300.27 L 349.27 300.37 L 349.60 300.85 L 349.14 301.68 L 349.35 301.92 L 348.96 303.09 L 348.25 302.62 L 348.07 302.01 L 347.53 301.68 L 347.45 301.34 L 347.15 301.19 L 346.78 300.57 L 347.01 300.42 L 347.06 299.85 L 346.84 299.11 L 346.98 298.87 L 346.60 298.34 L 346.39 297.74 L 346.46 297.36 L 346.26 297.04 L 346.15 296.25 L 346.35 295.75 L 346.44 295.14 L 346.25 293.86 L 346.30 293.57 L 346.16 292.93 L 346.25 292.32 L 345.46 292.46 L 345.33 292.66 L 344.88 292.49 L 344.67 292.89 L 344.73 293.28 L 344.99 293.52 L 345.21 294.23 L 344.30 294.83 L 344.22 295.78 L 344.80 296.01 L 344.79 296.35 L 344.27 296.44 L 344.17 296.68 L 343.54 296.70 L 343.29 296.46 L 343.23 295.43 L 342.86 294.62 L 342.56 294.57 L 341.99 294.98 L 341.50 294.85 L 341.18 295.04 L 341.51 295.54 L 341.38 295.70 L 341.64 296.24 L 341.47 296.51 L 341.80 297.31 L 341.62 297.59 L 340.87 298.06 L 341.32 299.26 L 341.12 299.70 L 341.20 299.90 L 341.69 300.01 L 341.89 300.50 L 342.38 301.37 L 342.45 301.65 L 342.07 301.98 L 342.09 302.60 L 341.44 302.90 L 341.20 303.26 L 340.51 303.08 L 339.83 303.51 L 339.52 303.41 L 339.15 303.89 L 338.74 303.79 L 338.75 303.27 L 338.55 303.07 L 338.62 302.43 L 338.37 301.94 L 338.00 301.61 L 337.83 301.00 L 336.87 301.26 L 336.86 301.55 L 337.11 301.72 L 337.47 302.46 L 336.96 302.77 L 336.46 302.84 L 336.52 303.28 L 336.15 303.50 L 336.37 303.93 L 336.09 305.07 L 336.19 305.51 L 336.65 305.61 L 336.83 306.12 L 336.46 306.52 L 336.94 306.94 L 337.13 308.18 L 337.65 308.56 L 337.93 309.29 L 338.00 309.96 L 338.21 310.07 L 338.74 310.00 L 339.16 309.65 L 339.16 308.57 L 339.31 308.45 L 339.63 308.77 L 340.26 308.91 L 340.45 308.65 L 340.79 309.26 L 340.75 309.42 L 341.45 309.46 L 341.57 309.26 L 342.03 309.61 L 341.81 310.32 L 342.01 310.55 L 341.83 310.93 L 341.99 311.07 L 342.03 311.59 L 342.39 311.92 L 342.33 312.37 L 342.14 312.53 L 342.20 313.05 L 341.92 313.16 L 342.11 313.89 L 342.10 314.56 L 342.64 314.82 L 342.61 315.15 L 342.30 315.32 L 342.55 316.61 L 342.28 316.89 L 342.61 317.43 L 342.44 318.49 L 342.69 318.55 L 342.61 318.86 L 342.81 319.27 L 342.72 319.72 L 342.52 319.91 L 342.55 320.61 L 342.39 321.22 L 342.48 321.31 L 342.31 322.07 L 341.77 322.52 L 341.68 323.22 L 342.10 323.31 L 342.33 323.79 L 342.10 324.09 L 342.17 324.39 L 341.56 324.80 L 341.51 324.26 L 341.27 324.20 L 340.67 324.48 L 340.95 325.14 L 341.07 326.04 L 341.32 326.00 L 341.83 326.48 L 342.03 327.21 L 341.73 327.62 L 341.35 327.79 L 340.45 327.31 L 340.19 327.36 L 339.65 328.02 L 339.49 328.45 L 339.45 329.00 L 338.95 329.19 L 338.88 329.92 L 338.09 330.20 L 337.97 330.44 L 337.27 329.77 L 336.48 329.64 L 336.67 330.18 L 336.41 330.64 L 336.07 330.79 L 336.34 331.33 L 336.13 332.12 L 335.76 332.05 L 335.74 332.40 L 335.43 332.84 L 334.78 332.98 L 334.78 333.18 L 334.09 333.85 L 333.71 333.83 L 333.42 333.41 L 333.04 333.27 L 332.60 334.46 L 332.05 335.26 L 331.80 335.24 L 331.89 335.62 L 331.77 336.30 L 331.91 337.02 L 332.49 337.36 L 332.61 337.67 L 332.28 337.90 L 331.39 337.87 L 331.10 338.24 L 330.25 338.50 L 330.02 338.78 L 330.25 339.10 L 330.26 340.19 L 330.09 341.35 L 329.84 341.85 L 330.44 341.93 L 331.29 341.74 L 331.39 342.28 L 331.77 342.72 L 331.21 342.93 L 331.24 343.37 L 331.82 343.37 L 332.29 343.76 L 331.91 344.08 L 331.89 344.54 L 332.16 344.74 L 332.10 344.77 L 332.05 344.79 L 331.92 345.26 L 331.61 345.47 L 331.57 345.48 L 330.95 345.94 L 330.86 346.39 L 330.28 346.62 L 329.83 347.03 L 329.82 347.20 L 330.75 347.60 L 330.98 347.83 L 331.05 348.09 L 331.43 347.72 L 331.78 347.81 L 331.89 347.52 L 332.26 347.40 L 332.59 346.94 L 332.74 347.03 L 333.29 346.66 L 333.63 346.71 L 333.69 346.29 L 334.54 346.12 L 334.66 345.96 L 335.65 345.55 L 335.70 345.54 L 335.99 345.48 L 336.01 345.48 L 336.08 345.48 L 336.75 345.42 L 336.99 345.26 L 338.26 345.41 L 338.62 345.26 L 339.71 345.17 L 339.76 345.16 L 340.38 345.11 L 340.86 345.61 L 341.41 345.34 L 341.78 345.40 L 342.16 345.11 L 343.19 345.06 L 343.43 345.13 L 343.79 344.87 L 343.99 345.41 L 343.08 346.18 L 342.73 346.21 L 342.25 346.75 L 341.97 346.63 L 341.69 346.85 L 341.97 347.00 L 341.81 347.46 L 341.98 348.16 L 341.64 348.50 L 341.92 348.67 L 342.84 348.70 L 343.25 349.26 L 343.12 349.51 L 343.37 349.72 L 343.49 350.25 L 343.85 350.38 L 343.85 350.63 L 343.46 350.80 L 343.04 351.20 L 343.27 351.93 L 343.77 351.79 L 344.16 352.39 L 344.25 353.06 L 343.76 353.39 L 344.11 353.37 L 344.42 353.59 L 344.34 354.05 L 343.93 354.64 L 344.11 354.88 L 345.10 355.14 L 345.67 355.10 L 345.57 355.62 L 346.17 355.91 L 347.01 355.77 L 347.72 356.00 L 347.99 355.75 L 348.68 355.47 L 349.02 355.77 L 349.64 355.98 L 350.02 355.94 L 350.55 356.13 L 350.43 356.74 L 350.61 357.20 L 350.91 357.58 L 350.58 357.87 L 349.71 357.48 L 349.60 357.70 L 349.87 358.42 L 349.23 358.60 L 349.07 359.27 L 348.46 359.38 L 348.34 359.53 L 348.59 359.82 L 349.07 361.25 L 348.80 361.62 L 349.04 362.06 L 348.15 362.91 L 347.68 363.09 L 347.96 363.58 L 347.50 364.10 L 347.52 364.57 L 347.23 364.76 L 346.89 365.25 L 347.02 365.48 L 346.69 365.52 L 347.35 366.02 L 348.13 366.04 L 348.75 366.18 L 349.22 366.13 L 350.12 365.84 L 350.43 366.14 L 350.91 366.00 L 351.07 366.15 L 351.10 366.10 L 351.80 366.13 L 352.29 366.47 L 352.98 366.47 L 354.09 366.87 L 354.10 366.48 L 355.15 366.62 L 355.08 367.02 L 355.44 367.45 L 355.25 368.01 L 355.02 368.13 L 354.86 369.03 L 355.35 370.24 L 355.95 370.59 L 356.42 370.25 L 356.81 370.28 L 357.19 370.66 L 356.56 371.47 L 356.72 371.68 L 356.80 372.31 L 357.19 372.53 L 357.35 372.18 L 357.58 372.25 L 357.88 372.70 L 358.54 372.58 L 359.06 372.06 L 359.97 372.01 L 360.44 372.78 L 360.90 372.65 L 361.44 372.85 L 362.61 372.24 L 363.01 372.16 L 363.25 371.78 L 363.62 371.62 L 363.78 371.22 L 364.22 370.96 L 364.46 370.56 L 364.73 370.46 L 364.76 370.44 L 365.14 370.34 L 365.16 370.34 L 365.96 370.21 L 366.73 369.52 L 367.08 369.54 L 366.96 369.80 L 367.01 370.37 L 367.39 370.60 L 367.56 371.42 L 367.33 371.73 L 367.97 371.76 L 367.98 372.26 L 368.14 372.36 L 367.81 372.62 L 367.83 373.13 L 367.28 373.29 L 367.71 374.07 L 368.34 374.40 L 368.36 374.68 L 368.11 375.11 L 368.81 375.69 L 369.82 375.19 L 370.36 375.18 L 371.32 374.92 L 372.04 375.12 L 371.90 375.55 L 372.08 375.75 L 372.77 375.52 L 373.09 376.02 L 373.73 376.00 L 374.04 375.38 L 374.45 375.41 L 374.45 374.92 L 374.01 374.58 L 373.53 374.45 L 373.37 374.04 L 373.58 373.29 L 373.49 372.53 L 373.81 372.22 L 373.63 371.96 L 373.63 371.48 L 374.15 371.55 L 374.39 371.14 L 374.18 370.86 L 373.89 370.89 L 373.76 370.11 L 373.55 369.97 L 373.80 368.90 L 373.48 368.77 L 373.42 368.46 L 373.06 368.24 L 373.07 367.81 L 372.72 367.85 L 372.09 367.51 L 372.29 367.11 L 371.75 365.98 L 372.05 365.80 L 371.99 365.50 L 371.48 364.70 L 371.66 364.38 L 372.29 364.24 L 372.77 363.31 L 372.52 363.02 L 372.77 362.25 L 373.22 362.22 L 373.83 361.92 L 374.35 362.43 L 374.34 362.74 L 374.75 363.13 L 375.15 363.19 L 375.21 362.64 L 375.95 362.74 L 376.65 362.42 L 377.53 362.70 L 377.68 363.05 L 378.03 362.71 L 378.97 362.82 L 378.83 362.43 L 379.52 361.43 L 379.87 361.33 L 380.36 360.64 L 380.15 360.13 L 380.70 359.92 L 380.93 359.26 L 381.46 359.14 L 381.88 359.46 L 382.08 359.90 L 382.46 359.59 L 382.98 360.04 L 383.31 359.91 L 384.47 360.74 L 384.71 360.71 L 385.29 361.09 L 385.42 361.64 L 385.82 362.17 L 386.40 362.22 L 386.85 362.60 L 387.38 362.46 L 387.28 362.11 L 388.43 361.38 L 388.20 361.05 L 388.56 360.45 L 388.82 360.50 L 389.47 360.14 L 389.53 359.58 L 389.86 359.11 L 389.88 358.80 L 390.43 358.93 L 391.11 359.37 L 391.06 359.94 L 391.28 360.34 L 391.81 360.94 L 392.02 361.03 L 392.55 360.26 L 392.42 359.90 L 393.19 358.93 L 394.21 359.82 L 394.24 359.94 L 394.48 360.03 L 395.09 360.79 L 395.49 361.12 L 395.61 361.31 L 395.80 361.32 L 396.54 361.96 L 397.00 361.80 L 397.00 361.21 L 397.13 361.02 L 397.35 360.15 L 397.37 359.62 L 397.83 359.21 L 398.12 358.79 L 399.22 358.60 L 399.61 358.44 L 399.74 358.59 L 399.56 359.15 L 399.73 359.52 L 400.25 359.62 L 400.79 360.02 L 401.28 359.55 L 402.07 359.14 L 402.37 358.73 L 403.08 358.40 L 403.89 358.70 L 404.55 358.61 L 404.50 358.34 L 404.79 358.23 L 404.91 357.91 L 405.67 357.57 L 405.82 357.11 L 405.41 356.47 L 405.24 355.66 L 405.97 355.53 L 406.05 355.11 L 406.36 354.98 L 406.74 355.23 L 406.84 354.85 L 408.23 354.10 L 408.53 354.24 L 409.15 353.91 L 409.73 354.07 L 409.96 353.51 L 410.64 352.76 L 410.93 353.05 L 411.13 353.51 L 411.58 353.87 L 411.88 353.77 L 412.47 354.70 L 412.89 354.89 L 412.72 354.37 L 413.07 354.14 L 413.42 353.57 L 414.00 353.22 L 414.52 353.41 L 414.46 353.04 L 413.88 352.61 L 414.52 352.64 L 415.13 352.04 L 415.62 351.96 L 415.72 351.55 L 416.10 351.35 L 416.51 351.36 L 416.73 351.63 L 416.97 351.53 L 417.49 351.73 L 417.63 352.16 L 418.05 351.78 L 418.38 351.67 L 418.52 351.37 L 419.10 350.90 L 418.88 350.53 L 419.18 349.91 L 419.27 349.30 L 419.05 348.56 L 419.62 348.25 L 419.43 347.87 L 419.63 347.69 L 419.27 347.57 L 418.96 346.89 L 418.58 346.45 L 418.63 346.25 L 418.19 345.91 L 418.15 345.51 L 417.75 345.41 L 417.61 345.19 L 417.25 345.29 L 416.79 345.17 L 416.62 345.41 L 416.68 345.72 L 416.51 346.02 L 416.18 345.85 L 415.99 346.12 L 415.52 346.20 L 415.58 345.90 L 415.20 345.67 L 414.93 345.82 L 414.57 345.75 L 414.00 346.10 L 413.78 345.13 L 413.43 345.01 L 412.80 345.09 L 412.38 346.26 L 411.48 345.99 L 411.37 345.76 L 410.73 345.46 L 410.59 345.23 L 410.10 345.48 L 410.30 345.66 L 409.96 345.81 L 409.34 345.35 L 409.16 344.71 L 409.64 344.72 L 409.78 344.28 L 409.50 344.21 L 408.97 343.45 L 409.31 343.06 L 409.22 342.84 L 408.71 342.54 L 408.42 342.58 L 408.37 342.14 L 407.71 341.86 L 407.06 342.16 L 406.54 342.18 L 406.37 342.02 L 405.57 341.81 L 405.03 341.84 L 404.84 341.68 L 404.66 341.93 L 404.32 341.86 L 404.19 342.09 L 404.38 342.91 L 404.25 343.11 L 403.55 342.63 L 403.23 342.53 L 403.43 342.31 L 403.29 342.07 L 402.87 342.04 L 402.60 341.06 L 402.30 340.89 L 401.98 339.67 L 402.39 338.86 L 402.53 338.60 L 402.49 338.01 L 402.98 337.39 L 403.49 337.07 L 403.78 336.44 L 404.29 336.12 L 404.00 335.51 L 403.32 335.45 L 404.01 335.26 L 404.11 334.81 L 404.49 334.33 L 404.41 334.05 L 404.71 333.85 L 405.21 334.38 L 405.43 334.31 L 405.26 333.75 L 405.47 333.63 L 405.36 333.35 L 404.53 333.30 L 404.05 333.00 L 403.53 333.01 L 403.60 332.38 L 403.28 332.29 L 402.77 331.90 L 402.53 331.92 L 402.67 330.63 L 402.33 330.61 L 401.91 330.95 L 401.56 330.94 L 401.41 331.18 L 401.24 330.90 L 401.42 330.68 L 401.34 330.10 L 400.94 329.90 L 400.35 329.87 L 400.12 329.36 L 400.31 328.19 L 400.74 328.50 L 401.02 328.18 L 401.29 327.35 L 401.48 327.07 L 401.20 326.64 L 401.45 326.46 L 401.78 325.61 L 401.67 324.82 L 402.08 324.98 L 402.38 324.53 L 402.28 323.99 L 402.59 323.36 L 402.53 323.08 L 403.04 322.42 L 403.74 322.23 L 403.99 321.80 L 403.79 321.59 L 403.80 321.21 L 403.45 321.03 L 403.52 320.75 L 403.11 320.31 L 402.82 320.27 L 402.91 319.82 L 402.67 319.59 L 401.96 319.70 L 401.66 319.46 L 401.75 319.03 L 401.30 318.36 L 401.03 318.60 L 400.57 319.27 L 400.15 319.36 L 399.75 319.14 L 399.68 319.31 L 399.21 319.28 L 398.57 319.01 L 398.16 319.10 L 397.61 319.77 L 397.60 320.37 L 396.99 320.40 L 396.42 320.30 L 395.51 320.40 L 395.03 320.22 L 394.99 319.98 L 394.45 319.64 L 394.30 319.25 L 394.40 318.56 L 394.55 318.28 L 394.05 318.01 L 393.85 317.47 L 394.02 316.89 L 394.61 316.65 L 394.45 316.32 L 394.57 315.85 L 394.35 315.72 L 394.12 315.15 L 393.84 314.83 L 393.54 314.81 L 392.99 315.27 L 393.00 314.98 L 392.77 314.70 L 392.90 314.52 L 393.38 314.66 L 393.30 314.38 L 392.97 314.34 L 393.10 314.09 L 393.75 314.03 L 394.30 313.17 L 394.84 312.75 L 394.83 312.59 L 395.51 312.42 L 395.60 311.91 L 395.90 311.74 L 395.92 311.35 L 396.20 310.74 L 396.45 310.93 L 397.06 310.90 L 397.08 311.36 L 397.77 311.91 L 398.08 311.84 L 398.69 312.61 L 399.08 312.26 L 399.48 312.32 L 399.47 311.85 L 399.96 311.46 L 400.10 311.12 L 400.67 310.49 L 401.75 311.05 L 402.05 311.04 L 402.49 311.95 L 402.81 311.90 L 403.24 312.16 L 404.72 311.76 L 404.89 312.05 L 405.45 311.68 L 405.78 311.90 L 405.73 312.24 L 405.93 312.33 L 406.37 311.95 L 407.38 311.41 L 407.97 311.01 L 408.52 311.01 L 409.18 311.27 L 409.16 311.53 L 409.68 310.82 L 409.69 310.27 L 409.96 310.01 L 409.68 309.67 L 409.92 309.31 L 410.42 309.00 L 410.33 308.79 L 410.46 308.04 Z">
      <title>云南省</title>
    </path>
  </g>
</svg>