<?xml version="1.0" encoding="UTF-8"?>
<svg xmlns="http://www.w3.org/2000/svg" viewBox="0 0 800 600" width="800" height="600">
  <title>西藏自治区</title>
  <defs>
    <style>
      .region-path {
        fill: #e6f3ff;
        stroke: #2563eb;
        stroke-width: 1.5;
        stroke-linejoin: round;
        cursor: pointer;
        transition: all 0.2s ease;
      }
      .region-path:hover {
        fill: #bfdbfe;
        stroke: #1d4ed8;
        stroke-width: 2;
      }
      .region-label {
        fill: #1e40af;
        font-family: Arial, sans-serif;
        font-size: 24px;
        font-weight: bold;
        pointer-events: none;
      }
    </style>
  </defs>
  
  <g id="540000">
    <path id="540000-land" 
          class="region-path"
          data-region-id="540000"
          data-region-name="西藏自治区"
          d="M 248.79 221.09 L 247.79 220.92 L 247.58 220.74 L 246.50 220.49 L 245.31 219.69 L 244.89 219.59 L 244.45 219.65 L 243.82 218.99 L 243.48 219.35 L 242.73 219.41 L 242.48 219.14 L 241.99 219.03 L 241.56 218.78 L 241.05 218.75 L 240.65 218.27 L 240.08 218.44 L 239.74 218.39 L 239.37 218.55 L 239.18 219.03 L 239.00 219.02 L 238.21 218.24 L 237.52 218.01 L 237.46 217.61 L 236.99 217.27 L 236.22 217.43 L 235.93 217.06 L 235.31 217.15 L 234.75 217.11 L 234.85 217.31 L 233.98 217.18 L 233.56 217.20 L 233.36 217.42 L 232.94 217.36 L 232.45 217.62 L 232.01 217.54 L 231.12 217.59 L 230.88 217.52 L 230.62 217.82 L 230.22 217.97 L 229.38 218.07 L 229.25 217.99 L 228.64 218.17 L 228.27 218.06 L 227.12 218.32 L 226.60 218.50 L 225.56 218.38 L 225.46 217.80 L 225.11 217.64 L 224.70 217.77 L 224.45 217.69 L 224.29 217.98 L 223.71 218.33 L 222.69 218.43 L 222.36 218.68 L 222.23 218.97 L 221.58 218.83 L 221.22 218.98 L 220.65 218.85 L 220.11 219.11 L 219.97 219.30 L 219.52 219.33 L 219.27 218.94 L 218.99 219.03 L 218.06 219.03 L 217.57 219.52 L 216.53 219.75 L 215.83 219.70 L 215.66 219.92 L 215.04 219.76 L 214.39 219.91 L 214.03 220.30 L 213.22 220.28 L 212.90 220.59 L 212.27 220.70 L 212.21 221.38 L 212.39 221.56 L 212.12 221.97 L 211.88 222.01 L 211.66 222.66 L 211.29 223.02 L 211.26 223.33 L 210.87 223.68 L 210.69 223.64 L 209.79 224.35 L 209.32 224.29 L 208.61 224.42 L 208.36 224.35 L 207.12 224.63 L 206.72 224.84 L 206.31 225.67 L 205.82 225.78 L 205.33 225.36 L 203.83 225.16 L 203.49 224.61 L 202.77 224.24 L 201.47 224.72 L 200.50 224.62 L 199.90 224.78 L 199.68 225.07 L 199.13 225.20 L 197.86 225.71 L 197.15 226.06 L 196.89 226.02 L 196.10 226.25 L 195.50 226.32 L 194.91 226.57 L 194.24 226.71 L 194.52 227.07 L 194.29 227.51 L 193.99 227.58 L 193.04 228.13 L 192.43 228.23 L 191.67 228.47 L 191.25 228.69 L 191.05 228.49 L 190.58 228.66 L 190.39 228.27 L 189.65 228.04 L 188.62 228.24 L 188.40 228.61 L 187.49 228.74 L 187.37 228.66 L 186.25 228.68 L 185.67 228.94 L 185.44 228.78 L 184.84 228.88 L 184.82 228.65 L 184.43 228.68 L 183.88 228.46 L 183.43 228.47 L 182.69 228.30 L 182.13 228.26 L 181.83 228.09 L 181.07 228.38 L 180.54 228.29 L 180.14 228.01 L 179.93 227.62 L 179.21 227.40 L 178.93 226.74 L 179.03 226.20 L 178.77 225.82 L 178.89 225.50 L 178.13 225.43 L 177.92 225.28 L 177.10 225.28 L 176.95 225.51 L 176.44 225.81 L 175.62 225.44 L 175.38 225.24 L 174.52 225.08 L 174.06 225.15 L 173.72 224.98 L 173.26 225.03 L 172.93 225.62 L 172.34 225.67 L 172.49 226.08 L 172.26 226.62 L 171.96 226.77 L 171.59 226.74 L 171.29 227.02 L 170.82 227.10 L 170.57 227.28 L 169.76 227.57 L 169.60 227.75 L 169.21 227.74 L 169.16 228.00 L 169.41 228.79 L 169.17 229.09 L 168.77 229.25 L 168.40 229.23 L 168.11 229.61 L 167.34 229.74 L 166.83 229.61 L 166.13 229.70 L 165.61 229.98 L 163.81 229.98 L 163.72 229.53 L 163.14 229.12 L 163.07 228.96 L 162.49 228.94 L 162.26 228.74 L 161.75 228.92 L 161.45 228.84 L 161.25 229.08 L 160.77 229.11 L 160.48 228.63 L 159.97 228.63 L 159.57 228.42 L 159.52 228.19 L 159.06 228.25 L 158.82 228.47 L 158.81 228.92 L 158.52 228.95 L 158.76 229.19 L 158.12 229.20 L 157.71 228.99 L 157.40 229.06 L 156.88 228.84 L 156.00 228.95 L 155.27 228.90 L 155.29 228.64 L 154.93 228.34 L 154.34 228.17 L 154.02 228.36 L 153.65 228.23 L 153.46 228.36 L 152.74 228.09 L 152.61 227.76 L 152.01 228.40 L 151.46 228.41 L 151.10 228.76 L 150.90 229.35 L 151.89 230.26 L 150.80 230.31 L 150.44 230.58 L 150.51 230.89 L 149.35 231.73 L 148.94 231.62 L 148.45 232.06 L 148.58 232.19 L 148.37 232.72 L 148.56 233.01 L 148.48 233.43 L 148.16 233.51 L 148.09 233.91 L 147.72 233.84 L 147.37 233.98 L 147.58 234.27 L 147.07 235.20 L 147.16 235.70 L 146.75 235.82 L 146.94 236.12 L 146.50 237.01 L 146.69 237.31 L 146.07 237.82 L 145.39 237.90 L 145.02 237.83 L 144.77 238.11 L 143.78 238.06 L 143.41 237.85 L 142.99 238.07 L 142.27 238.14 L 141.52 238.35 L 141.15 238.19 L 140.60 238.27 L 140.27 238.48 L 139.62 238.40 L 139.44 238.21 L 138.51 238.51 L 138.17 238.41 L 137.87 238.64 L 138.27 239.17 L 138.17 239.32 L 137.97 239.54 L 137.57 239.48 L 137.33 240.39 L 137.15 240.59 L 136.99 241.17 L 136.83 241.30 L 136.50 241.09 L 135.99 241.48 L 135.71 241.36 L 135.04 241.85 L 134.25 241.89 L 134.20 242.47 L 135.03 242.78 L 135.11 242.99 L 135.01 243.63 L 135.30 243.72 L 135.24 244.06 L 135.34 244.62 L 135.25 244.95 L 135.48 245.56 L 134.57 246.14 L 134.49 246.37 L 134.79 246.69 L 135.22 246.69 L 135.09 247.42 L 135.86 248.17 L 136.21 248.80 L 136.69 248.87 L 137.24 249.25 L 137.43 249.68 L 137.99 249.80 L 138.19 250.37 L 138.63 250.61 L 138.51 250.78 L 138.89 251.07 L 139.34 251.24 L 139.44 251.43 L 139.21 251.93 L 139.45 253.03 L 139.88 253.52 L 140.41 253.74 L 140.12 254.29 L 140.23 254.74 L 140.09 255.39 L 140.62 255.44 L 140.89 255.96 L 140.59 256.49 L 140.87 256.91 L 140.96 257.33 L 140.59 257.70 L 140.38 258.16 L 139.74 258.21 L 139.63 258.41 L 139.17 258.62 L 139.05 259.20 L 138.83 259.68 L 138.47 259.57 L 137.82 259.63 L 137.46 260.08 L 136.77 259.63 L 136.44 259.32 L 135.80 258.99 L 135.50 258.54 L 135.28 257.67 L 135.50 257.21 L 135.09 256.73 L 135.08 256.22 L 134.51 256.47 L 134.39 256.69 L 133.91 256.98 L 133.50 256.90 L 133.38 257.14 L 132.77 257.23 L 132.58 257.50 L 131.80 257.65 L 131.49 258.02 L 131.81 258.31 L 132.30 259.00 L 132.15 259.58 L 132.41 259.81 L 132.38 260.10 L 132.67 260.43 L 132.32 261.06 L 131.86 261.31 L 131.85 261.50 L 132.27 262.19 L 132.68 261.99 L 132.86 262.33 L 133.71 262.97 L 133.69 263.27 L 134.71 263.63 L 135.30 264.06 L 135.36 264.28 L 135.06 264.71 L 134.29 265.05 L 134.18 265.39 L 134.72 265.81 L 135.31 266.95 L 135.68 266.88 L 135.76 267.24 L 136.16 267.56 L 136.04 267.82 L 135.48 268.23 L 135.07 268.36 L 134.96 268.92 L 135.23 268.92 L 135.61 269.36 L 135.27 269.81 L 135.22 270.19 L 135.64 270.76 L 136.30 270.88 L 136.37 270.64 L 136.56 271.01 L 136.97 271.32 L 137.04 271.59 L 137.74 272.24 L 137.50 272.68 L 137.87 273.42 L 138.38 273.59 L 138.77 273.96 L 139.65 273.72 L 139.90 273.88 L 140.12 274.41 L 141.21 274.20 L 141.04 273.70 L 141.47 273.56 L 141.96 273.14 L 142.16 273.24 L 142.19 273.69 L 143.01 273.60 L 143.47 274.32 L 143.96 274.65 L 144.61 274.33 L 144.69 274.08 L 145.32 274.49 L 145.62 274.54 L 146.42 275.43 L 147.00 275.38 L 147.23 275.61 L 147.10 275.96 L 147.72 276.25 L 147.67 276.59 L 147.82 277.14 L 148.27 277.39 L 148.58 277.99 L 149.61 278.46 L 150.35 278.17 L 150.84 278.37 L 151.47 278.40 L 151.84 278.85 L 152.59 278.90 L 152.75 279.11 L 153.36 279.24 L 153.82 279.59 L 154.19 279.44 L 154.69 279.49 L 155.30 279.93 L 155.58 279.95 L 156.60 280.92 L 157.57 281.11 L 157.80 281.48 L 158.46 281.47 L 158.85 281.69 L 158.89 282.12 L 159.34 282.68 L 159.38 283.20 L 159.64 283.36 L 159.49 283.70 L 159.86 284.08 L 160.83 284.19 L 161.15 284.12 L 161.06 283.91 L 161.43 283.61 L 161.53 283.26 L 161.28 282.66 L 161.97 282.69 L 162.57 282.18 L 162.61 281.75 L 162.84 281.45 L 162.70 281.22 L 162.93 281.08 L 162.64 280.94 L 162.70 280.42 L 162.98 280.32 L 162.71 280.06 L 162.83 279.89 L 163.20 279.97 L 163.62 280.29 L 164.25 280.42 L 164.36 279.80 L 164.85 279.97 L 165.03 279.61 L 166.00 280.02 L 166.36 280.25 L 167.54 280.38 L 168.23 280.67 L 168.38 280.56 L 168.77 280.90 L 169.09 280.73 L 169.48 280.80 L 169.94 280.66 L 170.24 281.09 L 170.09 281.35 L 170.04 281.90 L 170.33 282.16 L 170.82 282.32 L 171.01 282.76 L 170.76 282.98 L 170.70 283.54 L 171.42 283.50 L 172.09 283.88 L 172.32 283.78 L 172.67 284.10 L 173.13 284.12 L 173.33 284.35 L 173.78 284.52 L 174.02 284.79 L 174.67 284.71 L 175.17 285.42 L 175.53 285.61 L 175.32 285.96 L 176.15 285.83 L 176.51 286.25 L 176.03 286.67 L 176.71 286.71 L 176.88 287.08 L 177.32 287.18 L 177.47 287.49 L 178.04 287.47 L 178.69 287.31 L 178.88 287.78 L 179.34 287.69 L 180.14 288.34 L 180.56 288.15 L 180.88 288.21 L 180.93 288.44 L 181.48 288.39 L 181.99 288.69 L 182.09 289.37 L 182.60 289.40 L 183.20 290.24 L 183.53 290.25 L 183.61 290.87 L 183.89 291.16 L 184.03 291.65 L 184.33 291.71 L 184.91 292.53 L 185.21 292.50 L 185.41 292.81 L 186.02 292.88 L 186.14 292.54 L 186.77 292.08 L 187.52 292.03 L 187.73 291.56 L 188.05 291.56 L 188.67 291.26 L 189.06 291.37 L 189.45 291.24 L 189.61 291.59 L 190.13 291.53 L 190.80 291.64 L 190.94 292.12 L 191.69 292.12 L 191.64 292.43 L 191.36 292.60 L 191.42 293.22 L 191.74 293.38 L 191.59 293.74 L 191.60 294.15 L 191.92 294.10 L 192.17 294.30 L 191.96 295.13 L 192.02 295.76 L 192.37 295.70 L 193.02 296.07 L 193.12 295.99 L 193.82 296.13 L 193.78 296.39 L 194.09 296.44 L 194.20 297.06 L 194.60 297.36 L 195.37 297.24 L 196.02 297.39 L 196.34 297.57 L 196.53 297.92 L 196.84 298.01 L 196.83 298.41 L 197.61 298.65 L 198.47 299.09 L 198.88 298.89 L 199.76 298.90 L 199.91 298.64 L 200.54 297.99 L 201.26 297.97 L 201.57 298.30 L 201.99 298.51 L 201.86 298.89 L 201.92 299.33 L 201.62 299.87 L 201.08 300.20 L 201.30 301.06 L 201.13 301.40 L 201.82 301.62 L 202.13 301.46 L 202.78 302.05 L 203.58 301.89 L 203.89 302.14 L 204.27 301.65 L 204.71 301.53 L 205.35 301.59 L 206.20 301.91 L 206.19 302.34 L 206.70 302.04 L 207.03 301.08 L 207.43 301.12 L 207.76 302.62 L 208.16 302.95 L 208.81 303.19 L 208.99 303.68 L 209.27 303.92 L 209.30 304.42 L 210.11 305.14 L 209.79 305.63 L 210.34 305.94 L 210.88 306.01 L 211.62 305.78 L 211.18 304.79 L 211.22 304.04 L 211.65 304.08 L 211.77 303.79 L 212.30 303.25 L 212.64 304.02 L 212.46 304.10 L 212.72 305.24 L 213.15 305.22 L 213.52 305.49 L 214.40 305.74 L 214.62 305.97 L 214.99 305.92 L 215.25 305.55 L 215.66 305.45 L 215.64 305.01 L 215.89 304.52 L 216.11 304.48 L 216.22 303.91 L 216.55 303.96 L 216.66 304.25 L 217.03 304.26 L 217.19 304.02 L 217.58 303.92 L 218.08 304.05 L 218.29 304.26 L 218.16 304.64 L 218.90 304.85 L 219.28 304.75 L 219.50 305.02 L 219.93 305.12 L 220.02 305.44 L 221.05 305.53 L 221.52 305.90 L 221.91 306.63 L 222.49 306.86 L 223.05 306.92 L 223.27 306.64 L 223.60 306.58 L 223.97 306.77 L 224.46 306.80 L 225.06 306.46 L 225.02 306.78 L 225.45 306.83 L 226.71 306.43 L 226.89 306.90 L 227.63 306.72 L 227.61 306.95 L 228.23 307.02 L 228.75 306.43 L 228.79 306.11 L 229.25 305.73 L 230.33 305.92 L 230.87 306.18 L 231.44 305.99 L 231.99 306.16 L 232.21 306.38 L 232.48 306.24 L 232.30 305.86 L 232.68 305.41 L 233.16 305.57 L 233.56 305.32 L 233.69 305.61 L 234.76 305.12 L 235.21 305.22 L 235.54 304.95 L 235.91 304.88 L 236.21 304.55 L 236.79 304.69 L 236.91 304.12 L 237.48 304.03 L 237.74 303.83 L 238.06 304.27 L 238.97 304.27 L 239.47 304.79 L 239.79 304.92 L 239.83 305.79 L 240.01 305.79 L 240.26 306.57 L 240.00 306.93 L 240.08 307.64 L 239.87 307.98 L 239.88 308.39 L 239.51 308.70 L 239.48 309.05 L 239.04 309.50 L 239.32 309.94 L 239.17 310.50 L 239.44 311.14 L 239.74 311.42 L 240.04 311.39 L 240.40 311.95 L 240.59 311.97 L 240.50 312.52 L 240.82 312.63 L 241.26 313.18 L 242.12 312.85 L 242.22 312.37 L 243.00 312.04 L 243.31 311.47 L 242.79 310.77 L 242.41 310.46 L 242.55 309.77 L 243.11 309.39 L 242.75 309.01 L 242.78 308.78 L 243.33 308.36 L 243.89 307.09 L 244.48 306.55 L 245.31 306.26 L 246.01 305.30 L 246.21 304.65 L 246.72 304.08 L 247.03 304.06 L 247.69 303.30 L 248.88 303.21 L 249.49 302.93 L 249.60 302.48 L 250.43 302.68 L 250.76 303.09 L 251.54 303.02 L 251.96 303.29 L 252.13 303.56 L 252.54 303.37 L 252.85 303.51 L 253.08 303.00 L 253.51 303.03 L 253.75 303.30 L 254.19 303.48 L 254.86 303.38 L 255.59 304.06 L 255.76 304.35 L 256.31 304.32 L 256.75 304.52 L 257.11 304.33 L 257.68 304.52 L 257.91 304.76 L 259.06 304.19 L 259.47 304.43 L 260.10 304.56 L 260.14 304.82 L 260.63 305.30 L 261.08 305.53 L 261.75 305.46 L 261.91 305.64 L 261.78 306.01 L 262.42 306.46 L 263.32 306.57 L 263.76 306.07 L 263.68 305.73 L 263.83 305.30 L 264.39 305.09 L 264.76 305.28 L 265.36 304.38 L 266.97 304.95 L 267.23 305.27 L 267.19 305.63 L 267.87 305.94 L 268.49 306.10 L 268.56 306.46 L 267.96 306.48 L 267.79 306.84 L 268.47 306.85 L 268.81 307.40 L 268.60 308.17 L 268.07 308.60 L 267.98 308.84 L 268.19 309.13 L 268.00 309.31 L 268.21 309.74 L 268.65 310.06 L 269.02 310.09 L 269.60 310.50 L 269.96 310.55 L 270.85 310.27 L 271.96 310.53 L 272.62 310.42 L 272.74 310.74 L 273.19 311.29 L 273.82 312.51 L 273.46 312.60 L 273.25 312.88 L 273.15 313.37 L 272.85 313.60 L 272.79 314.22 L 272.97 314.79 L 273.30 314.92 L 273.81 315.76 L 273.65 316.85 L 274.57 316.69 L 275.48 316.46 L 276.71 316.35 L 277.66 316.15 L 278.20 315.95 L 279.22 315.83 L 279.58 315.88 L 280.84 316.43 L 281.94 316.23 L 283.40 316.55 L 284.03 316.59 L 285.29 316.31 L 288.77 315.98 L 289.36 315.81 L 290.62 315.18 L 291.35 315.08 L 291.61 314.87 L 291.68 313.60 L 292.94 312.18 L 293.83 311.45 L 294.77 310.59 L 295.53 309.78 L 296.12 309.32 L 296.91 309.34 L 297.39 309.23 L 297.84 309.28 L 298.20 309.10 L 298.69 309.16 L 300.09 308.60 L 300.74 308.26 L 301.34 308.10 L 301.92 307.79 L 302.43 307.64 L 303.07 307.13 L 303.77 306.75 L 304.31 306.63 L 306.58 305.60 L 307.02 304.79 L 307.27 304.55 L 307.47 303.84 L 307.73 303.50 L 308.15 303.30 L 309.09 303.08 L 310.60 302.34 L 311.28 302.13 L 311.77 302.17 L 312.23 301.92 L 312.68 301.89 L 312.94 302.09 L 313.02 302.48 L 313.31 302.49 L 313.86 302.92 L 314.75 302.97 L 314.99 302.78 L 315.99 302.77 L 316.83 302.61 L 317.07 303.52 L 317.78 303.75 L 318.11 303.75 L 318.08 303.49 L 318.40 303.30 L 318.78 303.49 L 319.16 304.28 L 319.56 304.20 L 320.44 304.72 L 320.56 305.03 L 321.13 305.51 L 321.35 305.42 L 322.11 305.69 L 322.37 306.12 L 322.78 306.28 L 323.39 306.18 L 324.06 306.42 L 324.43 306.97 L 324.85 306.91 L 324.99 307.65 L 325.35 307.66 L 325.41 307.25 L 326.08 306.93 L 326.97 306.10 L 327.49 305.87 L 327.70 306.21 L 328.35 306.19 L 328.20 305.93 L 328.27 305.29 L 328.62 304.84 L 328.27 304.65 L 328.23 304.33 L 327.67 304.42 L 327.51 304.24 L 327.87 303.89 L 327.73 303.60 L 328.00 303.43 L 328.10 302.91 L 327.97 302.54 L 328.47 302.50 L 328.51 302.08 L 328.72 301.90 L 329.12 302.20 L 329.20 301.84 L 329.72 301.58 L 329.41 301.38 L 329.37 300.97 L 329.52 300.53 L 329.75 300.37 L 329.61 300.16 L 329.75 299.84 L 330.25 299.36 L 330.60 299.64 L 330.92 299.46 L 331.45 299.59 L 331.98 300.15 L 331.99 300.87 L 332.32 301.10 L 332.65 301.59 L 333.07 301.59 L 333.37 301.23 L 333.75 301.21 L 334.92 302.35 L 334.79 302.76 L 335.05 303.04 L 335.30 302.88 L 335.64 302.95 L 335.72 303.25 L 336.15 303.50 L 336.52 303.28 L 336.46 302.84 L 336.96 302.77 L 337.47 302.46 L 337.11 301.72 L 336.86 301.55 L 336.87 301.26 L 337.83 301.00 L 338.00 301.61 L 338.37 301.94 L 338.62 302.43 L 338.55 303.07 L 338.75 303.27 L 338.74 303.79 L 339.15 303.89 L 339.52 303.41 L 339.83 303.51 L 340.51 303.08 L 341.20 303.26 L 341.44 302.90 L 342.09 302.60 L 342.07 301.98 L 342.45 301.65 L 342.38 301.37 L 341.89 300.50 L 341.69 300.01 L 341.20 299.90 L 341.12 299.70 L 341.32 299.26 L 340.87 298.06 L 341.62 297.59 L 341.80 297.31 L 341.47 296.51 L 341.64 296.24 L 341.38 295.70 L 341.51 295.54 L 341.18 295.04 L 341.50 294.85 L 341.99 294.98 L 342.56 294.57 L 342.86 294.62 L 343.23 295.43 L 343.29 296.46 L 343.54 296.70 L 344.17 296.68 L 344.27 296.44 L 344.79 296.35 L 344.80 296.01 L 344.22 295.78 L 344.30 294.83 L 345.21 294.23 L 344.99 293.52 L 344.73 293.28 L 344.67 292.89 L 344.88 292.49 L 345.33 292.66 L 345.46 292.46 L 346.25 292.32 L 346.26 292.09 L 345.86 291.33 L 345.68 290.29 L 345.77 290.25 L 345.54 289.22 L 345.61 288.77 L 345.22 288.32 L 344.99 287.59 L 345.27 286.40 L 345.32 285.84 L 345.78 284.96 L 345.65 284.68 L 345.45 283.69 L 345.54 283.42 L 344.96 282.67 L 344.88 282.35 L 345.00 282.01 L 344.77 281.54 L 344.94 281.34 L 344.73 280.78 L 344.71 279.58 L 344.37 278.84 L 344.31 278.34 L 344.44 278.04 L 344.27 277.93 L 344.11 277.01 L 344.69 276.70 L 344.64 276.32 L 344.09 276.13 L 343.52 275.44 L 342.97 275.13 L 342.73 274.83 L 342.97 274.41 L 343.07 273.92 L 342.74 273.56 L 342.34 273.37 L 342.09 273.02 L 342.07 272.66 L 341.71 272.28 L 340.95 271.89 L 341.17 271.59 L 340.97 271.21 L 341.09 270.73 L 341.38 270.37 L 341.88 270.43 L 342.72 271.30 L 343.06 270.99 L 343.11 270.70 L 343.90 270.00 L 343.45 269.57 L 343.46 269.43 L 342.11 268.61 L 341.93 268.30 L 341.46 267.88 L 341.12 267.75 L 340.45 267.04 L 340.37 266.44 L 340.06 266.44 L 339.98 266.09 L 339.49 265.59 L 339.01 265.25 L 339.13 265.00 L 338.85 264.59 L 339.19 264.32 L 339.22 263.44 L 338.88 263.24 L 338.90 263.05 L 338.41 262.61 L 337.85 262.25 L 337.40 261.35 L 336.97 261.08 L 337.10 260.79 L 336.87 260.22 L 336.97 259.97 L 336.00 259.36 L 335.82 259.46 L 335.53 259.21 L 334.09 258.52 L 333.46 258.47 L 333.30 258.34 L 332.71 258.33 L 332.59 258.11 L 331.92 258.05 L 331.43 258.02 L 331.29 258.15 L 329.95 257.95 L 329.55 258.01 L 329.15 257.76 L 328.99 257.43 L 328.61 257.55 L 328.22 257.85 L 328.06 257.67 L 327.79 257.89 L 327.81 258.19 L 328.37 258.32 L 327.88 258.94 L 328.36 259.09 L 328.75 260.17 L 328.65 260.44 L 328.19 260.68 L 327.68 260.37 L 327.45 260.46 L 327.08 261.62 L 327.16 262.06 L 327.60 262.16 L 327.38 262.51 L 327.54 262.72 L 327.02 262.77 L 326.62 262.39 L 326.43 262.58 L 326.77 262.85 L 326.57 263.07 L 326.29 262.94 L 326.10 263.17 L 325.66 263.06 L 324.64 263.01 L 324.41 262.81 L 323.68 263.02 L 323.99 263.43 L 323.74 263.66 L 323.25 263.37 L 322.92 263.55 L 322.98 263.88 L 322.52 263.44 L 321.47 263.38 L 321.68 263.50 L 321.79 264.09 L 322.02 264.19 L 322.38 264.61 L 322.21 264.87 L 321.86 264.96 L 321.91 265.39 L 322.26 265.67 L 322.69 266.41 L 322.17 266.64 L 322.05 266.88 L 321.47 266.76 L 321.15 266.39 L 320.83 266.57 L 320.36 266.24 L 319.86 266.50 L 319.36 266.11 L 318.84 265.90 L 318.49 265.63 L 318.20 265.12 L 318.01 264.35 L 316.97 264.35 L 316.60 264.24 L 316.26 264.49 L 315.93 264.51 L 316.20 264.79 L 316.08 265.16 L 315.87 265.22 L 315.82 265.84 L 316.37 266.11 L 316.28 266.28 L 316.59 266.65 L 316.52 267.06 L 316.28 267.17 L 316.13 267.68 L 315.60 267.63 L 315.52 266.77 L 315.38 266.60 L 314.65 266.41 L 313.86 265.72 L 313.81 265.42 L 312.93 265.41 L 312.38 266.25 L 312.46 266.48 L 312.15 266.81 L 311.69 266.12 L 310.19 265.77 L 309.62 265.93 L 309.28 266.21 L 308.91 266.10 L 308.59 265.63 L 308.35 265.57 L 307.82 264.58 L 307.85 264.36 L 307.43 264.25 L 307.35 263.94 L 307.71 263.50 L 308.32 263.44 L 307.98 263.16 L 308.32 262.87 L 308.17 261.88 L 307.82 261.63 L 307.42 261.66 L 307.41 261.95 L 306.88 261.98 L 306.41 261.50 L 306.41 261.50 L 306.09 260.54 L 306.11 260.19 L 305.83 260.18 L 305.76 260.43 L 304.71 260.83 L 304.43 260.62 L 304.61 260.18 L 305.61 260.07 L 306.32 259.91 L 305.98 259.75 L 305.88 259.40 L 305.21 259.51 L 304.46 259.53 L 304.39 259.61 L 304.39 259.61 L 304.20 259.42 L 303.49 259.13 L 303.03 259.33 L 302.70 259.21 L 302.47 258.62 L 302.08 258.71 L 301.61 258.47 L 301.41 258.10 L 301.14 258.06 L 300.89 257.43 L 299.86 256.83 L 299.61 256.53 L 299.38 256.87 L 298.66 257.34 L 298.00 257.30 L 298.05 257.58 L 297.75 257.68 L 297.34 257.35 L 297.10 258.08 L 296.87 257.98 L 296.29 258.13 L 296.27 258.31 L 295.85 258.15 L 295.28 258.16 L 295.08 258.81 L 294.67 259.02 L 294.20 258.71 L 293.76 258.65 L 293.56 258.87 L 293.02 258.75 L 292.83 258.49 L 292.30 258.71 L 291.81 258.68 L 291.70 258.23 L 291.38 257.82 L 290.67 257.68 L 290.36 257.52 L 289.63 257.59 L 289.29 258.10 L 288.24 258.58 L 288.08 258.30 L 287.82 258.28 L 287.68 257.75 L 287.15 257.73 L 286.88 258.07 L 286.39 257.59 L 286.08 257.50 L 285.99 257.09 L 285.58 257.02 L 285.36 256.65 L 285.06 256.72 L 284.71 256.57 L 284.53 256.83 L 283.79 256.92 L 283.60 257.02 L 283.13 256.23 L 283.08 255.87 L 282.88 255.83 L 282.51 256.11 L 282.19 256.06 L 281.50 256.28 L 281.04 255.95 L 280.69 256.05 L 280.36 255.81 L 279.63 255.58 L 279.44 255.93 L 279.09 256.04 L 278.47 255.83 L 278.40 255.93 L 277.53 255.79 L 277.27 255.60 L 276.77 255.76 L 276.20 255.59 L 276.08 255.86 L 275.73 255.72 L 275.16 256.04 L 274.57 255.69 L 274.71 255.34 L 274.52 255.20 L 274.87 255.01 L 274.64 254.54 L 274.02 254.33 L 273.57 254.60 L 272.91 254.59 L 272.71 254.92 L 272.06 255.01 L 271.44 254.10 L 271.04 254.16 L 270.85 253.69 L 270.43 253.75 L 269.95 253.47 L 269.25 253.26 L 269.04 253.02 L 268.19 252.76 L 267.90 252.53 L 267.70 252.11 L 267.29 252.02 L 266.67 252.46 L 265.98 252.11 L 265.38 252.03 L 264.86 251.69 L 264.50 251.68 L 264.10 252.05 L 263.82 252.02 L 263.68 252.40 L 262.89 251.98 L 262.54 252.13 L 262.17 251.95 L 261.40 251.90 L 261.13 252.29 L 260.93 251.90 L 260.11 251.97 L 259.45 251.67 L 259.08 251.74 L 258.29 251.28 L 257.61 250.77 L 256.87 250.40 L 255.99 250.45 L 255.55 250.25 L 255.23 249.93 L 254.34 248.76 L 254.06 248.61 L 252.90 248.37 L 252.71 248.19 L 252.65 247.70 L 251.89 247.41 L 251.62 246.81 L 251.87 246.02 L 251.59 245.86 L 251.61 245.63 L 250.82 245.47 L 250.77 245.29 L 251.19 244.84 L 250.74 244.78 L 250.09 244.14 L 249.66 244.18 L 249.00 243.60 L 248.87 243.34 L 248.55 243.20 L 248.52 242.89 L 248.00 242.27 L 248.22 242.18 L 248.22 241.78 L 248.80 241.42 L 249.26 241.49 L 249.30 241.20 L 249.60 241.22 L 249.88 241.03 L 250.11 240.05 L 249.97 239.74 L 250.40 239.42 L 250.32 239.06 L 249.92 238.96 L 249.70 238.68 L 249.91 238.42 L 249.95 238.06 L 249.86 237.09 L 249.48 236.83 L 249.70 236.27 L 249.17 236.13 L 248.94 235.94 L 249.01 235.20 L 249.70 235.07 L 249.98 234.52 L 250.41 234.38 L 250.11 233.81 L 249.86 233.79 L 249.93 233.43 L 249.58 233.23 L 249.16 233.42 L 248.75 233.25 L 248.36 233.58 L 247.42 233.51 L 247.23 233.05 L 247.54 231.82 L 247.57 231.34 L 247.43 231.19 L 246.80 231.03 L 246.28 230.19 L 246.08 230.10 L 246.45 229.76 L 246.93 229.56 L 246.54 229.32 L 246.77 228.99 L 246.57 228.68 L 247.51 228.44 L 247.84 228.14 L 248.24 228.01 L 248.52 228.10 L 249.08 227.56 L 249.35 227.42 L 249.10 227.16 L 248.88 227.22 L 248.67 226.77 L 248.80 226.39 L 249.21 226.40 L 249.35 226.20 L 248.94 225.70 L 249.18 225.55 L 249.16 224.63 L 249.53 224.40 L 249.37 224.13 L 249.73 223.63 L 249.49 223.49 L 248.75 223.62 L 248.20 223.63 L 247.88 223.51 L 247.12 223.54 L 247.17 223.37 L 246.49 223.05 L 245.85 222.91 L 245.92 222.13 L 245.61 221.88 L 245.75 221.59 L 246.34 221.82 L 247.69 221.66 L 248.56 221.11 L 248.79 221.09 Z">
      <title>西藏自治区</title>
    </path>
  </g>
</svg>