<?xml version="1.0" encoding="UTF-8"?>
<svg xmlns="http://www.w3.org/2000/svg" viewBox="0 0 800 600" width="800" height="600">
  <title>陕西省</title>
  <defs>
    <style>
      .region-path {
        fill: #e6f3ff;
        stroke: #2563eb;
        stroke-width: 1.5;
        stroke-linejoin: round;
        cursor: pointer;
        transition: all 0.2s ease;
      }
      .region-path:hover {
        fill: #bfdbfe;
        stroke: #1d4ed8;
        stroke-width: 2;
      }
      .region-label {
        fill: #1e40af;
        font-family: Arial, sans-serif;
        font-size: 24px;
        font-weight: bold;
        pointer-events: none;
      }
    </style>
  </defs>
  
  <g id="610000">
    <path id="610000-land" 
          class="region-path"
          data-region-id="610000"
          data-region-name="陕西省"
          d="M 463.03 236.56 L 462.16 236.45 L 461.88 236.26 L 461.47 235.60 L 461.61 235.26 L 461.65 234.61 L 461.49 233.65 L 461.81 233.00 L 462.42 232.37 L 462.97 231.03 L 462.87 230.37 L 463.02 230.24 L 462.98 229.81 L 463.76 229.02 L 464.05 228.13 L 464.60 227.12 L 464.98 226.83 L 465.20 226.18 L 465.41 225.87 L 465.08 225.15 L 465.02 224.12 L 464.80 223.73 L 464.79 223.32 L 464.40 223.30 L 464.45 222.90 L 464.30 222.60 L 464.45 222.35 L 464.20 222.11 L 464.19 221.69 L 463.94 221.28 L 463.73 220.35 L 463.82 219.70 L 464.01 219.48 L 464.01 218.87 L 463.86 218.65 L 464.14 217.97 L 464.17 217.60 L 464.00 217.36 L 464.31 216.99 L 464.16 216.28 L 464.24 216.02 L 463.73 215.62 L 463.52 215.24 L 463.18 215.04 L 463.27 214.82 L 463.64 214.94 L 463.73 214.41 L 463.32 214.01 L 463.48 213.57 L 463.31 213.50 L 463.49 213.19 L 462.99 212.91 L 463.33 212.80 L 463.49 212.06 L 463.05 211.66 L 463.06 211.46 L 463.52 211.60 L 463.42 211.41 L 463.87 211.22 L 464.23 210.79 L 464.65 210.49 L 464.64 210.26 L 465.22 209.75 L 465.85 209.03 L 465.96 208.76 L 466.25 208.71 L 466.13 208.39 L 466.30 208.06 L 465.74 207.96 L 465.63 207.82 L 465.77 207.18 L 466.77 207.03 L 466.96 206.77 L 467.09 206.11 L 467.33 205.90 L 467.09 205.52 L 467.01 205.06 L 467.32 204.94 L 467.13 204.63 L 466.42 204.37 L 466.52 204.13 L 466.88 204.06 L 466.72 203.70 L 466.15 203.50 L 465.25 202.13 L 464.51 201.79 L 464.57 201.42 L 464.36 201.19 L 464.30 200.31 L 464.48 199.97 L 464.37 199.33 L 464.57 199.13 L 464.96 199.09 L 465.08 198.24 L 465.33 198.13 L 465.95 198.12 L 466.36 197.66 L 466.84 197.52 L 467.16 196.75 L 467.35 196.62 L 467.81 196.76 L 468.16 196.62 L 468.12 196.03 L 468.50 195.92 L 468.63 195.29 L 468.41 195.24 L 468.22 194.83 L 468.59 194.34 L 468.58 194.02 L 469.10 193.49 L 469.56 192.54 L 469.42 192.32 L 469.63 192.10 L 469.56 191.65 L 469.26 191.27 L 469.44 190.97 L 469.86 190.75 L 470.44 190.64 L 470.89 190.29 L 470.99 189.91 L 471.26 189.56 L 471.15 189.37 L 471.73 188.43 L 471.67 188.29 L 472.03 187.82 L 471.55 187.79 L 471.32 187.57 L 471.39 187.31 L 471.07 187.45 L 471.11 187.20 L 470.76 187.16 L 470.37 187.06 L 470.48 186.79 L 470.12 186.80 L 470.07 186.32 L 470.55 186.06 L 470.55 185.80 L 471.00 185.45 L 471.06 185.06 L 470.88 184.87 L 470.51 185.16 L 469.64 185.23 L 469.03 185.57 L 468.33 185.68 L 468.11 185.83 L 467.21 186.93 L 466.75 187.34 L 466.68 187.77 L 466.38 188.12 L 465.59 188.19 L 465.28 188.02 L 464.97 187.64 L 464.90 187.32 L 464.53 186.99 L 464.10 187.22 L 463.60 187.01 L 463.55 187.42 L 463.09 187.74 L 461.77 186.74 L 461.62 186.57 L 460.68 186.25 L 460.39 186.47 L 460.51 186.90 L 460.77 186.94 L 461.00 187.27 L 461.35 188.04 L 460.23 188.37 L 459.52 188.72 L 458.70 188.76 L 458.08 188.14 L 457.76 188.43 L 458.69 188.97 L 457.99 189.49 L 458.29 189.85 L 457.96 189.88 L 457.55 189.68 L 456.95 190.19 L 456.63 190.36 L 456.24 190.77 L 455.63 191.15 L 455.83 191.29 L 455.70 191.70 L 455.20 192.46 L 454.43 192.97 L 454.03 192.68 L 453.33 193.21 L 452.92 193.85 L 452.24 194.05 L 452.14 194.48 L 452.54 194.82 L 452.17 195.13 L 451.60 194.86 L 450.77 195.59 L 450.55 195.95 L 450.06 196.34 L 449.29 196.82 L 449.26 197.33 L 448.81 197.60 L 448.33 198.58 L 448.48 198.78 L 448.09 199.17 L 448.36 199.72 L 449.45 200.38 L 449.25 200.75 L 449.45 201.08 L 449.12 201.10 L 448.92 201.62 L 448.55 201.69 L 448.46 202.03 L 448.05 202.13 L 447.63 201.55 L 447.52 201.18 L 446.97 200.81 L 446.63 200.82 L 446.94 201.44 L 446.64 202.01 L 446.57 202.64 L 446.66 203.56 L 446.50 203.76 L 446.57 204.43 L 446.43 204.60 L 445.83 204.60 L 445.61 204.75 L 444.87 204.93 L 443.88 204.53 L 443.39 204.66 L 442.74 204.96 L 441.48 205.05 L 441.40 204.88 L 440.92 204.79 L 440.49 204.89 L 440.37 205.07 L 439.75 205.24 L 438.94 204.92 L 438.62 204.95 L 438.50 204.76 L 438.63 204.47 L 438.29 204.07 L 438.18 203.53 L 437.17 203.31 L 436.73 203.09 L 435.59 202.88 L 435.09 202.48 L 434.74 202.73 L 434.83 202.94 L 434.70 203.34 L 434.43 203.64 L 434.21 203.49 L 433.92 203.64 L 433.17 203.75 L 433.02 204.36 L 432.41 204.60 L 432.01 204.52 L 432.03 204.73 L 432.37 204.79 L 431.74 205.33 L 431.22 205.37 L 431.42 205.63 L 431.82 205.60 L 431.58 206.31 L 430.94 206.69 L 430.93 207.16 L 430.67 208.19 L 430.83 208.67 L 431.20 209.21 L 430.80 209.31 L 431.29 209.61 L 431.49 209.97 L 431.47 210.25 L 431.18 210.64 L 430.91 210.37 L 430.78 210.66 L 430.96 211.12 L 430.99 211.60 L 430.99 211.60 L 431.02 211.90 L 431.02 211.90 L 431.21 212.59 L 431.49 212.46 L 431.79 212.67 L 432.95 212.64 L 433.53 213.07 L 433.60 213.46 L 434.12 213.38 L 434.65 213.56 L 434.95 213.42 L 435.48 213.74 L 435.69 213.64 L 435.96 213.84 L 436.98 214.10 L 437.40 214.28 L 437.47 214.58 L 437.75 214.85 L 437.73 215.26 L 438.43 214.97 L 438.60 215.34 L 438.38 215.43 L 438.99 215.91 L 439.19 215.69 L 439.33 215.96 L 440.06 216.21 L 440.41 215.52 L 440.67 215.51 L 440.49 215.77 L 440.49 215.77 L 440.55 216.07 L 440.91 216.13 L 441.08 216.36 L 441.89 216.26 L 442.15 216.67 L 442.42 216.81 L 442.59 217.29 L 443.14 217.67 L 443.49 217.67 L 443.70 217.44 L 443.65 217.14 L 444.20 217.51 L 444.78 217.56 L 445.12 218.06 L 445.01 218.33 L 445.06 219.42 L 445.75 220.62 L 445.44 221.41 L 445.50 221.83 L 445.20 222.15 L 445.12 222.59 L 444.52 222.56 L 444.20 222.87 L 443.74 223.03 L 443.54 223.38 L 443.83 223.87 L 443.90 224.68 L 443.73 225.17 L 443.95 226.14 L 444.77 226.64 L 444.85 226.85 L 444.64 227.20 L 444.91 228.08 L 444.69 228.74 L 444.73 229.01 L 444.41 229.36 L 444.04 229.26 L 443.43 229.57 L 442.11 229.52 L 441.94 229.30 L 441.44 229.64 L 440.85 229.76 L 440.66 229.34 L 440.17 229.26 L 439.34 229.52 L 438.87 229.79 L 437.84 229.88 L 437.95 229.69 L 436.99 229.76 L 436.72 229.55 L 435.72 229.19 L 435.64 229.65 L 434.91 229.75 L 434.76 229.88 L 435.11 230.16 L 435.42 230.68 L 435.54 231.17 L 435.97 231.75 L 435.97 231.75 L 436.01 231.79 L 436.01 231.79 L 436.44 232.16 L 436.77 232.16 L 436.94 232.43 L 436.73 232.64 L 435.69 232.90 L 435.00 232.93 L 434.62 233.09 L 434.42 232.78 L 433.85 232.74 L 433.43 233.35 L 432.72 233.28 L 432.15 233.11 L 431.82 233.27 L 431.63 233.10 L 430.97 233.12 L 430.62 233.65 L 429.96 233.53 L 429.68 233.00 L 429.24 232.94 L 428.93 232.66 L 428.86 232.17 L 428.13 232.11 L 427.90 231.71 L 427.48 231.73 L 426.98 231.44 L 426.32 231.59 L 425.00 231.38 L 424.95 231.57 L 424.01 231.68 L 423.61 231.49 L 423.25 231.55 L 423.04 232.13 L 422.76 232.36 L 422.76 232.36 L 422.66 232.59 L 422.74 233.03 L 423.10 233.70 L 423.40 233.86 L 423.34 234.19 L 423.59 234.80 L 423.22 235.05 L 422.87 235.04 L 422.68 235.37 L 422.37 235.49 L 422.22 235.78 L 422.52 236.21 L 421.98 236.11 L 420.89 236.78 L 421.17 236.90 L 421.10 237.42 L 422.35 237.27 L 422.96 237.48 L 422.96 237.62 L 423.42 237.72 L 423.96 238.08 L 424.25 238.73 L 425.07 238.96 L 424.79 239.28 L 424.94 239.68 L 424.71 240.13 L 424.40 240.26 L 424.20 240.09 L 423.74 240.16 L 423.61 239.87 L 423.09 239.76 L 422.78 240.31 L 423.15 240.15 L 423.42 240.40 L 423.70 241.23 L 423.44 241.65 L 422.83 241.70 L 422.87 242.20 L 422.52 242.53 L 422.55 243.09 L 421.89 243.73 L 422.07 244.17 L 422.56 244.07 L 422.73 244.50 L 422.42 244.96 L 422.69 245.29 L 422.64 245.82 L 423.17 245.94 L 423.60 246.60 L 423.65 247.18 L 423.23 247.83 L 422.37 247.63 L 422.27 246.80 L 421.62 246.81 L 421.28 247.06 L 420.78 246.88 L 420.10 247.30 L 419.57 247.48 L 418.75 247.24 L 418.85 246.90 L 418.53 246.75 L 418.12 246.83 L 417.34 246.80 L 417.01 247.23 L 416.62 247.38 L 416.30 247.85 L 416.00 248.07 L 415.88 248.47 L 415.95 248.89 L 415.84 249.21 L 414.62 249.18 L 415.10 249.74 L 415.07 250.12 L 415.47 250.26 L 415.55 250.47 L 416.21 250.72 L 416.78 250.68 L 417.27 251.03 L 417.31 251.55 L 416.92 251.30 L 416.56 251.63 L 416.84 251.62 L 416.95 251.99 L 416.75 252.46 L 416.87 252.71 L 416.78 253.21 L 416.20 253.78 L 415.84 253.66 L 414.89 254.13 L 414.07 254.23 L 413.88 254.40 L 413.39 254.43 L 413.13 254.11 L 412.74 253.99 L 412.44 254.06 L 412.40 254.46 L 412.70 254.73 L 412.80 255.32 L 413.02 255.28 L 413.11 256.00 L 413.33 255.96 L 413.45 256.27 L 414.29 255.99 L 414.72 255.64 L 415.24 255.56 L 415.35 255.74 L 415.79 255.53 L 415.82 254.97 L 416.07 255.04 L 416.53 254.82 L 416.92 254.95 L 417.31 254.71 L 417.75 254.92 L 418.09 254.55 L 418.37 254.93 L 418.60 254.97 L 418.38 255.60 L 418.43 255.60 L 418.42 255.65 L 418.37 255.66 L 418.88 256.05 L 419.44 256.28 L 420.27 256.33 L 420.41 256.53 L 420.75 256.47 L 421.24 256.56 L 421.67 257.02 L 422.00 257.12 L 422.31 256.68 L 422.80 256.78 L 423.00 256.59 L 423.70 256.38 L 424.13 256.45 L 424.58 256.31 L 425.23 255.85 L 425.75 255.89 L 425.85 256.13 L 426.17 256.21 L 426.49 256.01 L 427.00 256.04 L 427.09 256.22 L 428.13 256.04 L 428.69 256.17 L 428.62 256.40 L 429.02 256.78 L 429.12 257.29 L 428.83 257.89 L 429.31 258.52 L 429.97 258.66 L 430.20 259.07 L 430.73 259.34 L 430.98 258.78 L 431.25 258.44 L 431.70 258.26 L 431.96 257.91 L 432.52 258.02 L 432.55 258.69 L 432.78 258.81 L 432.73 259.19 L 433.08 259.11 L 433.46 259.55 L 434.20 259.25 L 434.72 259.23 L 435.05 259.40 L 435.34 260.08 L 435.81 260.01 L 436.41 260.95 L 436.96 261.43 L 437.23 261.29 L 437.58 261.47 L 438.15 262.00 L 438.62 261.68 L 438.55 261.32 L 439.26 261.10 L 439.85 261.24 L 439.99 261.04 L 440.23 261.22 L 440.86 260.67 L 441.59 261.11 L 442.40 260.78 L 442.66 260.90 L 443.23 260.71 L 443.62 260.97 L 443.65 261.43 L 444.00 261.67 L 444.43 261.73 L 445.38 262.45 L 445.97 262.41 L 446.15 262.73 L 446.53 263.01 L 447.04 263.11 L 447.71 263.67 L 448.59 263.72 L 449.62 264.25 L 450.01 264.63 L 450.71 265.01 L 450.75 265.41 L 451.59 265.60 L 451.63 265.83 L 451.36 266.01 L 451.66 266.18 L 451.65 266.45 L 452.68 266.57 L 453.35 266.39 L 453.94 266.46 L 454.43 266.31 L 454.80 266.35 L 454.87 265.70 L 455.30 265.54 L 455.30 265.33 L 454.99 264.70 L 454.79 264.55 L 455.16 264.26 L 455.27 263.90 L 454.85 263.38 L 454.85 263.02 L 455.17 262.41 L 454.81 261.84 L 454.99 261.45 L 454.87 261.24 L 454.43 261.18 L 454.21 260.72 L 453.86 260.40 L 454.05 259.97 L 453.94 259.48 L 454.22 259.31 L 454.19 259.02 L 454.69 258.26 L 455.33 257.91 L 455.15 257.63 L 455.27 257.30 L 456.26 257.21 L 456.46 257.35 L 457.20 257.53 L 458.17 257.37 L 458.79 257.53 L 459.28 257.85 L 459.97 257.50 L 460.03 257.12 L 460.38 257.12 L 460.69 257.36 L 461.23 256.95 L 460.72 256.43 L 460.75 255.56 L 460.41 255.45 L 460.57 255.19 L 460.18 254.89 L 459.63 254.69 L 458.98 254.33 L 458.34 254.32 L 458.13 254.15 L 457.61 254.08 L 457.52 254.25 L 456.92 254.37 L 456.65 254.09 L 456.87 253.28 L 456.97 252.45 L 456.03 252.10 L 455.86 251.94 L 454.70 252.01 L 454.14 251.71 L 453.58 251.70 L 453.28 251.57 L 453.90 251.00 L 454.06 250.68 L 455.02 250.70 L 455.15 250.29 L 455.47 250.54 L 455.91 250.51 L 456.32 250.75 L 457.16 250.70 L 457.56 250.58 L 458.23 250.77 L 458.82 251.04 L 459.09 250.95 L 459.42 251.16 L 460.80 250.98 L 461.36 251.46 L 462.05 251.37 L 462.60 251.49 L 462.95 251.22 L 463.22 251.32 L 463.22 251.32 L 463.98 251.37 L 464.70 250.50 L 465.08 250.55 L 465.25 251.40 L 465.56 251.66 L 465.84 251.52 L 466.38 252.14 L 466.90 251.59 L 467.64 251.51 L 467.69 251.06 L 468.06 250.93 L 468.65 251.04 L 469.05 250.52 L 469.30 250.50 L 469.73 249.72 L 469.73 249.26 L 469.42 248.63 L 469.74 248.30 L 469.68 248.26 L 469.68 248.21 L 469.74 248.19 L 469.49 247.60 L 469.50 247.15 L 469.12 246.84 L 468.20 246.57 L 467.63 246.04 L 467.72 245.75 L 467.56 245.37 L 467.20 244.90 L 466.78 244.87 L 466.48 244.51 L 465.96 244.31 L 465.44 244.31 L 465.18 243.95 L 465.61 243.72 L 465.60 243.56 L 465.99 243.43 L 466.05 243.13 L 465.53 242.41 L 465.18 242.54 L 465.23 241.73 L 465.46 241.61 L 465.75 241.12 L 465.54 240.95 L 464.88 240.78 L 464.81 240.58 L 464.36 240.53 L 463.65 240.26 L 463.54 239.80 L 463.78 239.75 L 464.31 239.29 L 464.00 238.71 L 463.27 238.29 L 463.27 238.29 L 462.83 237.43 L 462.95 237.14 L 463.29 237.00 L 462.90 236.91 L 463.03 236.56 Z M 469.74 248.19 L 469.68 248.21 L 469.68 248.26 L 469.74 248.30 L 469.74 248.19 Z M 418.43 255.60 L 418.38 255.60 L 418.37 255.66 L 418.42 255.65 L 418.43 255.60 Z">
      <title>陕西省</title>
    </path>
  </g>
</svg>