<?xml version="1.0" encoding="UTF-8"?>
<svg xmlns="http://www.w3.org/2000/svg" viewBox="0 0 800 600" width="800" height="600">
  <title>甘肃省</title>
  <defs>
    <style>
      .region-path {
        fill: #e6f3ff;
        stroke: #2563eb;
        stroke-width: 1.5;
        stroke-linejoin: round;
        cursor: pointer;
        transition: all 0.2s ease;
      }
      .region-path:hover {
        fill: #bfdbfe;
        stroke: #1d4ed8;
        stroke-width: 2;
      }
      .region-label {
        fill: #1e40af;
        font-family: Arial, sans-serif;
        font-size: 24px;
        font-weight: bold;
        pointer-events: none;
      }
    </style>
  </defs>
  
  <g id="620000">
    <path id="620000-land" 
          class="region-path"
          data-region-id="620000"
          data-region-name="甘肃省"
          d="M 422.88 224.77 L 422.86 224.79 L 422.80 224.82 L 422.74 224.82 L 422.14 225.28 L 422.40 225.75 L 422.60 226.46 L 422.40 226.42 L 422.20 226.96 L 422.46 227.43 L 422.71 227.44 L 422.64 227.75 L 422.85 228.11 L 422.83 228.65 L 422.53 229.20 L 421.94 229.56 L 421.45 229.58 L 421.40 229.95 L 420.94 229.67 L 420.13 228.70 L 420.10 228.17 L 419.67 228.17 L 419.43 227.88 L 418.98 228.34 L 418.81 228.67 L 418.49 228.05 L 418.39 228.06 L 418.33 227.90 L 418.39 227.78 L 418.37 227.76 L 418.35 227.67 L 418.38 227.61 L 418.19 227.70 L 417.99 227.55 L 417.66 227.87 L 416.54 228.13 L 416.57 227.74 L 418.14 227.35 L 418.12 227.26 L 417.87 227.30 L 417.81 227.04 L 416.60 226.75 L 416.27 226.82 L 416.05 227.34 L 415.73 226.46 L 415.56 226.56 L 415.17 226.17 L 415.13 225.84 L 414.66 225.68 L 414.76 225.44 L 414.43 225.18 L 414.77 224.89 L 414.94 225.18 L 415.13 224.90 L 414.55 224.82 L 414.18 224.65 L 413.44 225.00 L 412.26 224.88 L 412.01 224.42 L 411.74 224.26 L 411.71 223.93 L 411.50 223.89 L 411.21 224.20 L 411.11 223.67 L 411.39 223.53 L 410.90 223.34 L 410.63 222.66 L 410.83 221.70 L 411.48 221.28 L 411.73 220.98 L 412.36 221.01 L 412.61 220.53 L 412.23 219.84 L 412.04 219.73 L 412.03 219.27 L 412.20 219.01 L 411.99 218.72 L 411.68 218.63 L 411.43 218.22 L 411.39 217.59 L 411.03 217.46 L 411.02 216.91 L 410.61 216.50 L 410.19 216.64 L 409.88 216.32 L 410.13 216.21 L 409.98 215.81 L 409.55 215.51 L 409.61 215.16 L 409.35 214.79 L 409.53 214.48 L 410.09 214.39 L 410.12 214.25 L 410.58 214.35 L 410.80 214.13 L 410.74 213.75 L 410.41 213.55 L 410.17 213.06 L 409.80 212.78 L 409.12 212.80 L 409.19 212.29 L 408.98 211.74 L 408.60 211.73 L 407.88 211.45 L 407.68 211.61 L 407.31 211.32 L 406.80 211.27 L 406.79 210.89 L 406.38 210.67 L 406.11 210.04 L 405.86 209.90 L 405.77 209.49 L 404.95 209.13 L 404.34 209.53 L 403.51 209.59 L 403.13 209.17 L 403.37 208.59 L 403.65 208.68 L 403.89 208.39 L 404.30 208.27 L 403.76 207.88 L 403.95 207.46 L 402.30 207.18 L 402.08 207.32 L 401.55 207.29 L 401.44 207.07 L 400.69 207.35 L 400.00 207.39 L 399.88 207.25 L 399.36 207.42 L 398.80 207.47 L 397.83 206.87 L 396.24 205.75 L 395.60 205.43 L 395.25 204.98 L 393.62 203.62 L 393.04 203.42 L 390.76 202.77 L 390.29 200.93 L 390.36 200.40 L 392.08 199.70 L 391.80 198.41 L 391.36 197.66 L 390.85 197.13 L 395.44 194.64 L 397.02 192.42 L 397.36 192.04 L 398.69 191.53 L 398.94 191.08 L 398.88 190.52 L 399.05 190.09 L 398.68 189.29 L 397.39 187.87 L 397.66 187.31 L 397.83 186.60 L 396.44 186.22 L 395.38 186.17 L 394.09 186.50 L 392.71 186.95 L 390.98 187.29 L 390.11 187.52 L 389.23 188.22 L 388.49 188.72 L 387.92 188.96 L 386.61 189.92 L 385.33 189.71 L 382.56 189.18 L 382.17 189.06 L 380.87 188.31 L 379.85 188.55 L 379.04 189.00 L 376.69 189.49 L 376.30 189.64 L 375.16 189.80 L 374.45 190.03 L 375.40 190.95 L 375.70 191.10 L 376.64 191.94 L 376.95 192.08 L 375.56 192.94 L 374.86 193.72 L 373.86 194.48 L 372.78 194.16 L 372.04 194.53 L 371.64 193.93 L 370.08 193.40 L 369.24 193.27 L 368.99 193.00 L 369.34 192.80 L 369.28 192.54 L 368.32 192.40 L 368.27 191.92 L 367.86 191.55 L 368.18 190.74 L 367.02 191.21 L 365.49 191.51 L 365.41 190.90 L 364.79 190.64 L 364.51 190.93 L 364.10 190.69 L 364.03 190.18 L 364.40 189.85 L 364.17 188.88 L 364.17 186.75 L 362.77 186.76 L 361.73 186.94 L 360.61 186.80 L 360.63 185.97 L 360.04 185.92 L 358.82 185.68 L 358.56 185.02 L 358.70 184.67 L 358.03 183.85 L 356.77 183.68 L 355.86 183.11 L 355.01 182.98 L 354.45 182.81 L 353.59 182.04 L 352.04 181.75 L 349.94 181.88 L 349.64 181.77 L 349.84 181.65 L 350.17 181.79 L 350.60 181.71 L 352.48 180.88 L 352.86 180.52 L 353.79 180.45 L 354.69 179.93 L 354.98 179.03 L 355.52 178.52 L 357.19 177.71 L 357.19 174.98 L 357.95 174.18 L 357.90 173.16 L 357.77 173.05 L 356.56 171.52 L 356.03 171.18 L 355.29 171.16 L 352.05 170.92 L 350.94 171.81 L 346.88 171.69 L 346.86 172.84 L 346.37 173.18 L 346.13 173.58 L 345.50 173.40 L 344.92 172.48 L 342.91 173.28 L 343.07 173.75 L 343.03 174.30 L 342.61 173.96 L 342.19 173.77 L 341.85 173.42 L 341.64 172.58 L 340.61 172.85 L 341.21 173.56 L 338.28 174.70 L 338.16 171.07 L 337.30 170.86 L 336.62 170.35 L 336.18 170.21 L 334.41 169.21 L 333.71 168.48 L 330.86 165.66 L 330.71 165.28 L 333.12 163.42 L 331.11 160.00 L 329.53 157.33 L 328.19 155.12 L 326.13 151.62 L 324.01 152.02 L 321.67 152.01 L 317.98 152.32 L 315.70 153.40 L 315.05 153.60 L 314.72 153.96 L 314.22 154.23 L 314.16 154.86 L 313.75 155.33 L 314.66 155.56 L 314.41 156.20 L 314.40 156.47 L 315.82 157.60 L 314.78 158.31 L 315.41 159.30 L 315.40 159.65 L 315.19 160.01 L 314.55 160.52 L 313.96 160.83 L 312.48 161.42 L 311.92 161.43 L 311.48 161.56 L 310.42 161.66 L 309.53 161.97 L 308.23 162.76 L 307.70 163.04 L 307.09 163.55 L 306.72 164.36 L 306.18 163.87 L 305.63 163.02 L 305.68 162.77 L 305.32 162.60 L 305.02 162.21 L 304.76 162.26 L 303.73 162.69 L 303.29 162.77 L 302.18 163.30 L 301.64 163.81 L 301.02 164.65 L 298.78 164.98 L 295.16 167.44 L 293.36 169.03 L 292.30 170.40 L 291.27 171.47 L 291.39 172.37 L 290.76 173.70 L 288.13 173.87 L 282.14 174.66 L 282.05 176.53 L 281.91 177.37 L 280.77 179.00 L 280.24 181.96 L 279.64 184.14 L 279.14 185.63 L 277.96 187.14 L 276.44 188.28 L 276.03 188.50 L 276.08 189.44 L 276.31 189.96 L 276.32 190.34 L 276.77 190.56 L 277.27 190.51 L 277.27 190.29 L 277.59 189.92 L 278.17 189.80 L 279.35 189.82 L 280.45 189.54 L 281.50 189.52 L 281.73 189.30 L 282.25 189.20 L 282.66 189.47 L 283.33 189.44 L 284.07 189.09 L 284.35 189.29 L 284.24 189.84 L 284.60 190.01 L 284.93 190.48 L 284.74 191.74 L 285.34 191.83 L 285.72 192.03 L 287.58 191.83 L 290.44 191.74 L 291.53 192.33 L 292.05 192.33 L 292.05 192.76 L 290.86 192.81 L 290.72 192.95 L 290.90 193.33 L 291.17 193.54 L 292.05 193.85 L 292.74 193.91 L 292.97 193.81 L 296.16 193.45 L 297.08 193.42 L 298.55 196.71 L 298.71 196.91 L 298.71 197.53 L 299.06 197.68 L 299.29 197.50 L 300.22 197.31 L 301.67 197.33 L 302.17 197.24 L 302.41 197.02 L 303.34 196.86 L 304.08 196.98 L 304.36 197.15 L 304.88 197.00 L 305.07 197.26 L 305.53 197.39 L 305.79 197.92 L 305.99 197.89 L 306.30 198.18 L 306.88 198.02 L 307.84 198.21 L 308.18 198.10 L 308.33 198.30 L 308.67 198.06 L 308.98 198.26 L 309.67 197.76 L 309.92 197.81 L 310.57 197.30 L 310.91 197.17 L 311.11 197.40 L 311.65 197.63 L 312.29 197.75 L 312.45 198.34 L 312.90 198.31 L 313.28 198.63 L 313.34 198.86 L 314.05 199.17 L 314.66 199.53 L 315.11 199.38 L 316.28 199.78 L 316.60 199.58 L 316.72 199.81 L 317.22 199.64 L 317.11 199.42 L 317.46 198.77 L 317.90 198.45 L 318.78 198.44 L 320.87 198.94 L 320.77 198.25 L 320.60 198.14 L 320.47 197.63 L 321.21 196.95 L 321.31 196.56 L 320.89 196.31 L 321.30 196.08 L 322.07 196.10 L 322.27 195.85 L 321.93 195.60 L 322.36 195.29 L 322.21 195.02 L 322.76 195.11 L 323.06 195.31 L 323.94 195.54 L 324.92 195.16 L 324.83 194.54 L 324.94 194.35 L 324.44 194.04 L 324.58 193.49 L 324.35 193.43 L 324.21 193.10 L 324.28 192.67 L 324.17 192.31 L 323.73 191.91 L 323.71 191.42 L 323.98 190.78 L 323.91 190.52 L 324.03 189.94 L 324.47 189.48 L 323.95 188.90 L 324.52 188.80 L 324.97 188.91 L 325.81 188.88 L 326.63 188.96 L 327.61 189.25 L 327.94 189.22 L 328.19 189.50 L 328.50 189.44 L 329.10 189.73 L 329.58 190.16 L 330.37 190.41 L 331.38 190.85 L 331.61 191.34 L 332.93 191.68 L 333.42 192.01 L 334.80 192.42 L 335.01 192.68 L 335.42 192.86 L 335.66 193.17 L 336.44 192.61 L 337.22 192.19 L 337.15 191.80 L 337.57 191.33 L 337.69 191.04 L 337.62 190.67 L 337.99 190.53 L 338.69 190.65 L 338.86 190.94 L 339.19 191.00 L 339.15 191.20 L 339.45 191.45 L 340.17 191.42 L 340.77 191.68 L 341.18 191.38 L 341.05 191.19 L 341.57 191.02 L 342.02 190.51 L 342.28 190.37 L 342.41 190.06 L 343.17 190.07 L 343.19 190.28 L 343.90 190.53 L 344.07 190.83 L 344.57 191.08 L 345.64 191.20 L 346.19 191.46 L 345.82 191.77 L 345.79 192.02 L 346.54 192.48 L 347.38 193.15 L 348.09 193.38 L 348.82 193.88 L 348.97 194.22 L 349.35 194.42 L 349.74 195.06 L 350.27 194.98 L 350.55 195.66 L 351.14 196.15 L 351.70 196.40 L 351.91 196.66 L 352.61 197.01 L 352.93 197.07 L 353.64 197.49 L 355.02 198.00 L 355.46 198.05 L 355.96 198.39 L 356.18 198.37 L 356.65 198.69 L 356.75 198.92 L 357.34 199.02 L 357.09 198.30 L 357.14 197.92 L 356.86 197.86 L 356.40 197.10 L 355.67 196.84 L 355.45 196.48 L 355.71 196.06 L 356.10 195.95 L 356.34 196.21 L 356.61 196.17 L 357.13 196.54 L 357.93 196.74 L 358.13 197.52 L 358.57 197.30 L 358.87 197.83 L 358.74 197.91 L 359.55 198.28 L 359.84 198.14 L 359.92 198.47 L 360.20 198.57 L 360.36 198.33 L 360.80 198.50 L 361.10 198.76 L 361.61 198.81 L 361.86 198.57 L 362.85 198.69 L 363.23 198.85 L 363.99 199.68 L 364.36 199.78 L 364.91 199.47 L 365.16 199.66 L 364.96 199.98 L 365.00 200.44 L 364.65 200.74 L 364.72 201.19 L 364.96 201.33 L 365.43 201.21 L 366.61 201.92 L 366.87 201.88 L 366.99 202.15 L 367.38 202.45 L 367.45 202.69 L 367.91 202.90 L 368.67 203.02 L 369.56 203.49 L 369.77 203.16 L 370.56 202.71 L 371.52 203.03 L 372.01 203.11 L 372.75 203.87 L 372.64 204.09 L 374.01 204.47 L 374.26 204.90 L 374.66 204.80 L 374.85 204.57 L 375.61 204.14 L 376.16 204.17 L 376.55 204.59 L 376.67 204.93 L 376.53 205.18 L 377.23 205.65 L 377.53 206.03 L 377.24 206.68 L 377.47 206.66 L 378.00 206.93 L 378.21 207.33 L 379.28 207.63 L 379.27 207.85 L 379.99 208.29 L 380.61 208.49 L 380.52 208.64 L 380.87 208.87 L 380.91 209.12 L 381.25 209.37 L 381.70 209.44 L 382.16 209.90 L 382.39 209.88 L 382.83 210.65 L 382.22 210.60 L 381.23 210.88 L 381.42 211.49 L 380.84 212.01 L 381.35 212.16 L 381.62 212.43 L 381.99 212.52 L 382.25 213.04 L 382.80 213.21 L 383.63 214.09 L 383.35 214.01 L 382.80 214.46 L 382.52 214.40 L 382.40 214.69 L 382.71 215.31 L 383.26 215.64 L 383.68 215.69 L 383.58 215.84 L 384.07 216.16 L 383.78 216.22 L 383.98 216.60 L 384.39 216.89 L 384.17 217.14 L 384.77 218.26 L 384.79 218.26 L 384.87 218.47 L 384.84 218.48 L 384.94 218.61 L 385.47 218.61 L 385.73 218.96 L 386.79 219.39 L 386.76 219.64 L 387.23 219.80 L 387.04 219.99 L 386.40 220.05 L 386.18 220.48 L 386.00 220.49 L 385.93 220.97 L 385.31 221.20 L 385.84 221.55 L 386.21 221.59 L 386.03 221.83 L 386.24 222.10 L 385.94 222.81 L 386.07 223.52 L 385.96 223.82 L 385.64 223.66 L 384.64 223.61 L 384.33 223.48 L 383.83 223.91 L 383.58 223.96 L 383.28 224.42 L 383.51 225.11 L 383.88 225.60 L 384.09 225.65 L 384.08 226.07 L 384.55 226.61 L 383.91 226.77 L 383.73 226.99 L 384.28 226.95 L 383.88 227.29 L 383.38 226.94 L 382.09 226.74 L 381.68 226.40 L 381.39 226.35 L 381.34 226.77 L 380.71 227.70 L 380.81 227.89 L 380.40 228.17 L 379.43 227.92 L 379.22 228.02 L 379.15 228.63 L 379.46 228.86 L 379.40 229.16 L 379.08 229.28 L 379.41 229.49 L 380.01 229.68 L 379.96 229.98 L 380.36 230.56 L 379.76 230.72 L 379.39 231.08 L 379.23 231.68 L 378.79 231.91 L 378.43 231.82 L 378.36 232.06 L 378.00 232.08 L 377.80 232.31 L 377.56 232.26 L 377.15 232.55 L 376.67 233.34 L 376.88 233.58 L 376.02 233.45 L 375.31 233.73 L 375.37 234.12 L 375.31 235.47 L 375.34 236.34 L 375.49 236.70 L 375.72 236.74 L 375.90 237.09 L 376.19 237.20 L 377.13 237.22 L 377.62 237.57 L 377.78 237.52 L 377.93 238.04 L 378.30 238.56 L 378.86 239.10 L 378.63 239.23 L 378.63 239.23 L 378.10 239.13 L 377.72 239.97 L 376.87 239.74 L 376.81 240.42 L 376.31 240.52 L 376.49 240.81 L 376.20 241.10 L 375.81 241.05 L 375.70 241.65 L 375.11 241.40 L 374.87 241.43 L 374.63 241.20 L 374.48 241.50 L 373.97 241.42 L 373.72 241.51 L 373.44 241.95 L 373.25 241.92 L 373.09 241.55 L 372.79 241.64 L 372.24 240.93 L 371.39 240.59 L 370.91 240.76 L 370.80 240.51 L 370.14 240.42 L 369.64 240.21 L 369.20 240.25 L 369.18 240.00 L 368.59 239.89 L 368.18 239.69 L 368.24 239.41 L 367.81 239.29 L 367.65 239.46 L 366.82 239.37 L 366.37 239.44 L 365.67 238.90 L 365.30 238.81 L 364.72 238.90 L 364.44 239.34 L 363.96 239.49 L 363.71 240.09 L 363.83 240.22 L 363.36 240.93 L 363.80 241.17 L 364.24 241.85 L 364.46 241.92 L 364.57 242.40 L 365.13 242.89 L 365.05 243.04 L 365.45 243.34 L 365.75 243.91 L 366.04 243.86 L 366.37 244.20 L 367.40 244.40 L 367.39 244.62 L 367.78 244.94 L 367.74 245.47 L 367.49 245.69 L 367.64 246.05 L 367.53 246.31 L 368.06 246.21 L 368.26 246.04 L 368.94 246.33 L 369.80 246.46 L 370.21 246.36 L 370.24 246.10 L 371.00 245.87 L 371.86 246.16 L 371.87 246.46 L 372.20 246.95 L 372.15 247.29 L 372.26 247.94 L 373.25 248.02 L 373.56 247.91 L 373.78 247.57 L 373.92 247.38 L 374.42 247.40 L 374.55 246.90 L 374.97 247.16 L 375.21 247.56 L 375.20 248.15 L 375.61 248.56 L 375.29 248.73 L 375.00 249.17 L 374.90 249.89 L 373.78 250.36 L 373.79 250.57 L 374.41 250.93 L 374.53 251.23 L 374.36 251.91 L 374.78 252.08 L 375.00 251.74 L 375.36 251.56 L 375.50 251.21 L 376.11 251.08 L 376.74 251.18 L 377.10 251.03 L 377.10 250.79 L 377.38 250.16 L 377.67 250.31 L 377.83 250.63 L 378.25 250.83 L 378.42 250.58 L 378.16 249.66 L 378.43 249.53 L 378.84 248.91 L 379.24 248.86 L 379.39 249.02 L 379.99 248.87 L 380.24 248.96 L 380.81 248.43 L 380.96 248.49 L 380.95 247.95 L 380.80 247.63 L 381.12 247.52 L 380.73 247.19 L 379.76 246.87 L 379.44 246.25 L 379.72 245.63 L 379.12 245.70 L 379.53 245.33 L 379.24 245.02 L 378.69 244.99 L 378.88 244.64 L 378.79 244.22 L 377.58 243.15 L 377.91 242.96 L 378.51 243.17 L 378.75 242.92 L 379.14 243.02 L 379.44 242.85 L 379.75 243.10 L 380.24 243.08 L 380.38 242.44 L 380.70 241.88 L 381.05 242.03 L 381.48 241.89 L 382.55 241.75 L 382.90 241.95 L 382.97 241.61 L 382.38 241.25 L 382.92 241.06 L 383.05 240.79 L 383.37 240.73 L 383.72 240.34 L 384.25 240.33 L 384.44 239.96 L 385.05 239.98 L 385.08 239.66 L 385.62 239.54 L 386.01 239.76 L 386.30 240.17 L 386.26 240.65 L 386.60 240.87 L 387.07 240.76 L 387.57 240.90 L 387.82 241.10 L 387.80 241.62 L 388.39 241.96 L 387.88 242.10 L 387.78 242.43 L 388.06 242.40 L 388.17 242.80 L 387.78 243.27 L 387.90 243.49 L 388.24 243.52 L 388.42 243.81 L 388.13 244.66 L 388.25 244.80 L 388.90 244.91 L 389.12 244.71 L 389.49 244.83 L 389.42 245.12 L 390.21 245.44 L 391.04 245.34 L 391.35 244.83 L 391.91 244.78 L 392.19 245.69 L 391.93 246.12 L 392.26 246.19 L 392.38 245.90 L 392.69 245.73 L 393.23 245.80 L 393.46 246.04 L 393.70 245.96 L 394.60 246.32 L 395.46 246.08 L 396.70 246.20 L 397.38 246.04 L 397.97 246.27 L 398.73 246.93 L 398.51 247.52 L 398.77 248.25 L 399.11 248.52 L 399.19 248.96 L 399.72 249.09 L 399.93 249.66 L 400.78 249.57 L 401.25 249.76 L 400.90 250.06 L 400.36 249.88 L 400.05 249.99 L 400.26 250.36 L 400.30 250.83 L 400.54 251.50 L 400.82 252.02 L 400.40 252.76 L 400.96 252.78 L 401.32 253.04 L 400.88 253.21 L 400.82 253.64 L 400.48 253.77 L 399.89 253.74 L 399.77 254.16 L 399.95 254.85 L 400.67 254.99 L 401.66 255.76 L 402.21 255.70 L 402.36 255.97 L 402.94 256.03 L 403.04 256.30 L 403.57 256.65 L 404.12 256.53 L 404.57 256.93 L 405.15 256.85 L 405.40 256.64 L 405.67 256.74 L 406.04 257.29 L 406.49 257.22 L 407.54 256.77 L 408.09 256.91 L 408.42 257.36 L 409.18 257.11 L 409.50 256.92 L 409.54 256.61 L 410.00 256.75 L 410.35 256.71 L 410.86 256.44 L 411.09 256.13 L 411.92 255.92 L 411.97 255.56 L 411.70 255.39 L 411.37 254.70 L 411.37 254.70 L 411.21 254.43 L 411.50 254.33 L 411.56 253.96 L 412.11 253.87 L 412.44 254.06 L 412.74 253.99 L 413.13 254.11 L 413.39 254.43 L 413.88 254.40 L 414.07 254.23 L 414.89 254.13 L 415.84 253.66 L 416.20 253.78 L 416.78 253.21 L 416.87 252.71 L 416.75 252.46 L 416.95 251.99 L 416.84 251.62 L 416.56 251.63 L 416.92 251.30 L 417.31 251.55 L 417.27 251.03 L 416.78 250.68 L 416.21 250.72 L 415.55 250.47 L 415.47 250.26 L 415.07 250.12 L 415.10 249.74 L 414.62 249.18 L 415.84 249.21 L 415.95 248.89 L 415.88 248.47 L 416.00 248.07 L 416.30 247.85 L 416.62 247.38 L 417.01 247.23 L 417.34 246.80 L 418.12 246.83 L 418.53 246.75 L 418.85 246.90 L 418.75 247.24 L 419.57 247.48 L 420.10 247.30 L 420.78 246.88 L 421.28 247.06 L 421.62 246.81 L 422.27 246.80 L 422.37 247.63 L 423.23 247.83 L 423.65 247.18 L 423.60 246.60 L 423.17 245.94 L 422.64 245.82 L 422.69 245.29 L 422.42 244.96 L 422.73 244.50 L 422.56 244.07 L 422.07 244.17 L 421.89 243.73 L 422.55 243.09 L 422.52 242.53 L 422.87 242.20 L 422.83 241.70 L 423.44 241.65 L 423.70 241.23 L 423.42 240.40 L 423.15 240.15 L 422.78 240.31 L 423.09 239.76 L 423.61 239.87 L 423.74 240.16 L 424.20 240.09 L 424.40 240.26 L 424.71 240.13 L 424.94 239.68 L 424.79 239.28 L 425.07 238.96 L 424.25 238.73 L 423.96 238.08 L 423.42 237.72 L 422.96 237.62 L 422.96 237.48 L 422.35 237.27 L 421.10 237.42 L 421.17 236.90 L 420.89 236.78 L 421.98 236.11 L 422.52 236.21 L 422.22 235.78 L 422.37 235.49 L 422.68 235.37 L 422.87 235.04 L 423.22 235.05 L 423.59 234.80 L 423.34 234.19 L 423.40 233.86 L 423.10 233.70 L 422.74 233.03 L 422.66 232.59 L 422.76 232.36 L 422.76 232.36 L 423.04 232.13 L 423.25 231.55 L 423.61 231.49 L 424.01 231.68 L 424.95 231.57 L 425.00 231.38 L 426.32 231.59 L 426.98 231.44 L 427.48 231.73 L 427.90 231.71 L 428.13 232.11 L 428.86 232.17 L 428.93 232.66 L 429.24 232.94 L 429.68 233.00 L 429.96 233.53 L 430.62 233.65 L 430.97 233.12 L 431.63 233.10 L 431.82 233.27 L 432.15 233.11 L 432.72 233.28 L 433.43 233.35 L 433.85 232.74 L 434.42 232.78 L 434.62 233.09 L 435.00 232.93 L 435.69 232.90 L 436.73 232.64 L 436.94 232.43 L 436.77 232.16 L 436.44 232.16 L 436.01 231.79 L 436.01 231.79 L 435.97 231.75 L 435.97 231.75 L 435.54 231.17 L 435.42 230.68 L 435.11 230.16 L 434.76 229.88 L 434.91 229.75 L 435.64 229.65 L 435.72 229.19 L 436.72 229.55 L 436.99 229.76 L 437.95 229.69 L 437.84 229.88 L 438.87 229.79 L 439.34 229.52 L 440.17 229.26 L 440.66 229.34 L 440.85 229.76 L 441.44 229.64 L 441.94 229.30 L 442.11 229.52 L 443.43 229.57 L 444.04 229.26 L 444.41 229.36 L 444.73 229.01 L 444.69 228.74 L 444.91 228.08 L 444.64 227.20 L 444.85 226.85 L 444.77 226.64 L 443.95 226.14 L 443.73 225.17 L 443.90 224.68 L 443.83 223.87 L 443.54 223.38 L 443.74 223.03 L 444.20 222.87 L 444.52 222.56 L 445.12 222.59 L 445.20 222.15 L 445.50 221.83 L 445.44 221.41 L 445.75 220.62 L 445.06 219.42 L 445.01 218.33 L 445.12 218.06 L 444.78 217.56 L 444.20 217.51 L 443.65 217.14 L 443.70 217.44 L 443.49 217.67 L 443.14 217.67 L 442.59 217.29 L 442.42 216.81 L 442.15 216.67 L 441.89 216.26 L 441.08 216.36 L 440.91 216.13 L 440.55 216.07 L 440.49 215.77 L 440.49 215.77 L 440.67 215.51 L 440.41 215.52 L 440.06 216.21 L 439.33 215.96 L 439.19 215.69 L 438.99 215.91 L 438.38 215.43 L 438.60 215.34 L 438.43 214.97 L 437.73 215.26 L 437.75 214.85 L 437.47 214.58 L 437.40 214.28 L 436.98 214.10 L 435.96 213.84 L 435.69 213.64 L 435.48 213.74 L 434.95 213.42 L 434.65 213.56 L 434.12 213.38 L 433.60 213.46 L 433.53 213.07 L 432.95 212.64 L 431.79 212.67 L 431.49 212.46 L 431.21 212.59 L 431.02 211.90 L 431.02 211.90 L 430.99 211.60 L 430.99 211.60 L 430.96 211.12 L 430.78 210.66 L 430.43 210.69 L 429.88 210.20 L 429.38 210.29 L 428.99 210.49 L 428.31 210.23 L 428.32 210.56 L 427.98 210.58 L 427.02 210.12 L 427.09 210.54 L 426.87 210.67 L 426.12 210.22 L 425.68 210.05 L 425.64 210.44 L 425.41 210.66 L 425.18 210.43 L 424.76 210.34 L 424.61 210.53 L 424.03 210.29 L 423.91 210.37 L 424.32 211.01 L 424.55 211.51 L 424.33 211.68 L 424.30 212.07 L 423.80 212.02 L 423.80 212.31 L 423.23 211.85 L 423.33 212.29 L 423.87 212.54 L 423.95 212.95 L 423.95 212.95 L 424.13 212.80 L 424.24 213.07 L 424.24 213.07 L 424.45 213.55 L 424.14 214.25 L 424.32 214.56 L 423.79 214.28 L 422.96 214.64 L 423.02 214.71 L 423.02 214.71 L 423.13 214.90 L 422.72 214.94 L 422.73 215.54 L 422.24 215.58 L 422.46 216.01 L 422.24 216.28 L 421.76 216.07 L 421.70 216.28 L 421.40 216.07 L 421.48 216.36 L 421.75 216.37 L 422.36 216.90 L 422.76 216.93 L 423.06 217.20 L 422.73 217.67 L 422.92 218.12 L 422.79 218.80 L 422.51 218.88 L 422.86 219.29 L 423.24 219.42 L 423.43 219.02 L 424.35 219.36 L 424.74 219.22 L 424.87 219.52 L 425.26 219.59 L 425.64 219.85 L 426.01 219.86 L 426.27 219.68 L 426.53 219.91 L 426.53 219.91 L 426.69 220.20 L 426.69 220.20 L 427.28 220.62 L 427.23 220.85 L 427.56 221.11 L 427.38 221.38 L 427.25 221.93 L 427.46 222.17 L 426.98 222.64 L 427.36 222.54 L 427.38 222.77 L 427.09 222.76 L 426.44 223.22 L 427.25 224.02 L 426.93 224.54 L 426.63 224.42 L 426.62 224.76 L 426.12 224.70 L 425.99 225.06 L 425.41 224.90 L 425.41 225.27 L 424.63 224.87 L 424.50 225.09 L 424.19 225.01 L 424.07 224.71 L 423.80 224.88 L 423.50 224.76 L 422.88 224.77 Z M 418.12 227.26 L 418.14 227.35 L 418.19 227.70 L 418.38 227.61 L 418.45 227.13 L 418.12 227.26 Z M 384.79 218.26 L 384.77 218.26 L 384.84 218.48 L 384.87 218.47 L 384.79 218.26 Z M 418.39 227.78 L 418.33 227.90 L 418.39 228.06 L 418.49 228.05 L 418.39 227.78 Z M 422.86 224.79 L 422.88 224.77 L 422.74 224.82 L 422.80 224.82 L 422.86 224.79 Z">
      <title>甘肃省</title>
    </path>
  </g>
</svg>