<?xml version="1.0" encoding="UTF-8"?>
<svg xmlns="http://www.w3.org/2000/svg" viewBox="0 0 800 600" width="800" height="600">
  <title>青海省</title>
  <defs>
    <style>
      .region-path {
        fill: #e6f3ff;
        stroke: #2563eb;
        stroke-width: 1.5;
        stroke-linejoin: round;
        cursor: pointer;
        transition: all 0.2s ease;
      }
      .region-path:hover {
        fill: #bfdbfe;
        stroke: #1d4ed8;
        stroke-width: 2;
      }
      .region-label {
        fill: #1e40af;
        font-family: Arial, sans-serif;
        font-size: 24px;
        font-weight: bold;
        pointer-events: none;
      }
    </style>
  </defs>
  
  <g id="630000">
    <path id="630000-land" 
          class="region-path"
          data-region-id="630000"
          data-region-name="青海省"
          d="M 384.77 218.26 L 384.17 217.14 L 384.39 216.89 L 383.98 216.60 L 383.78 216.22 L 384.07 216.16 L 383.58 215.84 L 383.68 215.69 L 383.26 215.64 L 382.71 215.31 L 382.40 214.69 L 382.52 214.40 L 382.80 214.46 L 383.35 214.01 L 383.63 214.09 L 382.80 213.21 L 382.25 213.04 L 381.99 212.52 L 381.62 212.43 L 381.35 212.16 L 380.84 212.01 L 381.42 211.49 L 381.23 210.88 L 382.22 210.60 L 382.83 210.65 L 382.39 209.88 L 382.16 209.90 L 381.70 209.44 L 381.25 209.37 L 380.91 209.12 L 380.87 208.87 L 380.52 208.64 L 380.61 208.49 L 379.99 208.29 L 379.27 207.85 L 379.28 207.63 L 378.21 207.33 L 378.00 206.93 L 377.47 206.66 L 377.24 206.68 L 377.53 206.03 L 377.23 205.65 L 376.53 205.18 L 376.67 204.93 L 376.55 204.59 L 376.16 204.17 L 375.61 204.14 L 374.85 204.57 L 374.66 204.80 L 374.26 204.90 L 374.01 204.47 L 372.64 204.09 L 372.75 203.87 L 372.01 203.11 L 371.52 203.03 L 370.56 202.71 L 369.77 203.16 L 369.56 203.49 L 368.67 203.02 L 367.91 202.90 L 367.45 202.69 L 367.38 202.45 L 366.99 202.15 L 366.87 201.88 L 366.61 201.92 L 365.43 201.21 L 364.96 201.33 L 364.72 201.19 L 364.65 200.74 L 365.00 200.44 L 364.96 199.98 L 365.16 199.66 L 364.91 199.47 L 364.36 199.78 L 363.99 199.68 L 363.23 198.85 L 362.85 198.69 L 361.86 198.57 L 361.61 198.81 L 361.10 198.76 L 360.80 198.50 L 360.36 198.33 L 360.20 198.57 L 359.92 198.47 L 359.84 198.14 L 359.55 198.28 L 358.74 197.91 L 358.87 197.83 L 358.57 197.30 L 358.13 197.52 L 357.93 196.74 L 357.13 196.54 L 356.61 196.17 L 356.34 196.21 L 356.10 195.95 L 355.71 196.06 L 355.45 196.48 L 355.67 196.84 L 356.40 197.10 L 356.86 197.86 L 357.14 197.92 L 357.09 198.30 L 357.34 199.02 L 356.75 198.92 L 356.65 198.69 L 356.18 198.37 L 355.96 198.39 L 355.46 198.05 L 355.02 198.00 L 353.64 197.49 L 352.93 197.07 L 352.61 197.01 L 351.91 196.66 L 351.70 196.40 L 351.14 196.15 L 350.55 195.66 L 350.27 194.98 L 349.74 195.06 L 349.35 194.42 L 348.97 194.22 L 348.82 193.88 L 348.09 193.38 L 347.38 193.15 L 346.54 192.48 L 345.79 192.02 L 345.82 191.77 L 346.19 191.46 L 345.64 191.20 L 344.57 191.08 L 344.07 190.83 L 343.90 190.53 L 343.19 190.28 L 343.17 190.07 L 342.41 190.06 L 342.28 190.37 L 342.02 190.51 L 341.57 191.02 L 341.05 191.19 L 341.18 191.38 L 340.77 191.68 L 340.17 191.42 L 339.45 191.45 L 339.15 191.20 L 339.19 191.00 L 338.86 190.94 L 338.69 190.65 L 337.99 190.53 L 337.62 190.67 L 337.69 191.04 L 337.57 191.33 L 337.15 191.80 L 337.22 192.19 L 336.44 192.61 L 335.66 193.17 L 335.42 192.86 L 335.01 192.68 L 334.80 192.42 L 333.42 192.01 L 332.93 191.68 L 331.61 191.34 L 331.38 190.85 L 330.37 190.41 L 329.58 190.16 L 329.10 189.73 L 328.50 189.44 L 328.19 189.50 L 327.94 189.22 L 327.61 189.25 L 326.63 188.96 L 325.81 188.88 L 324.97 188.91 L 324.52 188.80 L 323.95 188.90 L 324.47 189.48 L 324.03 189.94 L 323.91 190.52 L 323.98 190.78 L 323.71 191.42 L 323.73 191.91 L 324.17 192.31 L 324.28 192.67 L 324.21 193.10 L 324.35 193.43 L 324.58 193.49 L 324.44 194.04 L 324.94 194.35 L 324.83 194.54 L 324.92 195.16 L 323.94 195.54 L 323.06 195.31 L 322.76 195.11 L 322.21 195.02 L 322.36 195.29 L 321.93 195.60 L 322.27 195.85 L 322.07 196.10 L 321.30 196.08 L 320.89 196.31 L 321.31 196.56 L 321.21 196.95 L 320.47 197.63 L 320.60 198.14 L 320.77 198.25 L 320.87 198.94 L 318.78 198.44 L 317.90 198.45 L 317.46 198.77 L 317.11 199.42 L 317.22 199.64 L 316.72 199.81 L 316.60 199.58 L 316.28 199.78 L 315.11 199.38 L 314.66 199.53 L 314.05 199.17 L 313.34 198.86 L 313.28 198.63 L 312.90 198.31 L 312.45 198.34 L 312.29 197.75 L 311.65 197.63 L 311.11 197.40 L 310.91 197.17 L 310.57 197.30 L 309.92 197.81 L 309.67 197.76 L 308.98 198.26 L 308.67 198.06 L 308.33 198.30 L 308.18 198.10 L 307.84 198.21 L 306.88 198.02 L 306.30 198.18 L 305.99 197.89 L 305.79 197.92 L 305.53 197.39 L 305.07 197.26 L 304.88 197.00 L 304.36 197.15 L 304.08 196.98 L 303.34 196.86 L 302.41 197.02 L 302.17 197.24 L 301.67 197.33 L 300.22 197.31 L 299.29 197.50 L 299.06 197.68 L 298.71 197.53 L 298.71 196.91 L 298.55 196.71 L 297.08 193.42 L 296.16 193.45 L 292.97 193.81 L 292.74 193.91 L 292.05 193.85 L 291.17 193.54 L 290.90 193.33 L 290.72 192.95 L 290.86 192.81 L 292.05 192.76 L 292.05 192.33 L 291.53 192.33 L 290.44 191.74 L 287.58 191.83 L 285.72 192.03 L 285.34 191.83 L 284.74 191.74 L 284.93 190.48 L 284.60 190.01 L 284.24 189.84 L 284.35 189.29 L 284.07 189.09 L 283.33 189.44 L 282.66 189.47 L 282.25 189.20 L 281.73 189.30 L 281.50 189.52 L 280.45 189.54 L 279.35 189.82 L 278.17 189.80 L 277.59 189.92 L 277.27 190.29 L 277.27 190.51 L 276.77 190.56 L 276.83 190.85 L 276.46 190.96 L 275.25 190.93 L 274.57 191.13 L 274.31 191.36 L 273.64 191.33 L 272.17 191.67 L 271.28 192.00 L 271.26 192.15 L 270.51 192.28 L 269.35 192.34 L 269.21 192.48 L 267.34 192.87 L 266.78 192.89 L 265.24 193.59 L 264.66 193.52 L 264.10 193.75 L 262.07 194.12 L 261.84 194.09 L 261.11 194.28 L 259.29 194.50 L 258.62 194.33 L 258.20 194.43 L 258.48 194.74 L 258.07 194.99 L 258.09 195.16 L 257.60 195.17 L 257.23 195.50 L 256.59 195.55 L 256.61 195.91 L 256.21 196.20 L 255.44 196.32 L 255.05 196.12 L 254.36 196.23 L 253.14 196.20 L 252.94 196.37 L 252.94 196.98 L 253.13 197.17 L 253.64 197.21 L 253.21 197.79 L 254.69 198.85 L 255.44 198.90 L 255.53 198.21 L 255.95 198.09 L 257.29 198.01 L 257.14 199.18 L 257.17 204.11 L 257.79 204.22 L 257.86 204.40 L 258.46 204.46 L 259.84 204.96 L 260.28 205.33 L 260.64 205.43 L 260.93 205.72 L 260.76 206.19 L 261.23 206.30 L 261.71 206.73 L 262.35 206.58 L 262.91 206.75 L 263.18 207.04 L 263.32 207.67 L 263.56 208.00 L 263.55 208.33 L 264.17 208.85 L 264.13 209.56 L 265.05 209.99 L 265.12 210.60 L 265.30 210.83 L 265.17 211.25 L 265.30 211.56 L 264.39 211.58 L 264.02 211.42 L 263.53 211.61 L 263.46 211.91 L 262.68 212.02 L 262.53 212.42 L 261.98 212.58 L 261.36 212.51 L 260.63 212.56 L 259.65 213.49 L 259.37 213.49 L 259.32 214.22 L 259.61 214.58 L 259.26 214.71 L 259.10 215.22 L 259.36 215.26 L 259.27 215.63 L 259.47 215.98 L 260.19 215.98 L 260.40 216.27 L 261.16 216.24 L 262.27 216.46 L 262.52 216.56 L 262.56 217.13 L 262.44 217.46 L 262.68 217.56 L 262.42 218.70 L 262.90 218.95 L 262.68 219.58 L 263.14 219.77 L 263.11 220.35 L 263.44 220.86 L 262.99 221.14 L 261.93 220.95 L 261.35 221.75 L 260.60 221.88 L 260.24 221.68 L 259.83 221.16 L 258.62 220.66 L 258.14 220.74 L 257.33 220.52 L 256.74 220.69 L 256.18 220.67 L 255.16 220.40 L 254.24 220.39 L 253.84 220.11 L 253.13 219.90 L 253.29 219.57 L 252.39 219.40 L 252.23 219.18 L 251.82 219.16 L 252.07 219.37 L 251.99 219.84 L 251.76 220.31 L 251.21 220.60 L 251.17 221.35 L 250.89 221.23 L 249.91 221.22 L 249.37 221.29 L 248.79 221.09 L 248.56 221.11 L 247.69 221.66 L 246.34 221.82 L 245.75 221.59 L 245.61 221.88 L 245.92 222.13 L 245.85 222.91 L 246.49 223.05 L 247.17 223.37 L 247.12 223.54 L 247.88 223.51 L 248.20 223.63 L 248.75 223.62 L 249.49 223.49 L 249.73 223.63 L 249.37 224.13 L 249.53 224.40 L 249.16 224.63 L 249.18 225.55 L 248.94 225.70 L 249.35 226.20 L 249.21 226.40 L 248.80 226.39 L 248.67 226.77 L 248.88 227.22 L 249.10 227.16 L 249.35 227.42 L 249.08 227.56 L 248.52 228.10 L 248.24 228.01 L 247.84 228.14 L 247.51 228.44 L 246.57 228.68 L 246.77 228.99 L 246.54 229.32 L 246.93 229.56 L 246.45 229.76 L 246.08 230.10 L 246.28 230.19 L 246.80 231.03 L 247.43 231.19 L 247.57 231.34 L 247.54 231.82 L 247.23 233.05 L 247.42 233.51 L 248.36 233.58 L 248.75 233.25 L 249.16 233.42 L 249.58 233.23 L 249.93 233.43 L 249.86 233.79 L 250.11 233.81 L 250.41 234.38 L 249.98 234.52 L 249.70 235.07 L 249.01 235.20 L 248.94 235.94 L 249.17 236.13 L 249.70 236.27 L 249.48 236.83 L 249.86 237.09 L 249.95 238.06 L 249.91 238.42 L 249.70 238.68 L 249.92 238.96 L 250.32 239.06 L 250.40 239.42 L 249.97 239.74 L 250.11 240.05 L 249.88 241.03 L 249.60 241.22 L 249.30 241.20 L 249.26 241.49 L 248.80 241.42 L 248.22 241.78 L 248.22 242.18 L 248.00 242.27 L 248.52 242.89 L 248.55 243.20 L 248.87 243.34 L 249.00 243.60 L 249.66 244.18 L 250.09 244.14 L 250.74 244.78 L 251.19 244.84 L 250.77 245.29 L 250.82 245.47 L 251.61 245.63 L 251.59 245.86 L 251.87 246.02 L 251.62 246.81 L 251.89 247.41 L 252.65 247.70 L 252.71 248.19 L 252.90 248.37 L 254.06 248.61 L 254.34 248.76 L 255.23 249.93 L 255.55 250.25 L 255.99 250.45 L 256.87 250.40 L 257.61 250.77 L 258.29 251.28 L 259.08 251.74 L 259.45 251.67 L 260.11 251.97 L 260.93 251.90 L 261.13 252.29 L 261.40 251.90 L 262.17 251.95 L 262.54 252.13 L 262.89 251.98 L 263.68 252.40 L 263.82 252.02 L 264.10 252.05 L 264.50 251.68 L 264.86 251.69 L 265.38 252.03 L 265.98 252.11 L 266.67 252.46 L 267.29 252.02 L 267.70 252.11 L 267.90 252.53 L 268.19 252.76 L 269.04 253.02 L 269.25 253.26 L 269.95 253.47 L 270.43 253.75 L 270.85 253.69 L 271.04 254.16 L 271.44 254.10 L 272.06 255.01 L 272.71 254.92 L 272.91 254.59 L 273.57 254.60 L 274.02 254.33 L 274.64 254.54 L 274.87 255.01 L 274.52 255.20 L 274.71 255.34 L 274.57 255.69 L 275.16 256.04 L 275.73 255.72 L 276.08 255.86 L 276.20 255.59 L 276.77 255.76 L 277.27 255.60 L 277.53 255.79 L 278.40 255.93 L 278.47 255.83 L 279.09 256.04 L 279.44 255.93 L 279.63 255.58 L 280.36 255.81 L 280.69 256.05 L 281.04 255.95 L 281.50 256.28 L 282.19 256.06 L 282.51 256.11 L 282.88 255.83 L 283.08 255.87 L 283.13 256.23 L 283.60 257.02 L 283.79 256.92 L 284.53 256.83 L 284.71 256.57 L 285.06 256.72 L 285.36 256.65 L 285.58 257.02 L 285.99 257.09 L 286.08 257.50 L 286.39 257.59 L 286.88 258.07 L 287.15 257.73 L 287.68 257.75 L 287.82 258.28 L 288.08 258.30 L 288.24 258.58 L 289.29 258.10 L 289.63 257.59 L 290.36 257.52 L 290.67 257.68 L 291.38 257.82 L 291.70 258.23 L 291.81 258.68 L 292.30 258.71 L 292.83 258.49 L 293.02 258.75 L 293.56 258.87 L 293.76 258.65 L 294.20 258.71 L 294.67 259.02 L 295.08 258.81 L 295.28 258.16 L 295.85 258.15 L 296.27 258.31 L 296.29 258.13 L 296.87 257.98 L 297.10 258.08 L 297.34 257.35 L 297.75 257.68 L 298.05 257.58 L 298.00 257.30 L 298.66 257.34 L 299.38 256.87 L 299.61 256.53 L 299.86 256.83 L 300.89 257.43 L 301.14 258.06 L 301.41 258.10 L 301.61 258.47 L 302.08 258.71 L 302.47 258.62 L 302.70 259.21 L 303.03 259.33 L 303.49 259.13 L 304.20 259.42 L 304.39 259.61 L 304.39 259.61 L 304.46 259.53 L 305.21 259.51 L 305.88 259.40 L 305.98 259.75 L 306.32 259.91 L 305.61 260.07 L 304.61 260.18 L 304.43 260.62 L 304.71 260.83 L 305.76 260.43 L 305.83 260.18 L 306.11 260.19 L 306.09 260.54 L 306.41 261.50 L 306.41 261.50 L 306.88 261.98 L 307.41 261.95 L 307.42 261.66 L 307.82 261.63 L 308.17 261.88 L 308.32 262.87 L 307.98 263.16 L 308.32 263.44 L 307.71 263.50 L 307.35 263.94 L 307.43 264.25 L 307.85 264.36 L 307.82 264.58 L 308.35 265.57 L 308.59 265.63 L 308.91 266.10 L 309.28 266.21 L 309.62 265.93 L 310.19 265.77 L 311.69 266.12 L 312.15 266.81 L 312.46 266.48 L 312.38 266.25 L 312.93 265.41 L 313.81 265.42 L 313.86 265.72 L 314.65 266.41 L 315.38 266.60 L 315.52 266.77 L 315.60 267.63 L 316.13 267.68 L 316.28 267.17 L 316.52 267.06 L 316.59 266.65 L 316.28 266.28 L 316.37 266.11 L 315.82 265.84 L 315.87 265.22 L 316.08 265.16 L 316.20 264.79 L 315.93 264.51 L 316.26 264.49 L 316.60 264.24 L 316.97 264.35 L 318.01 264.35 L 318.20 265.12 L 318.49 265.63 L 318.84 265.90 L 319.36 266.11 L 319.86 266.50 L 320.36 266.24 L 320.83 266.57 L 321.15 266.39 L 321.47 266.76 L 322.05 266.88 L 322.17 266.64 L 322.69 266.41 L 322.26 265.67 L 321.91 265.39 L 321.86 264.96 L 322.21 264.87 L 322.38 264.61 L 322.02 264.19 L 321.79 264.09 L 321.68 263.50 L 321.47 263.38 L 322.52 263.44 L 322.98 263.88 L 322.92 263.55 L 323.25 263.37 L 323.74 263.66 L 323.99 263.43 L 323.68 263.02 L 324.41 262.81 L 324.64 263.01 L 325.66 263.06 L 326.10 263.17 L 326.29 262.94 L 326.57 263.07 L 326.77 262.85 L 326.43 262.58 L 326.62 262.39 L 327.02 262.77 L 327.54 262.72 L 327.38 262.51 L 327.60 262.16 L 327.16 262.06 L 327.08 261.62 L 327.45 260.46 L 327.68 260.37 L 328.19 260.68 L 328.65 260.44 L 328.75 260.17 L 328.36 259.09 L 327.88 258.94 L 328.37 258.32 L 327.81 258.19 L 327.79 257.89 L 328.06 257.67 L 328.22 257.85 L 328.61 257.55 L 328.99 257.43 L 329.15 257.76 L 329.55 258.01 L 329.95 257.95 L 331.29 258.15 L 331.43 258.02 L 331.92 258.05 L 331.61 257.97 L 330.74 257.44 L 330.64 257.15 L 329.98 257.07 L 329.89 256.90 L 329.35 256.73 L 328.73 256.21 L 328.79 256.11 L 328.34 255.44 L 328.41 254.93 L 328.24 254.33 L 327.95 254.23 L 328.23 253.60 L 328.89 253.40 L 329.77 253.27 L 329.52 253.03 L 329.96 252.78 L 329.70 252.14 L 329.39 252.04 L 329.50 251.72 L 329.40 251.40 L 330.03 251.04 L 330.64 250.41 L 330.79 249.66 L 331.35 249.62 L 332.16 248.90 L 331.34 248.66 L 330.83 248.37 L 330.07 248.32 L 329.65 247.75 L 329.77 247.17 L 329.01 247.12 L 328.65 246.87 L 328.85 246.08 L 328.67 245.60 L 328.73 245.32 L 328.55 244.91 L 328.21 244.67 L 328.20 244.42 L 328.47 244.35 L 328.44 243.93 L 329.12 243.95 L 329.56 243.70 L 329.75 243.79 L 330.58 243.51 L 330.86 243.62 L 331.18 243.24 L 331.11 242.80 L 331.62 242.40 L 331.24 241.47 L 332.29 241.14 L 332.52 240.89 L 332.52 240.89 L 332.60 240.72 L 332.60 240.72 L 332.74 240.63 L 333.65 240.61 L 334.24 240.81 L 335.00 241.51 L 335.72 241.51 L 336.35 241.67 L 336.85 241.91 L 337.38 241.92 L 338.28 241.80 L 338.85 241.90 L 338.82 242.23 L 339.15 242.48 L 339.27 242.98 L 339.01 243.23 L 339.12 243.69 L 338.93 244.16 L 339.22 244.41 L 339.51 244.35 L 339.82 244.90 L 339.83 245.18 L 340.08 245.13 L 340.30 245.41 L 340.75 245.57 L 341.04 246.07 L 341.51 246.44 L 341.11 246.54 L 341.16 246.83 L 341.47 246.98 L 341.42 247.46 L 341.74 247.73 L 342.23 247.93 L 342.40 248.20 L 342.34 248.93 L 342.79 249.31 L 342.58 250.28 L 343.02 250.35 L 343.05 250.88 L 343.61 251.59 L 344.27 251.92 L 344.73 251.96 L 344.78 252.13 L 345.22 252.31 L 345.33 252.17 L 346.01 252.33 L 346.37 252.67 L 347.11 252.78 L 347.30 253.24 L 347.51 253.33 L 347.63 253.94 L 347.86 254.41 L 348.74 254.34 L 348.97 254.19 L 349.77 254.58 L 350.86 254.82 L 351.18 255.33 L 351.71 255.32 L 351.77 255.49 L 352.34 255.57 L 352.51 255.92 L 352.96 255.54 L 353.02 254.95 L 353.28 254.36 L 352.99 253.93 L 353.24 253.60 L 353.42 253.77 L 353.89 253.75 L 354.17 253.22 L 354.17 252.68 L 354.90 253.29 L 354.99 253.69 L 355.83 253.89 L 355.75 254.23 L 356.11 254.23 L 356.72 254.84 L 356.65 255.20 L 356.88 256.01 L 356.35 256.58 L 356.58 256.88 L 357.41 256.98 L 357.60 257.23 L 357.82 256.77 L 357.83 256.30 L 358.12 255.82 L 358.96 256.06 L 359.58 255.68 L 359.36 256.27 L 359.79 255.93 L 360.11 256.31 L 360.31 256.31 L 360.80 256.96 L 361.09 257.61 L 361.69 257.78 L 362.13 258.06 L 362.26 257.85 L 362.30 257.13 L 362.42 257.00 L 362.80 257.19 L 362.82 256.83 L 362.60 256.49 L 363.43 256.84 L 364.08 256.79 L 364.64 256.96 L 365.10 257.29 L 365.35 257.08 L 365.78 257.01 L 366.12 256.67 L 366.61 256.44 L 367.10 256.69 L 367.44 256.66 L 368.12 255.99 L 368.27 254.96 L 368.13 254.65 L 367.65 254.26 L 367.09 254.08 L 367.20 253.65 L 367.14 253.26 L 367.71 253.31 L 367.58 253.05 L 367.72 252.72 L 367.32 252.56 L 367.30 252.26 L 367.56 252.11 L 367.00 251.13 L 367.10 250.85 L 367.43 250.70 L 367.70 250.36 L 368.06 250.49 L 368.88 250.43 L 369.76 251.56 L 369.89 251.51 L 369.81 251.00 L 369.98 250.81 L 370.86 250.80 L 371.14 251.15 L 371.59 251.42 L 372.37 252.10 L 372.66 251.74 L 372.58 251.46 L 373.16 250.94 L 373.43 250.25 L 372.83 250.07 L 372.54 249.80 L 372.68 249.17 L 373.02 248.65 L 373.78 248.42 L 373.86 247.62 L 373.78 247.57 L 373.56 247.91 L 373.25 248.02 L 372.26 247.94 L 372.15 247.29 L 372.20 246.95 L 371.87 246.46 L 371.86 246.16 L 371.00 245.87 L 370.24 246.10 L 370.21 246.36 L 369.80 246.46 L 368.94 246.33 L 368.26 246.04 L 368.06 246.21 L 367.53 246.31 L 367.64 246.05 L 367.49 245.69 L 367.74 245.47 L 367.78 244.94 L 367.39 244.62 L 367.40 244.40 L 366.37 244.20 L 366.04 243.86 L 365.75 243.91 L 365.45 243.34 L 365.05 243.04 L 365.13 242.89 L 364.57 242.40 L 364.46 241.92 L 364.24 241.85 L 363.80 241.17 L 363.36 240.93 L 363.83 240.22 L 363.71 240.09 L 363.96 239.49 L 364.44 239.34 L 364.72 238.90 L 365.30 238.81 L 365.67 238.90 L 366.37 239.44 L 366.82 239.37 L 367.65 239.46 L 367.81 239.29 L 368.24 239.41 L 368.18 239.69 L 368.59 239.89 L 369.18 240.00 L 369.20 240.25 L 369.64 240.21 L 370.14 240.42 L 370.80 240.51 L 370.91 240.76 L 371.39 240.59 L 372.24 240.93 L 372.79 241.64 L 373.09 241.55 L 373.25 241.92 L 373.44 241.95 L 373.72 241.51 L 373.97 241.42 L 374.48 241.50 L 374.63 241.20 L 374.87 241.43 L 375.11 241.40 L 375.70 241.65 L 375.81 241.05 L 376.20 241.10 L 376.49 240.81 L 376.31 240.52 L 376.81 240.42 L 376.87 239.74 L 377.72 239.97 L 378.10 239.13 L 378.63 239.23 L 378.63 239.23 L 378.86 239.10 L 378.30 238.56 L 377.93 238.04 L 377.78 237.52 L 377.62 237.57 L 377.13 237.22 L 376.19 237.20 L 375.90 237.09 L 375.72 236.74 L 375.49 236.70 L 375.34 236.34 L 375.31 235.47 L 375.37 234.12 L 375.31 233.73 L 376.02 233.45 L 376.88 233.58 L 376.67 233.34 L 377.15 232.55 L 377.56 232.26 L 377.80 232.31 L 378.00 232.08 L 378.36 232.06 L 378.43 231.82 L 378.79 231.91 L 379.23 231.68 L 379.39 231.08 L 379.76 230.72 L 380.36 230.56 L 379.96 229.98 L 380.01 229.68 L 379.41 229.49 L 379.08 229.28 L 379.40 229.16 L 379.46 228.86 L 379.15 228.63 L 379.22 228.02 L 379.43 227.92 L 380.40 228.17 L 380.81 227.89 L 380.71 227.70 L 381.34 226.77 L 381.39 226.35 L 381.68 226.40 L 382.09 226.74 L 383.38 226.94 L 383.88 227.29 L 384.28 226.95 L 383.73 226.99 L 383.91 226.77 L 384.55 226.61 L 384.08 226.07 L 384.09 225.65 L 383.88 225.60 L 383.51 225.11 L 383.28 224.42 L 383.58 223.96 L 383.83 223.91 L 384.33 223.48 L 384.64 223.61 L 385.64 223.66 L 385.96 223.82 L 386.07 223.52 L 385.94 222.81 L 386.24 222.10 L 386.03 221.83 L 386.21 221.59 L 385.84 221.55 L 385.31 221.20 L 385.93 220.97 L 386.00 220.49 L 386.18 220.48 L 386.40 220.05 L 387.04 219.99 L 387.23 219.80 L 386.76 219.64 L 386.79 219.39 L 385.73 218.96 L 385.47 218.61 L 384.94 218.61 L 384.84 218.48 L 384.77 218.26 Z">
      <title>青海省</title>
    </path>
  </g>
</svg>