<?xml version="1.0" encoding="UTF-8"?>
<svg xmlns="http://www.w3.org/2000/svg" viewBox="0 0 800 600" width="800" height="600">
  <title>宁夏回族自治区</title>
  <defs>
    <style>
      .region-path {
        fill: #e6f3ff;
        stroke: #2563eb;
        stroke-width: 1.5;
        stroke-linejoin: round;
        cursor: pointer;
        transition: all 0.2s ease;
      }
      .region-path:hover {
        fill: #bfdbfe;
        stroke: #1d4ed8;
        stroke-width: 2;
      }
      .region-label {
        fill: #1e40af;
        font-family: Arial, sans-serif;
        font-size: 24px;
        font-weight: bold;
        pointer-events: none;
      }
    </style>
  </defs>
  
  <g id="640000">
    <path id="640000-land" 
          class="region-path"
          data-region-id="640000"
          data-region-name="宁夏回族自治区"
          d="M 430.78 210.66 L 430.91 210.37 L 431.18 210.64 L 431.47 210.25 L 431.49 209.97 L 431.29 209.61 L 430.80 209.31 L 431.20 209.21 L 430.83 208.67 L 430.67 208.19 L 430.93 207.16 L 430.94 206.69 L 431.58 206.31 L 431.82 205.60 L 431.42 205.63 L 431.22 205.37 L 431.74 205.33 L 432.37 204.79 L 432.03 204.73 L 432.01 204.52 L 432.41 204.60 L 433.02 204.36 L 433.17 203.75 L 433.92 203.64 L 434.21 203.49 L 434.43 203.64 L 434.70 203.34 L 434.83 202.94 L 434.74 202.73 L 433.81 202.42 L 433.10 201.90 L 432.65 202.01 L 432.26 201.86 L 432.56 201.37 L 432.08 201.17 L 431.43 200.42 L 430.49 200.17 L 429.97 199.73 L 429.44 199.65 L 429.23 199.93 L 428.73 199.88 L 428.53 200.05 L 428.10 200.07 L 427.40 199.95 L 426.53 199.70 L 425.71 199.54 L 425.28 199.27 L 424.42 198.95 L 424.14 198.91 L 423.39 198.59 L 422.63 198.01 L 423.85 197.28 L 424.35 196.44 L 424.50 195.09 L 424.99 193.87 L 425.47 193.56 L 426.31 192.54 L 427.52 191.57 L 427.71 190.68 L 427.66 190.39 L 427.31 190.16 L 426.74 190.01 L 426.54 189.84 L 426.19 188.95 L 425.88 188.73 L 425.83 188.46 L 425.99 188.08 L 425.99 187.65 L 425.73 187.10 L 425.42 187.00 L 424.72 187.25 L 424.30 187.25 L 423.88 187.06 L 423.40 187.62 L 423.08 187.76 L 422.94 188.13 L 421.81 187.93 L 420.54 188.24 L 420.70 189.22 L 420.59 189.44 L 420.24 189.60 L 419.63 189.47 L 419.40 189.26 L 419.14 189.37 L 418.63 190.08 L 418.44 190.68 L 418.54 190.89 L 418.26 191.28 L 417.85 191.44 L 417.33 191.90 L 417.55 192.43 L 416.69 193.12 L 416.68 193.68 L 416.45 193.89 L 416.54 194.10 L 416.11 194.67 L 416.33 195.17 L 416.14 195.42 L 416.22 195.78 L 415.94 196.39 L 416.09 196.72 L 415.84 196.84 L 415.93 197.31 L 415.78 197.52 L 416.25 198.25 L 416.00 198.82 L 415.59 199.04 L 415.30 199.38 L 415.22 200.06 L 415.36 200.44 L 415.98 201.28 L 415.56 201.94 L 415.60 202.75 L 415.15 203.40 L 414.29 203.69 L 413.72 203.62 L 413.65 204.20 L 413.47 204.44 L 412.11 204.48 L 411.45 204.33 L 410.53 204.41 L 409.57 204.67 L 409.21 204.87 L 408.42 205.12 L 407.56 205.67 L 405.88 205.81 L 405.24 206.10 L 403.36 206.27 L 401.40 206.35 L 401.25 206.38 L 401.13 206.87 L 400.25 207.04 L 399.88 207.25 L 400.00 207.39 L 400.69 207.35 L 401.44 207.07 L 401.55 207.29 L 402.08 207.32 L 402.30 207.18 L 403.95 207.46 L 403.76 207.88 L 404.30 208.27 L 403.89 208.39 L 403.65 208.68 L 403.37 208.59 L 403.13 209.17 L 403.51 209.59 L 404.34 209.53 L 404.95 209.13 L 405.77 209.49 L 405.86 209.90 L 406.11 210.04 L 406.38 210.67 L 406.79 210.89 L 406.80 211.27 L 407.31 211.32 L 407.68 211.61 L 407.88 211.45 L 408.60 211.73 L 408.98 211.74 L 409.19 212.29 L 409.12 212.80 L 409.80 212.78 L 410.17 213.06 L 410.41 213.55 L 410.74 213.75 L 410.80 214.13 L 410.58 214.35 L 410.12 214.25 L 410.09 214.39 L 409.53 214.48 L 409.35 214.79 L 409.61 215.16 L 409.55 215.51 L 409.98 215.81 L 410.13 216.21 L 409.88 216.32 L 410.19 216.64 L 410.61 216.50 L 411.02 216.91 L 411.03 217.46 L 411.39 217.59 L 411.43 218.22 L 411.68 218.63 L 411.99 218.72 L 412.20 219.01 L 412.03 219.27 L 412.04 219.73 L 412.23 219.84 L 412.61 220.53 L 412.36 221.01 L 411.73 220.98 L 411.48 221.28 L 410.83 221.70 L 410.63 222.66 L 410.90 223.34 L 411.39 223.53 L 411.11 223.67 L 411.21 224.20 L 411.50 223.89 L 411.71 223.93 L 411.74 224.26 L 412.01 224.42 L 412.26 224.88 L 413.44 225.00 L 414.18 224.65 L 414.55 224.82 L 415.13 224.90 L 414.94 225.18 L 414.77 224.89 L 414.43 225.18 L 414.76 225.44 L 414.66 225.68 L 415.13 225.84 L 415.17 226.17 L 415.56 226.56 L 415.73 226.46 L 416.05 227.34 L 416.27 226.82 L 416.60 226.75 L 417.81 227.04 L 417.87 227.30 L 418.12 227.26 L 418.45 227.13 L 418.38 227.61 L 418.35 227.67 L 418.40 227.70 L 418.39 227.75 L 418.37 227.76 L 418.39 227.78 L 418.49 228.05 L 418.81 228.67 L 418.98 228.34 L 419.43 227.88 L 419.67 228.17 L 420.10 228.17 L 420.13 228.70 L 420.94 229.67 L 421.40 229.95 L 421.45 229.58 L 421.94 229.56 L 422.53 229.20 L 422.83 228.65 L 422.85 228.11 L 422.64 227.75 L 422.71 227.44 L 422.46 227.43 L 422.20 226.96 L 422.40 226.42 L 422.60 226.46 L 422.40 225.75 L 422.14 225.28 L 422.74 224.82 L 422.88 224.77 L 423.50 224.76 L 423.80 224.88 L 424.07 224.71 L 424.19 225.01 L 424.50 225.09 L 424.63 224.87 L 425.41 225.27 L 425.41 224.90 L 425.99 225.06 L 426.12 224.70 L 426.62 224.76 L 426.63 224.42 L 426.93 224.54 L 427.25 224.02 L 426.44 223.22 L 427.09 222.76 L 427.38 222.77 L 427.36 222.54 L 426.98 222.64 L 427.46 222.17 L 427.25 221.93 L 427.38 221.38 L 427.56 221.11 L 427.23 220.85 L 427.28 220.62 L 426.69 220.20 L 426.69 220.20 L 426.53 219.91 L 426.53 219.91 L 426.27 219.68 L 426.01 219.86 L 425.64 219.85 L 425.26 219.59 L 424.87 219.52 L 424.74 219.22 L 424.35 219.36 L 423.43 219.02 L 423.24 219.42 L 422.86 219.29 L 422.51 218.88 L 422.79 218.80 L 422.92 218.12 L 422.73 217.67 L 423.06 217.20 L 422.76 216.93 L 422.36 216.90 L 421.75 216.37 L 421.48 216.36 L 421.40 216.07 L 421.70 216.28 L 421.76 216.07 L 422.24 216.28 L 422.46 216.01 L 422.24 215.58 L 422.73 215.54 L 422.72 214.94 L 423.13 214.90 L 423.02 214.71 L 423.02 214.71 L 422.96 214.64 L 423.79 214.28 L 424.32 214.56 L 424.14 214.25 L 424.45 213.55 L 424.24 213.07 L 424.24 213.07 L 424.13 212.80 L 423.95 212.95 L 423.95 212.95 L 423.87 212.54 L 423.33 212.29 L 423.23 211.85 L 423.80 212.31 L 423.80 212.02 L 424.30 212.07 L 424.33 211.68 L 424.55 211.51 L 424.32 211.01 L 423.91 210.37 L 424.03 210.29 L 424.61 210.53 L 424.76 210.34 L 425.18 210.43 L 425.41 210.66 L 425.64 210.44 L 425.68 210.05 L 426.12 210.22 L 426.87 210.67 L 427.09 210.54 L 427.02 210.12 L 427.98 210.58 L 428.32 210.56 L 428.31 210.23 L 428.99 210.49 L 429.38 210.29 L 429.88 210.20 L 430.43 210.69 L 430.78 210.66 Z M 418.14 227.35 L 416.57 227.74 L 416.54 228.13 L 417.66 227.87 L 417.99 227.55 L 418.19 227.70 L 418.14 227.35 Z M 418.40 227.70 L 418.35 227.67 L 418.37 227.76 L 418.39 227.75 L 418.40 227.70 Z">
      <title>宁夏回族自治区</title>
    </path>
  </g>
</svg>