<?xml version="1.0" encoding="UTF-8"?>
<svg xmlns="http://www.w3.org/2000/svg" viewBox="0 0 800 600" width="800" height="600">
  <title>新疆维吾尔自治区</title>
  <defs>
    <style>
      .region-path {
        fill: #e6f3ff;
        stroke: #2563eb;
        stroke-width: 1.5;
        stroke-linejoin: round;
        cursor: pointer;
        transition: all 0.2s ease;
      }
      .region-path:hover {
        fill: #bfdbfe;
        stroke: #1d4ed8;
        stroke-width: 2;
      }
      .region-label {
        fill: #1e40af;
        font-family: Arial, sans-serif;
        font-size: 24px;
        font-weight: bold;
        pointer-events: none;
      }
    </style>
  </defs>
  
  <g id="650000">
    <path id="650000-land" 
          class="region-path"
          data-region-id="650000"
          data-region-name="新疆维吾尔自治区"
          d="M 317.98 152.32 L 317.74 150.52 L 313.16 147.11 L 312.73 146.59 L 312.50 145.17 L 311.24 143.30 L 310.93 142.54 L 310.30 141.33 L 310.07 140.62 L 309.07 139.05 L 308.03 139.03 L 307.52 138.86 L 307.00 138.83 L 307.25 138.20 L 307.30 137.41 L 307.51 136.77 L 307.87 136.59 L 308.07 136.21 L 307.90 136.03 L 306.09 136.26 L 304.94 136.33 L 303.60 136.50 L 303.05 136.10 L 301.81 135.81 L 301.21 135.60 L 300.74 135.60 L 300.23 135.01 L 299.53 134.48 L 299.02 134.34 L 298.12 133.85 L 297.29 133.72 L 296.97 133.78 L 296.66 133.09 L 296.15 132.87 L 295.60 132.43 L 295.48 132.21 L 294.82 132.03 L 293.93 131.54 L 290.38 130.16 L 290.30 129.86 L 289.24 129.52 L 288.16 129.09 L 287.39 129.23 L 286.79 128.91 L 286.14 128.81 L 286.13 128.97 L 285.50 128.85 L 284.69 128.60 L 283.92 128.69 L 283.52 128.57 L 282.90 128.66 L 282.18 128.58 L 282.08 128.38 L 281.68 128.28 L 281.30 128.36 L 280.59 128.24 L 279.60 128.50 L 278.19 128.57 L 277.71 128.75 L 276.81 128.57 L 276.13 128.62 L 275.79 128.46 L 275.01 128.60 L 273.55 127.92 L 273.10 127.86 L 271.33 127.95 L 270.47 127.91 L 269.35 128.09 L 267.97 127.98 L 267.33 127.69 L 266.80 127.14 L 266.60 127.14 L 266.06 127.61 L 265.62 127.42 L 264.66 127.34 L 264.54 127.17 L 264.18 127.11 L 263.92 126.69 L 263.49 126.52 L 262.67 126.60 L 262.23 126.50 L 261.75 126.68 L 260.92 126.77 L 260.77 126.59 L 261.09 126.17 L 260.88 125.85 L 260.40 125.65 L 260.12 125.71 L 260.21 125.36 L 259.80 124.56 L 259.79 124.28 L 259.28 123.95 L 258.74 123.71 L 258.80 122.73 L 259.19 121.21 L 260.07 120.11 L 261.02 119.21 L 262.44 118.16 L 262.30 117.71 L 262.37 117.14 L 261.99 116.73 L 261.61 116.12 L 261.69 115.97 L 261.11 115.16 L 261.98 114.51 L 262.11 114.05 L 262.42 113.79 L 262.54 113.21 L 262.78 113.04 L 262.97 112.60 L 262.86 112.39 L 262.33 112.36 L 262.52 111.45 L 262.71 110.96 L 262.35 110.45 L 262.07 110.42 L 262.07 110.20 L 261.55 109.84 L 261.71 109.28 L 261.42 109.14 L 261.34 108.67 L 261.13 108.44 L 260.39 108.07 L 259.73 108.11 L 258.96 107.20 L 258.56 106.87 L 257.79 105.98 L 257.60 105.89 L 257.19 105.08 L 256.84 104.74 L 257.24 104.10 L 257.05 103.88 L 256.64 103.83 L 256.54 103.48 L 256.70 103.24 L 256.64 102.87 L 255.91 102.35 L 255.68 101.78 L 255.37 101.43 L 255.77 101.35 L 255.22 100.97 L 254.03 100.72 L 253.65 100.52 L 253.18 100.54 L 252.57 99.97 L 252.51 99.53 L 252.68 99.06 L 252.47 98.87 L 252.21 98.97 L 251.37 98.85 L 251.35 99.29 L 250.43 99.39 L 249.31 99.37 L 249.04 98.73 L 248.17 98.56 L 248.11 98.21 L 247.59 97.94 L 247.63 97.50 L 247.32 97.27 L 246.58 97.37 L 245.37 97.19 L 245.15 97.39 L 244.62 97.44 L 244.34 97.73 L 243.82 97.87 L 243.04 97.70 L 242.23 97.80 L 241.88 97.56 L 241.70 97.14 L 240.94 96.73 L 240.79 96.47 L 239.60 96.56 L 239.32 96.28 L 238.53 96.00 L 238.31 95.79 L 237.98 95.89 L 237.67 95.76 L 237.29 95.37 L 237.22 94.97 L 237.01 94.79 L 237.33 94.16 L 237.00 94.02 L 236.99 93.83 L 236.60 93.84 L 236.48 93.48 L 236.27 93.39 L 235.84 93.60 L 235.59 93.59 L 234.79 93.18 L 234.82 92.89 L 234.35 92.71 L 233.43 92.50 L 233.09 92.55 L 232.63 92.21 L 232.40 92.26 L 232.18 92.01 L 231.48 91.98 L 230.77 91.70 L 230.65 91.45 L 231.16 91.25 L 231.33 90.90 L 231.98 90.46 L 231.99 90.20 L 231.72 90.28 L 231.36 89.89 L 230.65 89.65 L 230.42 89.81 L 229.73 89.38 L 229.25 89.37 L 229.01 89.12 L 229.28 89.11 L 228.90 88.86 L 228.78 88.63 L 228.38 88.53 L 228.57 88.07 L 228.92 88.05 L 229.13 87.87 L 229.77 87.83 L 229.72 87.68 L 230.14 87.51 L 229.85 87.36 L 229.84 87.05 L 229.34 86.74 L 229.58 86.54 L 229.44 86.37 L 229.68 86.17 L 229.45 85.79 L 229.19 85.76 L 229.20 85.50 L 228.91 85.41 L 228.59 85.51 L 227.95 85.48 L 227.70 85.69 L 226.93 85.72 L 226.52 85.82 L 226.05 85.79 L 225.83 85.93 L 225.99 86.25 L 225.21 86.52 L 224.72 86.29 L 223.85 86.14 L 223.16 86.12 L 222.88 85.84 L 221.85 85.69 L 221.60 85.92 L 220.69 85.82 L 220.21 85.94 L 219.52 85.93 L 219.17 86.17 L 219.13 86.61 L 218.99 86.77 L 218.32 87.01 L 217.91 87.36 L 217.89 87.72 L 218.18 88.39 L 218.43 88.47 L 218.83 88.85 L 218.81 89.05 L 218.31 89.27 L 218.14 89.53 L 218.41 90.09 L 218.32 90.23 L 217.60 90.76 L 217.51 90.99 L 216.96 91.15 L 216.91 91.32 L 216.49 91.69 L 216.33 92.08 L 214.63 92.67 L 214.27 92.55 L 213.48 92.57 L 213.12 92.98 L 212.66 93.18 L 210.88 93.09 L 209.46 93.13 L 208.16 93.32 L 207.82 93.49 L 207.16 94.19 L 207.16 94.53 L 206.99 94.91 L 206.53 95.25 L 206.40 95.56 L 206.04 95.68 L 205.93 96.02 L 205.67 96.34 L 205.68 96.82 L 205.47 97.19 L 205.63 97.58 L 206.36 102.33 L 206.33 102.87 L 207.06 103.59 L 207.23 104.05 L 206.96 104.70 L 207.22 105.04 L 207.03 105.44 L 207.03 105.72 L 206.61 106.12 L 206.00 106.55 L 205.63 107.03 L 205.61 107.43 L 204.53 107.38 L 203.64 107.47 L 203.33 107.57 L 202.82 107.32 L 202.17 107.61 L 201.78 108.05 L 201.02 108.35 L 200.80 108.65 L 199.82 108.88 L 199.75 109.24 L 199.49 109.47 L 199.27 109.44 L 198.58 108.78 L 198.39 108.48 L 197.69 108.24 L 197.34 107.93 L 196.84 107.94 L 196.52 108.08 L 195.43 108.12 L 194.84 108.31 L 194.00 107.94 L 193.44 108.10 L 193.08 107.98 L 192.59 108.09 L 191.61 107.99 L 191.15 108.27 L 190.49 108.39 L 189.99 108.31 L 189.62 108.13 L 189.09 108.16 L 188.89 108.34 L 188.41 108.22 L 187.17 107.75 L 186.47 107.87 L 186.48 107.70 L 185.19 107.42 L 185.10 107.20 L 184.81 107.16 L 184.03 106.66 L 183.57 106.80 L 183.06 106.18 L 182.59 106.29 L 182.40 106.17 L 181.89 106.24 L 181.52 106.09 L 181.37 105.82 L 181.03 105.77 L 180.83 105.58 L 180.35 105.73 L 179.51 105.80 L 179.55 106.29 L 179.15 107.36 L 178.58 107.88 L 178.43 108.74 L 177.94 109.86 L 177.96 110.13 L 177.46 110.39 L 177.04 111.37 L 176.88 112.18 L 176.39 113.27 L 175.17 115.34 L 174.23 116.80 L 173.65 118.61 L 173.02 118.68 L 172.41 119.07 L 172.34 119.62 L 172.48 120.23 L 172.39 120.75 L 171.86 121.34 L 171.85 121.97 L 171.62 122.33 L 171.78 123.18 L 173.50 123.98 L 174.53 124.35 L 175.09 125.17 L 174.95 126.44 L 174.69 126.64 L 173.91 126.89 L 172.43 126.49 L 171.91 126.20 L 171.00 126.31 L 169.99 126.57 L 169.80 126.46 L 169.85 126.17 L 169.41 126.11 L 168.79 126.30 L 168.04 126.34 L 167.61 125.82 L 167.12 125.45 L 166.66 124.79 L 165.51 125.09 L 165.18 125.04 L 164.53 125.28 L 164.46 125.57 L 164.06 125.61 L 163.97 125.80 L 163.29 126.03 L 163.03 125.83 L 162.63 125.91 L 162.45 126.09 L 161.89 126.06 L 161.44 126.29 L 160.95 126.20 L 160.31 126.40 L 160.26 126.58 L 159.65 126.50 L 159.33 126.87 L 158.75 127.07 L 158.14 127.02 L 157.82 127.10 L 157.43 127.44 L 157.06 127.45 L 156.59 127.18 L 155.71 127.14 L 155.24 127.42 L 154.34 127.67 L 153.51 127.63 L 153.25 127.45 L 152.75 127.75 L 152.73 127.96 L 152.32 128.25 L 151.84 128.34 L 151.53 128.04 L 151.15 128.08 L 150.65 128.44 L 150.16 128.45 L 149.63 128.15 L 149.54 128.34 L 149.29 128.22 L 148.76 128.49 L 148.71 128.65 L 147.93 129.13 L 147.63 129.20 L 147.55 129.41 L 146.96 129.70 L 147.81 130.03 L 147.65 130.32 L 148.04 130.52 L 148.12 130.90 L 149.04 130.66 L 149.33 130.68 L 149.89 130.37 L 150.07 130.57 L 149.98 130.87 L 150.21 131.28 L 150.60 131.64 L 151.38 131.82 L 152.28 132.61 L 152.40 132.85 L 151.76 134.11 L 152.10 134.97 L 152.26 135.96 L 152.41 136.38 L 152.28 137.07 L 152.35 137.58 L 152.21 137.81 L 152.79 138.32 L 152.88 138.64 L 152.87 139.32 L 153.16 139.59 L 153.05 139.77 L 153.43 140.10 L 153.54 141.03 L 155.95 144.37 L 156.02 144.87 L 155.86 144.94 L 155.76 145.46 L 155.24 146.03 L 155.31 146.17 L 156.18 146.30 L 156.10 146.74 L 156.30 146.98 L 156.31 147.40 L 156.46 147.65 L 156.36 148.07 L 155.93 147.96 L 155.72 148.13 L 155.46 148.00 L 154.87 147.97 L 154.27 148.11 L 153.89 148.41 L 153.13 148.77 L 152.45 148.90 L 152.05 149.17 L 152.25 149.53 L 153.18 150.03 L 154.26 150.29 L 154.38 150.59 L 153.35 150.72 L 152.80 150.92 L 152.35 151.21 L 151.63 151.24 L 151.03 151.17 L 150.85 151.27 L 150.81 151.66 L 150.47 152.47 L 150.49 152.68 L 149.99 152.91 L 149.82 153.33 L 150.00 153.74 L 150.42 154.33 L 150.88 154.66 L 150.47 154.82 L 150.26 155.39 L 150.61 155.82 L 150.50 156.14 L 151.07 156.54 L 150.95 156.94 L 151.16 157.17 L 151.09 157.44 L 150.55 157.68 L 149.88 157.78 L 149.82 158.28 L 149.58 158.29 L 149.87 158.86 L 150.13 159.01 L 149.60 159.50 L 149.06 159.37 L 147.33 159.42 L 146.60 159.70 L 146.62 160.02 L 146.29 160.24 L 145.81 160.97 L 145.27 160.93 L 144.40 161.05 L 144.15 161.35 L 143.47 161.58 L 142.95 161.57 L 142.50 161.44 L 142.07 161.55 L 141.45 161.98 L 141.14 161.83 L 140.63 162.13 L 140.58 162.27 L 140.01 162.70 L 139.19 162.73 L 138.89 163.00 L 138.21 163.16 L 137.99 163.41 L 137.70 163.34 L 137.32 163.47 L 136.64 164.03 L 136.38 164.07 L 135.95 164.42 L 135.06 164.47 L 134.62 164.61 L 134.72 164.81 L 134.40 165.02 L 134.14 165.38 L 133.42 165.23 L 132.86 165.65 L 132.11 165.95 L 131.46 165.99 L 131.39 166.13 L 130.90 166.11 L 130.76 166.24 L 129.83 166.09 L 129.09 166.25 L 128.95 166.41 L 129.11 166.69 L 128.81 167.33 L 128.74 167.86 L 128.38 167.90 L 127.11 168.43 L 126.41 168.31 L 125.70 168.64 L 125.47 168.83 L 125.40 169.27 L 125.63 169.61 L 125.28 169.72 L 125.12 169.99 L 124.68 169.89 L 124.13 170.14 L 123.81 170.06 L 123.22 170.17 L 123.16 170.31 L 122.63 170.16 L 121.97 170.23 L 121.94 169.99 L 121.34 169.82 L 120.79 169.80 L 120.10 170.18 L 119.48 169.94 L 118.78 170.13 L 118.15 169.83 L 117.98 169.58 L 117.27 169.61 L 117.05 169.46 L 116.41 169.93 L 115.85 169.94 L 115.51 170.47 L 115.14 170.48 L 114.56 170.70 L 114.35 171.14 L 114.25 172.10 L 113.85 172.51 L 113.37 172.71 L 113.37 172.95 L 113.68 173.38 L 113.45 173.82 L 113.48 174.16 L 113.00 174.36 L 112.90 174.59 L 112.44 174.97 L 112.30 175.26 L 112.26 175.78 L 111.94 176.14 L 111.54 176.21 L 111.25 176.53 L 110.71 176.68 L 110.62 176.54 L 110.12 177.03 L 110.06 176.53 L 109.60 176.29 L 109.56 176.04 L 108.99 176.43 L 108.49 176.64 L 108.16 176.51 L 107.51 176.48 L 107.17 176.56 L 107.17 176.89 L 106.94 176.91 L 106.52 176.63 L 105.96 177.07 L 105.85 177.57 L 105.53 177.39 L 105.01 177.35 L 104.92 177.20 L 104.44 177.47 L 103.96 177.49 L 103.65 177.68 L 103.43 177.03 L 103.24 176.82 L 103.41 176.26 L 103.73 176.00 L 103.90 175.68 L 103.00 175.24 L 102.84 174.90 L 102.80 174.32 L 102.90 174.12 L 102.51 173.75 L 102.00 173.87 L 101.15 174.37 L 100.78 174.75 L 99.99 175.01 L 99.33 175.58 L 99.09 175.58 L 98.81 175.94 L 98.44 175.95 L 97.70 175.79 L 97.36 176.03 L 96.83 175.93 L 96.53 175.75 L 96.25 175.87 L 95.92 175.77 L 95.18 175.33 L 94.69 175.19 L 94.43 175.35 L 94.38 175.81 L 94.18 176.00 L 95.35 177.08 L 94.88 177.21 L 94.48 177.02 L 93.19 177.00 L 93.17 177.38 L 92.91 177.70 L 92.34 177.69 L 91.92 177.89 L 91.48 178.44 L 90.97 178.70 L 90.42 179.23 L 89.63 179.66 L 89.22 179.48 L 88.85 179.57 L 88.66 179.29 L 87.24 179.51 L 87.11 179.69 L 86.18 179.71 L 86.02 180.06 L 85.35 180.42 L 85.73 180.54 L 85.01 181.27 L 84.97 181.90 L 84.33 182.34 L 84.29 183.12 L 84.96 183.27 L 85.15 183.47 L 85.46 184.74 L 85.07 184.88 L 85.05 185.11 L 84.73 185.35 L 84.83 185.48 L 84.57 185.95 L 84.24 186.06 L 83.30 186.17 L 82.28 186.04 L 81.90 186.13 L 81.71 186.68 L 80.78 186.98 L 81.31 187.33 L 81.32 187.89 L 81.19 188.16 L 81.42 188.20 L 81.59 188.49 L 82.03 188.52 L 82.20 188.67 L 82.38 189.23 L 82.70 189.35 L 83.03 189.84 L 83.04 190.21 L 83.27 190.65 L 83.65 190.68 L 84.07 190.52 L 84.27 190.87 L 84.34 191.35 L 84.13 191.82 L 83.53 191.57 L 83.27 191.64 L 82.92 192.06 L 82.82 192.43 L 83.13 192.64 L 83.54 193.28 L 83.42 193.86 L 83.95 194.75 L 83.85 194.99 L 84.40 195.27 L 84.89 195.32 L 85.17 195.77 L 86.06 195.88 L 86.29 195.71 L 86.87 195.70 L 86.64 195.25 L 86.85 194.99 L 87.10 194.99 L 87.47 194.31 L 88.32 194.52 L 89.60 194.52 L 90.31 194.61 L 90.66 194.76 L 91.18 194.71 L 91.60 195.02 L 92.29 195.17 L 92.57 195.11 L 93.37 195.70 L 94.07 195.74 L 94.45 196.23 L 94.88 196.30 L 94.94 197.14 L 94.58 197.58 L 94.12 197.96 L 94.30 198.36 L 94.16 198.51 L 94.40 199.09 L 94.27 199.59 L 94.45 200.25 L 95.05 201.10 L 95.53 201.14 L 95.38 201.67 L 95.46 202.27 L 95.64 202.60 L 95.44 202.93 L 96.19 203.42 L 96.37 203.70 L 95.77 204.17 L 95.50 204.25 L 95.48 204.59 L 95.18 204.76 L 95.68 205.89 L 96.31 206.19 L 96.32 206.38 L 96.67 206.50 L 97.11 206.39 L 97.24 206.64 L 97.64 206.93 L 97.89 207.39 L 97.60 207.67 L 97.75 208.01 L 97.60 208.35 L 97.11 208.39 L 96.49 208.64 L 95.54 208.81 L 95.38 209.27 L 94.39 209.44 L 94.23 209.12 L 93.75 208.77 L 93.47 208.76 L 92.84 209.24 L 92.59 208.98 L 92.14 209.01 L 91.93 209.29 L 91.58 209.11 L 91.23 209.20 L 90.88 209.62 L 90.99 210.01 L 90.75 210.16 L 91.08 210.48 L 91.11 210.94 L 91.43 210.84 L 91.82 211.35 L 92.33 211.24 L 92.49 211.00 L 93.28 210.81 L 93.60 211.40 L 94.15 211.41 L 94.30 211.12 L 94.71 211.10 L 94.68 211.55 L 94.95 211.79 L 95.20 212.31 L 95.66 212.28 L 95.55 211.92 L 96.36 211.74 L 96.63 211.51 L 96.95 211.62 L 98.08 211.54 L 98.05 211.77 L 98.84 212.07 L 99.29 211.95 L 99.88 212.09 L 100.59 212.16 L 100.41 212.68 L 100.76 213.00 L 100.80 213.42 L 100.71 213.98 L 101.05 214.58 L 101.53 214.35 L 101.86 214.49 L 101.87 214.04 L 102.40 214.15 L 102.87 214.05 L 103.80 214.27 L 104.67 214.72 L 105.33 215.14 L 106.12 215.93 L 105.88 216.18 L 106.58 216.81 L 107.03 217.81 L 106.58 218.40 L 106.65 218.82 L 107.24 219.43 L 107.30 219.72 L 106.79 219.68 L 106.84 220.34 L 106.33 220.40 L 106.01 220.66 L 106.14 221.33 L 106.49 221.73 L 106.96 221.88 L 107.12 221.77 L 107.67 221.82 L 107.88 222.31 L 108.38 223.00 L 108.18 223.71 L 108.32 223.87 L 108.96 223.88 L 109.03 223.74 L 109.76 223.70 L 110.46 223.87 L 110.50 223.47 L 111.14 223.59 L 111.56 223.23 L 112.01 223.28 L 112.45 222.85 L 112.86 223.13 L 112.67 223.44 L 112.76 223.71 L 112.53 223.93 L 112.82 224.42 L 113.85 224.67 L 114.64 225.64 L 115.46 225.49 L 116.06 226.04 L 116.69 226.29 L 117.01 226.08 L 117.78 226.29 L 118.00 226.51 L 119.06 227.04 L 120.22 226.82 L 120.47 226.92 L 120.71 227.30 L 121.14 227.57 L 121.71 227.64 L 122.41 227.42 L 123.02 227.49 L 123.15 227.65 L 123.66 227.70 L 123.85 227.47 L 124.19 227.77 L 124.66 227.63 L 124.89 227.27 L 125.29 227.33 L 125.49 227.04 L 125.91 227.37 L 126.05 227.29 L 126.51 227.60 L 126.54 227.33 L 126.89 227.46 L 127.50 227.32 L 127.70 227.55 L 127.90 227.33 L 128.85 227.29 L 128.58 227.58 L 128.51 227.89 L 127.88 228.44 L 127.54 228.62 L 127.61 229.15 L 127.57 230.05 L 128.02 230.55 L 128.05 231.23 L 128.21 231.38 L 128.69 231.30 L 128.96 231.70 L 128.67 232.04 L 129.06 232.51 L 129.49 232.68 L 129.29 233.07 L 129.53 233.54 L 129.86 233.64 L 129.79 234.74 L 129.62 234.90 L 129.60 235.34 L 130.17 235.47 L 130.15 236.03 L 130.31 236.32 L 130.98 236.52 L 131.51 236.51 L 131.83 236.63 L 131.92 237.15 L 132.50 236.79 L 133.02 236.83 L 133.20 237.01 L 133.23 237.47 L 133.42 237.54 L 133.98 237.21 L 134.74 237.37 L 134.81 237.58 L 135.26 237.79 L 135.10 238.07 L 135.78 238.30 L 136.50 238.73 L 136.72 239.11 L 137.34 238.78 L 137.48 239.02 L 138.17 239.32 L 138.27 239.17 L 137.87 238.64 L 138.17 238.41 L 138.51 238.51 L 139.44 238.21 L 139.62 238.40 L 140.27 238.48 L 140.60 238.27 L 141.15 238.19 L 141.52 238.35 L 142.27 238.14 L 142.99 238.07 L 143.41 237.85 L 143.78 238.06 L 144.77 238.11 L 145.02 237.83 L 145.39 237.90 L 146.07 237.82 L 146.69 237.31 L 146.50 237.01 L 146.94 236.12 L 146.75 235.82 L 147.16 235.70 L 147.07 235.20 L 147.58 234.27 L 147.37 233.98 L 147.72 233.84 L 148.09 233.91 L 148.16 233.51 L 148.48 233.43 L 148.56 233.01 L 148.37 232.72 L 148.58 232.19 L 148.45 232.06 L 148.94 231.62 L 149.35 231.73 L 150.51 230.89 L 150.44 230.58 L 150.80 230.31 L 151.89 230.26 L 150.90 229.35 L 151.10 228.76 L 151.46 228.41 L 152.01 228.40 L 152.61 227.76 L 152.74 228.09 L 153.46 228.36 L 153.65 228.23 L 154.02 228.36 L 154.34 228.17 L 154.93 228.34 L 155.29 228.64 L 155.27 228.90 L 156.00 228.95 L 156.88 228.84 L 157.40 229.06 L 157.71 228.99 L 158.12 229.20 L 158.76 229.19 L 158.52 228.95 L 158.81 228.92 L 158.82 228.47 L 159.06 228.25 L 159.52 228.19 L 159.57 228.42 L 159.97 228.63 L 160.48 228.63 L 160.77 229.11 L 161.25 229.08 L 161.45 228.84 L 161.75 228.92 L 162.26 228.74 L 162.49 228.94 L 163.07 228.96 L 163.14 229.12 L 163.72 229.53 L 163.81 229.98 L 165.61 229.98 L 166.13 229.70 L 166.83 229.61 L 167.34 229.74 L 168.11 229.61 L 168.40 229.23 L 168.77 229.25 L 169.17 229.09 L 169.41 228.79 L 169.16 228.00 L 169.21 227.74 L 169.60 227.75 L 169.76 227.57 L 170.57 227.28 L 170.82 227.10 L 171.29 227.02 L 171.59 226.74 L 171.96 226.77 L 172.26 226.62 L 172.49 226.08 L 172.34 225.67 L 172.93 225.62 L 173.26 225.03 L 173.72 224.98 L 174.06 225.15 L 174.52 225.08 L 175.38 225.24 L 175.62 225.44 L 176.44 225.81 L 176.95 225.51 L 177.10 225.28 L 177.92 225.28 L 178.13 225.43 L 178.89 225.50 L 178.77 225.82 L 179.03 226.20 L 178.93 226.74 L 179.21 227.40 L 179.93 227.62 L 180.14 228.01 L 180.54 228.29 L 181.07 228.38 L 181.83 228.09 L 182.13 228.26 L 182.69 228.30 L 183.43 228.47 L 183.88 228.46 L 184.43 228.68 L 184.82 228.65 L 184.84 228.88 L 185.44 228.78 L 185.67 228.94 L 186.25 228.68 L 187.37 228.66 L 187.49 228.74 L 188.40 228.61 L 188.62 228.24 L 189.65 228.04 L 190.39 228.27 L 190.58 228.66 L 191.05 228.49 L 191.25 228.69 L 191.67 228.47 L 192.43 228.23 L 193.04 228.13 L 193.99 227.58 L 194.29 227.51 L 194.52 227.07 L 194.24 226.71 L 194.91 226.57 L 195.50 226.32 L 196.10 226.25 L 196.89 226.02 L 197.15 226.06 L 197.86 225.71 L 199.13 225.20 L 199.68 225.07 L 199.90 224.78 L 200.50 224.62 L 201.47 224.72 L 202.77 224.24 L 203.49 224.61 L 203.83 225.16 L 205.33 225.36 L 205.82 225.78 L 206.31 225.67 L 206.72 224.84 L 207.12 224.63 L 208.36 224.35 L 208.61 224.42 L 209.32 224.29 L 209.79 224.35 L 210.69 223.64 L 210.87 223.68 L 211.26 223.33 L 211.29 223.02 L 211.66 222.66 L 211.88 222.01 L 212.12 221.97 L 212.39 221.56 L 212.21 221.38 L 212.27 220.70 L 212.90 220.59 L 213.22 220.28 L 214.03 220.30 L 214.39 219.91 L 215.04 219.76 L 215.66 219.92 L 215.83 219.70 L 216.53 219.75 L 217.57 219.52 L 218.06 219.03 L 218.99 219.03 L 219.27 218.94 L 219.52 219.33 L 219.97 219.30 L 220.11 219.11 L 220.65 218.85 L 221.22 218.98 L 221.58 218.83 L 222.23 218.97 L 222.36 218.68 L 222.69 218.43 L 223.71 218.33 L 224.29 217.98 L 224.45 217.69 L 224.70 217.77 L 225.11 217.64 L 225.46 217.80 L 225.56 218.38 L 226.60 218.50 L 227.12 218.32 L 228.27 218.06 L 228.64 218.17 L 229.25 217.99 L 229.38 218.07 L 230.22 217.97 L 230.62 217.82 L 230.88 217.52 L 231.12 217.59 L 232.01 217.54 L 232.45 217.62 L 232.94 217.36 L 233.36 217.42 L 233.56 217.20 L 233.98 217.18 L 234.85 217.31 L 234.75 217.11 L 235.31 217.15 L 235.93 217.06 L 236.22 217.43 L 236.99 217.27 L 237.46 217.61 L 237.52 218.01 L 238.21 218.24 L 239.00 219.02 L 239.18 219.03 L 239.37 218.55 L 239.74 218.39 L 240.08 218.44 L 240.65 218.27 L 241.05 218.75 L 241.56 218.78 L 241.99 219.03 L 242.48 219.14 L 242.73 219.41 L 243.48 219.35 L 243.82 218.99 L 244.45 219.65 L 244.89 219.59 L 245.31 219.69 L 246.50 220.49 L 247.58 220.74 L 247.79 220.92 L 248.79 221.09 L 249.37 221.29 L 249.91 221.22 L 250.89 221.23 L 251.17 221.35 L 251.21 220.60 L 251.76 220.31 L 251.99 219.84 L 252.07 219.37 L 251.82 219.16 L 252.23 219.18 L 252.39 219.40 L 253.29 219.57 L 253.13 219.90 L 253.84 220.11 L 254.24 220.39 L 255.16 220.40 L 256.18 220.67 L 256.74 220.69 L 257.33 220.52 L 258.14 220.74 L 258.62 220.66 L 259.83 221.16 L 260.24 221.68 L 260.60 221.88 L 261.35 221.75 L 261.93 220.95 L 262.99 221.14 L 263.44 220.86 L 263.11 220.35 L 263.14 219.77 L 262.68 219.58 L 262.90 218.95 L 262.42 218.70 L 262.68 217.56 L 262.44 217.46 L 262.56 217.13 L 262.52 216.56 L 262.27 216.46 L 261.16 216.24 L 260.40 216.27 L 260.19 215.98 L 259.47 215.98 L 259.27 215.63 L 259.36 215.26 L 259.10 215.22 L 259.26 214.71 L 259.61 214.58 L 259.32 214.22 L 259.37 213.49 L 259.65 213.49 L 260.63 212.56 L 261.36 212.51 L 261.98 212.58 L 262.53 212.42 L 262.68 212.02 L 263.46 211.91 L 263.53 211.61 L 264.02 211.42 L 264.39 211.58 L 265.30 211.56 L 265.17 211.25 L 265.30 210.83 L 265.12 210.60 L 265.05 209.99 L 264.13 209.56 L 264.17 208.85 L 263.55 208.33 L 263.56 208.00 L 263.32 207.67 L 263.18 207.04 L 262.91 206.75 L 262.35 206.58 L 261.71 206.73 L 261.23 206.30 L 260.76 206.19 L 260.93 205.72 L 260.64 205.43 L 260.28 205.33 L 259.84 204.96 L 258.46 204.46 L 257.86 204.40 L 257.79 204.22 L 257.17 204.11 L 257.14 199.18 L 257.29 198.01 L 255.95 198.09 L 255.53 198.21 L 255.44 198.90 L 254.69 198.85 L 253.21 197.79 L 253.64 197.21 L 253.13 197.17 L 252.94 196.98 L 252.94 196.37 L 253.14 196.20 L 254.36 196.23 L 255.05 196.12 L 255.44 196.32 L 256.21 196.20 L 256.61 195.91 L 256.59 195.55 L 257.23 195.50 L 257.60 195.17 L 258.09 195.16 L 258.07 194.99 L 258.48 194.74 L 258.20 194.43 L 258.62 194.33 L 259.29 194.50 L 261.11 194.28 L 261.84 194.09 L 262.07 194.12 L 264.10 193.75 L 264.66 193.52 L 265.24 193.59 L 266.78 192.89 L 267.34 192.87 L 269.21 192.48 L 269.35 192.34 L 270.51 192.28 L 271.26 192.15 L 271.28 192.00 L 272.17 191.67 L 273.64 191.33 L 274.31 191.36 L 274.57 191.13 L 275.25 190.93 L 276.46 190.96 L 276.83 190.85 L 276.77 190.56 L 276.32 190.34 L 276.31 189.96 L 276.08 189.44 L 276.03 188.50 L 276.44 188.28 L 277.96 187.14 L 279.14 185.63 L 279.64 184.14 L 280.24 181.96 L 280.77 179.00 L 281.91 177.37 L 282.05 176.53 L 282.14 174.66 L 288.13 173.87 L 290.76 173.70 L 291.39 172.37 L 291.27 171.47 L 292.30 170.40 L 293.36 169.03 L 295.16 167.44 L 298.78 164.98 L 301.02 164.65 L 301.64 163.81 L 302.18 163.30 L 303.29 162.77 L 303.73 162.69 L 304.76 162.26 L 305.02 162.21 L 305.32 162.60 L 305.68 162.77 L 305.63 163.02 L 306.18 163.87 L 306.72 164.36 L 307.09 163.55 L 307.70 163.04 L 308.23 162.76 L 309.53 161.97 L 310.42 161.66 L 311.48 161.56 L 311.92 161.43 L 312.48 161.42 L 313.96 160.83 L 314.55 160.52 L 315.19 160.01 L 315.40 159.65 L 315.41 159.30 L 314.78 158.31 L 315.82 157.60 L 314.40 156.47 L 314.41 156.20 L 314.66 155.56 L 313.75 155.33 L 314.16 154.86 L 314.22 154.23 L 314.72 153.96 L 315.05 153.60 L 315.70 153.40 L 317.98 152.32 Z">
      <title>新疆维吾尔自治区</title>
    </path>
  </g>
</svg>