<?xml version="1.0" encoding="UTF-8"?>
<svg xmlns="http://www.w3.org/2000/svg" viewBox="0 0 800 600" width="800" height="600">
  <title>台湾省</title>
  <defs>
    <style>
      .region-path {
        fill: #e6f3ff;
        stroke: #2563eb;
        stroke-width: 1.5;
        stroke-linejoin: round;
        cursor: pointer;
        transition: all 0.2s ease;
      }
      .region-path:hover {
        fill: #bfdbfe;
        stroke: #1d4ed8;
        stroke-width: 2;
      }
      .region-label {
        fill: #1e40af;
        font-family: Arial, sans-serif;
        font-size: 24px;
        font-weight: bold;
        pointer-events: none;
      }
    </style>
  </defs>
  
  <g id="710000">
    <path id="710000-land" 
          class="region-path"
          data-region-id="710000"
          data-region-name="台湾省"
          d="M 567.35 362.60 L 568.12 362.93 L 568.66 363.42 L 569.39 364.67 L 569.58 365.57 L 569.61 366.48 L 569.50 366.83 L 569.67 367.34 L 570.02 367.93 L 570.45 368.05 L 570.85 367.96 L 571.61 368.38 L 571.80 368.24 L 571.73 367.33 L 572.16 366.83 L 572.21 366.28 L 572.11 365.86 L 572.23 364.04 L 572.92 361.70 L 573.27 361.12 L 573.46 360.42 L 573.93 360.23 L 574.88 359.67 L 575.30 359.18 L 575.58 358.50 L 575.98 358.08 L 576.48 357.37 L 576.79 356.70 L 576.96 355.93 L 577.36 355.74 L 577.58 355.38 L 577.42 354.77 L 577.68 353.99 L 578.09 353.46 L 578.27 352.45 L 578.52 351.79 L 578.53 351.22 L 579.20 348.92 L 579.56 347.26 L 579.95 346.37 L 579.75 345.77 L 579.79 345.43 L 580.14 345.05 L 580.26 344.63 L 581.50 342.93 L 581.68 342.05 L 582.11 341.47 L 582.30 340.95 L 582.37 340.03 L 582.06 339.48 L 581.84 338.83 L 581.87 337.77 L 582.79 336.71 L 583.61 336.06 L 583.28 335.76 L 582.93 335.74 L 582.62 334.64 L 581.84 334.67 L 581.22 334.41 L 580.84 334.40 L 580.45 334.09 L 580.37 333.72 L 579.91 333.57 L 579.58 333.02 L 579.18 332.87 L 578.66 332.89 L 577.72 333.27 L 577.40 333.60 L 576.97 334.42 L 576.43 334.62 L 575.28 334.76 L 574.49 335.26 L 574.17 335.29 L 573.37 335.65 L 573.22 336.14 L 572.71 336.69 L 572.23 337.48 L 572.00 338.48 L 571.29 339.31 L 570.65 339.62 L 569.89 340.22 L 569.41 341.36 L 568.86 341.96 L 568.42 342.60 L 568.15 343.21 L 567.63 343.93 L 567.43 344.55 L 566.81 345.22 L 566.03 346.60 L 565.63 347.19 L 565.30 348.10 L 564.57 348.44 L 563.81 349.54 L 563.74 350.71 L 564.01 351.57 L 563.87 353.27 L 563.59 353.78 L 562.94 356.05 L 563.06 356.30 L 564.13 356.80 L 564.30 357.88 L 564.83 359.70 L 565.59 361.36 L 565.83 361.66 L 567.35 362.60 Z M 609.84 326.71 L 610.27 326.65 L 610.09 326.31 L 609.84 326.71 Z M 598.46 328.55 L 598.72 328.69 L 599.12 328.58 L 599.16 328.25 L 598.81 328.11 L 598.47 328.30 L 598.46 328.55 Z M 559.08 351.09 L 559.55 351.13 L 559.41 350.58 L 558.71 350.54 L 558.62 350.84 L 558.26 350.74 L 558.21 351.31 L 558.38 351.60 L 558.70 351.58 L 559.08 351.09 Z M 600.76 326.60 L 601.17 326.59 L 601.00 326.33 L 600.76 326.60 Z M 557.63 350.32 L 557.63 350.82 L 557.28 351.03 L 557.77 351.00 L 557.83 350.33 L 557.63 350.32 Z M 557.54 352.80 L 557.52 353.18 L 557.74 353.18 L 557.54 352.80 Z M 558.16 349.90 L 558.69 350.38 L 558.76 349.95 L 558.46 349.80 L 558.16 349.90 Z M 584.17 329.60 L 584.38 329.74 L 584.44 329.45 L 584.17 329.60 Z M 577.97 360.15 L 578.04 360.50 L 578.44 360.62 L 578.45 360.16 L 577.97 360.15 Z M 578.41 366.27 L 578.37 366.67 L 578.65 366.94 L 579.28 367.22 L 579.38 366.94 L 579.08 366.79 L 579.08 366.30 L 578.41 366.27 Z M 584.49 330.89 L 584.63 331.24 L 584.75 330.94 L 584.49 330.89 Z M 556.75 354.56 L 556.90 354.88 L 557.08 354.56 L 556.75 354.56 Z M 566.43 363.78 L 566.85 363.62 L 566.72 363.48 L 566.43 363.78 Z">
      <title>台湾省</title>
    </path>
  </g>
</svg>