<?xml version="1.0" encoding="UTF-8"?>
<svg xmlns="http://www.w3.org/2000/svg" viewBox="0 0 800 600" width="800" height="600">
  <title>香港特别行政区</title>
  <defs>
    <style>
      .region-path {
        fill: #e6f3ff;
        stroke: #2563eb;
        stroke-width: 1.5;
        stroke-linejoin: round;
        cursor: pointer;
        transition: all 0.2s ease;
      }
      .region-path:hover {
        fill: #bfdbfe;
        stroke: #1d4ed8;
        stroke-width: 2;
      }
      .region-label {
        fill: #1e40af;
        font-family: Arial, sans-serif;
        font-size: 24px;
        font-weight: bold;
        pointer-events: none;
      }
    </style>
  </defs>
  
  <g id="810000">
    <path id="810000-land" 
          class="region-path"
          data-region-id="810000"
          data-region-name="香港特别行政区"
          d="M 500.89 361.95 L 500.57 362.08 L 500.32 362.43 L 499.71 362.84 L 499.73 363.36 L 500.06 363.49 L 500.11 363.44 L 500.35 363.38 L 500.83 363.56 L 500.09 364.08 L 500.24 363.84 L 499.50 363.97 L 499.41 364.36 L 498.93 364.79 L 499.00 365.19 L 499.51 364.94 L 499.89 365.05 L 500.36 364.79 L 500.52 365.03 L 500.83 364.79 L 500.60 364.69 L 500.87 364.44 L 500.92 364.05 L 501.28 363.78 L 501.81 363.85 L 502.07 364.05 L 501.80 364.35 L 502.26 364.82 L 502.63 364.76 L 502.66 365.03 L 503.31 365.09 L 503.13 364.32 L 503.27 364.12 L 503.51 364.44 L 503.80 364.43 L 503.83 364.07 L 503.83 364.06 L 503.44 363.77 L 503.49 363.16 L 503.90 363.17 L 503.91 363.17 L 503.91 363.18 L 503.91 363.19 L 504.26 363.65 L 504.65 363.42 L 504.55 362.91 L 504.77 362.69 L 504.77 362.68 L 504.45 362.65 L 503.93 362.21 L 503.45 362.65 L 502.84 362.74 L 502.69 362.51 L 502.97 362.33 L 503.18 362.56 L 504.09 361.95 L 503.77 362.02 L 503.55 361.75 L 503.29 361.56 L 503.29 361.56 L 503.25 361.49 L 502.97 361.69 L 502.97 361.58 L 502.86 361.44 L 502.28 361.37 L 502.18 361.54 L 501.54 361.63 L 501.41 361.86 L 500.89 361.95 Z M 502.03 364.95 L 501.84 364.70 L 501.80 365.33 L 502.16 365.33 L 502.28 365.05 L 502.03 364.95 Z M 503.73 363.31 L 503.81 363.64 L 504.01 363.51 L 503.72 363.31 L 503.73 363.31 Z M 503.87 363.22 L 503.91 363.19 L 503.91 363.18 L 503.91 363.17 L 503.90 363.17 L 503.87 363.21 L 503.87 363.21 L 503.87 363.22 Z M 503.73 363.34 L 503.73 363.31 L 503.72 363.31 L 503.73 363.34 Z M 503.83 364.07 L 503.84 364.08 L 503.84 364.06 L 503.83 364.06 L 503.83 364.07 Z M 503.87 363.21 L 503.87 363.22 L 503.87 363.21 L 503.87 363.21 Z M 504.42 363.82 L 504.42 363.82 L 504.42 363.82 L 504.42 363.82 Z M 503.91 364.09 L 503.92 364.09 L 503.91 364.08 L 503.91 364.09 Z">
      <title>香港特别行政区</title>
    </path>
  </g>
</svg>